G04 #@! TF.FileFunction,Copper,L2,Bot,Signal*
%FSLAX46Y46*%
G04 Gerber Fmt 4.6, Leading zero omitted, Abs format (unit mm)*
G04 Created by KiCad (PCBNEW 4.0.6) date 12/29/17 02:02:35*
%MOMM*%
%LPD*%
G01*
G04 APERTURE LIST*
%ADD10C,0.100000*%
%ADD11C,0.200000*%
%ADD12R,1.700000X1.700000*%
%ADD13O,1.700000X1.700000*%
%ADD14R,2.500000X2.000000*%
%ADD15C,1.800000*%
%ADD16C,3.000000*%
%ADD17C,4.800000*%
%ADD18R,4.800000X4.800000*%
%ADD19C,1.500000*%
%ADD20C,0.250000*%
%ADD21C,0.500000*%
%ADD22C,0.254000*%
G04 APERTURE END LIST*
D10*
D11*
X134857143Y-100785714D02*
X134619048Y-101452381D01*
X134380952Y-100785714D01*
X133809524Y-100452381D02*
X133714285Y-100452381D01*
X133619047Y-100500000D01*
X133571428Y-100547619D01*
X133523809Y-100642857D01*
X133476190Y-100833333D01*
X133476190Y-101071429D01*
X133523809Y-101261905D01*
X133571428Y-101357143D01*
X133619047Y-101404762D01*
X133714285Y-101452381D01*
X133809524Y-101452381D01*
X133904762Y-101404762D01*
X133952381Y-101357143D01*
X134000000Y-101261905D01*
X134047619Y-101071429D01*
X134047619Y-100833333D01*
X134000000Y-100642857D01*
X133952381Y-100547619D01*
X133904762Y-100500000D01*
X133809524Y-100452381D01*
X133095238Y-100547619D02*
X133047619Y-100500000D01*
X132952381Y-100452381D01*
X132714285Y-100452381D01*
X132619047Y-100500000D01*
X132571428Y-100547619D01*
X132523809Y-100642857D01*
X132523809Y-100738095D01*
X132571428Y-100880952D01*
X133142857Y-101452381D01*
X132523809Y-101452381D01*
X144261905Y-99952381D02*
X144261905Y-98952381D01*
X143833333Y-99952381D02*
X143833333Y-99428571D01*
X143880952Y-99333333D01*
X143976190Y-99285714D01*
X144119048Y-99285714D01*
X144214286Y-99333333D01*
X144261905Y-99380952D01*
X143214286Y-99952381D02*
X143309524Y-99904762D01*
X143357143Y-99857143D01*
X143404762Y-99761905D01*
X143404762Y-99476190D01*
X143357143Y-99380952D01*
X143309524Y-99333333D01*
X143214286Y-99285714D01*
X143071428Y-99285714D01*
X142976190Y-99333333D01*
X142928571Y-99380952D01*
X142880952Y-99476190D01*
X142880952Y-99761905D01*
X142928571Y-99857143D01*
X142976190Y-99904762D01*
X143071428Y-99952381D01*
X143214286Y-99952381D01*
X142595238Y-99285714D02*
X142214286Y-99285714D01*
X142452381Y-98952381D02*
X142452381Y-99809524D01*
X142404762Y-99904762D01*
X142309524Y-99952381D01*
X142214286Y-99952381D01*
X141166666Y-99904762D02*
X141071428Y-99952381D01*
X140880952Y-99952381D01*
X140785713Y-99904762D01*
X140738094Y-99809524D01*
X140738094Y-99761905D01*
X140785713Y-99666667D01*
X140880952Y-99619048D01*
X141023809Y-99619048D01*
X141119047Y-99571429D01*
X141166666Y-99476190D01*
X141166666Y-99428571D01*
X141119047Y-99333333D01*
X141023809Y-99285714D01*
X140880952Y-99285714D01*
X140785713Y-99333333D01*
X140309523Y-99952381D02*
X140309523Y-99285714D01*
X140309523Y-98952381D02*
X140357142Y-99000000D01*
X140309523Y-99047619D01*
X140261904Y-99000000D01*
X140309523Y-98952381D01*
X140309523Y-99047619D01*
X139690476Y-99952381D02*
X139785714Y-99904762D01*
X139833333Y-99809524D01*
X139833333Y-98952381D01*
X139309523Y-99952381D02*
X139309523Y-99285714D01*
X139309523Y-98952381D02*
X139357142Y-99000000D01*
X139309523Y-99047619D01*
X139261904Y-99000000D01*
X139309523Y-98952381D01*
X139309523Y-99047619D01*
X138404761Y-99904762D02*
X138499999Y-99952381D01*
X138690476Y-99952381D01*
X138785714Y-99904762D01*
X138833333Y-99857143D01*
X138880952Y-99761905D01*
X138880952Y-99476190D01*
X138833333Y-99380952D01*
X138785714Y-99333333D01*
X138690476Y-99285714D01*
X138499999Y-99285714D01*
X138404761Y-99333333D01*
X137833333Y-99952381D02*
X137928571Y-99904762D01*
X137976190Y-99857143D01*
X138023809Y-99761905D01*
X138023809Y-99476190D01*
X137976190Y-99380952D01*
X137928571Y-99333333D01*
X137833333Y-99285714D01*
X137690475Y-99285714D01*
X137595237Y-99333333D01*
X137547618Y-99380952D01*
X137499999Y-99476190D01*
X137499999Y-99761905D01*
X137547618Y-99857143D01*
X137595237Y-99904762D01*
X137690475Y-99952381D01*
X137833333Y-99952381D01*
X137071428Y-99285714D02*
X137071428Y-99952381D01*
X137071428Y-99380952D02*
X137023809Y-99333333D01*
X136928571Y-99285714D01*
X136785713Y-99285714D01*
X136690475Y-99333333D01*
X136642856Y-99428571D01*
X136642856Y-99952381D01*
X135547618Y-99285714D02*
X135166666Y-99285714D01*
X135404761Y-99952381D02*
X135404761Y-99095238D01*
X135357142Y-99000000D01*
X135261904Y-98952381D01*
X135166666Y-98952381D01*
X134404760Y-99285714D02*
X134404760Y-99952381D01*
X134833332Y-99285714D02*
X134833332Y-99809524D01*
X134785713Y-99904762D01*
X134690475Y-99952381D01*
X134547617Y-99952381D01*
X134452379Y-99904762D01*
X134404760Y-99857143D01*
X134023808Y-99285714D02*
X133499998Y-99285714D01*
X134023808Y-99952381D01*
X133499998Y-99952381D01*
X133214284Y-99285714D02*
X132690474Y-99285714D01*
X133214284Y-99952381D01*
X132690474Y-99952381D01*
X142440476Y-98452381D02*
X142773810Y-97976190D01*
X143011905Y-98452381D02*
X143011905Y-97452381D01*
X142630952Y-97452381D01*
X142535714Y-97500000D01*
X142488095Y-97547619D01*
X142440476Y-97642857D01*
X142440476Y-97785714D01*
X142488095Y-97880952D01*
X142535714Y-97928571D01*
X142630952Y-97976190D01*
X143011905Y-97976190D01*
X142059524Y-98166667D02*
X141583333Y-98166667D01*
X142154762Y-98452381D02*
X141821429Y-97452381D01*
X141488095Y-98452381D01*
X141154762Y-98452381D02*
X141154762Y-97452381D01*
X140583333Y-98452381D01*
X140583333Y-97452381D01*
X140107143Y-98452381D02*
X140107143Y-97452381D01*
X139869048Y-97452381D01*
X139726190Y-97500000D01*
X139630952Y-97595238D01*
X139583333Y-97690476D01*
X139535714Y-97880952D01*
X139535714Y-98023810D01*
X139583333Y-98214286D01*
X139630952Y-98309524D01*
X139726190Y-98404762D01*
X139869048Y-98452381D01*
X140107143Y-98452381D01*
X139154762Y-98166667D02*
X138678571Y-98166667D01*
X139250000Y-98452381D02*
X138916667Y-97452381D01*
X138583333Y-98452381D01*
X137726190Y-97500000D02*
X137821428Y-97452381D01*
X137964285Y-97452381D01*
X138107143Y-97500000D01*
X138202381Y-97595238D01*
X138250000Y-97690476D01*
X138297619Y-97880952D01*
X138297619Y-98023810D01*
X138250000Y-98214286D01*
X138202381Y-98309524D01*
X138107143Y-98404762D01*
X137964285Y-98452381D01*
X137869047Y-98452381D01*
X137726190Y-98404762D01*
X137678571Y-98357143D01*
X137678571Y-98023810D01*
X137869047Y-98023810D01*
X137059524Y-97452381D02*
X136869047Y-97452381D01*
X136773809Y-97500000D01*
X136678571Y-97595238D01*
X136630952Y-97785714D01*
X136630952Y-98119048D01*
X136678571Y-98309524D01*
X136773809Y-98404762D01*
X136869047Y-98452381D01*
X137059524Y-98452381D01*
X137154762Y-98404762D01*
X137250000Y-98309524D01*
X137297619Y-98119048D01*
X137297619Y-97785714D01*
X137250000Y-97595238D01*
X137154762Y-97500000D01*
X137059524Y-97452381D01*
X136202381Y-98452381D02*
X136202381Y-97452381D01*
X135964286Y-97452381D01*
X135821428Y-97500000D01*
X135726190Y-97595238D01*
X135678571Y-97690476D01*
X135630952Y-97880952D01*
X135630952Y-98023810D01*
X135678571Y-98214286D01*
X135726190Y-98309524D01*
X135821428Y-98404762D01*
X135964286Y-98452381D01*
X136202381Y-98452381D01*
X134630952Y-98452381D02*
X134964286Y-97976190D01*
X135202381Y-98452381D02*
X135202381Y-97452381D01*
X134821428Y-97452381D01*
X134726190Y-97500000D01*
X134678571Y-97547619D01*
X134630952Y-97642857D01*
X134630952Y-97785714D01*
X134678571Y-97880952D01*
X134726190Y-97928571D01*
X134821428Y-97976190D01*
X135202381Y-97976190D01*
X134011905Y-97452381D02*
X133821428Y-97452381D01*
X133726190Y-97500000D01*
X133630952Y-97595238D01*
X133583333Y-97785714D01*
X133583333Y-98119048D01*
X133630952Y-98309524D01*
X133726190Y-98404762D01*
X133821428Y-98452381D01*
X134011905Y-98452381D01*
X134107143Y-98404762D01*
X134202381Y-98309524D01*
X134250000Y-98119048D01*
X134250000Y-97785714D01*
X134202381Y-97595238D01*
X134107143Y-97500000D01*
X134011905Y-97452381D01*
X133154762Y-98452381D02*
X133154762Y-97452381D01*
X132583333Y-98452381D01*
X132583333Y-97452381D01*
X61023810Y-97285714D02*
X60785715Y-97952381D01*
X60547619Y-97285714D01*
X59976191Y-96952381D02*
X59880952Y-96952381D01*
X59785714Y-97000000D01*
X59738095Y-97047619D01*
X59690476Y-97142857D01*
X59642857Y-97333333D01*
X59642857Y-97571429D01*
X59690476Y-97761905D01*
X59738095Y-97857143D01*
X59785714Y-97904762D01*
X59880952Y-97952381D01*
X59976191Y-97952381D01*
X60071429Y-97904762D01*
X60119048Y-97857143D01*
X60166667Y-97761905D01*
X60214286Y-97571429D01*
X60214286Y-97333333D01*
X60166667Y-97142857D01*
X60119048Y-97047619D01*
X60071429Y-97000000D01*
X59976191Y-96952381D01*
X59261905Y-97047619D02*
X59214286Y-97000000D01*
X59119048Y-96952381D01*
X58880952Y-96952381D01*
X58785714Y-97000000D01*
X58738095Y-97047619D01*
X58690476Y-97142857D01*
X58690476Y-97238095D01*
X58738095Y-97380952D01*
X59309524Y-97952381D01*
X58690476Y-97952381D01*
X67345238Y-94702381D02*
X67678572Y-94226190D01*
X67916667Y-94702381D02*
X67916667Y-93702381D01*
X67535714Y-93702381D01*
X67440476Y-93750000D01*
X67392857Y-93797619D01*
X67345238Y-93892857D01*
X67345238Y-94035714D01*
X67392857Y-94130952D01*
X67440476Y-94178571D01*
X67535714Y-94226190D01*
X67916667Y-94226190D01*
X66964286Y-94416667D02*
X66488095Y-94416667D01*
X67059524Y-94702381D02*
X66726191Y-93702381D01*
X66392857Y-94702381D01*
X66059524Y-94702381D02*
X66059524Y-93702381D01*
X65488095Y-94702381D01*
X65488095Y-93702381D01*
X65011905Y-94702381D02*
X65011905Y-93702381D01*
X64773810Y-93702381D01*
X64630952Y-93750000D01*
X64535714Y-93845238D01*
X64488095Y-93940476D01*
X64440476Y-94130952D01*
X64440476Y-94273810D01*
X64488095Y-94464286D01*
X64535714Y-94559524D01*
X64630952Y-94654762D01*
X64773810Y-94702381D01*
X65011905Y-94702381D01*
X64059524Y-94416667D02*
X63583333Y-94416667D01*
X64154762Y-94702381D02*
X63821429Y-93702381D01*
X63488095Y-94702381D01*
X62630952Y-93750000D02*
X62726190Y-93702381D01*
X62869047Y-93702381D01*
X63011905Y-93750000D01*
X63107143Y-93845238D01*
X63154762Y-93940476D01*
X63202381Y-94130952D01*
X63202381Y-94273810D01*
X63154762Y-94464286D01*
X63107143Y-94559524D01*
X63011905Y-94654762D01*
X62869047Y-94702381D01*
X62773809Y-94702381D01*
X62630952Y-94654762D01*
X62583333Y-94607143D01*
X62583333Y-94273810D01*
X62773809Y-94273810D01*
X61964286Y-93702381D02*
X61773809Y-93702381D01*
X61678571Y-93750000D01*
X61583333Y-93845238D01*
X61535714Y-94035714D01*
X61535714Y-94369048D01*
X61583333Y-94559524D01*
X61678571Y-94654762D01*
X61773809Y-94702381D01*
X61964286Y-94702381D01*
X62059524Y-94654762D01*
X62154762Y-94559524D01*
X62202381Y-94369048D01*
X62202381Y-94035714D01*
X62154762Y-93845238D01*
X62059524Y-93750000D01*
X61964286Y-93702381D01*
X61107143Y-94702381D02*
X61107143Y-93702381D01*
X60869048Y-93702381D01*
X60726190Y-93750000D01*
X60630952Y-93845238D01*
X60583333Y-93940476D01*
X60535714Y-94130952D01*
X60535714Y-94273810D01*
X60583333Y-94464286D01*
X60630952Y-94559524D01*
X60726190Y-94654762D01*
X60869048Y-94702381D01*
X61107143Y-94702381D01*
X59535714Y-94702381D02*
X59869048Y-94226190D01*
X60107143Y-94702381D02*
X60107143Y-93702381D01*
X59726190Y-93702381D01*
X59630952Y-93750000D01*
X59583333Y-93797619D01*
X59535714Y-93892857D01*
X59535714Y-94035714D01*
X59583333Y-94130952D01*
X59630952Y-94178571D01*
X59726190Y-94226190D01*
X60107143Y-94226190D01*
X58916667Y-93702381D02*
X58726190Y-93702381D01*
X58630952Y-93750000D01*
X58535714Y-93845238D01*
X58488095Y-94035714D01*
X58488095Y-94369048D01*
X58535714Y-94559524D01*
X58630952Y-94654762D01*
X58726190Y-94702381D01*
X58916667Y-94702381D01*
X59011905Y-94654762D01*
X59107143Y-94559524D01*
X59154762Y-94369048D01*
X59154762Y-94035714D01*
X59107143Y-93845238D01*
X59011905Y-93750000D01*
X58916667Y-93702381D01*
X58059524Y-94702381D02*
X58059524Y-93702381D01*
X57488095Y-94702381D01*
X57488095Y-93702381D01*
X67964288Y-96202381D02*
X67964288Y-95202381D01*
X67535716Y-96202381D02*
X67535716Y-95678571D01*
X67583335Y-95583333D01*
X67678573Y-95535714D01*
X67821431Y-95535714D01*
X67916669Y-95583333D01*
X67964288Y-95630952D01*
X66916669Y-96202381D02*
X67011907Y-96154762D01*
X67059526Y-96107143D01*
X67107145Y-96011905D01*
X67107145Y-95726190D01*
X67059526Y-95630952D01*
X67011907Y-95583333D01*
X66916669Y-95535714D01*
X66773811Y-95535714D01*
X66678573Y-95583333D01*
X66630954Y-95630952D01*
X66583335Y-95726190D01*
X66583335Y-96011905D01*
X66630954Y-96107143D01*
X66678573Y-96154762D01*
X66773811Y-96202381D01*
X66916669Y-96202381D01*
X66297621Y-95535714D02*
X65916669Y-95535714D01*
X66154764Y-95202381D02*
X66154764Y-96059524D01*
X66107145Y-96154762D01*
X66011907Y-96202381D01*
X65916669Y-96202381D01*
X64869049Y-96154762D02*
X64773811Y-96202381D01*
X64583335Y-96202381D01*
X64488096Y-96154762D01*
X64440477Y-96059524D01*
X64440477Y-96011905D01*
X64488096Y-95916667D01*
X64583335Y-95869048D01*
X64726192Y-95869048D01*
X64821430Y-95821429D01*
X64869049Y-95726190D01*
X64869049Y-95678571D01*
X64821430Y-95583333D01*
X64726192Y-95535714D01*
X64583335Y-95535714D01*
X64488096Y-95583333D01*
X64011906Y-96202381D02*
X64011906Y-95535714D01*
X64011906Y-95202381D02*
X64059525Y-95250000D01*
X64011906Y-95297619D01*
X63964287Y-95250000D01*
X64011906Y-95202381D01*
X64011906Y-95297619D01*
X63392859Y-96202381D02*
X63488097Y-96154762D01*
X63535716Y-96059524D01*
X63535716Y-95202381D01*
X63011906Y-96202381D02*
X63011906Y-95535714D01*
X63011906Y-95202381D02*
X63059525Y-95250000D01*
X63011906Y-95297619D01*
X62964287Y-95250000D01*
X63011906Y-95202381D01*
X63011906Y-95297619D01*
X62107144Y-96154762D02*
X62202382Y-96202381D01*
X62392859Y-96202381D01*
X62488097Y-96154762D01*
X62535716Y-96107143D01*
X62583335Y-96011905D01*
X62583335Y-95726190D01*
X62535716Y-95630952D01*
X62488097Y-95583333D01*
X62392859Y-95535714D01*
X62202382Y-95535714D01*
X62107144Y-95583333D01*
X61535716Y-96202381D02*
X61630954Y-96154762D01*
X61678573Y-96107143D01*
X61726192Y-96011905D01*
X61726192Y-95726190D01*
X61678573Y-95630952D01*
X61630954Y-95583333D01*
X61535716Y-95535714D01*
X61392858Y-95535714D01*
X61297620Y-95583333D01*
X61250001Y-95630952D01*
X61202382Y-95726190D01*
X61202382Y-96011905D01*
X61250001Y-96107143D01*
X61297620Y-96154762D01*
X61392858Y-96202381D01*
X61535716Y-96202381D01*
X60773811Y-95535714D02*
X60773811Y-96202381D01*
X60773811Y-95630952D02*
X60726192Y-95583333D01*
X60630954Y-95535714D01*
X60488096Y-95535714D01*
X60392858Y-95583333D01*
X60345239Y-95678571D01*
X60345239Y-96202381D01*
X59250001Y-95535714D02*
X58869049Y-95535714D01*
X59107144Y-96202381D02*
X59107144Y-95345238D01*
X59059525Y-95250000D01*
X58964287Y-95202381D01*
X58869049Y-95202381D01*
X58107143Y-95535714D02*
X58107143Y-96202381D01*
X58535715Y-95535714D02*
X58535715Y-96059524D01*
X58488096Y-96154762D01*
X58392858Y-96202381D01*
X58250000Y-96202381D01*
X58154762Y-96154762D01*
X58107143Y-96107143D01*
X57726191Y-95535714D02*
X57202381Y-95535714D01*
X57726191Y-96202381D01*
X57202381Y-96202381D01*
X56916667Y-95535714D02*
X56392857Y-95535714D01*
X56916667Y-96202381D01*
X56392857Y-96202381D01*
D12*
X141500000Y-48460000D03*
D13*
X141500000Y-51000000D03*
X141500000Y-53540000D03*
X141500000Y-56080000D03*
X141500000Y-58620000D03*
X141500000Y-61160000D03*
D14*
X137180000Y-46240000D03*
X133020000Y-46240000D03*
X137180000Y-43700000D03*
X133020000Y-43700000D03*
X137180000Y-41160000D03*
X133020000Y-41160000D03*
D12*
X55000000Y-48440000D03*
D13*
X55000000Y-50980000D03*
X55000000Y-53520000D03*
X55000000Y-56060000D03*
X55000000Y-58600000D03*
X55000000Y-61140000D03*
D15*
X127000000Y-78250000D03*
X129500000Y-78250000D03*
X132000000Y-78250000D03*
D16*
X124750000Y-70750000D03*
X134250000Y-70750000D03*
D15*
X127000000Y-62250000D03*
X129500000Y-62250000D03*
X132000000Y-62250000D03*
D16*
X124750000Y-54750000D03*
X134250000Y-54750000D03*
D15*
X146950000Y-78300000D03*
X149450000Y-78300000D03*
X151950000Y-78300000D03*
D16*
X144700000Y-70800000D03*
X154200000Y-70800000D03*
D15*
X147000000Y-62250000D03*
X149500000Y-62250000D03*
X152000000Y-62250000D03*
D16*
X144750000Y-54750000D03*
X154250000Y-54750000D03*
D12*
X67000000Y-68790000D03*
D13*
X67000000Y-66250000D03*
D17*
X66100000Y-59000000D03*
D18*
X60000000Y-59000000D03*
D17*
X63810000Y-53920000D03*
D16*
X41300000Y-101450000D03*
X47650000Y-101450000D03*
X54000000Y-90000000D03*
X54000000Y-101450000D03*
X41300000Y-90000000D03*
X47650000Y-90000000D03*
X64300000Y-73850000D03*
X57950000Y-73850000D03*
X51600000Y-85300000D03*
X51600000Y-73850000D03*
X64300000Y-85300000D03*
X57950000Y-85300000D03*
D12*
X140000000Y-70000000D03*
D13*
X140000000Y-67460000D03*
D12*
X145600000Y-46540000D03*
D13*
X145600000Y-44000000D03*
X145600000Y-41460000D03*
D19*
X52699242Y-62205745D03*
X44400000Y-48000000D03*
X42700000Y-83400000D03*
X52300000Y-51000000D03*
X58280000Y-50980000D03*
X44400000Y-50200000D03*
X49400000Y-70600000D03*
X64700000Y-70300000D03*
X52100000Y-48400000D03*
X141700000Y-91300000D03*
X131300000Y-92800000D03*
X145700000Y-91300000D03*
X139000000Y-89000000D03*
X146375000Y-80500000D03*
X134700000Y-78600000D03*
X148298529Y-89098529D03*
X138478819Y-56378819D03*
X138500000Y-60000000D03*
X135100000Y-83500000D03*
X145800000Y-88199997D03*
X126400000Y-48100003D03*
X138600000Y-49100000D03*
X133000000Y-48700000D03*
X130100000Y-47300000D03*
X140900000Y-39400000D03*
X125003013Y-63823307D03*
X136400000Y-58200000D03*
X45900000Y-73100000D03*
X40974999Y-85225001D03*
X52800000Y-53500000D03*
X41910140Y-71310140D03*
X51000000Y-56800000D03*
X38400000Y-71000000D03*
X52400000Y-58600004D03*
X58700000Y-62350002D03*
X134100000Y-63700000D03*
X126400000Y-46400000D03*
X140900000Y-41100003D03*
X154475000Y-49800000D03*
X144100000Y-50000000D03*
X130100000Y-81800000D03*
X144100000Y-82200000D03*
X145500000Y-63700000D03*
X150000000Y-81400000D03*
X143800000Y-63700000D03*
X153975000Y-48100965D03*
X151600000Y-46400000D03*
X153400000Y-46500000D03*
X64600000Y-64900000D03*
X142600000Y-78200000D03*
X138600000Y-72000000D03*
X139200000Y-62600000D03*
X133500000Y-80125309D03*
X63800000Y-49300000D03*
D20*
X125750000Y-99750000D02*
X124750000Y-100750000D01*
X124750000Y-100750000D02*
X124750000Y-102000000D01*
X128000000Y-102000000D02*
X130000000Y-102000000D01*
X124750000Y-102000000D02*
X126000000Y-102000000D01*
X127000000Y-101000000D02*
X128000000Y-102000000D01*
X130000000Y-102000000D02*
X130000000Y-99750000D01*
X126000000Y-102000000D02*
X127000000Y-101000000D01*
X124250000Y-102500000D02*
X130500000Y-102500000D01*
X124250000Y-96500000D02*
X124250000Y-102500000D01*
X130000000Y-99750000D02*
X127250000Y-97000000D01*
X130000000Y-98250000D02*
X128750000Y-97000000D01*
X130000000Y-99000000D02*
X128000000Y-97000000D01*
X130000000Y-97500000D02*
X129504010Y-97004010D01*
X130500000Y-96500000D02*
X124250000Y-96500000D01*
X127250000Y-97000000D02*
X125500000Y-97000000D01*
X130500000Y-102500000D02*
X130500000Y-96500000D01*
X125500000Y-97000000D02*
X124750000Y-97750000D01*
X124750000Y-97750000D02*
X124750000Y-98750000D01*
X124750000Y-98750000D02*
X125750000Y-99750000D01*
X62750000Y-102500000D02*
X64000000Y-102500000D01*
X62750000Y-101250000D02*
X62750000Y-102500000D01*
X63750000Y-100250000D02*
X62750000Y-101250000D01*
X64000000Y-102500000D02*
X65000000Y-101500000D01*
X62250000Y-103000000D02*
X68250000Y-103000000D01*
X68250000Y-97000000D02*
X62250000Y-97000000D01*
X68250000Y-103000000D02*
X68250000Y-97000000D01*
X62250000Y-97000000D02*
X62250000Y-103000000D01*
X63750000Y-100233960D02*
X63750000Y-100250000D01*
X67745990Y-98000000D02*
X67250000Y-97504010D01*
X67745990Y-98750000D02*
X66500000Y-97504010D01*
X67745990Y-99500000D02*
X65750000Y-97504010D01*
X67750000Y-102500000D02*
X67750000Y-100254010D01*
X66000000Y-102500000D02*
X67750000Y-102500000D01*
X65000000Y-101500000D02*
X66000000Y-102500000D01*
X67750000Y-100254010D02*
X65000000Y-97504010D01*
X62758020Y-99241980D02*
X63750000Y-100233960D01*
X65000000Y-97504010D02*
X63504010Y-97504010D01*
X63504010Y-97504010D02*
X62758020Y-98250000D01*
X62758020Y-98250000D02*
X62758020Y-99241980D01*
D21*
X54043500Y-63550003D02*
X59200000Y-63550003D01*
X59200000Y-63550003D02*
X60049997Y-63550003D01*
X64300000Y-73850000D02*
X64300000Y-71728680D01*
X64300000Y-71728680D02*
X59200000Y-66628680D01*
X59200000Y-66628680D02*
X59200000Y-63550003D01*
X60600000Y-63000000D02*
X60000000Y-62400000D01*
X60000000Y-62400000D02*
X60000000Y-59000000D01*
X60049997Y-63550003D02*
X60600000Y-63000000D01*
X52699242Y-62205745D02*
X54043500Y-63550003D01*
X52699242Y-62205745D02*
X53200000Y-62706503D01*
X44400000Y-48000000D02*
X49300000Y-48000000D01*
X49300000Y-48000000D02*
X52300000Y-51000000D01*
X55000000Y-58600000D02*
X59600000Y-58600000D01*
X59600000Y-58600000D02*
X60000000Y-59000000D01*
X54800000Y-58400000D02*
X55000000Y-58600000D01*
X41300000Y-101450000D02*
X41300000Y-99328680D01*
X41300000Y-99328680D02*
X41300000Y-90000000D01*
X64300000Y-73850000D02*
X64300000Y-85300000D01*
X48400000Y-79800000D02*
X44800000Y-83400000D01*
X44800000Y-83400000D02*
X42700000Y-83400000D01*
X64300000Y-85300000D02*
X58800000Y-79800000D01*
X58800000Y-79800000D02*
X48400000Y-79800000D01*
X42700000Y-83400000D02*
X41023998Y-83400000D01*
X41023998Y-83400000D02*
X39774998Y-84649000D01*
X39774998Y-84649000D02*
X39774998Y-88474998D01*
X39774998Y-88474998D02*
X39800001Y-88500001D01*
X39800001Y-88500001D02*
X41300000Y-90000000D01*
X52300000Y-51000000D02*
X54980000Y-51000000D01*
X54980000Y-51000000D02*
X55000000Y-50980000D01*
X60000000Y-52700000D02*
X58280000Y-50980000D01*
X58280000Y-50980000D02*
X55000000Y-50980000D01*
X60000000Y-59000000D02*
X60000000Y-52700000D01*
X49400000Y-70600000D02*
X44400000Y-65600000D01*
X44400000Y-65600000D02*
X44400000Y-50200000D01*
X67000000Y-68790000D02*
X65210000Y-68790000D01*
X65210000Y-68790000D02*
X64700000Y-69300000D01*
X64700000Y-69300000D02*
X64700000Y-70300000D01*
X55000000Y-48440000D02*
X52140000Y-48440000D01*
X52140000Y-48440000D02*
X52100000Y-48400000D01*
X145700000Y-91300000D02*
X141700000Y-91300000D01*
X141700000Y-91300000D02*
X133700000Y-91300000D01*
X132400000Y-91300000D02*
X131300000Y-92400000D01*
X133700000Y-91300000D02*
X132400000Y-91300000D01*
X131300000Y-92400000D02*
X131300000Y-92800000D01*
D20*
X134700000Y-81200309D02*
X132200309Y-81200309D01*
X132200309Y-81200309D02*
X131400000Y-80400000D01*
X131400000Y-80400000D02*
X127600000Y-80400000D01*
X140610659Y-84900000D02*
X139000000Y-84900000D01*
X139000000Y-84900000D02*
X131608998Y-84900000D01*
X139000000Y-89000000D02*
X139000000Y-87939340D01*
X139000000Y-87939340D02*
X139000000Y-84900000D01*
X141349999Y-86700000D02*
X141349999Y-85639340D01*
X141349999Y-85639340D02*
X140610659Y-84900000D01*
X131608998Y-84900000D02*
X127600000Y-80891002D01*
X127600000Y-80891002D02*
X127600000Y-80400000D01*
X144900000Y-79700000D02*
X144700000Y-79900000D01*
X144700000Y-79900000D02*
X143399691Y-81200309D01*
X146375000Y-80500000D02*
X145314340Y-80500000D01*
X145314340Y-80500000D02*
X144714340Y-79900000D01*
X144714340Y-79900000D02*
X144700000Y-79900000D01*
X138500000Y-60000000D02*
X137750001Y-60749999D01*
X137750001Y-60749999D02*
X137750001Y-71258997D01*
X137750001Y-71258997D02*
X136300000Y-72708998D01*
X136300000Y-77000000D02*
X134700000Y-78600000D01*
X136300000Y-72708998D02*
X136300000Y-77000000D01*
X146950000Y-78300000D02*
X145600000Y-78300000D01*
X145600000Y-78300000D02*
X144900000Y-79000000D01*
X144900000Y-79000000D02*
X144900000Y-79700000D01*
X143399691Y-81200309D02*
X142329632Y-81200309D01*
X127600000Y-80400000D02*
X127000000Y-79800000D01*
X127000000Y-79800000D02*
X127000000Y-78250000D01*
X142329632Y-81200309D02*
X134700000Y-81200309D01*
X134700000Y-78600000D02*
X134700000Y-79660660D01*
X134700000Y-79660660D02*
X134700000Y-81200309D01*
X142649999Y-87449999D02*
X145048528Y-89848528D01*
X145048528Y-89848528D02*
X147548530Y-89848528D01*
X147548530Y-89848528D02*
X148298529Y-89098529D01*
X141349999Y-86700000D02*
X142099998Y-87449999D01*
X142099998Y-87449999D02*
X142649999Y-87449999D01*
X138500000Y-60000000D02*
X138500000Y-56400000D01*
X138500000Y-56400000D02*
X138478819Y-56378819D01*
X135100000Y-83500000D02*
X141100003Y-83500000D01*
X141100003Y-83500000D02*
X142300003Y-84700000D01*
X142300003Y-84700000D02*
X145800000Y-88199997D01*
X137180000Y-43700000D02*
X135400000Y-43700000D01*
X135100000Y-44000000D02*
X135100000Y-48300000D01*
X135400000Y-43700000D02*
X135100000Y-44000000D01*
X129100000Y-49000000D02*
X127600000Y-47500000D01*
X127600000Y-47500000D02*
X127000003Y-47500000D01*
X135100000Y-48300000D02*
X133500000Y-49900000D01*
X133500000Y-49900000D02*
X132500000Y-49900000D01*
X127000003Y-47500000D02*
X126400000Y-48100003D01*
X132500000Y-49900000D02*
X131600000Y-49000000D01*
X131600000Y-49000000D02*
X129100000Y-49000000D01*
X137180000Y-46240000D02*
X137180000Y-47680000D01*
X137180000Y-47680000D02*
X138600000Y-49100000D01*
X133020000Y-46240000D02*
X133020000Y-48680000D01*
X133020000Y-48680000D02*
X133000000Y-48700000D01*
X130100000Y-47300000D02*
X130600000Y-46800000D01*
X130600000Y-46800000D02*
X130600000Y-41900000D01*
X130600000Y-41900000D02*
X131340000Y-41160000D01*
X131340000Y-41160000D02*
X133020000Y-41160000D01*
X140900000Y-39400000D02*
X133530000Y-39400000D01*
X133530000Y-39400000D02*
X133020000Y-39910000D01*
X133020000Y-39910000D02*
X133020000Y-41160000D01*
X125426693Y-63823307D02*
X125003013Y-63823307D01*
X127000000Y-62250000D02*
X125426693Y-63823307D01*
X136400000Y-58200000D02*
X135339340Y-58200000D01*
X135339340Y-58200000D02*
X134139340Y-59400000D01*
X134139340Y-59400000D02*
X128000000Y-59400000D01*
X128000000Y-59400000D02*
X127000000Y-60400000D01*
X127000000Y-60400000D02*
X127000000Y-62250000D01*
X51600000Y-73850000D02*
X46650000Y-73850000D01*
X46650000Y-73850000D02*
X45900000Y-73100000D01*
X40974999Y-85225001D02*
X46725001Y-85225001D01*
X46725001Y-85225001D02*
X50900000Y-89400000D01*
X50900000Y-89400000D02*
X50900000Y-94700000D01*
X50900000Y-94700000D02*
X54000000Y-97800000D01*
X54000000Y-97800000D02*
X54000000Y-101450000D01*
X52800000Y-53500000D02*
X54980000Y-53500000D01*
X54980000Y-53500000D02*
X55000000Y-53520000D01*
X51000000Y-56800000D02*
X54260000Y-56800000D01*
X54260000Y-56800000D02*
X55000000Y-56060000D01*
X41910140Y-71310140D02*
X38710140Y-71310140D01*
X38710140Y-71310140D02*
X38400000Y-71000000D01*
X55000000Y-61140000D02*
X52460004Y-58600004D01*
X52460004Y-58600004D02*
X52400000Y-58600004D01*
X58700000Y-62350002D02*
X57250002Y-62350002D01*
X57250002Y-62350002D02*
X56040000Y-61140000D01*
X56040000Y-61140000D02*
X55000000Y-61140000D01*
X132000000Y-62250000D02*
X132000000Y-63522792D01*
X132000000Y-63522792D02*
X132177208Y-63700000D01*
X132177208Y-63700000D02*
X133039340Y-63700000D01*
X133039340Y-63700000D02*
X134100000Y-63700000D01*
X129400000Y-48500000D02*
X127300000Y-46400000D01*
X127300000Y-46400000D02*
X126400000Y-46400000D01*
X130491002Y-48500000D02*
X129400000Y-48500000D01*
X133020000Y-43700000D02*
X131520000Y-43700000D01*
X131520000Y-43700000D02*
X131175001Y-44044999D01*
X131175001Y-44044999D02*
X131175001Y-47816001D01*
X131175001Y-47816001D02*
X130491002Y-48500000D01*
X137180000Y-41160000D02*
X140840003Y-41160000D01*
X140840003Y-41160000D02*
X140900000Y-41100003D01*
X154475000Y-49800000D02*
X144300000Y-49800000D01*
X144300000Y-49800000D02*
X144100000Y-50000000D01*
X130100000Y-81800000D02*
X135900000Y-81800000D01*
X135900000Y-81800000D02*
X136900000Y-82800000D01*
X136900000Y-82800000D02*
X143500000Y-82800000D01*
X143500000Y-82800000D02*
X144100000Y-82200000D01*
X151322792Y-64200000D02*
X146000000Y-64200000D01*
X146000000Y-64200000D02*
X145500000Y-63700000D01*
X152000000Y-62250000D02*
X152000000Y-63522792D01*
X152000000Y-63522792D02*
X151322792Y-64200000D01*
X149450000Y-78300000D02*
X151950000Y-78300000D01*
X148550001Y-69750001D02*
X143800000Y-65000000D01*
X143800000Y-65000000D02*
X143800000Y-63700000D01*
X149450000Y-78300000D02*
X148550001Y-77400001D01*
X148550001Y-77400001D02*
X148550001Y-69750001D01*
X149450000Y-78300000D02*
X149450000Y-80850000D01*
X149450000Y-80850000D02*
X150000000Y-81400000D01*
X147000000Y-62250000D02*
X145250000Y-62250000D01*
X145250000Y-62250000D02*
X143800000Y-63700000D01*
X153975000Y-48100965D02*
X151073553Y-48100965D01*
X151073553Y-48100965D02*
X150272608Y-47300020D01*
X148003590Y-46540000D02*
X145600000Y-46540000D01*
X150272608Y-47300020D02*
X148763610Y-47300020D01*
X148763610Y-47300020D02*
X148003590Y-46540000D01*
X145660000Y-46600000D02*
X145600000Y-46540000D01*
X151600000Y-46400000D02*
X149300000Y-46400000D01*
X149300000Y-46400000D02*
X148300000Y-45400000D01*
X148300000Y-45400000D02*
X148300000Y-42400000D01*
X148300000Y-42400000D02*
X147360000Y-41460000D01*
X147360000Y-41460000D02*
X145600000Y-41460000D01*
X150459008Y-46850010D02*
X148950010Y-46850010D01*
X148950010Y-46850010D02*
X147800000Y-45700000D01*
X152400000Y-47500000D02*
X151108998Y-47500000D01*
X151108998Y-47500000D02*
X150459008Y-46850010D01*
X153400000Y-46500000D02*
X152400000Y-47500000D01*
X147800000Y-45700000D02*
X147800000Y-44900000D01*
X147800000Y-44900000D02*
X146900000Y-44000000D01*
X146900000Y-44000000D02*
X145600000Y-44000000D01*
X67000000Y-66250000D02*
X65650000Y-64900000D01*
X65650000Y-64900000D02*
X64600000Y-64900000D01*
X142700000Y-63200000D02*
X142700000Y-66000000D01*
X142700000Y-66000000D02*
X142700000Y-66500000D01*
X142600000Y-78200000D02*
X142600000Y-77139340D01*
X142600000Y-77139340D02*
X142700000Y-77039340D01*
X142700000Y-77039340D02*
X142700000Y-66000000D01*
X149500000Y-62250000D02*
X147750000Y-60500000D01*
X147750000Y-60500000D02*
X145400000Y-60500000D01*
X145400000Y-60500000D02*
X142700000Y-63200000D01*
X140000000Y-70000000D02*
X140000000Y-71100000D01*
X140000000Y-71100000D02*
X139100000Y-72000000D01*
X139100000Y-72000000D02*
X138600000Y-72000000D01*
X140000000Y-67460000D02*
X140000000Y-63400000D01*
X140000000Y-63400000D02*
X139200000Y-62600000D01*
X129877208Y-79900000D02*
X133274691Y-79900000D01*
X133274691Y-79900000D02*
X133500000Y-80125309D01*
X129500000Y-78250000D02*
X129500000Y-79522792D01*
X129500000Y-79522792D02*
X129877208Y-79900000D01*
X129500000Y-62250000D02*
X129500000Y-72800000D01*
X129500000Y-72800000D02*
X129500000Y-73250000D01*
X129500000Y-74477208D02*
X129500000Y-72800000D01*
X132000000Y-78250000D02*
X132000000Y-76977208D01*
X132000000Y-76977208D02*
X129500000Y-74477208D01*
D21*
X63810000Y-53920000D02*
X63810000Y-57314112D01*
X63810000Y-57314112D02*
X65495888Y-59000000D01*
X65495888Y-59000000D02*
X66100000Y-59000000D01*
X63810000Y-53920000D02*
X63810000Y-49310000D01*
X63810000Y-49310000D02*
X63800000Y-49300000D01*
D22*
G36*
X61490000Y-45500000D02*
X61544046Y-45771705D01*
X61697954Y-46002046D01*
X61928295Y-46155954D01*
X62200000Y-46210000D01*
X68490000Y-46210000D01*
X68490000Y-57098287D01*
X67821434Y-56428553D01*
X66706347Y-55965528D01*
X66057354Y-55964961D01*
X66381447Y-55641434D01*
X66844472Y-54526347D01*
X66845526Y-53318950D01*
X66384448Y-52203057D01*
X65531434Y-51348553D01*
X64695000Y-51001235D01*
X64695000Y-50363540D01*
X64973461Y-50085564D01*
X65184759Y-49576702D01*
X65185240Y-49025715D01*
X64974831Y-48516485D01*
X64585564Y-48126539D01*
X64076702Y-47915241D01*
X63525715Y-47914760D01*
X63016485Y-48125169D01*
X62626539Y-48514436D01*
X62415241Y-49023298D01*
X62414760Y-49574285D01*
X62625169Y-50083515D01*
X62925000Y-50383869D01*
X62925000Y-51001800D01*
X62093057Y-51345552D01*
X61238553Y-52198566D01*
X60775528Y-53313653D01*
X60774474Y-54521050D01*
X61235552Y-55636943D01*
X61563037Y-55965000D01*
X60285750Y-55965000D01*
X60127000Y-56123750D01*
X60127000Y-58873000D01*
X62876250Y-58873000D01*
X63035000Y-58714250D01*
X63035000Y-57716592D01*
X63101749Y-57816489D01*
X63184210Y-57939902D01*
X63233482Y-57989174D01*
X63065528Y-58393653D01*
X63064474Y-59601050D01*
X63525552Y-60716943D01*
X64378566Y-61571447D01*
X65493653Y-62034472D01*
X66701050Y-62035526D01*
X67816943Y-61574448D01*
X68490000Y-60902565D01*
X68490000Y-66128876D01*
X68401054Y-65681715D01*
X68079147Y-65199946D01*
X67597378Y-64878039D01*
X67029093Y-64765000D01*
X66970907Y-64765000D01*
X66653031Y-64828229D01*
X66187401Y-64362599D01*
X65940839Y-64197852D01*
X65796596Y-64169160D01*
X65774831Y-64116485D01*
X65385564Y-63726539D01*
X64876702Y-63515241D01*
X64325715Y-63514760D01*
X63816485Y-63725169D01*
X63426539Y-64114436D01*
X63215241Y-64623298D01*
X63214760Y-65174285D01*
X63425169Y-65683515D01*
X63814436Y-66073461D01*
X64323298Y-66284759D01*
X64874285Y-66285240D01*
X65383515Y-66074831D01*
X65554752Y-65903892D01*
X65485907Y-66250000D01*
X65598946Y-66818285D01*
X65920853Y-67300054D01*
X65962452Y-67327850D01*
X65914683Y-67336838D01*
X65698559Y-67475910D01*
X65553569Y-67688110D01*
X65509648Y-67905000D01*
X65210005Y-67905000D01*
X65210000Y-67904999D01*
X64927516Y-67961190D01*
X64871325Y-67972367D01*
X64584210Y-68164210D01*
X64584208Y-68164213D01*
X64074210Y-68674210D01*
X63882367Y-68961325D01*
X63882367Y-68961326D01*
X63833247Y-69208262D01*
X63526539Y-69514436D01*
X63315241Y-70023298D01*
X63314760Y-70574285D01*
X63525169Y-71083515D01*
X63914436Y-71473461D01*
X64423298Y-71684759D01*
X64974285Y-71685240D01*
X65483515Y-71474831D01*
X65873461Y-71085564D01*
X66084759Y-70576702D01*
X66085023Y-70274282D01*
X66150000Y-70287440D01*
X67850000Y-70287440D01*
X68085317Y-70243162D01*
X68301441Y-70104090D01*
X68446431Y-69891890D01*
X68490000Y-69676740D01*
X68490000Y-92815000D01*
X56615000Y-92815000D01*
X56615000Y-94315000D01*
X55615000Y-94315000D01*
X55615000Y-97285000D01*
X57865000Y-97285000D01*
X57865000Y-99035000D01*
X61490000Y-99035000D01*
X61490000Y-103000000D01*
X61507902Y-103090000D01*
X55379119Y-103090000D01*
X55808909Y-102660959D01*
X56134628Y-101876541D01*
X56135370Y-101027185D01*
X55811020Y-100242200D01*
X55210959Y-99641091D01*
X54760000Y-99453836D01*
X54760000Y-97800000D01*
X54702148Y-97509161D01*
X54537401Y-97262599D01*
X51660000Y-94385198D01*
X51660000Y-90422815D01*
X51864630Y-90422815D01*
X52188980Y-91207800D01*
X52789041Y-91808909D01*
X53573459Y-92134628D01*
X54422815Y-92135370D01*
X55207800Y-91811020D01*
X55808909Y-91210959D01*
X56134628Y-90426541D01*
X56135370Y-89577185D01*
X55811020Y-88792200D01*
X55210959Y-88191091D01*
X54426541Y-87865372D01*
X53577185Y-87864630D01*
X52792200Y-88188980D01*
X52191091Y-88789041D01*
X51865372Y-89573459D01*
X51864630Y-90422815D01*
X51660000Y-90422815D01*
X51660000Y-89400000D01*
X51602148Y-89109161D01*
X51602148Y-89109160D01*
X51437401Y-88862599D01*
X48297617Y-85722815D01*
X49464630Y-85722815D01*
X49788980Y-86507800D01*
X50389041Y-87108909D01*
X51173459Y-87434628D01*
X52022815Y-87435370D01*
X52807800Y-87111020D01*
X53408909Y-86510959D01*
X53734628Y-85726541D01*
X53734631Y-85722815D01*
X55814630Y-85722815D01*
X56138980Y-86507800D01*
X56739041Y-87108909D01*
X57523459Y-87434628D01*
X58372815Y-87435370D01*
X59157800Y-87111020D01*
X59758909Y-86510959D01*
X59829329Y-86341369D01*
X60172637Y-86685278D01*
X60773352Y-86934716D01*
X61423795Y-86935284D01*
X61717396Y-86813970D01*
X62965635Y-86813970D01*
X63125418Y-87132739D01*
X63916187Y-87442723D01*
X64765387Y-87426497D01*
X65474582Y-87132739D01*
X65634365Y-86813970D01*
X64300000Y-85479605D01*
X62965635Y-86813970D01*
X61717396Y-86813970D01*
X62024943Y-86686894D01*
X62400086Y-86312406D01*
X62467261Y-86474582D01*
X62786030Y-86634365D01*
X64120395Y-85300000D01*
X64479605Y-85300000D01*
X65813970Y-86634365D01*
X66132739Y-86474582D01*
X66442723Y-85683813D01*
X66426497Y-84834613D01*
X66132739Y-84125418D01*
X65813970Y-83965635D01*
X64479605Y-85300000D01*
X64120395Y-85300000D01*
X62786030Y-83965635D01*
X62467261Y-84125418D01*
X62402530Y-84290546D01*
X62027363Y-83914722D01*
X61717438Y-83786030D01*
X62965635Y-83786030D01*
X64300000Y-85120395D01*
X65634365Y-83786030D01*
X65474582Y-83467261D01*
X64683813Y-83157277D01*
X63834613Y-83173503D01*
X63125418Y-83467261D01*
X62965635Y-83786030D01*
X61717438Y-83786030D01*
X61426648Y-83665284D01*
X60776205Y-83664716D01*
X60175057Y-83913106D01*
X59829537Y-84258023D01*
X59761020Y-84092200D01*
X59160959Y-83491091D01*
X58376541Y-83165372D01*
X57527185Y-83164630D01*
X56742200Y-83488980D01*
X56141091Y-84089041D01*
X55815372Y-84873459D01*
X55814630Y-85722815D01*
X53734631Y-85722815D01*
X53735370Y-84877185D01*
X53411020Y-84092200D01*
X52810959Y-83491091D01*
X52026541Y-83165372D01*
X51177185Y-83164630D01*
X50392200Y-83488980D01*
X49791091Y-84089041D01*
X49465372Y-84873459D01*
X49464630Y-85722815D01*
X48297617Y-85722815D01*
X47262402Y-84687600D01*
X47015840Y-84522853D01*
X46725001Y-84465001D01*
X42159546Y-84465001D01*
X42149830Y-84441486D01*
X41760563Y-84051540D01*
X41251701Y-83840242D01*
X40700714Y-83839761D01*
X40191484Y-84050170D01*
X39801538Y-84439437D01*
X39590240Y-84948299D01*
X39589759Y-85499286D01*
X39800168Y-86008516D01*
X40189435Y-86398462D01*
X40698297Y-86609760D01*
X41249284Y-86610241D01*
X41758514Y-86399832D01*
X42148460Y-86010565D01*
X42159075Y-85985001D01*
X46410199Y-85985001D01*
X48442551Y-88017353D01*
X48076541Y-87865372D01*
X47227185Y-87864630D01*
X46442200Y-88188980D01*
X45841091Y-88789041D01*
X45770671Y-88958631D01*
X45427363Y-88614722D01*
X44826648Y-88365284D01*
X44176205Y-88364716D01*
X43575057Y-88613106D01*
X43199914Y-88987594D01*
X43132739Y-88825418D01*
X42813970Y-88665635D01*
X41479605Y-90000000D01*
X42813970Y-91334365D01*
X43132739Y-91174582D01*
X43197470Y-91009454D01*
X43572637Y-91385278D01*
X44173352Y-91634716D01*
X44823795Y-91635284D01*
X45424943Y-91386894D01*
X45770463Y-91041977D01*
X45838980Y-91207800D01*
X46439041Y-91808909D01*
X47223459Y-92134628D01*
X48072815Y-92135370D01*
X48857800Y-91811020D01*
X49458909Y-91210959D01*
X49784628Y-90426541D01*
X49785370Y-89577185D01*
X49632563Y-89207365D01*
X50140000Y-89714802D01*
X50140000Y-94700000D01*
X50197852Y-94990839D01*
X50362599Y-95237401D01*
X53240000Y-98114802D01*
X53240000Y-99453952D01*
X52984818Y-99559392D01*
X52985370Y-98927185D01*
X52661020Y-98142200D01*
X52060959Y-97541091D01*
X51276541Y-97215372D01*
X50427185Y-97214630D01*
X49642200Y-97538980D01*
X49041091Y-98139041D01*
X48715372Y-98923459D01*
X48714798Y-99580400D01*
X48076541Y-99315372D01*
X47227185Y-99314630D01*
X46442200Y-99638980D01*
X45841091Y-100239041D01*
X45770671Y-100408631D01*
X45427363Y-100064722D01*
X44826648Y-99815284D01*
X44176205Y-99814716D01*
X43575057Y-100063106D01*
X43199914Y-100437594D01*
X43132739Y-100275418D01*
X42813970Y-100115635D01*
X41479605Y-101450000D01*
X42813970Y-102784365D01*
X43132739Y-102624582D01*
X43197470Y-102459454D01*
X43572637Y-102835278D01*
X44173352Y-103084716D01*
X44823795Y-103085284D01*
X45424943Y-102836894D01*
X45770463Y-102491977D01*
X45838980Y-102657800D01*
X46270426Y-103090000D01*
X42571192Y-103090000D01*
X42634365Y-102963970D01*
X41300000Y-101629605D01*
X39965635Y-102963970D01*
X40028808Y-103090000D01*
X37210000Y-103090000D01*
X37210000Y-101066187D01*
X39157277Y-101066187D01*
X39173503Y-101915387D01*
X39467261Y-102624582D01*
X39786030Y-102784365D01*
X41120395Y-101450000D01*
X39786030Y-100115635D01*
X39467261Y-100275418D01*
X39157277Y-101066187D01*
X37210000Y-101066187D01*
X37210000Y-99936030D01*
X39965635Y-99936030D01*
X41300000Y-101270395D01*
X42634365Y-99936030D01*
X42474582Y-99617261D01*
X41683813Y-99307277D01*
X40834613Y-99323503D01*
X40125418Y-99617261D01*
X39965635Y-99936030D01*
X37210000Y-99936030D01*
X37210000Y-91513970D01*
X39965635Y-91513970D01*
X40125418Y-91832739D01*
X40916187Y-92142723D01*
X41765387Y-92126497D01*
X42474582Y-91832739D01*
X42634365Y-91513970D01*
X41300000Y-90179605D01*
X39965635Y-91513970D01*
X37210000Y-91513970D01*
X37210000Y-89616187D01*
X39157277Y-89616187D01*
X39173503Y-90465387D01*
X39467261Y-91174582D01*
X39786030Y-91334365D01*
X41120395Y-90000000D01*
X39786030Y-88665635D01*
X39467261Y-88825418D01*
X39157277Y-89616187D01*
X37210000Y-89616187D01*
X37210000Y-88486030D01*
X39965635Y-88486030D01*
X41300000Y-89820395D01*
X42634365Y-88486030D01*
X42474582Y-88167261D01*
X41683813Y-87857277D01*
X40834613Y-87873503D01*
X40125418Y-88167261D01*
X39965635Y-88486030D01*
X37210000Y-88486030D01*
X37210000Y-73374285D01*
X44514760Y-73374285D01*
X44725169Y-73883515D01*
X45114436Y-74273461D01*
X45623298Y-74484759D01*
X46174285Y-74485240D01*
X46226646Y-74463605D01*
X46359160Y-74552148D01*
X46650000Y-74610000D01*
X49603952Y-74610000D01*
X49788980Y-75057800D01*
X50389041Y-75658909D01*
X51173459Y-75984628D01*
X52022815Y-75985370D01*
X52615182Y-75740608D01*
X52614630Y-76372815D01*
X52938980Y-77157800D01*
X53539041Y-77758909D01*
X54323459Y-78084628D01*
X55172815Y-78085370D01*
X55957800Y-77761020D01*
X56558909Y-77160959D01*
X56884628Y-76376541D01*
X56885202Y-75719600D01*
X57523459Y-75984628D01*
X58372815Y-75985370D01*
X59157800Y-75661020D01*
X59758909Y-75060959D01*
X59829329Y-74891369D01*
X60172637Y-75235278D01*
X60773352Y-75484716D01*
X61423795Y-75485284D01*
X61717396Y-75363970D01*
X62965635Y-75363970D01*
X63125418Y-75682739D01*
X63916187Y-75992723D01*
X64765387Y-75976497D01*
X65474582Y-75682739D01*
X65634365Y-75363970D01*
X64300000Y-74029605D01*
X62965635Y-75363970D01*
X61717396Y-75363970D01*
X62024943Y-75236894D01*
X62400086Y-74862406D01*
X62467261Y-75024582D01*
X62786030Y-75184365D01*
X64120395Y-73850000D01*
X64479605Y-73850000D01*
X65813970Y-75184365D01*
X66132739Y-75024582D01*
X66442723Y-74233813D01*
X66426497Y-73384613D01*
X66132739Y-72675418D01*
X65813970Y-72515635D01*
X64479605Y-73850000D01*
X64120395Y-73850000D01*
X62786030Y-72515635D01*
X62467261Y-72675418D01*
X62402530Y-72840546D01*
X62027363Y-72464722D01*
X61717438Y-72336030D01*
X62965635Y-72336030D01*
X64300000Y-73670395D01*
X65634365Y-72336030D01*
X65474582Y-72017261D01*
X64683813Y-71707277D01*
X63834613Y-71723503D01*
X63125418Y-72017261D01*
X62965635Y-72336030D01*
X61717438Y-72336030D01*
X61426648Y-72215284D01*
X60776205Y-72214716D01*
X60175057Y-72463106D01*
X59829537Y-72808023D01*
X59761020Y-72642200D01*
X59160959Y-72041091D01*
X58376541Y-71715372D01*
X57527185Y-71714630D01*
X56742200Y-72038980D01*
X56141091Y-72639041D01*
X55815372Y-73423459D01*
X55814798Y-74080400D01*
X55176541Y-73815372D01*
X54327185Y-73814630D01*
X53734818Y-74059392D01*
X53735370Y-73427185D01*
X53411020Y-72642200D01*
X52810959Y-72041091D01*
X52026541Y-71715372D01*
X51177185Y-71714630D01*
X50392200Y-72038980D01*
X49791091Y-72639041D01*
X49603836Y-73090000D01*
X47285009Y-73090000D01*
X47285240Y-72825715D01*
X47074831Y-72316485D01*
X46685564Y-71926539D01*
X46176702Y-71715241D01*
X45625715Y-71714760D01*
X45116485Y-71925169D01*
X44726539Y-72314436D01*
X44515241Y-72823298D01*
X44514760Y-73374285D01*
X37210000Y-73374285D01*
X37210000Y-71746803D01*
X37225169Y-71783515D01*
X37614436Y-72173461D01*
X38123298Y-72384759D01*
X38674285Y-72385240D01*
X39183515Y-72174831D01*
X39288389Y-72070140D01*
X40725593Y-72070140D01*
X40735309Y-72093655D01*
X41124576Y-72483601D01*
X41633438Y-72694899D01*
X42184425Y-72695380D01*
X42693655Y-72484971D01*
X43083601Y-72095704D01*
X43294899Y-71586842D01*
X43295380Y-71035855D01*
X43084971Y-70526625D01*
X42695704Y-70136679D01*
X42186842Y-69925381D01*
X41635855Y-69924900D01*
X41126625Y-70135309D01*
X40736679Y-70524576D01*
X40726064Y-70550140D01*
X39712694Y-70550140D01*
X39574831Y-70216485D01*
X39185564Y-69826539D01*
X38676702Y-69615241D01*
X38125715Y-69614760D01*
X37616485Y-69825169D01*
X37226539Y-70214436D01*
X37210000Y-70254266D01*
X37210000Y-50474285D01*
X43014760Y-50474285D01*
X43225169Y-50983515D01*
X43515000Y-51273852D01*
X43515000Y-65599995D01*
X43514999Y-65600000D01*
X43537397Y-65712599D01*
X43582367Y-65938675D01*
X43596055Y-65959160D01*
X43774210Y-66225790D01*
X48015116Y-70466695D01*
X48014760Y-70874285D01*
X48225169Y-71383515D01*
X48614436Y-71773461D01*
X49123298Y-71984759D01*
X49674285Y-71985240D01*
X50183515Y-71774831D01*
X50573461Y-71385564D01*
X50784759Y-70876702D01*
X50785240Y-70325715D01*
X50574831Y-69816485D01*
X50185564Y-69426539D01*
X49676702Y-69215241D01*
X49266462Y-69214883D01*
X45285000Y-65233420D01*
X45285000Y-57074285D01*
X49614760Y-57074285D01*
X49825169Y-57583515D01*
X50214436Y-57973461D01*
X50723298Y-58184759D01*
X51072642Y-58185064D01*
X51015241Y-58323302D01*
X51014760Y-58874289D01*
X51225169Y-59383519D01*
X51614436Y-59773465D01*
X52123298Y-59984763D01*
X52674285Y-59985244D01*
X52742327Y-59957129D01*
X53558790Y-60773592D01*
X53485907Y-61140000D01*
X53598946Y-61708285D01*
X53920853Y-62190054D01*
X54402622Y-62511961D01*
X54970907Y-62625000D01*
X55029093Y-62625000D01*
X55597378Y-62511961D01*
X56040845Y-62215647D01*
X56712601Y-62887403D01*
X56959162Y-63052150D01*
X57250002Y-63110002D01*
X57515453Y-63110002D01*
X57525169Y-63133517D01*
X57914436Y-63523463D01*
X58423298Y-63734761D01*
X58974285Y-63735242D01*
X59483515Y-63524833D01*
X59873461Y-63135566D01*
X60084759Y-62626704D01*
X60085240Y-62075717D01*
X60068416Y-62035000D01*
X60127002Y-62035000D01*
X60127002Y-61876252D01*
X60285750Y-62035000D01*
X62526309Y-62035000D01*
X62759698Y-61938327D01*
X62938327Y-61759699D01*
X63035000Y-61526310D01*
X63035000Y-59285750D01*
X62876250Y-59127000D01*
X60127000Y-59127000D01*
X60127000Y-59147000D01*
X59873000Y-59147000D01*
X59873000Y-59127000D01*
X57123750Y-59127000D01*
X56965000Y-59285750D01*
X56965000Y-60990198D01*
X56577401Y-60602599D01*
X56330839Y-60437852D01*
X56308662Y-60433441D01*
X56079147Y-60089946D01*
X55738447Y-59862298D01*
X55881358Y-59795183D01*
X56271645Y-59366924D01*
X56441476Y-58956890D01*
X56320155Y-58727000D01*
X55127000Y-58727000D01*
X55127000Y-58747000D01*
X54873000Y-58747000D01*
X54873000Y-58727000D01*
X54853000Y-58727000D01*
X54853000Y-58473000D01*
X54873000Y-58473000D01*
X54873000Y-58453000D01*
X55127000Y-58453000D01*
X55127000Y-58473000D01*
X56320155Y-58473000D01*
X56441476Y-58243110D01*
X56271645Y-57833076D01*
X55881358Y-57404817D01*
X55738447Y-57337702D01*
X56079147Y-57110054D01*
X56401054Y-56628285D01*
X56431804Y-56473690D01*
X56965000Y-56473690D01*
X56965000Y-58714250D01*
X57123750Y-58873000D01*
X59873000Y-58873000D01*
X59873000Y-56123750D01*
X59714250Y-55965000D01*
X57473691Y-55965000D01*
X57240302Y-56061673D01*
X57061673Y-56240301D01*
X56965000Y-56473690D01*
X56431804Y-56473690D01*
X56514093Y-56060000D01*
X56401054Y-55491715D01*
X56079147Y-55009946D01*
X55749974Y-54790000D01*
X56079147Y-54570054D01*
X56401054Y-54088285D01*
X56514093Y-53520000D01*
X56401054Y-52951715D01*
X56079147Y-52469946D01*
X55738447Y-52242298D01*
X55881358Y-52175183D01*
X56271645Y-51746924D01*
X56441476Y-51336890D01*
X56320155Y-51107000D01*
X55127000Y-51107000D01*
X55127000Y-51127000D01*
X54873000Y-51127000D01*
X54873000Y-51107000D01*
X53679845Y-51107000D01*
X53558524Y-51336890D01*
X53728355Y-51746924D01*
X54118642Y-52175183D01*
X54261553Y-52242298D01*
X53920853Y-52469946D01*
X53843816Y-52585241D01*
X53585564Y-52326539D01*
X53076702Y-52115241D01*
X52525715Y-52114760D01*
X52016485Y-52325169D01*
X51626539Y-52714436D01*
X51415241Y-53223298D01*
X51414760Y-53774285D01*
X51625169Y-54283515D01*
X52014436Y-54673461D01*
X52523298Y-54884759D01*
X53074285Y-54885240D01*
X53583515Y-54674831D01*
X53827873Y-54430899D01*
X53920853Y-54570054D01*
X54250026Y-54790000D01*
X53920853Y-55009946D01*
X53598946Y-55491715D01*
X53489885Y-56040000D01*
X52184547Y-56040000D01*
X52174831Y-56016485D01*
X51785564Y-55626539D01*
X51276702Y-55415241D01*
X50725715Y-55414760D01*
X50216485Y-55625169D01*
X49826539Y-56014436D01*
X49615241Y-56523298D01*
X49614760Y-57074285D01*
X45285000Y-57074285D01*
X45285000Y-51273523D01*
X45573461Y-50985564D01*
X45784759Y-50476702D01*
X45785240Y-49925715D01*
X45574831Y-49416485D01*
X45185564Y-49026539D01*
X44676702Y-48815241D01*
X44125715Y-48814760D01*
X43616485Y-49025169D01*
X43226539Y-49414436D01*
X43015241Y-49923298D01*
X43014760Y-50474285D01*
X37210000Y-50474285D01*
X37210000Y-48674285D01*
X50714760Y-48674285D01*
X50925169Y-49183515D01*
X51314436Y-49573461D01*
X51823298Y-49784759D01*
X52374285Y-49785240D01*
X52883515Y-49574831D01*
X53133782Y-49325000D01*
X53509146Y-49325000D01*
X53546838Y-49525317D01*
X53685910Y-49741441D01*
X53898110Y-49886431D01*
X54006107Y-49908301D01*
X53728355Y-50213076D01*
X53558524Y-50623110D01*
X53679845Y-50853000D01*
X54873000Y-50853000D01*
X54873000Y-50833000D01*
X55127000Y-50833000D01*
X55127000Y-50853000D01*
X56320155Y-50853000D01*
X56441476Y-50623110D01*
X56271645Y-50213076D01*
X55995499Y-49910063D01*
X56085317Y-49893162D01*
X56301441Y-49754090D01*
X56446431Y-49541890D01*
X56497440Y-49290000D01*
X56497440Y-47590000D01*
X56453162Y-47354683D01*
X56314090Y-47138559D01*
X56101890Y-46993569D01*
X55850000Y-46942560D01*
X54150000Y-46942560D01*
X53914683Y-46986838D01*
X53698559Y-47125910D01*
X53553569Y-47338110D01*
X53509648Y-47555000D01*
X53213453Y-47555000D01*
X52885564Y-47226539D01*
X52376702Y-47015241D01*
X51825715Y-47014760D01*
X51316485Y-47225169D01*
X50926539Y-47614436D01*
X50715241Y-48123298D01*
X50714760Y-48674285D01*
X37210000Y-48674285D01*
X37210000Y-46210000D01*
X43500000Y-46210000D01*
X43771705Y-46155954D01*
X44002046Y-46002046D01*
X44155954Y-45771705D01*
X44210000Y-45500000D01*
X44210000Y-39210000D01*
X61490000Y-39210000D01*
X61490000Y-45500000D01*
X61490000Y-45500000D01*
G37*
X61490000Y-45500000D02*
X61544046Y-45771705D01*
X61697954Y-46002046D01*
X61928295Y-46155954D01*
X62200000Y-46210000D01*
X68490000Y-46210000D01*
X68490000Y-57098287D01*
X67821434Y-56428553D01*
X66706347Y-55965528D01*
X66057354Y-55964961D01*
X66381447Y-55641434D01*
X66844472Y-54526347D01*
X66845526Y-53318950D01*
X66384448Y-52203057D01*
X65531434Y-51348553D01*
X64695000Y-51001235D01*
X64695000Y-50363540D01*
X64973461Y-50085564D01*
X65184759Y-49576702D01*
X65185240Y-49025715D01*
X64974831Y-48516485D01*
X64585564Y-48126539D01*
X64076702Y-47915241D01*
X63525715Y-47914760D01*
X63016485Y-48125169D01*
X62626539Y-48514436D01*
X62415241Y-49023298D01*
X62414760Y-49574285D01*
X62625169Y-50083515D01*
X62925000Y-50383869D01*
X62925000Y-51001800D01*
X62093057Y-51345552D01*
X61238553Y-52198566D01*
X60775528Y-53313653D01*
X60774474Y-54521050D01*
X61235552Y-55636943D01*
X61563037Y-55965000D01*
X60285750Y-55965000D01*
X60127000Y-56123750D01*
X60127000Y-58873000D01*
X62876250Y-58873000D01*
X63035000Y-58714250D01*
X63035000Y-57716592D01*
X63101749Y-57816489D01*
X63184210Y-57939902D01*
X63233482Y-57989174D01*
X63065528Y-58393653D01*
X63064474Y-59601050D01*
X63525552Y-60716943D01*
X64378566Y-61571447D01*
X65493653Y-62034472D01*
X66701050Y-62035526D01*
X67816943Y-61574448D01*
X68490000Y-60902565D01*
X68490000Y-66128876D01*
X68401054Y-65681715D01*
X68079147Y-65199946D01*
X67597378Y-64878039D01*
X67029093Y-64765000D01*
X66970907Y-64765000D01*
X66653031Y-64828229D01*
X66187401Y-64362599D01*
X65940839Y-64197852D01*
X65796596Y-64169160D01*
X65774831Y-64116485D01*
X65385564Y-63726539D01*
X64876702Y-63515241D01*
X64325715Y-63514760D01*
X63816485Y-63725169D01*
X63426539Y-64114436D01*
X63215241Y-64623298D01*
X63214760Y-65174285D01*
X63425169Y-65683515D01*
X63814436Y-66073461D01*
X64323298Y-66284759D01*
X64874285Y-66285240D01*
X65383515Y-66074831D01*
X65554752Y-65903892D01*
X65485907Y-66250000D01*
X65598946Y-66818285D01*
X65920853Y-67300054D01*
X65962452Y-67327850D01*
X65914683Y-67336838D01*
X65698559Y-67475910D01*
X65553569Y-67688110D01*
X65509648Y-67905000D01*
X65210005Y-67905000D01*
X65210000Y-67904999D01*
X64927516Y-67961190D01*
X64871325Y-67972367D01*
X64584210Y-68164210D01*
X64584208Y-68164213D01*
X64074210Y-68674210D01*
X63882367Y-68961325D01*
X63882367Y-68961326D01*
X63833247Y-69208262D01*
X63526539Y-69514436D01*
X63315241Y-70023298D01*
X63314760Y-70574285D01*
X63525169Y-71083515D01*
X63914436Y-71473461D01*
X64423298Y-71684759D01*
X64974285Y-71685240D01*
X65483515Y-71474831D01*
X65873461Y-71085564D01*
X66084759Y-70576702D01*
X66085023Y-70274282D01*
X66150000Y-70287440D01*
X67850000Y-70287440D01*
X68085317Y-70243162D01*
X68301441Y-70104090D01*
X68446431Y-69891890D01*
X68490000Y-69676740D01*
X68490000Y-92815000D01*
X56615000Y-92815000D01*
X56615000Y-94315000D01*
X55615000Y-94315000D01*
X55615000Y-97285000D01*
X57865000Y-97285000D01*
X57865000Y-99035000D01*
X61490000Y-99035000D01*
X61490000Y-103000000D01*
X61507902Y-103090000D01*
X55379119Y-103090000D01*
X55808909Y-102660959D01*
X56134628Y-101876541D01*
X56135370Y-101027185D01*
X55811020Y-100242200D01*
X55210959Y-99641091D01*
X54760000Y-99453836D01*
X54760000Y-97800000D01*
X54702148Y-97509161D01*
X54537401Y-97262599D01*
X51660000Y-94385198D01*
X51660000Y-90422815D01*
X51864630Y-90422815D01*
X52188980Y-91207800D01*
X52789041Y-91808909D01*
X53573459Y-92134628D01*
X54422815Y-92135370D01*
X55207800Y-91811020D01*
X55808909Y-91210959D01*
X56134628Y-90426541D01*
X56135370Y-89577185D01*
X55811020Y-88792200D01*
X55210959Y-88191091D01*
X54426541Y-87865372D01*
X53577185Y-87864630D01*
X52792200Y-88188980D01*
X52191091Y-88789041D01*
X51865372Y-89573459D01*
X51864630Y-90422815D01*
X51660000Y-90422815D01*
X51660000Y-89400000D01*
X51602148Y-89109161D01*
X51602148Y-89109160D01*
X51437401Y-88862599D01*
X48297617Y-85722815D01*
X49464630Y-85722815D01*
X49788980Y-86507800D01*
X50389041Y-87108909D01*
X51173459Y-87434628D01*
X52022815Y-87435370D01*
X52807800Y-87111020D01*
X53408909Y-86510959D01*
X53734628Y-85726541D01*
X53734631Y-85722815D01*
X55814630Y-85722815D01*
X56138980Y-86507800D01*
X56739041Y-87108909D01*
X57523459Y-87434628D01*
X58372815Y-87435370D01*
X59157800Y-87111020D01*
X59758909Y-86510959D01*
X59829329Y-86341369D01*
X60172637Y-86685278D01*
X60773352Y-86934716D01*
X61423795Y-86935284D01*
X61717396Y-86813970D01*
X62965635Y-86813970D01*
X63125418Y-87132739D01*
X63916187Y-87442723D01*
X64765387Y-87426497D01*
X65474582Y-87132739D01*
X65634365Y-86813970D01*
X64300000Y-85479605D01*
X62965635Y-86813970D01*
X61717396Y-86813970D01*
X62024943Y-86686894D01*
X62400086Y-86312406D01*
X62467261Y-86474582D01*
X62786030Y-86634365D01*
X64120395Y-85300000D01*
X64479605Y-85300000D01*
X65813970Y-86634365D01*
X66132739Y-86474582D01*
X66442723Y-85683813D01*
X66426497Y-84834613D01*
X66132739Y-84125418D01*
X65813970Y-83965635D01*
X64479605Y-85300000D01*
X64120395Y-85300000D01*
X62786030Y-83965635D01*
X62467261Y-84125418D01*
X62402530Y-84290546D01*
X62027363Y-83914722D01*
X61717438Y-83786030D01*
X62965635Y-83786030D01*
X64300000Y-85120395D01*
X65634365Y-83786030D01*
X65474582Y-83467261D01*
X64683813Y-83157277D01*
X63834613Y-83173503D01*
X63125418Y-83467261D01*
X62965635Y-83786030D01*
X61717438Y-83786030D01*
X61426648Y-83665284D01*
X60776205Y-83664716D01*
X60175057Y-83913106D01*
X59829537Y-84258023D01*
X59761020Y-84092200D01*
X59160959Y-83491091D01*
X58376541Y-83165372D01*
X57527185Y-83164630D01*
X56742200Y-83488980D01*
X56141091Y-84089041D01*
X55815372Y-84873459D01*
X55814630Y-85722815D01*
X53734631Y-85722815D01*
X53735370Y-84877185D01*
X53411020Y-84092200D01*
X52810959Y-83491091D01*
X52026541Y-83165372D01*
X51177185Y-83164630D01*
X50392200Y-83488980D01*
X49791091Y-84089041D01*
X49465372Y-84873459D01*
X49464630Y-85722815D01*
X48297617Y-85722815D01*
X47262402Y-84687600D01*
X47015840Y-84522853D01*
X46725001Y-84465001D01*
X42159546Y-84465001D01*
X42149830Y-84441486D01*
X41760563Y-84051540D01*
X41251701Y-83840242D01*
X40700714Y-83839761D01*
X40191484Y-84050170D01*
X39801538Y-84439437D01*
X39590240Y-84948299D01*
X39589759Y-85499286D01*
X39800168Y-86008516D01*
X40189435Y-86398462D01*
X40698297Y-86609760D01*
X41249284Y-86610241D01*
X41758514Y-86399832D01*
X42148460Y-86010565D01*
X42159075Y-85985001D01*
X46410199Y-85985001D01*
X48442551Y-88017353D01*
X48076541Y-87865372D01*
X47227185Y-87864630D01*
X46442200Y-88188980D01*
X45841091Y-88789041D01*
X45770671Y-88958631D01*
X45427363Y-88614722D01*
X44826648Y-88365284D01*
X44176205Y-88364716D01*
X43575057Y-88613106D01*
X43199914Y-88987594D01*
X43132739Y-88825418D01*
X42813970Y-88665635D01*
X41479605Y-90000000D01*
X42813970Y-91334365D01*
X43132739Y-91174582D01*
X43197470Y-91009454D01*
X43572637Y-91385278D01*
X44173352Y-91634716D01*
X44823795Y-91635284D01*
X45424943Y-91386894D01*
X45770463Y-91041977D01*
X45838980Y-91207800D01*
X46439041Y-91808909D01*
X47223459Y-92134628D01*
X48072815Y-92135370D01*
X48857800Y-91811020D01*
X49458909Y-91210959D01*
X49784628Y-90426541D01*
X49785370Y-89577185D01*
X49632563Y-89207365D01*
X50140000Y-89714802D01*
X50140000Y-94700000D01*
X50197852Y-94990839D01*
X50362599Y-95237401D01*
X53240000Y-98114802D01*
X53240000Y-99453952D01*
X52984818Y-99559392D01*
X52985370Y-98927185D01*
X52661020Y-98142200D01*
X52060959Y-97541091D01*
X51276541Y-97215372D01*
X50427185Y-97214630D01*
X49642200Y-97538980D01*
X49041091Y-98139041D01*
X48715372Y-98923459D01*
X48714798Y-99580400D01*
X48076541Y-99315372D01*
X47227185Y-99314630D01*
X46442200Y-99638980D01*
X45841091Y-100239041D01*
X45770671Y-100408631D01*
X45427363Y-100064722D01*
X44826648Y-99815284D01*
X44176205Y-99814716D01*
X43575057Y-100063106D01*
X43199914Y-100437594D01*
X43132739Y-100275418D01*
X42813970Y-100115635D01*
X41479605Y-101450000D01*
X42813970Y-102784365D01*
X43132739Y-102624582D01*
X43197470Y-102459454D01*
X43572637Y-102835278D01*
X44173352Y-103084716D01*
X44823795Y-103085284D01*
X45424943Y-102836894D01*
X45770463Y-102491977D01*
X45838980Y-102657800D01*
X46270426Y-103090000D01*
X42571192Y-103090000D01*
X42634365Y-102963970D01*
X41300000Y-101629605D01*
X39965635Y-102963970D01*
X40028808Y-103090000D01*
X37210000Y-103090000D01*
X37210000Y-101066187D01*
X39157277Y-101066187D01*
X39173503Y-101915387D01*
X39467261Y-102624582D01*
X39786030Y-102784365D01*
X41120395Y-101450000D01*
X39786030Y-100115635D01*
X39467261Y-100275418D01*
X39157277Y-101066187D01*
X37210000Y-101066187D01*
X37210000Y-99936030D01*
X39965635Y-99936030D01*
X41300000Y-101270395D01*
X42634365Y-99936030D01*
X42474582Y-99617261D01*
X41683813Y-99307277D01*
X40834613Y-99323503D01*
X40125418Y-99617261D01*
X39965635Y-99936030D01*
X37210000Y-99936030D01*
X37210000Y-91513970D01*
X39965635Y-91513970D01*
X40125418Y-91832739D01*
X40916187Y-92142723D01*
X41765387Y-92126497D01*
X42474582Y-91832739D01*
X42634365Y-91513970D01*
X41300000Y-90179605D01*
X39965635Y-91513970D01*
X37210000Y-91513970D01*
X37210000Y-89616187D01*
X39157277Y-89616187D01*
X39173503Y-90465387D01*
X39467261Y-91174582D01*
X39786030Y-91334365D01*
X41120395Y-90000000D01*
X39786030Y-88665635D01*
X39467261Y-88825418D01*
X39157277Y-89616187D01*
X37210000Y-89616187D01*
X37210000Y-88486030D01*
X39965635Y-88486030D01*
X41300000Y-89820395D01*
X42634365Y-88486030D01*
X42474582Y-88167261D01*
X41683813Y-87857277D01*
X40834613Y-87873503D01*
X40125418Y-88167261D01*
X39965635Y-88486030D01*
X37210000Y-88486030D01*
X37210000Y-73374285D01*
X44514760Y-73374285D01*
X44725169Y-73883515D01*
X45114436Y-74273461D01*
X45623298Y-74484759D01*
X46174285Y-74485240D01*
X46226646Y-74463605D01*
X46359160Y-74552148D01*
X46650000Y-74610000D01*
X49603952Y-74610000D01*
X49788980Y-75057800D01*
X50389041Y-75658909D01*
X51173459Y-75984628D01*
X52022815Y-75985370D01*
X52615182Y-75740608D01*
X52614630Y-76372815D01*
X52938980Y-77157800D01*
X53539041Y-77758909D01*
X54323459Y-78084628D01*
X55172815Y-78085370D01*
X55957800Y-77761020D01*
X56558909Y-77160959D01*
X56884628Y-76376541D01*
X56885202Y-75719600D01*
X57523459Y-75984628D01*
X58372815Y-75985370D01*
X59157800Y-75661020D01*
X59758909Y-75060959D01*
X59829329Y-74891369D01*
X60172637Y-75235278D01*
X60773352Y-75484716D01*
X61423795Y-75485284D01*
X61717396Y-75363970D01*
X62965635Y-75363970D01*
X63125418Y-75682739D01*
X63916187Y-75992723D01*
X64765387Y-75976497D01*
X65474582Y-75682739D01*
X65634365Y-75363970D01*
X64300000Y-74029605D01*
X62965635Y-75363970D01*
X61717396Y-75363970D01*
X62024943Y-75236894D01*
X62400086Y-74862406D01*
X62467261Y-75024582D01*
X62786030Y-75184365D01*
X64120395Y-73850000D01*
X64479605Y-73850000D01*
X65813970Y-75184365D01*
X66132739Y-75024582D01*
X66442723Y-74233813D01*
X66426497Y-73384613D01*
X66132739Y-72675418D01*
X65813970Y-72515635D01*
X64479605Y-73850000D01*
X64120395Y-73850000D01*
X62786030Y-72515635D01*
X62467261Y-72675418D01*
X62402530Y-72840546D01*
X62027363Y-72464722D01*
X61717438Y-72336030D01*
X62965635Y-72336030D01*
X64300000Y-73670395D01*
X65634365Y-72336030D01*
X65474582Y-72017261D01*
X64683813Y-71707277D01*
X63834613Y-71723503D01*
X63125418Y-72017261D01*
X62965635Y-72336030D01*
X61717438Y-72336030D01*
X61426648Y-72215284D01*
X60776205Y-72214716D01*
X60175057Y-72463106D01*
X59829537Y-72808023D01*
X59761020Y-72642200D01*
X59160959Y-72041091D01*
X58376541Y-71715372D01*
X57527185Y-71714630D01*
X56742200Y-72038980D01*
X56141091Y-72639041D01*
X55815372Y-73423459D01*
X55814798Y-74080400D01*
X55176541Y-73815372D01*
X54327185Y-73814630D01*
X53734818Y-74059392D01*
X53735370Y-73427185D01*
X53411020Y-72642200D01*
X52810959Y-72041091D01*
X52026541Y-71715372D01*
X51177185Y-71714630D01*
X50392200Y-72038980D01*
X49791091Y-72639041D01*
X49603836Y-73090000D01*
X47285009Y-73090000D01*
X47285240Y-72825715D01*
X47074831Y-72316485D01*
X46685564Y-71926539D01*
X46176702Y-71715241D01*
X45625715Y-71714760D01*
X45116485Y-71925169D01*
X44726539Y-72314436D01*
X44515241Y-72823298D01*
X44514760Y-73374285D01*
X37210000Y-73374285D01*
X37210000Y-71746803D01*
X37225169Y-71783515D01*
X37614436Y-72173461D01*
X38123298Y-72384759D01*
X38674285Y-72385240D01*
X39183515Y-72174831D01*
X39288389Y-72070140D01*
X40725593Y-72070140D01*
X40735309Y-72093655D01*
X41124576Y-72483601D01*
X41633438Y-72694899D01*
X42184425Y-72695380D01*
X42693655Y-72484971D01*
X43083601Y-72095704D01*
X43294899Y-71586842D01*
X43295380Y-71035855D01*
X43084971Y-70526625D01*
X42695704Y-70136679D01*
X42186842Y-69925381D01*
X41635855Y-69924900D01*
X41126625Y-70135309D01*
X40736679Y-70524576D01*
X40726064Y-70550140D01*
X39712694Y-70550140D01*
X39574831Y-70216485D01*
X39185564Y-69826539D01*
X38676702Y-69615241D01*
X38125715Y-69614760D01*
X37616485Y-69825169D01*
X37226539Y-70214436D01*
X37210000Y-70254266D01*
X37210000Y-50474285D01*
X43014760Y-50474285D01*
X43225169Y-50983515D01*
X43515000Y-51273852D01*
X43515000Y-65599995D01*
X43514999Y-65600000D01*
X43537397Y-65712599D01*
X43582367Y-65938675D01*
X43596055Y-65959160D01*
X43774210Y-66225790D01*
X48015116Y-70466695D01*
X48014760Y-70874285D01*
X48225169Y-71383515D01*
X48614436Y-71773461D01*
X49123298Y-71984759D01*
X49674285Y-71985240D01*
X50183515Y-71774831D01*
X50573461Y-71385564D01*
X50784759Y-70876702D01*
X50785240Y-70325715D01*
X50574831Y-69816485D01*
X50185564Y-69426539D01*
X49676702Y-69215241D01*
X49266462Y-69214883D01*
X45285000Y-65233420D01*
X45285000Y-57074285D01*
X49614760Y-57074285D01*
X49825169Y-57583515D01*
X50214436Y-57973461D01*
X50723298Y-58184759D01*
X51072642Y-58185064D01*
X51015241Y-58323302D01*
X51014760Y-58874289D01*
X51225169Y-59383519D01*
X51614436Y-59773465D01*
X52123298Y-59984763D01*
X52674285Y-59985244D01*
X52742327Y-59957129D01*
X53558790Y-60773592D01*
X53485907Y-61140000D01*
X53598946Y-61708285D01*
X53920853Y-62190054D01*
X54402622Y-62511961D01*
X54970907Y-62625000D01*
X55029093Y-62625000D01*
X55597378Y-62511961D01*
X56040845Y-62215647D01*
X56712601Y-62887403D01*
X56959162Y-63052150D01*
X57250002Y-63110002D01*
X57515453Y-63110002D01*
X57525169Y-63133517D01*
X57914436Y-63523463D01*
X58423298Y-63734761D01*
X58974285Y-63735242D01*
X59483515Y-63524833D01*
X59873461Y-63135566D01*
X60084759Y-62626704D01*
X60085240Y-62075717D01*
X60068416Y-62035000D01*
X60127002Y-62035000D01*
X60127002Y-61876252D01*
X60285750Y-62035000D01*
X62526309Y-62035000D01*
X62759698Y-61938327D01*
X62938327Y-61759699D01*
X63035000Y-61526310D01*
X63035000Y-59285750D01*
X62876250Y-59127000D01*
X60127000Y-59127000D01*
X60127000Y-59147000D01*
X59873000Y-59147000D01*
X59873000Y-59127000D01*
X57123750Y-59127000D01*
X56965000Y-59285750D01*
X56965000Y-60990198D01*
X56577401Y-60602599D01*
X56330839Y-60437852D01*
X56308662Y-60433441D01*
X56079147Y-60089946D01*
X55738447Y-59862298D01*
X55881358Y-59795183D01*
X56271645Y-59366924D01*
X56441476Y-58956890D01*
X56320155Y-58727000D01*
X55127000Y-58727000D01*
X55127000Y-58747000D01*
X54873000Y-58747000D01*
X54873000Y-58727000D01*
X54853000Y-58727000D01*
X54853000Y-58473000D01*
X54873000Y-58473000D01*
X54873000Y-58453000D01*
X55127000Y-58453000D01*
X55127000Y-58473000D01*
X56320155Y-58473000D01*
X56441476Y-58243110D01*
X56271645Y-57833076D01*
X55881358Y-57404817D01*
X55738447Y-57337702D01*
X56079147Y-57110054D01*
X56401054Y-56628285D01*
X56431804Y-56473690D01*
X56965000Y-56473690D01*
X56965000Y-58714250D01*
X57123750Y-58873000D01*
X59873000Y-58873000D01*
X59873000Y-56123750D01*
X59714250Y-55965000D01*
X57473691Y-55965000D01*
X57240302Y-56061673D01*
X57061673Y-56240301D01*
X56965000Y-56473690D01*
X56431804Y-56473690D01*
X56514093Y-56060000D01*
X56401054Y-55491715D01*
X56079147Y-55009946D01*
X55749974Y-54790000D01*
X56079147Y-54570054D01*
X56401054Y-54088285D01*
X56514093Y-53520000D01*
X56401054Y-52951715D01*
X56079147Y-52469946D01*
X55738447Y-52242298D01*
X55881358Y-52175183D01*
X56271645Y-51746924D01*
X56441476Y-51336890D01*
X56320155Y-51107000D01*
X55127000Y-51107000D01*
X55127000Y-51127000D01*
X54873000Y-51127000D01*
X54873000Y-51107000D01*
X53679845Y-51107000D01*
X53558524Y-51336890D01*
X53728355Y-51746924D01*
X54118642Y-52175183D01*
X54261553Y-52242298D01*
X53920853Y-52469946D01*
X53843816Y-52585241D01*
X53585564Y-52326539D01*
X53076702Y-52115241D01*
X52525715Y-52114760D01*
X52016485Y-52325169D01*
X51626539Y-52714436D01*
X51415241Y-53223298D01*
X51414760Y-53774285D01*
X51625169Y-54283515D01*
X52014436Y-54673461D01*
X52523298Y-54884759D01*
X53074285Y-54885240D01*
X53583515Y-54674831D01*
X53827873Y-54430899D01*
X53920853Y-54570054D01*
X54250026Y-54790000D01*
X53920853Y-55009946D01*
X53598946Y-55491715D01*
X53489885Y-56040000D01*
X52184547Y-56040000D01*
X52174831Y-56016485D01*
X51785564Y-55626539D01*
X51276702Y-55415241D01*
X50725715Y-55414760D01*
X50216485Y-55625169D01*
X49826539Y-56014436D01*
X49615241Y-56523298D01*
X49614760Y-57074285D01*
X45285000Y-57074285D01*
X45285000Y-51273523D01*
X45573461Y-50985564D01*
X45784759Y-50476702D01*
X45785240Y-49925715D01*
X45574831Y-49416485D01*
X45185564Y-49026539D01*
X44676702Y-48815241D01*
X44125715Y-48814760D01*
X43616485Y-49025169D01*
X43226539Y-49414436D01*
X43015241Y-49923298D01*
X43014760Y-50474285D01*
X37210000Y-50474285D01*
X37210000Y-48674285D01*
X50714760Y-48674285D01*
X50925169Y-49183515D01*
X51314436Y-49573461D01*
X51823298Y-49784759D01*
X52374285Y-49785240D01*
X52883515Y-49574831D01*
X53133782Y-49325000D01*
X53509146Y-49325000D01*
X53546838Y-49525317D01*
X53685910Y-49741441D01*
X53898110Y-49886431D01*
X54006107Y-49908301D01*
X53728355Y-50213076D01*
X53558524Y-50623110D01*
X53679845Y-50853000D01*
X54873000Y-50853000D01*
X54873000Y-50833000D01*
X55127000Y-50833000D01*
X55127000Y-50853000D01*
X56320155Y-50853000D01*
X56441476Y-50623110D01*
X56271645Y-50213076D01*
X55995499Y-49910063D01*
X56085317Y-49893162D01*
X56301441Y-49754090D01*
X56446431Y-49541890D01*
X56497440Y-49290000D01*
X56497440Y-47590000D01*
X56453162Y-47354683D01*
X56314090Y-47138559D01*
X56101890Y-46993569D01*
X55850000Y-46942560D01*
X54150000Y-46942560D01*
X53914683Y-46986838D01*
X53698559Y-47125910D01*
X53553569Y-47338110D01*
X53509648Y-47555000D01*
X53213453Y-47555000D01*
X52885564Y-47226539D01*
X52376702Y-47015241D01*
X51825715Y-47014760D01*
X51316485Y-47225169D01*
X50926539Y-47614436D01*
X50715241Y-48123298D01*
X50714760Y-48674285D01*
X37210000Y-48674285D01*
X37210000Y-46210000D01*
X43500000Y-46210000D01*
X43771705Y-46155954D01*
X44002046Y-46002046D01*
X44155954Y-45771705D01*
X44210000Y-45500000D01*
X44210000Y-39210000D01*
X61490000Y-39210000D01*
X61490000Y-45500000D01*
G36*
X148140000Y-41165198D02*
X147897401Y-40922599D01*
X147650839Y-40757852D01*
X147360000Y-40700000D01*
X146872954Y-40700000D01*
X146679147Y-40409946D01*
X146197378Y-40088039D01*
X145629093Y-39975000D01*
X145570907Y-39975000D01*
X145002622Y-40088039D01*
X144520853Y-40409946D01*
X144198946Y-40891715D01*
X144085907Y-41460000D01*
X144198946Y-42028285D01*
X144520853Y-42510054D01*
X144850026Y-42730000D01*
X144520853Y-42949946D01*
X144198946Y-43431715D01*
X144085907Y-44000000D01*
X144198946Y-44568285D01*
X144520853Y-45050054D01*
X144562452Y-45077850D01*
X144514683Y-45086838D01*
X144298559Y-45225910D01*
X144153569Y-45438110D01*
X144102560Y-45690000D01*
X144102560Y-47390000D01*
X144146838Y-47625317D01*
X144285910Y-47841441D01*
X144498110Y-47986431D01*
X144750000Y-48037440D01*
X146450000Y-48037440D01*
X146685317Y-47993162D01*
X146901441Y-47854090D01*
X147046431Y-47641890D01*
X147097440Y-47390000D01*
X147097440Y-47300000D01*
X147688788Y-47300000D01*
X148226209Y-47837421D01*
X148472771Y-48002168D01*
X148763610Y-48060020D01*
X149957806Y-48060020D01*
X150536152Y-48638366D01*
X150782713Y-48803113D01*
X151073553Y-48860965D01*
X152790453Y-48860965D01*
X152800169Y-48884480D01*
X152955418Y-49040000D01*
X145098653Y-49040000D01*
X144885564Y-48826539D01*
X144376702Y-48615241D01*
X143825715Y-48614760D01*
X143316485Y-48825169D01*
X142997440Y-49143658D01*
X142997440Y-47610000D01*
X142953162Y-47374683D01*
X142814090Y-47158559D01*
X142601890Y-47013569D01*
X142350000Y-46962560D01*
X140650000Y-46962560D01*
X140414683Y-47006838D01*
X140198559Y-47145910D01*
X140053569Y-47358110D01*
X140002560Y-47610000D01*
X140002560Y-49310000D01*
X140046838Y-49545317D01*
X140185910Y-49761441D01*
X140398110Y-49906431D01*
X140506107Y-49928301D01*
X140228355Y-50233076D01*
X140058524Y-50643110D01*
X140179845Y-50873000D01*
X141373000Y-50873000D01*
X141373000Y-50853000D01*
X141627000Y-50853000D01*
X141627000Y-50873000D01*
X142820155Y-50873000D01*
X142899792Y-50722097D01*
X142925169Y-50783515D01*
X143314436Y-51173461D01*
X143823298Y-51384759D01*
X144374285Y-51385240D01*
X144883515Y-51174831D01*
X145273461Y-50785564D01*
X145367123Y-50560000D01*
X153290453Y-50560000D01*
X153300169Y-50583515D01*
X153689436Y-50973461D01*
X154198298Y-51184759D01*
X154749285Y-51185240D01*
X155140000Y-51023800D01*
X155140000Y-52807817D01*
X154676541Y-52615372D01*
X153827185Y-52614630D01*
X153042200Y-52938980D01*
X152441091Y-53539041D01*
X152115372Y-54323459D01*
X152114630Y-55172815D01*
X152438980Y-55957800D01*
X153039041Y-56558909D01*
X153823459Y-56884628D01*
X154672815Y-56885370D01*
X155140000Y-56692333D01*
X155140000Y-68878579D01*
X154626541Y-68665372D01*
X153777185Y-68664630D01*
X152992200Y-68988980D01*
X152391091Y-69589041D01*
X152065372Y-70373459D01*
X152064630Y-71222815D01*
X152388980Y-72007800D01*
X152989041Y-72608909D01*
X153773459Y-72934628D01*
X154622815Y-72935370D01*
X155140000Y-72721673D01*
X155140000Y-102940000D01*
X131102482Y-102940000D01*
X131202148Y-102790839D01*
X131260000Y-102500000D01*
X131260000Y-99565000D01*
X131698333Y-99565000D01*
X131698333Y-102535000D01*
X135635000Y-102535000D01*
X135635000Y-101035000D01*
X145135000Y-101035000D01*
X145135000Y-98065000D01*
X143885000Y-98065000D01*
X143885000Y-96565000D01*
X131710238Y-96565000D01*
X131710238Y-99535000D01*
X131912617Y-99535000D01*
X131912617Y-99565000D01*
X131698333Y-99565000D01*
X131260000Y-99565000D01*
X131260000Y-96500000D01*
X131202148Y-96209161D01*
X131037401Y-95962599D01*
X130790839Y-95797852D01*
X130500000Y-95740000D01*
X124250000Y-95740000D01*
X123959161Y-95797852D01*
X123860000Y-95864109D01*
X123860000Y-93074285D01*
X129914760Y-93074285D01*
X130125169Y-93583515D01*
X130514436Y-93973461D01*
X131023298Y-94184759D01*
X131574285Y-94185240D01*
X132083515Y-93974831D01*
X132473461Y-93585564D01*
X132684759Y-93076702D01*
X132685240Y-92525715D01*
X132609403Y-92342176D01*
X132766579Y-92185000D01*
X140626477Y-92185000D01*
X140914436Y-92473461D01*
X141423298Y-92684759D01*
X141974285Y-92685240D01*
X142483515Y-92474831D01*
X142773852Y-92185000D01*
X144626477Y-92185000D01*
X144914436Y-92473461D01*
X145423298Y-92684759D01*
X145974285Y-92685240D01*
X146483515Y-92474831D01*
X146873461Y-92085564D01*
X147084759Y-91576702D01*
X147085240Y-91025715D01*
X146874831Y-90516485D01*
X146485564Y-90126539D01*
X145976702Y-89915241D01*
X145425715Y-89914760D01*
X144916485Y-90125169D01*
X144626148Y-90415000D01*
X142773523Y-90415000D01*
X142485564Y-90126539D01*
X141976702Y-89915241D01*
X141425715Y-89914760D01*
X140916485Y-90125169D01*
X140626148Y-90415000D01*
X132400005Y-90415000D01*
X132400000Y-90414999D01*
X132117516Y-90471190D01*
X132061325Y-90482367D01*
X131774210Y-90674210D01*
X131774208Y-90674213D01*
X131033653Y-91414767D01*
X131025715Y-91414760D01*
X130516485Y-91625169D01*
X130126539Y-92014436D01*
X129915241Y-92523298D01*
X129914760Y-93074285D01*
X123860000Y-93074285D01*
X123860000Y-79330159D01*
X126099446Y-79330159D01*
X126185852Y-79586643D01*
X126759336Y-79796458D01*
X127369460Y-79770839D01*
X127814148Y-79586643D01*
X127900554Y-79330159D01*
X127000000Y-78429605D01*
X126099446Y-79330159D01*
X123860000Y-79330159D01*
X123860000Y-78009336D01*
X125453542Y-78009336D01*
X125479161Y-78619460D01*
X125663357Y-79064148D01*
X125919841Y-79150554D01*
X126820395Y-78250000D01*
X125919841Y-77349446D01*
X125663357Y-77435852D01*
X125453542Y-78009336D01*
X123860000Y-78009336D01*
X123860000Y-77169841D01*
X126099446Y-77169841D01*
X127000000Y-78070395D01*
X127900554Y-77169841D01*
X127814148Y-76913357D01*
X127240664Y-76703542D01*
X126630540Y-76729161D01*
X126185852Y-76913357D01*
X126099446Y-77169841D01*
X123860000Y-77169841D01*
X123860000Y-72692183D01*
X124323459Y-72884628D01*
X125172815Y-72885370D01*
X125957800Y-72561020D01*
X126558909Y-71960959D01*
X126884628Y-71176541D01*
X126885370Y-70327185D01*
X126561020Y-69542200D01*
X125960959Y-68941091D01*
X125176541Y-68615372D01*
X124327185Y-68614630D01*
X123860000Y-68807667D01*
X123860000Y-64638696D01*
X124217449Y-64996768D01*
X124726311Y-65208066D01*
X125277298Y-65208547D01*
X125786528Y-64998138D01*
X126176474Y-64608871D01*
X126387772Y-64100009D01*
X126387914Y-63936888D01*
X126585036Y-63739766D01*
X126693330Y-63784733D01*
X127303991Y-63785265D01*
X127868371Y-63552068D01*
X128250288Y-63170818D01*
X128629357Y-63550551D01*
X128740000Y-63596494D01*
X128740000Y-74477208D01*
X128797852Y-74768047D01*
X128962599Y-75014609D01*
X131013672Y-77065682D01*
X130749712Y-77329182D01*
X130370643Y-76949449D01*
X129806670Y-76715267D01*
X129196009Y-76714735D01*
X128631629Y-76947932D01*
X128199449Y-77379357D01*
X128195706Y-77388372D01*
X128080159Y-77349446D01*
X127179605Y-78250000D01*
X128080159Y-79150554D01*
X128195214Y-79111793D01*
X128197932Y-79118371D01*
X128629357Y-79550551D01*
X128755980Y-79603130D01*
X128797852Y-79813631D01*
X128962599Y-80060193D01*
X129339807Y-80437401D01*
X129504535Y-80547468D01*
X129316485Y-80625169D01*
X128926539Y-81014436D01*
X128715241Y-81523298D01*
X128714760Y-82074285D01*
X128925169Y-82583515D01*
X129314436Y-82973461D01*
X129823298Y-83184759D01*
X130374285Y-83185240D01*
X130883515Y-82974831D01*
X131273461Y-82585564D01*
X131284076Y-82560000D01*
X134081244Y-82560000D01*
X133926539Y-82714436D01*
X133715241Y-83223298D01*
X133714760Y-83774285D01*
X133925169Y-84283515D01*
X134314436Y-84673461D01*
X134823298Y-84884759D01*
X135374285Y-84885240D01*
X135883515Y-84674831D01*
X136273461Y-84285564D01*
X136284076Y-84260000D01*
X140785201Y-84260000D01*
X144424998Y-87899797D01*
X144415241Y-87923295D01*
X144414760Y-88474282D01*
X144625169Y-88983512D01*
X145014436Y-89373458D01*
X145523298Y-89584756D01*
X146074285Y-89585237D01*
X146583515Y-89374828D01*
X146973461Y-88985561D01*
X147184759Y-88476699D01*
X147185240Y-87925712D01*
X146974831Y-87416482D01*
X146585564Y-87026536D01*
X146076702Y-86815238D01*
X145525715Y-86814757D01*
X145500132Y-86825327D01*
X142234805Y-83560000D01*
X143500000Y-83560000D01*
X143678272Y-83524539D01*
X143823298Y-83584759D01*
X144374285Y-83585240D01*
X144883515Y-83374831D01*
X145273461Y-82985564D01*
X145484759Y-82476702D01*
X145485240Y-81925715D01*
X145274831Y-81416485D01*
X144885564Y-81026539D01*
X144376702Y-80815241D01*
X143825715Y-80814760D01*
X143316485Y-81025169D01*
X142926539Y-81414436D01*
X142715241Y-81923298D01*
X142715139Y-82040000D01*
X137214802Y-82040000D01*
X136437401Y-81262599D01*
X136190839Y-81097852D01*
X135900000Y-81040000D01*
X134544109Y-81040000D01*
X134673461Y-80910873D01*
X134884759Y-80402011D01*
X134885240Y-79851024D01*
X134674831Y-79341794D01*
X134285564Y-78951848D01*
X133776702Y-78740550D01*
X133458495Y-78740272D01*
X133534733Y-78556670D01*
X133534804Y-78474285D01*
X141214760Y-78474285D01*
X141425169Y-78983515D01*
X141814436Y-79373461D01*
X142323298Y-79584759D01*
X142874285Y-79585240D01*
X143370620Y-79380159D01*
X146049446Y-79380159D01*
X146135852Y-79636643D01*
X146709336Y-79846458D01*
X147319460Y-79820839D01*
X147764148Y-79636643D01*
X147850554Y-79380159D01*
X146950000Y-78479605D01*
X146049446Y-79380159D01*
X143370620Y-79380159D01*
X143383515Y-79374831D01*
X143773461Y-78985564D01*
X143984759Y-78476702D01*
X143985123Y-78059336D01*
X145403542Y-78059336D01*
X145429161Y-78669460D01*
X145613357Y-79114148D01*
X145869841Y-79200554D01*
X146770395Y-78300000D01*
X145869841Y-77399446D01*
X145613357Y-77485852D01*
X145403542Y-78059336D01*
X143985123Y-78059336D01*
X143985240Y-77925715D01*
X143774831Y-77416485D01*
X143449755Y-77090842D01*
X143460000Y-77039340D01*
X143460000Y-72579817D01*
X143489041Y-72608909D01*
X144273459Y-72934628D01*
X145122815Y-72935370D01*
X145907800Y-72611020D01*
X146508909Y-72010959D01*
X146834628Y-71226541D01*
X146835370Y-70377185D01*
X146511020Y-69592200D01*
X145910959Y-68991091D01*
X145126541Y-68665372D01*
X144277185Y-68664630D01*
X143492200Y-68988980D01*
X143460000Y-69021124D01*
X143460000Y-65734802D01*
X147790001Y-70064803D01*
X147790001Y-77040098D01*
X147764148Y-76963357D01*
X147190664Y-76753542D01*
X146580540Y-76779161D01*
X146135852Y-76963357D01*
X146049446Y-77219841D01*
X146950000Y-78120395D01*
X146964143Y-78106253D01*
X147143748Y-78285858D01*
X147129605Y-78300000D01*
X148030159Y-79200554D01*
X148145214Y-79161793D01*
X148147932Y-79168371D01*
X148579357Y-79600551D01*
X148690000Y-79646494D01*
X148690000Y-80850000D01*
X148702542Y-80913053D01*
X148615241Y-81123298D01*
X148614760Y-81674285D01*
X148825169Y-82183515D01*
X149214436Y-82573461D01*
X149723298Y-82784759D01*
X150274285Y-82785240D01*
X150783515Y-82574831D01*
X151173461Y-82185564D01*
X151384759Y-81676702D01*
X151385240Y-81125715D01*
X151174831Y-80616485D01*
X150785564Y-80226539D01*
X150276702Y-80015241D01*
X150210000Y-80015183D01*
X150210000Y-79646846D01*
X150318371Y-79602068D01*
X150700288Y-79220818D01*
X151079357Y-79600551D01*
X151643330Y-79834733D01*
X152253991Y-79835265D01*
X152818371Y-79602068D01*
X153250551Y-79170643D01*
X153484733Y-78606670D01*
X153485265Y-77996009D01*
X153252068Y-77431629D01*
X152820643Y-76999449D01*
X152256670Y-76765267D01*
X151646009Y-76764735D01*
X151081629Y-76997932D01*
X150699712Y-77379182D01*
X150320643Y-76999449D01*
X149756670Y-76765267D01*
X149310001Y-76764878D01*
X149310001Y-69750001D01*
X149252149Y-69459162D01*
X149087402Y-69212600D01*
X144772283Y-64897481D01*
X145223298Y-65084759D01*
X145774285Y-65085240D01*
X146077390Y-64960000D01*
X151322792Y-64960000D01*
X151613631Y-64902148D01*
X151860193Y-64737401D01*
X152537401Y-64060193D01*
X152702148Y-63813631D01*
X152743951Y-63603477D01*
X152868371Y-63552068D01*
X153300551Y-63120643D01*
X153534733Y-62556670D01*
X153535265Y-61946009D01*
X153302068Y-61381629D01*
X152870643Y-60949449D01*
X152306670Y-60715267D01*
X151696009Y-60714735D01*
X151131629Y-60947932D01*
X150749712Y-61329182D01*
X150370643Y-60949449D01*
X149806670Y-60715267D01*
X149196009Y-60714735D01*
X149085287Y-60760485D01*
X148287401Y-59962599D01*
X148040839Y-59797852D01*
X147750000Y-59740000D01*
X145400000Y-59740000D01*
X145109161Y-59797852D01*
X144862599Y-59962599D01*
X142162599Y-62662599D01*
X141997852Y-62909161D01*
X141940000Y-63200000D01*
X141940000Y-76785422D01*
X141897852Y-76848501D01*
X141866850Y-77004359D01*
X141816485Y-77025169D01*
X141426539Y-77414436D01*
X141215241Y-77923298D01*
X141214760Y-78474285D01*
X133534804Y-78474285D01*
X133535265Y-77946009D01*
X133302068Y-77381629D01*
X132870643Y-76949449D01*
X132744020Y-76896870D01*
X132702148Y-76686369D01*
X132537401Y-76439807D01*
X130260000Y-74162406D01*
X130260000Y-71172815D01*
X132114630Y-71172815D01*
X132438980Y-71957800D01*
X133039041Y-72558909D01*
X133823459Y-72884628D01*
X134672815Y-72885370D01*
X135457800Y-72561020D01*
X135745035Y-72274285D01*
X137214760Y-72274285D01*
X137425169Y-72783515D01*
X137814436Y-73173461D01*
X138323298Y-73384759D01*
X138874285Y-73385240D01*
X139383515Y-73174831D01*
X139773461Y-72785564D01*
X139984759Y-72276702D01*
X139984835Y-72189967D01*
X140537401Y-71637401D01*
X140630920Y-71497440D01*
X140850000Y-71497440D01*
X141085317Y-71453162D01*
X141301441Y-71314090D01*
X141446431Y-71101890D01*
X141497440Y-70850000D01*
X141497440Y-69150000D01*
X141453162Y-68914683D01*
X141314090Y-68698559D01*
X141101890Y-68553569D01*
X141034459Y-68539914D01*
X141079147Y-68510054D01*
X141401054Y-68028285D01*
X141514093Y-67460000D01*
X141401054Y-66891715D01*
X141079147Y-66409946D01*
X140760000Y-66196699D01*
X140760000Y-63400000D01*
X140702148Y-63109161D01*
X140570220Y-62911716D01*
X140584759Y-62876702D01*
X140585240Y-62325715D01*
X140581917Y-62317673D01*
X140902622Y-62531961D01*
X141470907Y-62645000D01*
X141529093Y-62645000D01*
X142097378Y-62531961D01*
X142579147Y-62210054D01*
X142901054Y-61728285D01*
X143014093Y-61160000D01*
X142901054Y-60591715D01*
X142579147Y-60109946D01*
X142238447Y-59882298D01*
X142381358Y-59815183D01*
X142771645Y-59386924D01*
X142941476Y-58976890D01*
X142820155Y-58747000D01*
X141627000Y-58747000D01*
X141627000Y-58767000D01*
X141373000Y-58767000D01*
X141373000Y-58747000D01*
X140179845Y-58747000D01*
X140058524Y-58976890D01*
X140228355Y-59386924D01*
X140618642Y-59815183D01*
X140761553Y-59882298D01*
X140420853Y-60109946D01*
X140098946Y-60591715D01*
X139985907Y-61160000D01*
X140052203Y-61493295D01*
X139985564Y-61426539D01*
X139476702Y-61215241D01*
X138925715Y-61214760D01*
X138416485Y-61425169D01*
X138026539Y-61814436D01*
X137815241Y-62323298D01*
X137814760Y-62874285D01*
X138025169Y-63383515D01*
X138414436Y-63773461D01*
X138923298Y-63984759D01*
X139240000Y-63985035D01*
X139240000Y-66196699D01*
X138920853Y-66409946D01*
X138598946Y-66891715D01*
X138485907Y-67460000D01*
X138598946Y-68028285D01*
X138920853Y-68510054D01*
X138962452Y-68537850D01*
X138914683Y-68546838D01*
X138698559Y-68685910D01*
X138553569Y-68898110D01*
X138502560Y-69150000D01*
X138502560Y-70614914D01*
X138325715Y-70614760D01*
X137816485Y-70825169D01*
X137426539Y-71214436D01*
X137215241Y-71723298D01*
X137214760Y-72274285D01*
X135745035Y-72274285D01*
X136058909Y-71960959D01*
X136384628Y-71176541D01*
X136385370Y-70327185D01*
X136061020Y-69542200D01*
X135460959Y-68941091D01*
X134676541Y-68615372D01*
X133827185Y-68614630D01*
X133042200Y-68938980D01*
X132441091Y-69539041D01*
X132115372Y-70323459D01*
X132114630Y-71172815D01*
X130260000Y-71172815D01*
X130260000Y-63596846D01*
X130368371Y-63552068D01*
X130750288Y-63170818D01*
X131129357Y-63550551D01*
X131255980Y-63603130D01*
X131297852Y-63813631D01*
X131462599Y-64060193D01*
X131639807Y-64237401D01*
X131886369Y-64402148D01*
X132177208Y-64460000D01*
X132915453Y-64460000D01*
X132925169Y-64483515D01*
X133314436Y-64873461D01*
X133823298Y-65084759D01*
X134374285Y-65085240D01*
X134883515Y-64874831D01*
X135273461Y-64485564D01*
X135484759Y-63976702D01*
X135485240Y-63425715D01*
X135274831Y-62916485D01*
X134885564Y-62526539D01*
X134376702Y-62315241D01*
X133825715Y-62314760D01*
X133534839Y-62434947D01*
X133535265Y-61946009D01*
X133302068Y-61381629D01*
X132870643Y-60949449D01*
X132306670Y-60715267D01*
X131696009Y-60714735D01*
X131131629Y-60947932D01*
X130749712Y-61329182D01*
X130370643Y-60949449D01*
X129806670Y-60715267D01*
X129196009Y-60714735D01*
X128631629Y-60947932D01*
X128249712Y-61329182D01*
X127870643Y-60949449D01*
X127760000Y-60903506D01*
X127760000Y-60714802D01*
X128314802Y-60160000D01*
X134139340Y-60160000D01*
X134430179Y-60102148D01*
X134676741Y-59937401D01*
X135427721Y-59186421D01*
X135614436Y-59373461D01*
X136123298Y-59584759D01*
X136674285Y-59585240D01*
X137183515Y-59374831D01*
X137573461Y-58985564D01*
X137784759Y-58476702D01*
X137785240Y-57925715D01*
X137574831Y-57416485D01*
X137185564Y-57026539D01*
X136676702Y-56815241D01*
X136125715Y-56814760D01*
X135616485Y-57025169D01*
X135226539Y-57414436D01*
X135204812Y-57466759D01*
X135048500Y-57497852D01*
X134801939Y-57662599D01*
X133824538Y-58640000D01*
X128000000Y-58640000D01*
X127709161Y-58697852D01*
X127462599Y-58862599D01*
X126462599Y-59862599D01*
X126297852Y-60109161D01*
X126240000Y-60400000D01*
X126240000Y-60903154D01*
X126131629Y-60947932D01*
X125699449Y-61379357D01*
X125465267Y-61943330D01*
X125464769Y-62515389D01*
X125279715Y-62438548D01*
X124728728Y-62438067D01*
X124219498Y-62648476D01*
X123860000Y-63007348D01*
X123860000Y-56692183D01*
X124323459Y-56884628D01*
X125172815Y-56885370D01*
X125957800Y-56561020D01*
X126558909Y-55960959D01*
X126884628Y-55176541D01*
X126884631Y-55172815D01*
X132114630Y-55172815D01*
X132438980Y-55957800D01*
X133039041Y-56558909D01*
X133823459Y-56884628D01*
X134672815Y-56885370D01*
X135457800Y-56561020D01*
X136058909Y-55960959D01*
X136384628Y-55176541D01*
X136385370Y-54327185D01*
X136061020Y-53542200D01*
X136058824Y-53540000D01*
X139985907Y-53540000D01*
X140098946Y-54108285D01*
X140420853Y-54590054D01*
X140750026Y-54810000D01*
X140420853Y-55029946D01*
X140098946Y-55511715D01*
X139985907Y-56080000D01*
X140098946Y-56648285D01*
X140420853Y-57130054D01*
X140761553Y-57357702D01*
X140618642Y-57424817D01*
X140228355Y-57853076D01*
X140058524Y-58263110D01*
X140179845Y-58493000D01*
X141373000Y-58493000D01*
X141373000Y-58473000D01*
X141627000Y-58473000D01*
X141627000Y-58493000D01*
X142820155Y-58493000D01*
X142941476Y-58263110D01*
X142771645Y-57853076D01*
X142381358Y-57424817D01*
X142238447Y-57357702D01*
X142579147Y-57130054D01*
X142901054Y-56648285D01*
X143014093Y-56080000D01*
X143002429Y-56021359D01*
X143539041Y-56558909D01*
X144323459Y-56884628D01*
X145172815Y-56885370D01*
X145957800Y-56561020D01*
X146558909Y-55960959D01*
X146884628Y-55176541D01*
X146885370Y-54327185D01*
X146561020Y-53542200D01*
X145960959Y-52941091D01*
X145176541Y-52615372D01*
X144327185Y-52614630D01*
X143542200Y-52938980D01*
X143001840Y-53478398D01*
X142901054Y-52971715D01*
X142579147Y-52489946D01*
X142238447Y-52262298D01*
X142381358Y-52195183D01*
X142771645Y-51766924D01*
X142941476Y-51356890D01*
X142820155Y-51127000D01*
X141627000Y-51127000D01*
X141627000Y-51147000D01*
X141373000Y-51147000D01*
X141373000Y-51127000D01*
X140179845Y-51127000D01*
X140058524Y-51356890D01*
X140228355Y-51766924D01*
X140618642Y-52195183D01*
X140761553Y-52262298D01*
X140420853Y-52489946D01*
X140098946Y-52971715D01*
X139985907Y-53540000D01*
X136058824Y-53540000D01*
X135460959Y-52941091D01*
X134676541Y-52615372D01*
X133827185Y-52614630D01*
X133042200Y-52938980D01*
X132441091Y-53539041D01*
X132115372Y-54323459D01*
X132114630Y-55172815D01*
X126884631Y-55172815D01*
X126885370Y-54327185D01*
X126561020Y-53542200D01*
X125960959Y-52941091D01*
X125176541Y-52615372D01*
X124327185Y-52614630D01*
X123860000Y-52807667D01*
X123860000Y-46060000D01*
X125041525Y-46060000D01*
X125015241Y-46123298D01*
X125014760Y-46674285D01*
X125225169Y-47183515D01*
X125291315Y-47249776D01*
X125226539Y-47314439D01*
X125015241Y-47823301D01*
X125014760Y-48374288D01*
X125225169Y-48883518D01*
X125614436Y-49273464D01*
X126123298Y-49484762D01*
X126674285Y-49485243D01*
X127183515Y-49274834D01*
X127573461Y-48885567D01*
X127672427Y-48647229D01*
X128562599Y-49537401D01*
X128809160Y-49702148D01*
X129100000Y-49760000D01*
X131285198Y-49760000D01*
X131962599Y-50437401D01*
X132209160Y-50602148D01*
X132500000Y-50660000D01*
X133500000Y-50660000D01*
X133790839Y-50602148D01*
X134037401Y-50437401D01*
X135637401Y-48837401D01*
X135802148Y-48590839D01*
X135860000Y-48300000D01*
X135860000Y-47873265D01*
X135930000Y-47887440D01*
X136461263Y-47887440D01*
X136477852Y-47970839D01*
X136642599Y-48217401D01*
X137224998Y-48799800D01*
X137215241Y-48823298D01*
X137214760Y-49374285D01*
X137425169Y-49883515D01*
X137814436Y-50273461D01*
X138323298Y-50484759D01*
X138874285Y-50485240D01*
X139383515Y-50274831D01*
X139773461Y-49885564D01*
X139984759Y-49376702D01*
X139985240Y-48825715D01*
X139774831Y-48316485D01*
X139385564Y-47926539D01*
X138876702Y-47715241D01*
X138864129Y-47715230D01*
X138881441Y-47704090D01*
X139026431Y-47491890D01*
X139077440Y-47240000D01*
X139077440Y-45240000D01*
X139033162Y-45004683D01*
X139012402Y-44972422D01*
X139026431Y-44951890D01*
X139077440Y-44700000D01*
X139077440Y-42700000D01*
X139033162Y-42464683D01*
X139012402Y-42432422D01*
X139026431Y-42411890D01*
X139077440Y-42160000D01*
X139077440Y-41920000D01*
X139761587Y-41920000D01*
X140114436Y-42273464D01*
X140623298Y-42484762D01*
X141174285Y-42485243D01*
X141683515Y-42274834D01*
X142073461Y-41885567D01*
X142284759Y-41376705D01*
X142285240Y-40825718D01*
X142074831Y-40316488D01*
X142008685Y-40250227D01*
X142073461Y-40185564D01*
X142284759Y-39676702D01*
X142285240Y-39125715D01*
X142258087Y-39060000D01*
X148140000Y-39060000D01*
X148140000Y-41165198D01*
X148140000Y-41165198D01*
G37*
X148140000Y-41165198D02*
X147897401Y-40922599D01*
X147650839Y-40757852D01*
X147360000Y-40700000D01*
X146872954Y-40700000D01*
X146679147Y-40409946D01*
X146197378Y-40088039D01*
X145629093Y-39975000D01*
X145570907Y-39975000D01*
X145002622Y-40088039D01*
X144520853Y-40409946D01*
X144198946Y-40891715D01*
X144085907Y-41460000D01*
X144198946Y-42028285D01*
X144520853Y-42510054D01*
X144850026Y-42730000D01*
X144520853Y-42949946D01*
X144198946Y-43431715D01*
X144085907Y-44000000D01*
X144198946Y-44568285D01*
X144520853Y-45050054D01*
X144562452Y-45077850D01*
X144514683Y-45086838D01*
X144298559Y-45225910D01*
X144153569Y-45438110D01*
X144102560Y-45690000D01*
X144102560Y-47390000D01*
X144146838Y-47625317D01*
X144285910Y-47841441D01*
X144498110Y-47986431D01*
X144750000Y-48037440D01*
X146450000Y-48037440D01*
X146685317Y-47993162D01*
X146901441Y-47854090D01*
X147046431Y-47641890D01*
X147097440Y-47390000D01*
X147097440Y-47300000D01*
X147688788Y-47300000D01*
X148226209Y-47837421D01*
X148472771Y-48002168D01*
X148763610Y-48060020D01*
X149957806Y-48060020D01*
X150536152Y-48638366D01*
X150782713Y-48803113D01*
X151073553Y-48860965D01*
X152790453Y-48860965D01*
X152800169Y-48884480D01*
X152955418Y-49040000D01*
X145098653Y-49040000D01*
X144885564Y-48826539D01*
X144376702Y-48615241D01*
X143825715Y-48614760D01*
X143316485Y-48825169D01*
X142997440Y-49143658D01*
X142997440Y-47610000D01*
X142953162Y-47374683D01*
X142814090Y-47158559D01*
X142601890Y-47013569D01*
X142350000Y-46962560D01*
X140650000Y-46962560D01*
X140414683Y-47006838D01*
X140198559Y-47145910D01*
X140053569Y-47358110D01*
X140002560Y-47610000D01*
X140002560Y-49310000D01*
X140046838Y-49545317D01*
X140185910Y-49761441D01*
X140398110Y-49906431D01*
X140506107Y-49928301D01*
X140228355Y-50233076D01*
X140058524Y-50643110D01*
X140179845Y-50873000D01*
X141373000Y-50873000D01*
X141373000Y-50853000D01*
X141627000Y-50853000D01*
X141627000Y-50873000D01*
X142820155Y-50873000D01*
X142899792Y-50722097D01*
X142925169Y-50783515D01*
X143314436Y-51173461D01*
X143823298Y-51384759D01*
X144374285Y-51385240D01*
X144883515Y-51174831D01*
X145273461Y-50785564D01*
X145367123Y-50560000D01*
X153290453Y-50560000D01*
X153300169Y-50583515D01*
X153689436Y-50973461D01*
X154198298Y-51184759D01*
X154749285Y-51185240D01*
X155140000Y-51023800D01*
X155140000Y-52807817D01*
X154676541Y-52615372D01*
X153827185Y-52614630D01*
X153042200Y-52938980D01*
X152441091Y-53539041D01*
X152115372Y-54323459D01*
X152114630Y-55172815D01*
X152438980Y-55957800D01*
X153039041Y-56558909D01*
X153823459Y-56884628D01*
X154672815Y-56885370D01*
X155140000Y-56692333D01*
X155140000Y-68878579D01*
X154626541Y-68665372D01*
X153777185Y-68664630D01*
X152992200Y-68988980D01*
X152391091Y-69589041D01*
X152065372Y-70373459D01*
X152064630Y-71222815D01*
X152388980Y-72007800D01*
X152989041Y-72608909D01*
X153773459Y-72934628D01*
X154622815Y-72935370D01*
X155140000Y-72721673D01*
X155140000Y-102940000D01*
X131102482Y-102940000D01*
X131202148Y-102790839D01*
X131260000Y-102500000D01*
X131260000Y-99565000D01*
X131698333Y-99565000D01*
X131698333Y-102535000D01*
X135635000Y-102535000D01*
X135635000Y-101035000D01*
X145135000Y-101035000D01*
X145135000Y-98065000D01*
X143885000Y-98065000D01*
X143885000Y-96565000D01*
X131710238Y-96565000D01*
X131710238Y-99535000D01*
X131912617Y-99535000D01*
X131912617Y-99565000D01*
X131698333Y-99565000D01*
X131260000Y-99565000D01*
X131260000Y-96500000D01*
X131202148Y-96209161D01*
X131037401Y-95962599D01*
X130790839Y-95797852D01*
X130500000Y-95740000D01*
X124250000Y-95740000D01*
X123959161Y-95797852D01*
X123860000Y-95864109D01*
X123860000Y-93074285D01*
X129914760Y-93074285D01*
X130125169Y-93583515D01*
X130514436Y-93973461D01*
X131023298Y-94184759D01*
X131574285Y-94185240D01*
X132083515Y-93974831D01*
X132473461Y-93585564D01*
X132684759Y-93076702D01*
X132685240Y-92525715D01*
X132609403Y-92342176D01*
X132766579Y-92185000D01*
X140626477Y-92185000D01*
X140914436Y-92473461D01*
X141423298Y-92684759D01*
X141974285Y-92685240D01*
X142483515Y-92474831D01*
X142773852Y-92185000D01*
X144626477Y-92185000D01*
X144914436Y-92473461D01*
X145423298Y-92684759D01*
X145974285Y-92685240D01*
X146483515Y-92474831D01*
X146873461Y-92085564D01*
X147084759Y-91576702D01*
X147085240Y-91025715D01*
X146874831Y-90516485D01*
X146485564Y-90126539D01*
X145976702Y-89915241D01*
X145425715Y-89914760D01*
X144916485Y-90125169D01*
X144626148Y-90415000D01*
X142773523Y-90415000D01*
X142485564Y-90126539D01*
X141976702Y-89915241D01*
X141425715Y-89914760D01*
X140916485Y-90125169D01*
X140626148Y-90415000D01*
X132400005Y-90415000D01*
X132400000Y-90414999D01*
X132117516Y-90471190D01*
X132061325Y-90482367D01*
X131774210Y-90674210D01*
X131774208Y-90674213D01*
X131033653Y-91414767D01*
X131025715Y-91414760D01*
X130516485Y-91625169D01*
X130126539Y-92014436D01*
X129915241Y-92523298D01*
X129914760Y-93074285D01*
X123860000Y-93074285D01*
X123860000Y-79330159D01*
X126099446Y-79330159D01*
X126185852Y-79586643D01*
X126759336Y-79796458D01*
X127369460Y-79770839D01*
X127814148Y-79586643D01*
X127900554Y-79330159D01*
X127000000Y-78429605D01*
X126099446Y-79330159D01*
X123860000Y-79330159D01*
X123860000Y-78009336D01*
X125453542Y-78009336D01*
X125479161Y-78619460D01*
X125663357Y-79064148D01*
X125919841Y-79150554D01*
X126820395Y-78250000D01*
X125919841Y-77349446D01*
X125663357Y-77435852D01*
X125453542Y-78009336D01*
X123860000Y-78009336D01*
X123860000Y-77169841D01*
X126099446Y-77169841D01*
X127000000Y-78070395D01*
X127900554Y-77169841D01*
X127814148Y-76913357D01*
X127240664Y-76703542D01*
X126630540Y-76729161D01*
X126185852Y-76913357D01*
X126099446Y-77169841D01*
X123860000Y-77169841D01*
X123860000Y-72692183D01*
X124323459Y-72884628D01*
X125172815Y-72885370D01*
X125957800Y-72561020D01*
X126558909Y-71960959D01*
X126884628Y-71176541D01*
X126885370Y-70327185D01*
X126561020Y-69542200D01*
X125960959Y-68941091D01*
X125176541Y-68615372D01*
X124327185Y-68614630D01*
X123860000Y-68807667D01*
X123860000Y-64638696D01*
X124217449Y-64996768D01*
X124726311Y-65208066D01*
X125277298Y-65208547D01*
X125786528Y-64998138D01*
X126176474Y-64608871D01*
X126387772Y-64100009D01*
X126387914Y-63936888D01*
X126585036Y-63739766D01*
X126693330Y-63784733D01*
X127303991Y-63785265D01*
X127868371Y-63552068D01*
X128250288Y-63170818D01*
X128629357Y-63550551D01*
X128740000Y-63596494D01*
X128740000Y-74477208D01*
X128797852Y-74768047D01*
X128962599Y-75014609D01*
X131013672Y-77065682D01*
X130749712Y-77329182D01*
X130370643Y-76949449D01*
X129806670Y-76715267D01*
X129196009Y-76714735D01*
X128631629Y-76947932D01*
X128199449Y-77379357D01*
X128195706Y-77388372D01*
X128080159Y-77349446D01*
X127179605Y-78250000D01*
X128080159Y-79150554D01*
X128195214Y-79111793D01*
X128197932Y-79118371D01*
X128629357Y-79550551D01*
X128755980Y-79603130D01*
X128797852Y-79813631D01*
X128962599Y-80060193D01*
X129339807Y-80437401D01*
X129504535Y-80547468D01*
X129316485Y-80625169D01*
X128926539Y-81014436D01*
X128715241Y-81523298D01*
X128714760Y-82074285D01*
X128925169Y-82583515D01*
X129314436Y-82973461D01*
X129823298Y-83184759D01*
X130374285Y-83185240D01*
X130883515Y-82974831D01*
X131273461Y-82585564D01*
X131284076Y-82560000D01*
X134081244Y-82560000D01*
X133926539Y-82714436D01*
X133715241Y-83223298D01*
X133714760Y-83774285D01*
X133925169Y-84283515D01*
X134314436Y-84673461D01*
X134823298Y-84884759D01*
X135374285Y-84885240D01*
X135883515Y-84674831D01*
X136273461Y-84285564D01*
X136284076Y-84260000D01*
X140785201Y-84260000D01*
X144424998Y-87899797D01*
X144415241Y-87923295D01*
X144414760Y-88474282D01*
X144625169Y-88983512D01*
X145014436Y-89373458D01*
X145523298Y-89584756D01*
X146074285Y-89585237D01*
X146583515Y-89374828D01*
X146973461Y-88985561D01*
X147184759Y-88476699D01*
X147185240Y-87925712D01*
X146974831Y-87416482D01*
X146585564Y-87026536D01*
X146076702Y-86815238D01*
X145525715Y-86814757D01*
X145500132Y-86825327D01*
X142234805Y-83560000D01*
X143500000Y-83560000D01*
X143678272Y-83524539D01*
X143823298Y-83584759D01*
X144374285Y-83585240D01*
X144883515Y-83374831D01*
X145273461Y-82985564D01*
X145484759Y-82476702D01*
X145485240Y-81925715D01*
X145274831Y-81416485D01*
X144885564Y-81026539D01*
X144376702Y-80815241D01*
X143825715Y-80814760D01*
X143316485Y-81025169D01*
X142926539Y-81414436D01*
X142715241Y-81923298D01*
X142715139Y-82040000D01*
X137214802Y-82040000D01*
X136437401Y-81262599D01*
X136190839Y-81097852D01*
X135900000Y-81040000D01*
X134544109Y-81040000D01*
X134673461Y-80910873D01*
X134884759Y-80402011D01*
X134885240Y-79851024D01*
X134674831Y-79341794D01*
X134285564Y-78951848D01*
X133776702Y-78740550D01*
X133458495Y-78740272D01*
X133534733Y-78556670D01*
X133534804Y-78474285D01*
X141214760Y-78474285D01*
X141425169Y-78983515D01*
X141814436Y-79373461D01*
X142323298Y-79584759D01*
X142874285Y-79585240D01*
X143370620Y-79380159D01*
X146049446Y-79380159D01*
X146135852Y-79636643D01*
X146709336Y-79846458D01*
X147319460Y-79820839D01*
X147764148Y-79636643D01*
X147850554Y-79380159D01*
X146950000Y-78479605D01*
X146049446Y-79380159D01*
X143370620Y-79380159D01*
X143383515Y-79374831D01*
X143773461Y-78985564D01*
X143984759Y-78476702D01*
X143985123Y-78059336D01*
X145403542Y-78059336D01*
X145429161Y-78669460D01*
X145613357Y-79114148D01*
X145869841Y-79200554D01*
X146770395Y-78300000D01*
X145869841Y-77399446D01*
X145613357Y-77485852D01*
X145403542Y-78059336D01*
X143985123Y-78059336D01*
X143985240Y-77925715D01*
X143774831Y-77416485D01*
X143449755Y-77090842D01*
X143460000Y-77039340D01*
X143460000Y-72579817D01*
X143489041Y-72608909D01*
X144273459Y-72934628D01*
X145122815Y-72935370D01*
X145907800Y-72611020D01*
X146508909Y-72010959D01*
X146834628Y-71226541D01*
X146835370Y-70377185D01*
X146511020Y-69592200D01*
X145910959Y-68991091D01*
X145126541Y-68665372D01*
X144277185Y-68664630D01*
X143492200Y-68988980D01*
X143460000Y-69021124D01*
X143460000Y-65734802D01*
X147790001Y-70064803D01*
X147790001Y-77040098D01*
X147764148Y-76963357D01*
X147190664Y-76753542D01*
X146580540Y-76779161D01*
X146135852Y-76963357D01*
X146049446Y-77219841D01*
X146950000Y-78120395D01*
X146964143Y-78106253D01*
X147143748Y-78285858D01*
X147129605Y-78300000D01*
X148030159Y-79200554D01*
X148145214Y-79161793D01*
X148147932Y-79168371D01*
X148579357Y-79600551D01*
X148690000Y-79646494D01*
X148690000Y-80850000D01*
X148702542Y-80913053D01*
X148615241Y-81123298D01*
X148614760Y-81674285D01*
X148825169Y-82183515D01*
X149214436Y-82573461D01*
X149723298Y-82784759D01*
X150274285Y-82785240D01*
X150783515Y-82574831D01*
X151173461Y-82185564D01*
X151384759Y-81676702D01*
X151385240Y-81125715D01*
X151174831Y-80616485D01*
X150785564Y-80226539D01*
X150276702Y-80015241D01*
X150210000Y-80015183D01*
X150210000Y-79646846D01*
X150318371Y-79602068D01*
X150700288Y-79220818D01*
X151079357Y-79600551D01*
X151643330Y-79834733D01*
X152253991Y-79835265D01*
X152818371Y-79602068D01*
X153250551Y-79170643D01*
X153484733Y-78606670D01*
X153485265Y-77996009D01*
X153252068Y-77431629D01*
X152820643Y-76999449D01*
X152256670Y-76765267D01*
X151646009Y-76764735D01*
X151081629Y-76997932D01*
X150699712Y-77379182D01*
X150320643Y-76999449D01*
X149756670Y-76765267D01*
X149310001Y-76764878D01*
X149310001Y-69750001D01*
X149252149Y-69459162D01*
X149087402Y-69212600D01*
X144772283Y-64897481D01*
X145223298Y-65084759D01*
X145774285Y-65085240D01*
X146077390Y-64960000D01*
X151322792Y-64960000D01*
X151613631Y-64902148D01*
X151860193Y-64737401D01*
X152537401Y-64060193D01*
X152702148Y-63813631D01*
X152743951Y-63603477D01*
X152868371Y-63552068D01*
X153300551Y-63120643D01*
X153534733Y-62556670D01*
X153535265Y-61946009D01*
X153302068Y-61381629D01*
X152870643Y-60949449D01*
X152306670Y-60715267D01*
X151696009Y-60714735D01*
X151131629Y-60947932D01*
X150749712Y-61329182D01*
X150370643Y-60949449D01*
X149806670Y-60715267D01*
X149196009Y-60714735D01*
X149085287Y-60760485D01*
X148287401Y-59962599D01*
X148040839Y-59797852D01*
X147750000Y-59740000D01*
X145400000Y-59740000D01*
X145109161Y-59797852D01*
X144862599Y-59962599D01*
X142162599Y-62662599D01*
X141997852Y-62909161D01*
X141940000Y-63200000D01*
X141940000Y-76785422D01*
X141897852Y-76848501D01*
X141866850Y-77004359D01*
X141816485Y-77025169D01*
X141426539Y-77414436D01*
X141215241Y-77923298D01*
X141214760Y-78474285D01*
X133534804Y-78474285D01*
X133535265Y-77946009D01*
X133302068Y-77381629D01*
X132870643Y-76949449D01*
X132744020Y-76896870D01*
X132702148Y-76686369D01*
X132537401Y-76439807D01*
X130260000Y-74162406D01*
X130260000Y-71172815D01*
X132114630Y-71172815D01*
X132438980Y-71957800D01*
X133039041Y-72558909D01*
X133823459Y-72884628D01*
X134672815Y-72885370D01*
X135457800Y-72561020D01*
X135745035Y-72274285D01*
X137214760Y-72274285D01*
X137425169Y-72783515D01*
X137814436Y-73173461D01*
X138323298Y-73384759D01*
X138874285Y-73385240D01*
X139383515Y-73174831D01*
X139773461Y-72785564D01*
X139984759Y-72276702D01*
X139984835Y-72189967D01*
X140537401Y-71637401D01*
X140630920Y-71497440D01*
X140850000Y-71497440D01*
X141085317Y-71453162D01*
X141301441Y-71314090D01*
X141446431Y-71101890D01*
X141497440Y-70850000D01*
X141497440Y-69150000D01*
X141453162Y-68914683D01*
X141314090Y-68698559D01*
X141101890Y-68553569D01*
X141034459Y-68539914D01*
X141079147Y-68510054D01*
X141401054Y-68028285D01*
X141514093Y-67460000D01*
X141401054Y-66891715D01*
X141079147Y-66409946D01*
X140760000Y-66196699D01*
X140760000Y-63400000D01*
X140702148Y-63109161D01*
X140570220Y-62911716D01*
X140584759Y-62876702D01*
X140585240Y-62325715D01*
X140581917Y-62317673D01*
X140902622Y-62531961D01*
X141470907Y-62645000D01*
X141529093Y-62645000D01*
X142097378Y-62531961D01*
X142579147Y-62210054D01*
X142901054Y-61728285D01*
X143014093Y-61160000D01*
X142901054Y-60591715D01*
X142579147Y-60109946D01*
X142238447Y-59882298D01*
X142381358Y-59815183D01*
X142771645Y-59386924D01*
X142941476Y-58976890D01*
X142820155Y-58747000D01*
X141627000Y-58747000D01*
X141627000Y-58767000D01*
X141373000Y-58767000D01*
X141373000Y-58747000D01*
X140179845Y-58747000D01*
X140058524Y-58976890D01*
X140228355Y-59386924D01*
X140618642Y-59815183D01*
X140761553Y-59882298D01*
X140420853Y-60109946D01*
X140098946Y-60591715D01*
X139985907Y-61160000D01*
X140052203Y-61493295D01*
X139985564Y-61426539D01*
X139476702Y-61215241D01*
X138925715Y-61214760D01*
X138416485Y-61425169D01*
X138026539Y-61814436D01*
X137815241Y-62323298D01*
X137814760Y-62874285D01*
X138025169Y-63383515D01*
X138414436Y-63773461D01*
X138923298Y-63984759D01*
X139240000Y-63985035D01*
X139240000Y-66196699D01*
X138920853Y-66409946D01*
X138598946Y-66891715D01*
X138485907Y-67460000D01*
X138598946Y-68028285D01*
X138920853Y-68510054D01*
X138962452Y-68537850D01*
X138914683Y-68546838D01*
X138698559Y-68685910D01*
X138553569Y-68898110D01*
X138502560Y-69150000D01*
X138502560Y-70614914D01*
X138325715Y-70614760D01*
X137816485Y-70825169D01*
X137426539Y-71214436D01*
X137215241Y-71723298D01*
X137214760Y-72274285D01*
X135745035Y-72274285D01*
X136058909Y-71960959D01*
X136384628Y-71176541D01*
X136385370Y-70327185D01*
X136061020Y-69542200D01*
X135460959Y-68941091D01*
X134676541Y-68615372D01*
X133827185Y-68614630D01*
X133042200Y-68938980D01*
X132441091Y-69539041D01*
X132115372Y-70323459D01*
X132114630Y-71172815D01*
X130260000Y-71172815D01*
X130260000Y-63596846D01*
X130368371Y-63552068D01*
X130750288Y-63170818D01*
X131129357Y-63550551D01*
X131255980Y-63603130D01*
X131297852Y-63813631D01*
X131462599Y-64060193D01*
X131639807Y-64237401D01*
X131886369Y-64402148D01*
X132177208Y-64460000D01*
X132915453Y-64460000D01*
X132925169Y-64483515D01*
X133314436Y-64873461D01*
X133823298Y-65084759D01*
X134374285Y-65085240D01*
X134883515Y-64874831D01*
X135273461Y-64485564D01*
X135484759Y-63976702D01*
X135485240Y-63425715D01*
X135274831Y-62916485D01*
X134885564Y-62526539D01*
X134376702Y-62315241D01*
X133825715Y-62314760D01*
X133534839Y-62434947D01*
X133535265Y-61946009D01*
X133302068Y-61381629D01*
X132870643Y-60949449D01*
X132306670Y-60715267D01*
X131696009Y-60714735D01*
X131131629Y-60947932D01*
X130749712Y-61329182D01*
X130370643Y-60949449D01*
X129806670Y-60715267D01*
X129196009Y-60714735D01*
X128631629Y-60947932D01*
X128249712Y-61329182D01*
X127870643Y-60949449D01*
X127760000Y-60903506D01*
X127760000Y-60714802D01*
X128314802Y-60160000D01*
X134139340Y-60160000D01*
X134430179Y-60102148D01*
X134676741Y-59937401D01*
X135427721Y-59186421D01*
X135614436Y-59373461D01*
X136123298Y-59584759D01*
X136674285Y-59585240D01*
X137183515Y-59374831D01*
X137573461Y-58985564D01*
X137784759Y-58476702D01*
X137785240Y-57925715D01*
X137574831Y-57416485D01*
X137185564Y-57026539D01*
X136676702Y-56815241D01*
X136125715Y-56814760D01*
X135616485Y-57025169D01*
X135226539Y-57414436D01*
X135204812Y-57466759D01*
X135048500Y-57497852D01*
X134801939Y-57662599D01*
X133824538Y-58640000D01*
X128000000Y-58640000D01*
X127709161Y-58697852D01*
X127462599Y-58862599D01*
X126462599Y-59862599D01*
X126297852Y-60109161D01*
X126240000Y-60400000D01*
X126240000Y-60903154D01*
X126131629Y-60947932D01*
X125699449Y-61379357D01*
X125465267Y-61943330D01*
X125464769Y-62515389D01*
X125279715Y-62438548D01*
X124728728Y-62438067D01*
X124219498Y-62648476D01*
X123860000Y-63007348D01*
X123860000Y-56692183D01*
X124323459Y-56884628D01*
X125172815Y-56885370D01*
X125957800Y-56561020D01*
X126558909Y-55960959D01*
X126884628Y-55176541D01*
X126884631Y-55172815D01*
X132114630Y-55172815D01*
X132438980Y-55957800D01*
X133039041Y-56558909D01*
X133823459Y-56884628D01*
X134672815Y-56885370D01*
X135457800Y-56561020D01*
X136058909Y-55960959D01*
X136384628Y-55176541D01*
X136385370Y-54327185D01*
X136061020Y-53542200D01*
X136058824Y-53540000D01*
X139985907Y-53540000D01*
X140098946Y-54108285D01*
X140420853Y-54590054D01*
X140750026Y-54810000D01*
X140420853Y-55029946D01*
X140098946Y-55511715D01*
X139985907Y-56080000D01*
X140098946Y-56648285D01*
X140420853Y-57130054D01*
X140761553Y-57357702D01*
X140618642Y-57424817D01*
X140228355Y-57853076D01*
X140058524Y-58263110D01*
X140179845Y-58493000D01*
X141373000Y-58493000D01*
X141373000Y-58473000D01*
X141627000Y-58473000D01*
X141627000Y-58493000D01*
X142820155Y-58493000D01*
X142941476Y-58263110D01*
X142771645Y-57853076D01*
X142381358Y-57424817D01*
X142238447Y-57357702D01*
X142579147Y-57130054D01*
X142901054Y-56648285D01*
X143014093Y-56080000D01*
X143002429Y-56021359D01*
X143539041Y-56558909D01*
X144323459Y-56884628D01*
X145172815Y-56885370D01*
X145957800Y-56561020D01*
X146558909Y-55960959D01*
X146884628Y-55176541D01*
X146885370Y-54327185D01*
X146561020Y-53542200D01*
X145960959Y-52941091D01*
X145176541Y-52615372D01*
X144327185Y-52614630D01*
X143542200Y-52938980D01*
X143001840Y-53478398D01*
X142901054Y-52971715D01*
X142579147Y-52489946D01*
X142238447Y-52262298D01*
X142381358Y-52195183D01*
X142771645Y-51766924D01*
X142941476Y-51356890D01*
X142820155Y-51127000D01*
X141627000Y-51127000D01*
X141627000Y-51147000D01*
X141373000Y-51147000D01*
X141373000Y-51127000D01*
X140179845Y-51127000D01*
X140058524Y-51356890D01*
X140228355Y-51766924D01*
X140618642Y-52195183D01*
X140761553Y-52262298D01*
X140420853Y-52489946D01*
X140098946Y-52971715D01*
X139985907Y-53540000D01*
X136058824Y-53540000D01*
X135460959Y-52941091D01*
X134676541Y-52615372D01*
X133827185Y-52614630D01*
X133042200Y-52938980D01*
X132441091Y-53539041D01*
X132115372Y-54323459D01*
X132114630Y-55172815D01*
X126884631Y-55172815D01*
X126885370Y-54327185D01*
X126561020Y-53542200D01*
X125960959Y-52941091D01*
X125176541Y-52615372D01*
X124327185Y-52614630D01*
X123860000Y-52807667D01*
X123860000Y-46060000D01*
X125041525Y-46060000D01*
X125015241Y-46123298D01*
X125014760Y-46674285D01*
X125225169Y-47183515D01*
X125291315Y-47249776D01*
X125226539Y-47314439D01*
X125015241Y-47823301D01*
X125014760Y-48374288D01*
X125225169Y-48883518D01*
X125614436Y-49273464D01*
X126123298Y-49484762D01*
X126674285Y-49485243D01*
X127183515Y-49274834D01*
X127573461Y-48885567D01*
X127672427Y-48647229D01*
X128562599Y-49537401D01*
X128809160Y-49702148D01*
X129100000Y-49760000D01*
X131285198Y-49760000D01*
X131962599Y-50437401D01*
X132209160Y-50602148D01*
X132500000Y-50660000D01*
X133500000Y-50660000D01*
X133790839Y-50602148D01*
X134037401Y-50437401D01*
X135637401Y-48837401D01*
X135802148Y-48590839D01*
X135860000Y-48300000D01*
X135860000Y-47873265D01*
X135930000Y-47887440D01*
X136461263Y-47887440D01*
X136477852Y-47970839D01*
X136642599Y-48217401D01*
X137224998Y-48799800D01*
X137215241Y-48823298D01*
X137214760Y-49374285D01*
X137425169Y-49883515D01*
X137814436Y-50273461D01*
X138323298Y-50484759D01*
X138874285Y-50485240D01*
X139383515Y-50274831D01*
X139773461Y-49885564D01*
X139984759Y-49376702D01*
X139985240Y-48825715D01*
X139774831Y-48316485D01*
X139385564Y-47926539D01*
X138876702Y-47715241D01*
X138864129Y-47715230D01*
X138881441Y-47704090D01*
X139026431Y-47491890D01*
X139077440Y-47240000D01*
X139077440Y-45240000D01*
X139033162Y-45004683D01*
X139012402Y-44972422D01*
X139026431Y-44951890D01*
X139077440Y-44700000D01*
X139077440Y-42700000D01*
X139033162Y-42464683D01*
X139012402Y-42432422D01*
X139026431Y-42411890D01*
X139077440Y-42160000D01*
X139077440Y-41920000D01*
X139761587Y-41920000D01*
X140114436Y-42273464D01*
X140623298Y-42484762D01*
X141174285Y-42485243D01*
X141683515Y-42274834D01*
X142073461Y-41885567D01*
X142284759Y-41376705D01*
X142285240Y-40825718D01*
X142074831Y-40316488D01*
X142008685Y-40250227D01*
X142073461Y-40185564D01*
X142284759Y-39676702D01*
X142285240Y-39125715D01*
X142258087Y-39060000D01*
X148140000Y-39060000D01*
X148140000Y-41165198D01*
M02*
