G04 #@! TF.FileFunction,Copper,L1,Top,Signal*
%FSLAX46Y46*%
G04 Gerber Fmt 4.6, Leading zero omitted, Abs format (unit mm)*
G04 Created by KiCad (PCBNEW 4.0.6) date 12/29/17 02:02:35*
%MOMM*%
%LPD*%
G01*
G04 APERTURE LIST*
%ADD10C,0.100000*%
%ADD11C,0.200000*%
%ADD12R,0.800000X0.900000*%
%ADD13R,1.700000X1.700000*%
%ADD14O,1.700000X1.700000*%
%ADD15R,2.500000X2.000000*%
%ADD16R,0.750000X0.800000*%
%ADD17R,0.700000X1.300000*%
%ADD18R,0.508000X1.143000*%
%ADD19C,1.800000*%
%ADD20C,3.000000*%
%ADD21R,0.500000X0.900000*%
%ADD22R,2.940000X1.000000*%
%ADD23C,4.800000*%
%ADD24R,4.800000X4.800000*%
%ADD25R,0.900000X0.800000*%
%ADD26R,1.600000X2.600000*%
%ADD27R,3.000000X1.600000*%
%ADD28R,0.800000X0.750000*%
%ADD29R,1.600000X3.000000*%
%ADD30R,0.900000X0.500000*%
%ADD31C,1.500000*%
%ADD32C,0.250000*%
%ADD33C,0.500000*%
%ADD34C,0.254000*%
G04 APERTURE END LIST*
D10*
D11*
X58726190Y-97285714D02*
X58964285Y-97952381D01*
X59202381Y-97285714D01*
X59773809Y-96952381D02*
X59869048Y-96952381D01*
X59964286Y-97000000D01*
X60011905Y-97047619D01*
X60059524Y-97142857D01*
X60107143Y-97333333D01*
X60107143Y-97571429D01*
X60059524Y-97761905D01*
X60011905Y-97857143D01*
X59964286Y-97904762D01*
X59869048Y-97952381D01*
X59773809Y-97952381D01*
X59678571Y-97904762D01*
X59630952Y-97857143D01*
X59583333Y-97761905D01*
X59535714Y-97571429D01*
X59535714Y-97333333D01*
X59583333Y-97142857D01*
X59630952Y-97047619D01*
X59678571Y-97000000D01*
X59773809Y-96952381D01*
X60488095Y-97047619D02*
X60535714Y-97000000D01*
X60630952Y-96952381D01*
X60869048Y-96952381D01*
X60964286Y-97000000D01*
X61011905Y-97047619D01*
X61059524Y-97142857D01*
X61059524Y-97238095D01*
X61011905Y-97380952D01*
X60440476Y-97952381D01*
X61059524Y-97952381D01*
X56285712Y-96202381D02*
X56285712Y-95202381D01*
X56714284Y-96202381D02*
X56714284Y-95678571D01*
X56666665Y-95583333D01*
X56571427Y-95535714D01*
X56428569Y-95535714D01*
X56333331Y-95583333D01*
X56285712Y-95630952D01*
X57333331Y-96202381D02*
X57238093Y-96154762D01*
X57190474Y-96107143D01*
X57142855Y-96011905D01*
X57142855Y-95726190D01*
X57190474Y-95630952D01*
X57238093Y-95583333D01*
X57333331Y-95535714D01*
X57476189Y-95535714D01*
X57571427Y-95583333D01*
X57619046Y-95630952D01*
X57666665Y-95726190D01*
X57666665Y-96011905D01*
X57619046Y-96107143D01*
X57571427Y-96154762D01*
X57476189Y-96202381D01*
X57333331Y-96202381D01*
X57952379Y-95535714D02*
X58333331Y-95535714D01*
X58095236Y-95202381D02*
X58095236Y-96059524D01*
X58142855Y-96154762D01*
X58238093Y-96202381D01*
X58333331Y-96202381D01*
X59380951Y-96154762D02*
X59476189Y-96202381D01*
X59666665Y-96202381D01*
X59761904Y-96154762D01*
X59809523Y-96059524D01*
X59809523Y-96011905D01*
X59761904Y-95916667D01*
X59666665Y-95869048D01*
X59523808Y-95869048D01*
X59428570Y-95821429D01*
X59380951Y-95726190D01*
X59380951Y-95678571D01*
X59428570Y-95583333D01*
X59523808Y-95535714D01*
X59666665Y-95535714D01*
X59761904Y-95583333D01*
X60238094Y-96202381D02*
X60238094Y-95535714D01*
X60238094Y-95202381D02*
X60190475Y-95250000D01*
X60238094Y-95297619D01*
X60285713Y-95250000D01*
X60238094Y-95202381D01*
X60238094Y-95297619D01*
X60857141Y-96202381D02*
X60761903Y-96154762D01*
X60714284Y-96059524D01*
X60714284Y-95202381D01*
X61238094Y-96202381D02*
X61238094Y-95535714D01*
X61238094Y-95202381D02*
X61190475Y-95250000D01*
X61238094Y-95297619D01*
X61285713Y-95250000D01*
X61238094Y-95202381D01*
X61238094Y-95297619D01*
X62142856Y-96154762D02*
X62047618Y-96202381D01*
X61857141Y-96202381D01*
X61761903Y-96154762D01*
X61714284Y-96107143D01*
X61666665Y-96011905D01*
X61666665Y-95726190D01*
X61714284Y-95630952D01*
X61761903Y-95583333D01*
X61857141Y-95535714D01*
X62047618Y-95535714D01*
X62142856Y-95583333D01*
X62714284Y-96202381D02*
X62619046Y-96154762D01*
X62571427Y-96107143D01*
X62523808Y-96011905D01*
X62523808Y-95726190D01*
X62571427Y-95630952D01*
X62619046Y-95583333D01*
X62714284Y-95535714D01*
X62857142Y-95535714D01*
X62952380Y-95583333D01*
X62999999Y-95630952D01*
X63047618Y-95726190D01*
X63047618Y-96011905D01*
X62999999Y-96107143D01*
X62952380Y-96154762D01*
X62857142Y-96202381D01*
X62714284Y-96202381D01*
X63476189Y-95535714D02*
X63476189Y-96202381D01*
X63476189Y-95630952D02*
X63523808Y-95583333D01*
X63619046Y-95535714D01*
X63761904Y-95535714D01*
X63857142Y-95583333D01*
X63904761Y-95678571D01*
X63904761Y-96202381D01*
X64999999Y-95535714D02*
X65380951Y-95535714D01*
X65142856Y-96202381D02*
X65142856Y-95345238D01*
X65190475Y-95250000D01*
X65285713Y-95202381D01*
X65380951Y-95202381D01*
X66142857Y-95535714D02*
X66142857Y-96202381D01*
X65714285Y-95535714D02*
X65714285Y-96059524D01*
X65761904Y-96154762D01*
X65857142Y-96202381D01*
X66000000Y-96202381D01*
X66095238Y-96154762D01*
X66142857Y-96107143D01*
X66523809Y-95535714D02*
X67047619Y-95535714D01*
X66523809Y-96202381D01*
X67047619Y-96202381D01*
X67333333Y-95535714D02*
X67857143Y-95535714D01*
X67333333Y-96202381D01*
X67857143Y-96202381D01*
X57904762Y-94702381D02*
X57571428Y-94226190D01*
X57333333Y-94702381D02*
X57333333Y-93702381D01*
X57714286Y-93702381D01*
X57809524Y-93750000D01*
X57857143Y-93797619D01*
X57904762Y-93892857D01*
X57904762Y-94035714D01*
X57857143Y-94130952D01*
X57809524Y-94178571D01*
X57714286Y-94226190D01*
X57333333Y-94226190D01*
X58285714Y-94416667D02*
X58761905Y-94416667D01*
X58190476Y-94702381D02*
X58523809Y-93702381D01*
X58857143Y-94702381D01*
X59190476Y-94702381D02*
X59190476Y-93702381D01*
X59761905Y-94702381D01*
X59761905Y-93702381D01*
X60238095Y-94702381D02*
X60238095Y-93702381D01*
X60476190Y-93702381D01*
X60619048Y-93750000D01*
X60714286Y-93845238D01*
X60761905Y-93940476D01*
X60809524Y-94130952D01*
X60809524Y-94273810D01*
X60761905Y-94464286D01*
X60714286Y-94559524D01*
X60619048Y-94654762D01*
X60476190Y-94702381D01*
X60238095Y-94702381D01*
X61190476Y-94416667D02*
X61666667Y-94416667D01*
X61095238Y-94702381D02*
X61428571Y-93702381D01*
X61761905Y-94702381D01*
X62619048Y-93750000D02*
X62523810Y-93702381D01*
X62380953Y-93702381D01*
X62238095Y-93750000D01*
X62142857Y-93845238D01*
X62095238Y-93940476D01*
X62047619Y-94130952D01*
X62047619Y-94273810D01*
X62095238Y-94464286D01*
X62142857Y-94559524D01*
X62238095Y-94654762D01*
X62380953Y-94702381D01*
X62476191Y-94702381D01*
X62619048Y-94654762D01*
X62666667Y-94607143D01*
X62666667Y-94273810D01*
X62476191Y-94273810D01*
X63285714Y-93702381D02*
X63476191Y-93702381D01*
X63571429Y-93750000D01*
X63666667Y-93845238D01*
X63714286Y-94035714D01*
X63714286Y-94369048D01*
X63666667Y-94559524D01*
X63571429Y-94654762D01*
X63476191Y-94702381D01*
X63285714Y-94702381D01*
X63190476Y-94654762D01*
X63095238Y-94559524D01*
X63047619Y-94369048D01*
X63047619Y-94035714D01*
X63095238Y-93845238D01*
X63190476Y-93750000D01*
X63285714Y-93702381D01*
X64142857Y-94702381D02*
X64142857Y-93702381D01*
X64380952Y-93702381D01*
X64523810Y-93750000D01*
X64619048Y-93845238D01*
X64666667Y-93940476D01*
X64714286Y-94130952D01*
X64714286Y-94273810D01*
X64666667Y-94464286D01*
X64619048Y-94559524D01*
X64523810Y-94654762D01*
X64380952Y-94702381D01*
X64142857Y-94702381D01*
X65714286Y-94702381D02*
X65380952Y-94226190D01*
X65142857Y-94702381D02*
X65142857Y-93702381D01*
X65523810Y-93702381D01*
X65619048Y-93750000D01*
X65666667Y-93797619D01*
X65714286Y-93892857D01*
X65714286Y-94035714D01*
X65666667Y-94130952D01*
X65619048Y-94178571D01*
X65523810Y-94226190D01*
X65142857Y-94226190D01*
X66333333Y-93702381D02*
X66523810Y-93702381D01*
X66619048Y-93750000D01*
X66714286Y-93845238D01*
X66761905Y-94035714D01*
X66761905Y-94369048D01*
X66714286Y-94559524D01*
X66619048Y-94654762D01*
X66523810Y-94702381D01*
X66333333Y-94702381D01*
X66238095Y-94654762D01*
X66142857Y-94559524D01*
X66095238Y-94369048D01*
X66095238Y-94035714D01*
X66142857Y-93845238D01*
X66238095Y-93750000D01*
X66333333Y-93702381D01*
X67190476Y-94702381D02*
X67190476Y-93702381D01*
X67761905Y-94702381D01*
X67761905Y-93702381D01*
X132642857Y-100785714D02*
X132880952Y-101452381D01*
X133119048Y-100785714D01*
X133690476Y-100452381D02*
X133785715Y-100452381D01*
X133880953Y-100500000D01*
X133928572Y-100547619D01*
X133976191Y-100642857D01*
X134023810Y-100833333D01*
X134023810Y-101071429D01*
X133976191Y-101261905D01*
X133928572Y-101357143D01*
X133880953Y-101404762D01*
X133785715Y-101452381D01*
X133690476Y-101452381D01*
X133595238Y-101404762D01*
X133547619Y-101357143D01*
X133500000Y-101261905D01*
X133452381Y-101071429D01*
X133452381Y-100833333D01*
X133500000Y-100642857D01*
X133547619Y-100547619D01*
X133595238Y-100500000D01*
X133690476Y-100452381D01*
X134404762Y-100547619D02*
X134452381Y-100500000D01*
X134547619Y-100452381D01*
X134785715Y-100452381D01*
X134880953Y-100500000D01*
X134928572Y-100547619D01*
X134976191Y-100642857D01*
X134976191Y-100738095D01*
X134928572Y-100880952D01*
X134357143Y-101452381D01*
X134976191Y-101452381D01*
X132738095Y-99952381D02*
X132738095Y-98952381D01*
X133166667Y-99952381D02*
X133166667Y-99428571D01*
X133119048Y-99333333D01*
X133023810Y-99285714D01*
X132880952Y-99285714D01*
X132785714Y-99333333D01*
X132738095Y-99380952D01*
X133785714Y-99952381D02*
X133690476Y-99904762D01*
X133642857Y-99857143D01*
X133595238Y-99761905D01*
X133595238Y-99476190D01*
X133642857Y-99380952D01*
X133690476Y-99333333D01*
X133785714Y-99285714D01*
X133928572Y-99285714D01*
X134023810Y-99333333D01*
X134071429Y-99380952D01*
X134119048Y-99476190D01*
X134119048Y-99761905D01*
X134071429Y-99857143D01*
X134023810Y-99904762D01*
X133928572Y-99952381D01*
X133785714Y-99952381D01*
X134404762Y-99285714D02*
X134785714Y-99285714D01*
X134547619Y-98952381D02*
X134547619Y-99809524D01*
X134595238Y-99904762D01*
X134690476Y-99952381D01*
X134785714Y-99952381D01*
X135833334Y-99904762D02*
X135928572Y-99952381D01*
X136119048Y-99952381D01*
X136214287Y-99904762D01*
X136261906Y-99809524D01*
X136261906Y-99761905D01*
X136214287Y-99666667D01*
X136119048Y-99619048D01*
X135976191Y-99619048D01*
X135880953Y-99571429D01*
X135833334Y-99476190D01*
X135833334Y-99428571D01*
X135880953Y-99333333D01*
X135976191Y-99285714D01*
X136119048Y-99285714D01*
X136214287Y-99333333D01*
X136690477Y-99952381D02*
X136690477Y-99285714D01*
X136690477Y-98952381D02*
X136642858Y-99000000D01*
X136690477Y-99047619D01*
X136738096Y-99000000D01*
X136690477Y-98952381D01*
X136690477Y-99047619D01*
X137309524Y-99952381D02*
X137214286Y-99904762D01*
X137166667Y-99809524D01*
X137166667Y-98952381D01*
X137690477Y-99952381D02*
X137690477Y-99285714D01*
X137690477Y-98952381D02*
X137642858Y-99000000D01*
X137690477Y-99047619D01*
X137738096Y-99000000D01*
X137690477Y-98952381D01*
X137690477Y-99047619D01*
X138595239Y-99904762D02*
X138500001Y-99952381D01*
X138309524Y-99952381D01*
X138214286Y-99904762D01*
X138166667Y-99857143D01*
X138119048Y-99761905D01*
X138119048Y-99476190D01*
X138166667Y-99380952D01*
X138214286Y-99333333D01*
X138309524Y-99285714D01*
X138500001Y-99285714D01*
X138595239Y-99333333D01*
X139166667Y-99952381D02*
X139071429Y-99904762D01*
X139023810Y-99857143D01*
X138976191Y-99761905D01*
X138976191Y-99476190D01*
X139023810Y-99380952D01*
X139071429Y-99333333D01*
X139166667Y-99285714D01*
X139309525Y-99285714D01*
X139404763Y-99333333D01*
X139452382Y-99380952D01*
X139500001Y-99476190D01*
X139500001Y-99761905D01*
X139452382Y-99857143D01*
X139404763Y-99904762D01*
X139309525Y-99952381D01*
X139166667Y-99952381D01*
X139928572Y-99285714D02*
X139928572Y-99952381D01*
X139928572Y-99380952D02*
X139976191Y-99333333D01*
X140071429Y-99285714D01*
X140214287Y-99285714D01*
X140309525Y-99333333D01*
X140357144Y-99428571D01*
X140357144Y-99952381D01*
X141452382Y-99285714D02*
X141833334Y-99285714D01*
X141595239Y-99952381D02*
X141595239Y-99095238D01*
X141642858Y-99000000D01*
X141738096Y-98952381D01*
X141833334Y-98952381D01*
X142595240Y-99285714D02*
X142595240Y-99952381D01*
X142166668Y-99285714D02*
X142166668Y-99809524D01*
X142214287Y-99904762D01*
X142309525Y-99952381D01*
X142452383Y-99952381D01*
X142547621Y-99904762D01*
X142595240Y-99857143D01*
X142976192Y-99285714D02*
X143500002Y-99285714D01*
X142976192Y-99952381D01*
X143500002Y-99952381D01*
X143785716Y-99285714D02*
X144309526Y-99285714D01*
X143785716Y-99952381D01*
X144309526Y-99952381D01*
X133309524Y-98452381D02*
X132976190Y-97976190D01*
X132738095Y-98452381D02*
X132738095Y-97452381D01*
X133119048Y-97452381D01*
X133214286Y-97500000D01*
X133261905Y-97547619D01*
X133309524Y-97642857D01*
X133309524Y-97785714D01*
X133261905Y-97880952D01*
X133214286Y-97928571D01*
X133119048Y-97976190D01*
X132738095Y-97976190D01*
X133690476Y-98166667D02*
X134166667Y-98166667D01*
X133595238Y-98452381D02*
X133928571Y-97452381D01*
X134261905Y-98452381D01*
X134595238Y-98452381D02*
X134595238Y-97452381D01*
X135166667Y-98452381D01*
X135166667Y-97452381D01*
X135642857Y-98452381D02*
X135642857Y-97452381D01*
X135880952Y-97452381D01*
X136023810Y-97500000D01*
X136119048Y-97595238D01*
X136166667Y-97690476D01*
X136214286Y-97880952D01*
X136214286Y-98023810D01*
X136166667Y-98214286D01*
X136119048Y-98309524D01*
X136023810Y-98404762D01*
X135880952Y-98452381D01*
X135642857Y-98452381D01*
X136595238Y-98166667D02*
X137071429Y-98166667D01*
X136500000Y-98452381D02*
X136833333Y-97452381D01*
X137166667Y-98452381D01*
X138023810Y-97500000D02*
X137928572Y-97452381D01*
X137785715Y-97452381D01*
X137642857Y-97500000D01*
X137547619Y-97595238D01*
X137500000Y-97690476D01*
X137452381Y-97880952D01*
X137452381Y-98023810D01*
X137500000Y-98214286D01*
X137547619Y-98309524D01*
X137642857Y-98404762D01*
X137785715Y-98452381D01*
X137880953Y-98452381D01*
X138023810Y-98404762D01*
X138071429Y-98357143D01*
X138071429Y-98023810D01*
X137880953Y-98023810D01*
X138690476Y-97452381D02*
X138880953Y-97452381D01*
X138976191Y-97500000D01*
X139071429Y-97595238D01*
X139119048Y-97785714D01*
X139119048Y-98119048D01*
X139071429Y-98309524D01*
X138976191Y-98404762D01*
X138880953Y-98452381D01*
X138690476Y-98452381D01*
X138595238Y-98404762D01*
X138500000Y-98309524D01*
X138452381Y-98119048D01*
X138452381Y-97785714D01*
X138500000Y-97595238D01*
X138595238Y-97500000D01*
X138690476Y-97452381D01*
X139547619Y-98452381D02*
X139547619Y-97452381D01*
X139785714Y-97452381D01*
X139928572Y-97500000D01*
X140023810Y-97595238D01*
X140071429Y-97690476D01*
X140119048Y-97880952D01*
X140119048Y-98023810D01*
X140071429Y-98214286D01*
X140023810Y-98309524D01*
X139928572Y-98404762D01*
X139785714Y-98452381D01*
X139547619Y-98452381D01*
X141119048Y-98452381D02*
X140785714Y-97976190D01*
X140547619Y-98452381D02*
X140547619Y-97452381D01*
X140928572Y-97452381D01*
X141023810Y-97500000D01*
X141071429Y-97547619D01*
X141119048Y-97642857D01*
X141119048Y-97785714D01*
X141071429Y-97880952D01*
X141023810Y-97928571D01*
X140928572Y-97976190D01*
X140547619Y-97976190D01*
X141738095Y-97452381D02*
X141928572Y-97452381D01*
X142023810Y-97500000D01*
X142119048Y-97595238D01*
X142166667Y-97785714D01*
X142166667Y-98119048D01*
X142119048Y-98309524D01*
X142023810Y-98404762D01*
X141928572Y-98452381D01*
X141738095Y-98452381D01*
X141642857Y-98404762D01*
X141547619Y-98309524D01*
X141500000Y-98119048D01*
X141500000Y-97785714D01*
X141547619Y-97595238D01*
X141642857Y-97500000D01*
X141738095Y-97452381D01*
X142595238Y-98452381D02*
X142595238Y-97452381D01*
X143166667Y-98452381D01*
X143166667Y-97452381D01*
D12*
X58650000Y-49400000D03*
X60550000Y-49400000D03*
X59600000Y-47400000D03*
D13*
X141500000Y-48460000D03*
D14*
X141500000Y-51000000D03*
X141500000Y-53540000D03*
X141500000Y-56080000D03*
X141500000Y-58620000D03*
X141500000Y-61160000D03*
D15*
X137180000Y-46240000D03*
X133020000Y-46240000D03*
X137180000Y-43700000D03*
X133020000Y-43700000D03*
X137180000Y-41160000D03*
X133020000Y-41160000D03*
D13*
X55000000Y-48440000D03*
D14*
X55000000Y-50980000D03*
X55000000Y-53520000D03*
X55000000Y-56060000D03*
X55000000Y-58600000D03*
X55000000Y-61140000D03*
D16*
X63200000Y-70350000D03*
X63200000Y-68850000D03*
D17*
X43550000Y-55000000D03*
X45450000Y-55000000D03*
X41250000Y-51000000D03*
X39350000Y-51000000D03*
D18*
X59310000Y-63948000D03*
X58040000Y-63948000D03*
X56770000Y-63948000D03*
X55500000Y-63948000D03*
X54230000Y-63948000D03*
X52960000Y-63948000D03*
X51690000Y-63948000D03*
X51690000Y-70298000D03*
X52960000Y-70298000D03*
X55500000Y-70298000D03*
X56770000Y-70298000D03*
X58040000Y-70298000D03*
X59310000Y-70298000D03*
X54230000Y-70298000D03*
D19*
X127000000Y-78250000D03*
X129500000Y-78250000D03*
X132000000Y-78250000D03*
D20*
X124750000Y-70750000D03*
X134250000Y-70750000D03*
D19*
X127000000Y-62250000D03*
X129500000Y-62250000D03*
X132000000Y-62250000D03*
D20*
X124750000Y-54750000D03*
X134250000Y-54750000D03*
D19*
X146950000Y-78300000D03*
X149450000Y-78300000D03*
X151950000Y-78300000D03*
D20*
X144700000Y-70800000D03*
X154200000Y-70800000D03*
D19*
X147000000Y-62250000D03*
X149500000Y-62250000D03*
X152000000Y-62250000D03*
D20*
X144750000Y-54750000D03*
X154250000Y-54750000D03*
D21*
X61500000Y-67000000D03*
X63000000Y-67000000D03*
X63100000Y-64900000D03*
X61600000Y-64900000D03*
X41550000Y-73100000D03*
X43050000Y-73100000D03*
D12*
X139650000Y-74600000D03*
X141550000Y-74600000D03*
X140600000Y-72600000D03*
D22*
X48530000Y-58170000D03*
X48530000Y-60710000D03*
X48530000Y-63250000D03*
X48530000Y-65790000D03*
X48530000Y-68330000D03*
X38970000Y-68330000D03*
X38970000Y-65790000D03*
X38970000Y-63250000D03*
X38970000Y-60710000D03*
X38970000Y-58170000D03*
D13*
X67000000Y-68790000D03*
D14*
X67000000Y-66250000D03*
D23*
X66100000Y-59000000D03*
D24*
X60000000Y-59000000D03*
D23*
X63810000Y-53920000D03*
D20*
X41300000Y-101450000D03*
X47650000Y-101450000D03*
X54000000Y-90000000D03*
X54000000Y-101450000D03*
X41300000Y-90000000D03*
X47650000Y-90000000D03*
X64300000Y-73850000D03*
X57950000Y-73850000D03*
X51600000Y-85300000D03*
X51600000Y-73850000D03*
X64300000Y-85300000D03*
X57950000Y-85300000D03*
D13*
X140000000Y-70000000D03*
D14*
X140000000Y-67460000D03*
D25*
X41400000Y-55150000D03*
X41400000Y-53250000D03*
X39400000Y-54200000D03*
D16*
X61500000Y-68850000D03*
X61500000Y-70350000D03*
D25*
X49400000Y-54950000D03*
X49400000Y-53050000D03*
X47400000Y-54000000D03*
D26*
X48400000Y-50200000D03*
X48400000Y-46600000D03*
D27*
X134600000Y-92800000D03*
X139000000Y-92800000D03*
D28*
X145850000Y-86600000D03*
X147350000Y-86600000D03*
D29*
X138700000Y-77800000D03*
X138700000Y-82200000D03*
D16*
X126200000Y-92400000D03*
X126200000Y-93900000D03*
D28*
X137100000Y-49100000D03*
X135600000Y-49100000D03*
D16*
X128400000Y-47250000D03*
X128400000Y-48750000D03*
D28*
X138900000Y-54600000D03*
X137400000Y-54600000D03*
X152950000Y-87100000D03*
X154450000Y-87100000D03*
D27*
X148800000Y-92700000D03*
X153200000Y-92700000D03*
D13*
X145600000Y-46540000D03*
D14*
X145600000Y-44000000D03*
X145600000Y-41460000D03*
D25*
X151100000Y-85300000D03*
X151100000Y-83400000D03*
X149100000Y-84350000D03*
X137800000Y-87050000D03*
X137800000Y-85150000D03*
X135800000Y-86100000D03*
X130100000Y-85250000D03*
X130100000Y-83350000D03*
X128100000Y-84300000D03*
X128100000Y-90150000D03*
X128100000Y-92050000D03*
X130100000Y-91100000D03*
D21*
X149600000Y-87100000D03*
X151100000Y-87100000D03*
X151100000Y-88900000D03*
X149600000Y-88900000D03*
X145950000Y-84300000D03*
X147450000Y-84300000D03*
D30*
X152800000Y-83400000D03*
X152800000Y-81900000D03*
X133800000Y-87650000D03*
X133800000Y-86150000D03*
X139800000Y-85150000D03*
X139800000Y-86650000D03*
X148600000Y-49050000D03*
X148600000Y-47550000D03*
D21*
X147650000Y-82200000D03*
X146150000Y-82200000D03*
X132250000Y-83400000D03*
X133750000Y-83400000D03*
X129550000Y-87700000D03*
X128050000Y-87700000D03*
X128050000Y-93900000D03*
X129550000Y-93900000D03*
X137400000Y-51000000D03*
X138900000Y-51000000D03*
X137400000Y-52800000D03*
X138900000Y-52800000D03*
D30*
X142700000Y-39450000D03*
X142700000Y-40950000D03*
X124700000Y-46400000D03*
X124700000Y-47900000D03*
D21*
X124750000Y-49700000D03*
X126250000Y-49700000D03*
D17*
X141000000Y-64400000D03*
X139100000Y-64400000D03*
D21*
X153000000Y-88900000D03*
X154500000Y-88900000D03*
D31*
X52699242Y-62205745D03*
X44400000Y-48000000D03*
X42700000Y-83400000D03*
X52300000Y-51000000D03*
X58280000Y-50980000D03*
X44400000Y-50200000D03*
X49400000Y-70600000D03*
X64700000Y-70300000D03*
X52100000Y-48400000D03*
X141700000Y-91300000D03*
X131300000Y-92800000D03*
X145700000Y-91300000D03*
X139000000Y-89000000D03*
X146375000Y-80500000D03*
X134700000Y-78600000D03*
X148298529Y-89098529D03*
X138478819Y-56378819D03*
X138500000Y-60000000D03*
X135100000Y-83500000D03*
X145800000Y-88199997D03*
X126400000Y-48100003D03*
X138600000Y-49100000D03*
X133000000Y-48700000D03*
X130100000Y-47300000D03*
X140900000Y-39400000D03*
X125003013Y-63823307D03*
X136400000Y-58200000D03*
X45900000Y-73100000D03*
X40974999Y-85225001D03*
X52800000Y-53500000D03*
X41910140Y-71310140D03*
X51000000Y-56800000D03*
X38400000Y-71000000D03*
X52400000Y-58600004D03*
X58700000Y-62350002D03*
X134100000Y-63700000D03*
X126400000Y-46400000D03*
X140900000Y-41100003D03*
X154475000Y-49800000D03*
X144100000Y-50000000D03*
X130100000Y-81800000D03*
X144100000Y-82200000D03*
X145500000Y-63700000D03*
X150000000Y-81400000D03*
X143800000Y-63700000D03*
X153975000Y-48100965D03*
X151600000Y-46400000D03*
X153400000Y-46500000D03*
X64600000Y-64900000D03*
X142600000Y-78200000D03*
X138600000Y-72000000D03*
X139200000Y-62600000D03*
X133500000Y-80125309D03*
X63800000Y-49300000D03*
D32*
X62750000Y-100254010D02*
X65500000Y-97504010D01*
X65500000Y-97504010D02*
X66995990Y-97504010D01*
X66500000Y-102500000D02*
X65500000Y-101500000D01*
X66995990Y-97504010D02*
X67741980Y-98250000D01*
X67750000Y-101250000D02*
X67750000Y-102500000D01*
X67741980Y-98250000D02*
X67741980Y-99241980D01*
X67741980Y-99241980D02*
X66750000Y-100233960D01*
X66750000Y-100233960D02*
X66750000Y-100250000D01*
X65500000Y-101500000D02*
X64500000Y-102500000D01*
X66750000Y-100250000D02*
X67750000Y-101250000D01*
X67750000Y-102500000D02*
X66500000Y-102500000D01*
X64500000Y-102500000D02*
X62750000Y-102500000D01*
X62750000Y-102500000D02*
X62750000Y-100254010D01*
X62754010Y-99500000D02*
X64750000Y-97504010D01*
X62754010Y-98750000D02*
X64000000Y-97504010D01*
X62754010Y-98000000D02*
X63250000Y-97504010D01*
X68250000Y-97000000D02*
X68250000Y-103000000D01*
X62250000Y-97000000D02*
X68250000Y-97000000D01*
X62250000Y-103000000D02*
X62250000Y-97000000D01*
X68250000Y-103000000D02*
X62250000Y-103000000D01*
X124750000Y-102000000D02*
X124750000Y-99750000D01*
X126750000Y-102000000D02*
X124750000Y-102000000D01*
X127750000Y-101000000D02*
X126750000Y-102000000D01*
X128750000Y-102000000D02*
X127750000Y-101000000D01*
X130000000Y-102000000D02*
X128750000Y-102000000D01*
X130000000Y-100750000D02*
X130000000Y-102000000D01*
X129000000Y-99750000D02*
X130000000Y-100750000D01*
X130000000Y-98750000D02*
X129000000Y-99750000D01*
X130000000Y-97750000D02*
X130000000Y-98750000D01*
X129250000Y-97000000D02*
X130000000Y-97750000D01*
X127500000Y-97000000D02*
X129250000Y-97000000D01*
X124750000Y-99750000D02*
X127500000Y-97000000D01*
X124750000Y-99000000D02*
X126750000Y-97000000D01*
X124750000Y-98250000D02*
X126000000Y-97000000D01*
X124750000Y-97500000D02*
X125245990Y-97004010D01*
X130500000Y-102500000D02*
X124250000Y-102500000D01*
X130500000Y-96500000D02*
X130500000Y-102500000D01*
X124250000Y-96500000D02*
X130500000Y-96500000D01*
X124250000Y-102500000D02*
X124250000Y-96500000D01*
D33*
X61500000Y-67000000D02*
X61500000Y-68850000D01*
X52960000Y-63948000D02*
X52960000Y-62466503D01*
X52960000Y-62466503D02*
X52699242Y-62205745D01*
X48400000Y-46600000D02*
X45800000Y-46600000D01*
X45800000Y-46600000D02*
X44400000Y-48000000D01*
X51690000Y-69226500D02*
X51690000Y-67400000D01*
X51690000Y-67400000D02*
X51690000Y-65990000D01*
X53100000Y-67400000D02*
X51690000Y-67400000D01*
X51690000Y-70298000D02*
X51690000Y-69226500D01*
X58589962Y-67400000D02*
X55500000Y-67400000D01*
X55500000Y-67400000D02*
X53100000Y-67400000D01*
X55500000Y-63948000D02*
X55500000Y-65019500D01*
X55500000Y-65019500D02*
X55500000Y-67400000D01*
X52960000Y-63948000D02*
X51690000Y-63948000D01*
X61500000Y-68850000D02*
X60039962Y-68850000D01*
X60039962Y-68850000D02*
X58589962Y-67400000D01*
X51690000Y-65990000D02*
X51690000Y-63948000D01*
X41550000Y-74450000D02*
X42700000Y-75600000D01*
X42700000Y-75600000D02*
X42700000Y-83400000D01*
X41550000Y-73100000D02*
X41550000Y-74450000D01*
X49500000Y-53000000D02*
X50300000Y-53000000D01*
X50300000Y-53000000D02*
X52300000Y-51000000D01*
X49400000Y-53050000D02*
X49450000Y-53050000D01*
X49450000Y-53050000D02*
X49500000Y-53000000D01*
X58650000Y-49400000D02*
X58650000Y-50610000D01*
X58650000Y-50610000D02*
X58280000Y-50980000D01*
X53999500Y-71600000D02*
X50400000Y-71600000D01*
X50400000Y-71600000D02*
X49400000Y-70600000D01*
X54230000Y-70298000D02*
X54230000Y-71369500D01*
X54230000Y-71369500D02*
X53999500Y-71600000D01*
X64700000Y-70300000D02*
X63250000Y-70300000D01*
X63250000Y-70300000D02*
X63200000Y-70350000D01*
X61500000Y-70350000D02*
X63200000Y-70350000D01*
X58500000Y-68300000D02*
X59310000Y-69110000D01*
X59310000Y-69110000D02*
X59310000Y-70298000D01*
X55156500Y-68300000D02*
X58500000Y-68300000D01*
X54230000Y-70298000D02*
X54230000Y-69226500D01*
X54230000Y-69226500D02*
X55156500Y-68300000D01*
X61500000Y-70350000D02*
X59362000Y-70350000D01*
X59362000Y-70350000D02*
X59310000Y-70298000D01*
X59600000Y-47400000D02*
X59600000Y-46450000D01*
X59600000Y-46450000D02*
X58250000Y-45100000D01*
X58250000Y-45100000D02*
X53400000Y-45100000D01*
X53400000Y-45100000D02*
X52100000Y-46400000D01*
X52100000Y-46400000D02*
X52100000Y-48400000D01*
X44400000Y-50200000D02*
X43600000Y-51000000D01*
X43600000Y-51000000D02*
X41250000Y-51000000D01*
X48400000Y-50200000D02*
X44400000Y-50200000D01*
X52100000Y-48400000D02*
X50300000Y-50200000D01*
X50300000Y-50200000D02*
X48400000Y-50200000D01*
X142599999Y-64400000D02*
X142599999Y-72099999D01*
X142599999Y-72099999D02*
X144200000Y-73700000D01*
X144200000Y-73700000D02*
X144200000Y-80300000D01*
X141526001Y-91126001D02*
X141700000Y-91300000D01*
X144200000Y-80300000D02*
X141526001Y-82973999D01*
X141526001Y-82973999D02*
X141526001Y-91126001D01*
X145950000Y-84300000D02*
X145200000Y-84300000D01*
X145200000Y-84300000D02*
X144600000Y-84900000D01*
X144600000Y-88700000D02*
X145300000Y-89400000D01*
X144600000Y-84900000D02*
X144600000Y-88700000D01*
X145300000Y-89400000D02*
X145800000Y-89400000D01*
X145800000Y-89400000D02*
X146700000Y-89400000D01*
X145700000Y-91300000D02*
X145700000Y-89500000D01*
X145700000Y-89500000D02*
X145800000Y-89400000D01*
X146700000Y-89400000D02*
X147098528Y-89001472D01*
X147098528Y-89001472D02*
X147098528Y-88601472D01*
X148600000Y-87100000D02*
X149600000Y-87100000D01*
X147098528Y-88601472D02*
X148600000Y-87100000D01*
X142599999Y-63000001D02*
X143224990Y-62375010D01*
X145300000Y-49200000D02*
X144560000Y-48460000D01*
X143224990Y-62375010D02*
X143224990Y-59675010D01*
X143224990Y-59675010D02*
X147100000Y-55800000D01*
X147100000Y-55800000D02*
X147100000Y-53700000D01*
X147100000Y-53700000D02*
X145300000Y-51900000D01*
X145300000Y-51900000D02*
X145300000Y-49200000D01*
X144560000Y-48460000D02*
X141500000Y-48460000D01*
X131300000Y-92800000D02*
X132600000Y-92800000D01*
X130900000Y-92800000D02*
X131300000Y-92800000D01*
X142599999Y-63000001D02*
X142599999Y-64400000D01*
X141000000Y-64400000D02*
X142599999Y-64400000D01*
X142599999Y-63000001D02*
X142599999Y-63800001D01*
X142000000Y-64400000D02*
X141000000Y-64400000D01*
X130100000Y-91100000D02*
X130100000Y-92000000D01*
X130100000Y-92000000D02*
X130900000Y-92800000D01*
X132600000Y-92800000D02*
X134600000Y-92800000D01*
X130100000Y-89700000D02*
X129550000Y-89150000D01*
X129550000Y-89150000D02*
X129550000Y-87700000D01*
X130100000Y-91100000D02*
X130100000Y-89700000D01*
X129550000Y-87700000D02*
X133750000Y-87700000D01*
X133750000Y-87700000D02*
X133800000Y-87650000D01*
D32*
X138700000Y-82200000D02*
X135700000Y-82200000D01*
X135700000Y-82200000D02*
X134700000Y-81200000D01*
X134700000Y-81200000D02*
X134700000Y-78600000D01*
X152800000Y-81900000D02*
X152800000Y-81000000D01*
X152800000Y-81000000D02*
X151800000Y-80000000D01*
X151800000Y-80000000D02*
X146875000Y-80000000D01*
X146875000Y-80000000D02*
X146375000Y-80500000D01*
X146150000Y-82200000D02*
X146150000Y-80725000D01*
X146150000Y-80725000D02*
X146375000Y-80500000D01*
X140500000Y-75700000D02*
X137600000Y-75700000D01*
X137600000Y-75700000D02*
X134700000Y-78600000D01*
X141550000Y-74600000D02*
X141550000Y-74650000D01*
X141550000Y-74650000D02*
X140500000Y-75700000D01*
X149600000Y-88900000D02*
X148497058Y-88900000D01*
X148497058Y-88900000D02*
X148298529Y-89098529D01*
X138478819Y-56378819D02*
X138900000Y-55957638D01*
X138900000Y-55957638D02*
X138900000Y-54600000D01*
X141500000Y-58620000D02*
X139880000Y-58620000D01*
X139880000Y-58620000D02*
X138500000Y-60000000D01*
X139800000Y-86650000D02*
X139800000Y-88200000D01*
X139800000Y-88200000D02*
X139000000Y-89000000D01*
X139000000Y-89000000D02*
X139000000Y-92800000D01*
X138200000Y-94900000D02*
X139000000Y-94100000D01*
X139000000Y-94100000D02*
X139000000Y-92800000D01*
X132000000Y-94900000D02*
X138200000Y-94900000D01*
X131000000Y-93900000D02*
X132000000Y-94900000D01*
X129550000Y-93900000D02*
X131000000Y-93900000D01*
X141500000Y-51000000D02*
X140297919Y-51000000D01*
X140297919Y-51000000D02*
X138900000Y-51000000D01*
X138900000Y-52800000D02*
X138900000Y-54600000D01*
X138900000Y-51000000D02*
X138900000Y-52800000D01*
X134200000Y-84800000D02*
X135100000Y-84800000D01*
X135100000Y-84800000D02*
X136300000Y-84800000D01*
X135100000Y-83500000D02*
X135100000Y-84800000D01*
X136300000Y-84800000D02*
X136800000Y-85300000D01*
X133750000Y-84350000D02*
X134200000Y-84800000D01*
X133750000Y-83400000D02*
X133750000Y-84350000D01*
X145850000Y-86600000D02*
X145850000Y-88149997D01*
X145850000Y-88149997D02*
X145800000Y-88199997D01*
X136800000Y-85300000D02*
X136800000Y-86750000D01*
X136800000Y-86750000D02*
X137100000Y-87050000D01*
X137100000Y-87050000D02*
X137800000Y-87050000D01*
X147450000Y-84300000D02*
X147450000Y-86500000D01*
X147450000Y-86500000D02*
X147350000Y-86600000D01*
X149100000Y-84350000D02*
X147500000Y-84350000D01*
X147500000Y-84350000D02*
X147450000Y-84300000D01*
X126250000Y-49700000D02*
X126250000Y-52213590D01*
X125600000Y-58300000D02*
X125600000Y-62900000D01*
X128000000Y-69000000D02*
X128000000Y-72400000D01*
X126250000Y-52213590D02*
X127500000Y-53463590D01*
X127500000Y-53463590D02*
X127500000Y-56400000D01*
X127500000Y-56400000D02*
X125600000Y-58300000D01*
X125600000Y-62900000D02*
X126200000Y-63500000D01*
X126200000Y-67200000D02*
X128000000Y-69000000D01*
X126200000Y-63500000D02*
X126200000Y-67200000D01*
X128000000Y-72400000D02*
X125300000Y-75100000D01*
X125300000Y-75100000D02*
X125300000Y-89500000D01*
X125300000Y-89500000D02*
X126200000Y-90400000D01*
X126200000Y-90400000D02*
X126200000Y-92400000D01*
X126250000Y-49700000D02*
X126250000Y-48250003D01*
X126250000Y-48250003D02*
X126400000Y-48100003D01*
X128100000Y-92050000D02*
X128100000Y-93850000D01*
X128100000Y-93850000D02*
X128050000Y-93900000D01*
X126200000Y-93900000D02*
X128050000Y-93900000D01*
X138600000Y-49100000D02*
X137100000Y-49100000D01*
X135600000Y-50100000D02*
X136500000Y-51000000D01*
X136500000Y-51000000D02*
X137400000Y-51000000D01*
X135600000Y-49100000D02*
X135600000Y-50100000D01*
X133400000Y-49100000D02*
X135600000Y-49100000D01*
X133000000Y-48700000D02*
X133400000Y-49100000D01*
X128400000Y-47250000D02*
X130050000Y-47250000D01*
X130050000Y-47250000D02*
X130100000Y-47300000D01*
X142700000Y-39450000D02*
X140950000Y-39450000D01*
X140950000Y-39450000D02*
X140900000Y-39400000D01*
X131250000Y-48750000D02*
X132900000Y-50400000D01*
X132900000Y-50400000D02*
X135263590Y-50400000D01*
X128400000Y-48750000D02*
X131250000Y-48750000D01*
X136500000Y-52400000D02*
X136500000Y-51636410D01*
X136500000Y-51636410D02*
X135263590Y-50400000D01*
X137400000Y-52800000D02*
X136900000Y-52800000D01*
X136900000Y-52800000D02*
X136500000Y-52400000D01*
X125003013Y-58096987D02*
X125003013Y-62762647D01*
X127049989Y-56050011D02*
X125003013Y-58096987D01*
X127049989Y-53649989D02*
X127049989Y-56050011D01*
X124750000Y-51350000D02*
X127049989Y-53649989D01*
X125003013Y-62762647D02*
X125003013Y-63823307D01*
X137400000Y-54600000D02*
X137400000Y-57200000D01*
X137400000Y-57200000D02*
X136400000Y-58200000D01*
X125875001Y-52475001D02*
X124750000Y-51350000D01*
X124750000Y-51350000D02*
X124750000Y-49700000D01*
X124700000Y-47900000D02*
X124700000Y-49650000D01*
X124700000Y-49650000D02*
X124750000Y-49700000D01*
X48530000Y-58170000D02*
X45070000Y-58170000D01*
X45070000Y-58170000D02*
X43550000Y-56650000D01*
X43550000Y-56650000D02*
X43550000Y-55000000D01*
X43550000Y-55000000D02*
X41550000Y-55000000D01*
X41550000Y-55000000D02*
X41400000Y-55150000D01*
X43050000Y-73100000D02*
X43050000Y-64050000D01*
X43050000Y-64050000D02*
X43850000Y-63250000D01*
X43850000Y-63250000D02*
X48530000Y-63250000D01*
X45900000Y-73100000D02*
X44839340Y-73100000D01*
X44839340Y-73100000D02*
X43050000Y-73100000D01*
X38970000Y-63250000D02*
X41150000Y-63250000D01*
X41150000Y-63250000D02*
X41700000Y-63800000D01*
X41700000Y-63800000D02*
X41700000Y-70000000D01*
X41700000Y-70000000D02*
X39800000Y-71900000D01*
X39800000Y-71900000D02*
X39800000Y-74725001D01*
X39800000Y-74725001D02*
X40974999Y-75900000D01*
X40974999Y-75900000D02*
X40974999Y-85225001D01*
X49500000Y-65790000D02*
X50700000Y-64590000D01*
X48530000Y-65790000D02*
X49500000Y-65790000D01*
X53549999Y-54249999D02*
X52800000Y-53500000D01*
X50700000Y-64590000D02*
X50700000Y-62191004D01*
X50700000Y-62191004D02*
X53549999Y-59341005D01*
X53549999Y-59341005D02*
X53549999Y-54249999D01*
X41910140Y-70889860D02*
X41910140Y-71310140D01*
X44200000Y-62100000D02*
X42500000Y-63800000D01*
X50154594Y-62100000D02*
X44200000Y-62100000D01*
X51000000Y-56800000D02*
X51000000Y-61254594D01*
X51000000Y-61254594D02*
X50154594Y-62100000D01*
X42500000Y-63800000D02*
X42500000Y-70300000D01*
X42500000Y-70300000D02*
X41910140Y-70889860D01*
X41200000Y-66000000D02*
X40990000Y-65790000D01*
X40990000Y-65790000D02*
X38970000Y-65790000D01*
X41200000Y-69260660D02*
X41200000Y-66000000D01*
X38400000Y-71000000D02*
X39460660Y-71000000D01*
X39460660Y-71000000D02*
X41200000Y-69260660D01*
X51850000Y-54950000D02*
X52400000Y-55500000D01*
X52400000Y-55500000D02*
X52400000Y-58600004D01*
X49400000Y-54950000D02*
X51850000Y-54950000D01*
X59310000Y-63948000D02*
X59310000Y-62960002D01*
X59310000Y-62960002D02*
X58700000Y-62350002D01*
X134100000Y-63700000D02*
X134100000Y-61700000D01*
X134100000Y-61700000D02*
X132800000Y-60400000D01*
X132800000Y-60400000D02*
X127200000Y-60400000D01*
X127200000Y-60400000D02*
X126400000Y-59600000D01*
X127475001Y-48824999D02*
X127475001Y-47475001D01*
X126400000Y-59600000D02*
X126400000Y-58300000D01*
X128200000Y-56500000D02*
X128200000Y-53527180D01*
X126400000Y-58300000D02*
X128200000Y-56500000D01*
X127000000Y-49300000D02*
X127475001Y-48824999D01*
X128200000Y-53527180D02*
X127000000Y-52327180D01*
X127475001Y-47475001D02*
X126400000Y-46400000D01*
X127000000Y-52327180D02*
X127000000Y-49300000D01*
X124700000Y-46400000D02*
X126400000Y-46400000D01*
X142700000Y-40950000D02*
X141050003Y-40950000D01*
X141050003Y-40950000D02*
X140900000Y-41100003D01*
X154450000Y-85550000D02*
X155000000Y-85000000D01*
X155000000Y-85000000D02*
X155000000Y-74700000D01*
X154450000Y-87100000D02*
X154450000Y-85550000D01*
X155000000Y-74700000D02*
X152100003Y-71800003D01*
X152100003Y-71800003D02*
X152100003Y-68900000D01*
X152100003Y-67399997D02*
X152100003Y-68900000D01*
X152100003Y-68900000D02*
X152100003Y-69827182D01*
X152200000Y-53800000D02*
X154475000Y-51525000D01*
X154475000Y-51525000D02*
X154475000Y-49800000D01*
X144100000Y-50000000D02*
X143350001Y-50749999D01*
X143350001Y-50749999D02*
X143350001Y-51689999D01*
X143350001Y-51689999D02*
X142349999Y-52690001D01*
X142349999Y-52690001D02*
X141500000Y-53540000D01*
X152200000Y-55700000D02*
X154850011Y-58350011D01*
X152200000Y-53800000D02*
X152200000Y-55700000D01*
X154850011Y-58350011D02*
X154850011Y-64649989D01*
X154850011Y-64649989D02*
X152100003Y-67399997D01*
X154500000Y-89700000D02*
X153200000Y-91000000D01*
X153200000Y-91000000D02*
X153200000Y-92700000D01*
X154500000Y-88900000D02*
X154500000Y-89700000D01*
X154450000Y-87100000D02*
X154450000Y-88850000D01*
X154450000Y-88850000D02*
X154500000Y-88900000D01*
X139650000Y-74600000D02*
X138600000Y-74600000D01*
X138600000Y-74600000D02*
X136808998Y-72808998D01*
X136808998Y-72808998D02*
X136808998Y-62051002D01*
X137700000Y-61160000D02*
X141500000Y-61160000D01*
X136808998Y-62051002D02*
X137700000Y-61160000D01*
X38970000Y-60710000D02*
X48530000Y-60710000D01*
X152800000Y-83400000D02*
X151100000Y-83400000D01*
X151150000Y-83450000D02*
X151100000Y-83400000D01*
X137800000Y-85150000D02*
X139800000Y-85150000D01*
X135800000Y-86100000D02*
X133850000Y-86100000D01*
X133850000Y-86100000D02*
X133800000Y-86150000D01*
X131450000Y-85250000D02*
X132350000Y-86150000D01*
X132350000Y-86150000D02*
X133800000Y-86150000D01*
X130100000Y-85250000D02*
X131450000Y-85250000D01*
X148600000Y-49050000D02*
X146750000Y-49050000D01*
X145500000Y-63700000D02*
X145500000Y-59236410D01*
X145500000Y-59236410D02*
X148350010Y-56386400D01*
X148350010Y-56386400D02*
X148350009Y-53213599D01*
X148350009Y-53213599D02*
X146400000Y-51263590D01*
X146400000Y-51263590D02*
X146400000Y-49400000D01*
X146400000Y-49400000D02*
X146750000Y-49050000D01*
X144100000Y-82200000D02*
X144849999Y-81450001D01*
X144849999Y-81450001D02*
X144849999Y-74150001D01*
X143300000Y-67400000D02*
X143300000Y-65700000D01*
X144000000Y-65000000D02*
X144800000Y-65000000D01*
X144849999Y-74150001D02*
X146949989Y-72050011D01*
X146949989Y-72050011D02*
X146949989Y-69949989D01*
X146949989Y-69949989D02*
X145400000Y-68400000D01*
X145400000Y-68400000D02*
X144300000Y-68400000D01*
X144300000Y-68400000D02*
X143300000Y-67400000D01*
X143300000Y-65700000D02*
X144000000Y-65000000D01*
X144800000Y-65000000D02*
X145500000Y-64300000D01*
X145500000Y-64300000D02*
X145500000Y-63700000D01*
X130100000Y-83350000D02*
X130100000Y-81800000D01*
X132250000Y-83400000D02*
X130150000Y-83400000D01*
X130150000Y-83400000D02*
X130100000Y-83350000D01*
X128100000Y-84300000D02*
X128100000Y-87650000D01*
X128100000Y-87650000D02*
X128050000Y-87700000D01*
X128050000Y-87700000D02*
X128050000Y-90100000D01*
X128050000Y-90100000D02*
X128100000Y-90150000D01*
X59800000Y-65600000D02*
X60500000Y-64900000D01*
X60500000Y-64900000D02*
X61600000Y-64900000D01*
X57600500Y-65600000D02*
X59800000Y-65600000D01*
X56770000Y-63948000D02*
X56770000Y-64769500D01*
X56770000Y-64769500D02*
X57600500Y-65600000D01*
X61900000Y-66000000D02*
X61600000Y-65700000D01*
X61600000Y-65700000D02*
X61600000Y-64900000D01*
X62700000Y-66000000D02*
X61900000Y-66000000D01*
X63000000Y-67000000D02*
X63000000Y-66300000D01*
X63000000Y-66300000D02*
X62700000Y-66000000D01*
X147550000Y-47550000D02*
X148600000Y-47550000D01*
X145949989Y-49150011D02*
X147550000Y-47550000D01*
X147900000Y-53400000D02*
X145949989Y-51449990D01*
X143800000Y-63700000D02*
X143800000Y-60300000D01*
X145949989Y-51449990D02*
X145949989Y-49150011D01*
X147900000Y-56200001D02*
X147900000Y-53400000D01*
X143800000Y-60300000D02*
X147900000Y-56200001D01*
X147650000Y-82200000D02*
X149200000Y-82200000D01*
X149200000Y-82200000D02*
X150000000Y-81400000D01*
X54230000Y-63948000D02*
X54230000Y-63126500D01*
X54230000Y-63126500D02*
X54656500Y-62700000D01*
X54656500Y-62700000D02*
X57500000Y-62700000D01*
X57500000Y-62700000D02*
X58040000Y-63240000D01*
X58040000Y-63240000D02*
X58040000Y-63948000D01*
X38970000Y-56030000D02*
X39400000Y-55600000D01*
X39400000Y-55600000D02*
X39400000Y-54200000D01*
X38970000Y-58170000D02*
X38970000Y-56030000D01*
X39400000Y-54200000D02*
X39400000Y-51050000D01*
X39400000Y-51050000D02*
X39350000Y-51000000D01*
X47400000Y-54650000D02*
X47050000Y-55000000D01*
X47050000Y-55000000D02*
X45450000Y-55000000D01*
X47400000Y-54000000D02*
X47400000Y-54650000D01*
X154400001Y-58600000D02*
X154400001Y-64436410D01*
X153400000Y-48675965D02*
X153400000Y-51899999D01*
X152950000Y-86413590D02*
X152950000Y-86475000D01*
X154549989Y-84813601D02*
X152950000Y-86413590D01*
X153975000Y-48100965D02*
X153400000Y-48675965D01*
X154400001Y-64436410D02*
X151649992Y-67186418D01*
X151749989Y-55949989D02*
X154400001Y-58600000D01*
X151649992Y-67186418D02*
X151649992Y-71986403D01*
X151749989Y-53550010D02*
X151749989Y-55949989D01*
X152950000Y-86475000D02*
X152950000Y-87100000D01*
X153400000Y-51899999D02*
X151749989Y-53550010D01*
X154549989Y-74886399D02*
X154549989Y-84813601D01*
X151649992Y-71986403D02*
X154549989Y-74886399D01*
X153499980Y-63000000D02*
X152399980Y-64100000D01*
X151600000Y-46400000D02*
X152400000Y-47200000D01*
X145586400Y-67949990D02*
X147399998Y-69763588D01*
X144186400Y-65450010D02*
X143750010Y-65886400D01*
X146700000Y-64100000D02*
X146024999Y-64775001D01*
X152400000Y-47200000D02*
X152400000Y-51600000D01*
X152399980Y-64100000D02*
X146700000Y-64100000D01*
X152400000Y-51600000D02*
X150700000Y-53300000D01*
X143750010Y-67213600D02*
X144486400Y-67949990D01*
X144600000Y-89513186D02*
X144600000Y-91800000D01*
X144486400Y-67949990D02*
X145586400Y-67949990D01*
X150700000Y-53300000D02*
X150700000Y-56200000D01*
X147399998Y-69763588D02*
X147400000Y-72300000D01*
X150700000Y-56200000D02*
X153499980Y-58999980D01*
X153499980Y-58999980D02*
X153499980Y-63000000D01*
X146024999Y-64775001D02*
X145661409Y-64775001D01*
X145661409Y-64775001D02*
X144986401Y-65450009D01*
X143750010Y-65886400D02*
X143750010Y-67213600D01*
X144986401Y-65450009D02*
X144186400Y-65450010D01*
X147400000Y-72300000D02*
X145300000Y-74400000D01*
X145300000Y-74400000D02*
X145300000Y-82600000D01*
X145300000Y-82600000D02*
X144000000Y-83900000D01*
X144000000Y-83900000D02*
X144000000Y-88913186D01*
X144000000Y-88913186D02*
X144600000Y-89513186D01*
X144600000Y-91800000D02*
X145500000Y-92700000D01*
X145500000Y-92700000D02*
X148800000Y-92700000D01*
X151800000Y-85300000D02*
X151100000Y-85300000D01*
X154099978Y-75072800D02*
X154099978Y-84627201D01*
X151199981Y-72172803D02*
X154099978Y-75072800D01*
X153949990Y-64250010D02*
X151199981Y-67000018D01*
X151299978Y-56136389D02*
X153949990Y-58786400D01*
X151199981Y-67000018D02*
X151199981Y-72172803D01*
X151299978Y-53363610D02*
X151299978Y-56136389D01*
X152900000Y-51763589D02*
X151299978Y-53363610D01*
X153949990Y-58786400D02*
X153949990Y-64250010D01*
X153400000Y-46500000D02*
X152900000Y-47000000D01*
X152900000Y-47000000D02*
X152900000Y-51763589D01*
X153427179Y-85300000D02*
X151800000Y-85300000D01*
X154099978Y-84627201D02*
X153427179Y-85300000D01*
X151100000Y-88900000D02*
X153000000Y-88900000D01*
X151100000Y-87100000D02*
X151100000Y-88900000D01*
X151100000Y-85300000D02*
X151100000Y-87100000D01*
X63200000Y-68850000D02*
X63825000Y-68850000D01*
X63825000Y-68850000D02*
X64600000Y-68075000D01*
X64600000Y-68075000D02*
X64600000Y-64900000D01*
X63100000Y-64900000D02*
X64600000Y-64900000D01*
X138700000Y-77800000D02*
X142200000Y-77800000D01*
X142200000Y-77800000D02*
X142600000Y-78200000D01*
X138900000Y-72000000D02*
X139500000Y-72600000D01*
X139500000Y-72600000D02*
X140600000Y-72600000D01*
X138600000Y-72000000D02*
X138900000Y-72000000D01*
X139100000Y-64400000D02*
X139100000Y-62700000D01*
X139100000Y-62700000D02*
X139200000Y-62600000D01*
X141500000Y-56080000D02*
X140297919Y-56080000D01*
X140297919Y-56080000D02*
X136274988Y-60102931D01*
X136274988Y-74725012D02*
X133500000Y-77500000D01*
X136274988Y-60102931D02*
X136274988Y-74725012D01*
X133500000Y-77500000D02*
X133500000Y-80125309D01*
D33*
X63800000Y-49300000D02*
X60650000Y-49300000D01*
X60650000Y-49300000D02*
X60550000Y-49400000D01*
D34*
G36*
X54261553Y-59862298D02*
X53920853Y-60089946D01*
X53598946Y-60571715D01*
X53485907Y-61140000D01*
X53598946Y-61708285D01*
X53920853Y-62190054D01*
X54023235Y-62258463D01*
X53692599Y-62589099D01*
X53536476Y-62822755D01*
X53340309Y-62741500D01*
X53245750Y-62741500D01*
X53087000Y-62900250D01*
X53087000Y-63821000D01*
X53107000Y-63821000D01*
X53107000Y-64075000D01*
X53087000Y-64075000D01*
X53087000Y-64995750D01*
X53245750Y-65154500D01*
X53340309Y-65154500D01*
X53573698Y-65057827D01*
X53600235Y-65031291D01*
X53724110Y-65115931D01*
X53976000Y-65166940D01*
X54484000Y-65166940D01*
X54719317Y-65122662D01*
X54860371Y-65031896D01*
X54886302Y-65057827D01*
X55119691Y-65154500D01*
X55214250Y-65154500D01*
X55373000Y-64995750D01*
X55373000Y-64075000D01*
X55353000Y-64075000D01*
X55353000Y-63821000D01*
X55373000Y-63821000D01*
X55373000Y-63801000D01*
X55627000Y-63801000D01*
X55627000Y-63821000D01*
X55647000Y-63821000D01*
X55647000Y-64075000D01*
X55627000Y-64075000D01*
X55627000Y-64995750D01*
X55785750Y-65154500D01*
X55880309Y-65154500D01*
X56076476Y-65073245D01*
X56232599Y-65306901D01*
X57063099Y-66137401D01*
X57309660Y-66302148D01*
X57600500Y-66360000D01*
X59800000Y-66360000D01*
X60090839Y-66302148D01*
X60337401Y-66137401D01*
X60802690Y-65672113D01*
X60848665Y-65743560D01*
X60897852Y-65990839D01*
X60907119Y-66004707D01*
X60890302Y-66011673D01*
X60711673Y-66190301D01*
X60615000Y-66423690D01*
X60615000Y-66714250D01*
X60773750Y-66873000D01*
X61375000Y-66873000D01*
X61375000Y-66853000D01*
X61625000Y-66853000D01*
X61625000Y-66873000D01*
X61647000Y-66873000D01*
X61647000Y-67127000D01*
X61625000Y-67127000D01*
X61625000Y-67926250D01*
X61649750Y-67951000D01*
X61627000Y-67973750D01*
X61627000Y-68723000D01*
X61647000Y-68723000D01*
X61647000Y-68977000D01*
X61627000Y-68977000D01*
X61627000Y-68997000D01*
X61373000Y-68997000D01*
X61373000Y-68977000D01*
X60648750Y-68977000D01*
X60490000Y-69135750D01*
X60490000Y-69376309D01*
X60526737Y-69465000D01*
X60195000Y-69465000D01*
X60195000Y-69110005D01*
X60195001Y-69110000D01*
X60127633Y-68771326D01*
X60127633Y-68771325D01*
X59935790Y-68484210D01*
X59935787Y-68484208D01*
X59775271Y-68323691D01*
X60490000Y-68323691D01*
X60490000Y-68564250D01*
X60648750Y-68723000D01*
X61373000Y-68723000D01*
X61373000Y-67973750D01*
X61350250Y-67951000D01*
X61375000Y-67926250D01*
X61375000Y-67127000D01*
X60773750Y-67127000D01*
X60615000Y-67285750D01*
X60615000Y-67576310D01*
X60711673Y-67809699D01*
X60799487Y-67897513D01*
X60765301Y-67911673D01*
X60586673Y-68090302D01*
X60490000Y-68323691D01*
X59775271Y-68323691D01*
X59125790Y-67674210D01*
X59047593Y-67621961D01*
X58838675Y-67482367D01*
X58782484Y-67471190D01*
X58500000Y-67414999D01*
X58499995Y-67415000D01*
X55156505Y-67415000D01*
X55156500Y-67414999D01*
X54874016Y-67471190D01*
X54817825Y-67482367D01*
X54530710Y-67674210D01*
X54530708Y-67674213D01*
X53604210Y-68600710D01*
X53412367Y-68887825D01*
X53404815Y-68925790D01*
X53368119Y-69110270D01*
X53214000Y-69079060D01*
X52706000Y-69079060D01*
X52470683Y-69123338D01*
X52329629Y-69214104D01*
X52303698Y-69188173D01*
X52070309Y-69091500D01*
X51975750Y-69091500D01*
X51817000Y-69250250D01*
X51817000Y-70171000D01*
X51837000Y-70171000D01*
X51837000Y-70425000D01*
X51817000Y-70425000D01*
X51817000Y-70445000D01*
X51563000Y-70445000D01*
X51563000Y-70425000D01*
X50959750Y-70425000D01*
X50801000Y-70583750D01*
X50801000Y-70715000D01*
X50784900Y-70715000D01*
X50785240Y-70325715D01*
X50574831Y-69816485D01*
X50358913Y-69600190D01*
X50801000Y-69600190D01*
X50801000Y-70012250D01*
X50959750Y-70171000D01*
X51563000Y-70171000D01*
X51563000Y-69250250D01*
X51404250Y-69091500D01*
X51309691Y-69091500D01*
X51076302Y-69188173D01*
X50897673Y-69366801D01*
X50801000Y-69600190D01*
X50358913Y-69600190D01*
X50198998Y-69439996D01*
X50235317Y-69433162D01*
X50451441Y-69294090D01*
X50596431Y-69081890D01*
X50647440Y-68830000D01*
X50647440Y-67830000D01*
X50603162Y-67594683D01*
X50464090Y-67378559D01*
X50251890Y-67233569D01*
X50000000Y-67182560D01*
X47060000Y-67182560D01*
X46824683Y-67226838D01*
X46608559Y-67365910D01*
X46463569Y-67578110D01*
X46412560Y-67830000D01*
X46412560Y-68830000D01*
X46456838Y-69065317D01*
X46595910Y-69281441D01*
X46808110Y-69426431D01*
X47060000Y-69477440D01*
X48564123Y-69477440D01*
X48226539Y-69814436D01*
X48015241Y-70323298D01*
X48014760Y-70874285D01*
X48225169Y-71383515D01*
X48614436Y-71773461D01*
X49123298Y-71984759D01*
X49533538Y-71985117D01*
X49774208Y-72225787D01*
X49774210Y-72225790D01*
X49939197Y-72336030D01*
X50032308Y-72398245D01*
X49791091Y-72639041D01*
X49465372Y-73423459D01*
X49464630Y-74272815D01*
X49788980Y-75057800D01*
X50389041Y-75658909D01*
X51173459Y-75984628D01*
X52022815Y-75985370D01*
X52615182Y-75740608D01*
X52614630Y-76372815D01*
X52938980Y-77157800D01*
X53539041Y-77758909D01*
X54323459Y-78084628D01*
X55172815Y-78085370D01*
X55957800Y-77761020D01*
X56558909Y-77160959D01*
X56884628Y-76376541D01*
X56885202Y-75719600D01*
X57523459Y-75984628D01*
X58372815Y-75985370D01*
X59157800Y-75661020D01*
X59758909Y-75060959D01*
X59829329Y-74891369D01*
X60172637Y-75235278D01*
X60773352Y-75484716D01*
X61423795Y-75485284D01*
X61717396Y-75363970D01*
X62965635Y-75363970D01*
X63125418Y-75682739D01*
X63916187Y-75992723D01*
X64765387Y-75976497D01*
X65474582Y-75682739D01*
X65634365Y-75363970D01*
X64300000Y-74029605D01*
X62965635Y-75363970D01*
X61717396Y-75363970D01*
X62024943Y-75236894D01*
X62400086Y-74862406D01*
X62467261Y-75024582D01*
X62786030Y-75184365D01*
X64120395Y-73850000D01*
X64479605Y-73850000D01*
X65813970Y-75184365D01*
X66132739Y-75024582D01*
X66442723Y-74233813D01*
X66426497Y-73384613D01*
X66132739Y-72675418D01*
X65813970Y-72515635D01*
X64479605Y-73850000D01*
X64120395Y-73850000D01*
X62786030Y-72515635D01*
X62467261Y-72675418D01*
X62402530Y-72840546D01*
X62027363Y-72464722D01*
X61717438Y-72336030D01*
X62965635Y-72336030D01*
X64300000Y-73670395D01*
X65634365Y-72336030D01*
X65474582Y-72017261D01*
X64683813Y-71707277D01*
X63834613Y-71723503D01*
X63125418Y-72017261D01*
X62965635Y-72336030D01*
X61717438Y-72336030D01*
X61426648Y-72215284D01*
X60776205Y-72214716D01*
X60175057Y-72463106D01*
X59829537Y-72808023D01*
X59761020Y-72642200D01*
X59160959Y-72041091D01*
X58376541Y-71715372D01*
X57527185Y-71714630D01*
X56742200Y-72038980D01*
X56141091Y-72639041D01*
X55815372Y-73423459D01*
X55814798Y-74080400D01*
X55176541Y-73815372D01*
X54327185Y-73814630D01*
X53734818Y-74059392D01*
X53735370Y-73427185D01*
X53411020Y-72642200D01*
X53254094Y-72485000D01*
X53999495Y-72485000D01*
X53999500Y-72485001D01*
X54281984Y-72428810D01*
X54338175Y-72417633D01*
X54625290Y-72225790D01*
X54855787Y-71995292D01*
X54855790Y-71995290D01*
X55047633Y-71708175D01*
X55059233Y-71649860D01*
X55091881Y-71485730D01*
X55246000Y-71516940D01*
X55754000Y-71516940D01*
X55989317Y-71472662D01*
X56135907Y-71378334D01*
X56264110Y-71465931D01*
X56516000Y-71516940D01*
X57024000Y-71516940D01*
X57259317Y-71472662D01*
X57405907Y-71378334D01*
X57534110Y-71465931D01*
X57786000Y-71516940D01*
X58294000Y-71516940D01*
X58529317Y-71472662D01*
X58675907Y-71378334D01*
X58804110Y-71465931D01*
X59056000Y-71516940D01*
X59564000Y-71516940D01*
X59799317Y-71472662D01*
X60015441Y-71333590D01*
X60082805Y-71235000D01*
X60710025Y-71235000D01*
X60873110Y-71346431D01*
X61125000Y-71397440D01*
X61875000Y-71397440D01*
X62110317Y-71353162D01*
X62293946Y-71235000D01*
X62410025Y-71235000D01*
X62573110Y-71346431D01*
X62825000Y-71397440D01*
X63575000Y-71397440D01*
X63796872Y-71355692D01*
X63914436Y-71473461D01*
X64423298Y-71684759D01*
X64974285Y-71685240D01*
X65483515Y-71474831D01*
X65873461Y-71085564D01*
X66084759Y-70576702D01*
X66085023Y-70274282D01*
X66150000Y-70287440D01*
X67850000Y-70287440D01*
X68085317Y-70243162D01*
X68301441Y-70104090D01*
X68446431Y-69891890D01*
X68490000Y-69676740D01*
X68490000Y-92815000D01*
X56460238Y-92815000D01*
X56460238Y-94315000D01*
X55412617Y-94315000D01*
X55412617Y-97285000D01*
X57948333Y-97285000D01*
X57948333Y-99035000D01*
X61490000Y-99035000D01*
X61490000Y-103000000D01*
X61507902Y-103090000D01*
X55379119Y-103090000D01*
X55808909Y-102660959D01*
X56134628Y-101876541D01*
X56135370Y-101027185D01*
X55811020Y-100242200D01*
X55210959Y-99641091D01*
X54426541Y-99315372D01*
X53577185Y-99314630D01*
X52984818Y-99559392D01*
X52985370Y-98927185D01*
X52661020Y-98142200D01*
X52060959Y-97541091D01*
X51276541Y-97215372D01*
X50427185Y-97214630D01*
X49642200Y-97538980D01*
X49041091Y-98139041D01*
X48715372Y-98923459D01*
X48714798Y-99580400D01*
X48076541Y-99315372D01*
X47227185Y-99314630D01*
X46442200Y-99638980D01*
X45841091Y-100239041D01*
X45770671Y-100408631D01*
X45427363Y-100064722D01*
X44826648Y-99815284D01*
X44176205Y-99814716D01*
X43575057Y-100063106D01*
X43199914Y-100437594D01*
X43132739Y-100275418D01*
X42813970Y-100115635D01*
X41479605Y-101450000D01*
X42813970Y-102784365D01*
X43132739Y-102624582D01*
X43197470Y-102459454D01*
X43572637Y-102835278D01*
X44173352Y-103084716D01*
X44823795Y-103085284D01*
X45424943Y-102836894D01*
X45770463Y-102491977D01*
X45838980Y-102657800D01*
X46270426Y-103090000D01*
X42571192Y-103090000D01*
X42634365Y-102963970D01*
X41300000Y-101629605D01*
X39965635Y-102963970D01*
X40028808Y-103090000D01*
X37210000Y-103090000D01*
X37210000Y-101066187D01*
X39157277Y-101066187D01*
X39173503Y-101915387D01*
X39467261Y-102624582D01*
X39786030Y-102784365D01*
X41120395Y-101450000D01*
X39786030Y-100115635D01*
X39467261Y-100275418D01*
X39157277Y-101066187D01*
X37210000Y-101066187D01*
X37210000Y-99936030D01*
X39965635Y-99936030D01*
X41300000Y-101270395D01*
X42634365Y-99936030D01*
X42474582Y-99617261D01*
X41683813Y-99307277D01*
X40834613Y-99323503D01*
X40125418Y-99617261D01*
X39965635Y-99936030D01*
X37210000Y-99936030D01*
X37210000Y-91513970D01*
X39965635Y-91513970D01*
X40125418Y-91832739D01*
X40916187Y-92142723D01*
X41765387Y-92126497D01*
X42474582Y-91832739D01*
X42634365Y-91513970D01*
X41300000Y-90179605D01*
X39965635Y-91513970D01*
X37210000Y-91513970D01*
X37210000Y-89616187D01*
X39157277Y-89616187D01*
X39173503Y-90465387D01*
X39467261Y-91174582D01*
X39786030Y-91334365D01*
X41120395Y-90000000D01*
X41479605Y-90000000D01*
X42813970Y-91334365D01*
X43132739Y-91174582D01*
X43197470Y-91009454D01*
X43572637Y-91385278D01*
X44173352Y-91634716D01*
X44823795Y-91635284D01*
X45424943Y-91386894D01*
X45770463Y-91041977D01*
X45838980Y-91207800D01*
X46439041Y-91808909D01*
X47223459Y-92134628D01*
X48072815Y-92135370D01*
X48857800Y-91811020D01*
X49458909Y-91210959D01*
X49784628Y-90426541D01*
X49784631Y-90422815D01*
X51864630Y-90422815D01*
X52188980Y-91207800D01*
X52789041Y-91808909D01*
X53573459Y-92134628D01*
X54422815Y-92135370D01*
X55207800Y-91811020D01*
X55808909Y-91210959D01*
X56134628Y-90426541D01*
X56135370Y-89577185D01*
X55811020Y-88792200D01*
X55210959Y-88191091D01*
X54426541Y-87865372D01*
X53577185Y-87864630D01*
X52792200Y-88188980D01*
X52191091Y-88789041D01*
X51865372Y-89573459D01*
X51864630Y-90422815D01*
X49784631Y-90422815D01*
X49785370Y-89577185D01*
X49461020Y-88792200D01*
X48860959Y-88191091D01*
X48076541Y-87865372D01*
X47227185Y-87864630D01*
X46442200Y-88188980D01*
X45841091Y-88789041D01*
X45770671Y-88958631D01*
X45427363Y-88614722D01*
X44826648Y-88365284D01*
X44176205Y-88364716D01*
X43575057Y-88613106D01*
X43199914Y-88987594D01*
X43132739Y-88825418D01*
X42813970Y-88665635D01*
X41479605Y-90000000D01*
X41120395Y-90000000D01*
X39786030Y-88665635D01*
X39467261Y-88825418D01*
X39157277Y-89616187D01*
X37210000Y-89616187D01*
X37210000Y-88486030D01*
X39965635Y-88486030D01*
X41300000Y-89820395D01*
X42634365Y-88486030D01*
X42474582Y-88167261D01*
X41683813Y-87857277D01*
X40834613Y-87873503D01*
X40125418Y-88167261D01*
X39965635Y-88486030D01*
X37210000Y-88486030D01*
X37210000Y-71746803D01*
X37225169Y-71783515D01*
X37614436Y-72173461D01*
X38123298Y-72384759D01*
X38674285Y-72385240D01*
X39040000Y-72234130D01*
X39040000Y-74725001D01*
X39097852Y-75015840D01*
X39262599Y-75262402D01*
X40214999Y-76214802D01*
X40214999Y-84040454D01*
X40191484Y-84050170D01*
X39801538Y-84439437D01*
X39590240Y-84948299D01*
X39589759Y-85499286D01*
X39800168Y-86008516D01*
X40189435Y-86398462D01*
X40698297Y-86609760D01*
X41249284Y-86610241D01*
X41758514Y-86399832D01*
X42148460Y-86010565D01*
X42267944Y-85722815D01*
X49464630Y-85722815D01*
X49788980Y-86507800D01*
X50389041Y-87108909D01*
X51173459Y-87434628D01*
X52022815Y-87435370D01*
X52807800Y-87111020D01*
X53408909Y-86510959D01*
X53734628Y-85726541D01*
X53734631Y-85722815D01*
X55814630Y-85722815D01*
X56138980Y-86507800D01*
X56739041Y-87108909D01*
X57523459Y-87434628D01*
X58372815Y-87435370D01*
X59157800Y-87111020D01*
X59758909Y-86510959D01*
X59829329Y-86341369D01*
X60172637Y-86685278D01*
X60773352Y-86934716D01*
X61423795Y-86935284D01*
X61717396Y-86813970D01*
X62965635Y-86813970D01*
X63125418Y-87132739D01*
X63916187Y-87442723D01*
X64765387Y-87426497D01*
X65474582Y-87132739D01*
X65634365Y-86813970D01*
X64300000Y-85479605D01*
X62965635Y-86813970D01*
X61717396Y-86813970D01*
X62024943Y-86686894D01*
X62400086Y-86312406D01*
X62467261Y-86474582D01*
X62786030Y-86634365D01*
X64120395Y-85300000D01*
X64479605Y-85300000D01*
X65813970Y-86634365D01*
X66132739Y-86474582D01*
X66442723Y-85683813D01*
X66426497Y-84834613D01*
X66132739Y-84125418D01*
X65813970Y-83965635D01*
X64479605Y-85300000D01*
X64120395Y-85300000D01*
X62786030Y-83965635D01*
X62467261Y-84125418D01*
X62402530Y-84290546D01*
X62027363Y-83914722D01*
X61717438Y-83786030D01*
X62965635Y-83786030D01*
X64300000Y-85120395D01*
X65634365Y-83786030D01*
X65474582Y-83467261D01*
X64683813Y-83157277D01*
X63834613Y-83173503D01*
X63125418Y-83467261D01*
X62965635Y-83786030D01*
X61717438Y-83786030D01*
X61426648Y-83665284D01*
X60776205Y-83664716D01*
X60175057Y-83913106D01*
X59829537Y-84258023D01*
X59761020Y-84092200D01*
X59160959Y-83491091D01*
X58376541Y-83165372D01*
X57527185Y-83164630D01*
X56742200Y-83488980D01*
X56141091Y-84089041D01*
X55815372Y-84873459D01*
X55814630Y-85722815D01*
X53734631Y-85722815D01*
X53735370Y-84877185D01*
X53411020Y-84092200D01*
X52810959Y-83491091D01*
X52026541Y-83165372D01*
X51177185Y-83164630D01*
X50392200Y-83488980D01*
X49791091Y-84089041D01*
X49465372Y-84873459D01*
X49464630Y-85722815D01*
X42267944Y-85722815D01*
X42359758Y-85501703D01*
X42360239Y-84950716D01*
X42149830Y-84441486D01*
X41760563Y-84051540D01*
X41734999Y-84040925D01*
X41734999Y-75900000D01*
X41677147Y-75609161D01*
X41512400Y-75362599D01*
X40560000Y-74410199D01*
X40560000Y-73385750D01*
X40665000Y-73385750D01*
X40665000Y-73676310D01*
X40761673Y-73909699D01*
X40940302Y-74088327D01*
X41173691Y-74185000D01*
X41266250Y-74185000D01*
X41425000Y-74026250D01*
X41425000Y-73227000D01*
X40823750Y-73227000D01*
X40665000Y-73385750D01*
X40560000Y-73385750D01*
X40560000Y-72214802D01*
X40719473Y-72055329D01*
X40735309Y-72093655D01*
X40846717Y-72205257D01*
X40761673Y-72290301D01*
X40665000Y-72523690D01*
X40665000Y-72814250D01*
X40823750Y-72973000D01*
X41425000Y-72973000D01*
X41425000Y-72953000D01*
X41675000Y-72953000D01*
X41675000Y-72973000D01*
X41697000Y-72973000D01*
X41697000Y-73227000D01*
X41675000Y-73227000D01*
X41675000Y-74026250D01*
X41833750Y-74185000D01*
X41926309Y-74185000D01*
X42159698Y-74088327D01*
X42300936Y-73947090D01*
X42335910Y-74001441D01*
X42548110Y-74146431D01*
X42800000Y-74197440D01*
X43300000Y-74197440D01*
X43535317Y-74153162D01*
X43751441Y-74014090D01*
X43856726Y-73860000D01*
X44715453Y-73860000D01*
X44725169Y-73883515D01*
X45114436Y-74273461D01*
X45623298Y-74484759D01*
X46174285Y-74485240D01*
X46683515Y-74274831D01*
X47073461Y-73885564D01*
X47284759Y-73376702D01*
X47285240Y-72825715D01*
X47074831Y-72316485D01*
X46685564Y-71926539D01*
X46176702Y-71715241D01*
X45625715Y-71714760D01*
X45116485Y-71925169D01*
X44726539Y-72314436D01*
X44715924Y-72340000D01*
X43855105Y-72340000D01*
X43810000Y-72269905D01*
X43810000Y-64364802D01*
X44164802Y-64010000D01*
X46472721Y-64010000D01*
X46595910Y-64201441D01*
X46808110Y-64346431D01*
X47060000Y-64397440D01*
X49817758Y-64397440D01*
X49572638Y-64642560D01*
X47060000Y-64642560D01*
X46824683Y-64686838D01*
X46608559Y-64825910D01*
X46463569Y-65038110D01*
X46412560Y-65290000D01*
X46412560Y-66290000D01*
X46456838Y-66525317D01*
X46595910Y-66741441D01*
X46808110Y-66886431D01*
X47060000Y-66937440D01*
X50000000Y-66937440D01*
X50235317Y-66893162D01*
X50451441Y-66754090D01*
X50596431Y-66541890D01*
X50647440Y-66290000D01*
X50647440Y-65717362D01*
X51237401Y-65127401D01*
X51238890Y-65125173D01*
X51309691Y-65154500D01*
X51404250Y-65154500D01*
X51563000Y-64995750D01*
X51563000Y-64075000D01*
X51817000Y-64075000D01*
X51817000Y-64995750D01*
X51975750Y-65154500D01*
X52070309Y-65154500D01*
X52303698Y-65057827D01*
X52325000Y-65036525D01*
X52346302Y-65057827D01*
X52579691Y-65154500D01*
X52674250Y-65154500D01*
X52833000Y-64995750D01*
X52833000Y-64075000D01*
X51817000Y-64075000D01*
X51563000Y-64075000D01*
X51543000Y-64075000D01*
X51543000Y-63821000D01*
X51563000Y-63821000D01*
X51563000Y-62900250D01*
X51817000Y-62900250D01*
X51817000Y-63821000D01*
X52833000Y-63821000D01*
X52833000Y-62900250D01*
X52674250Y-62741500D01*
X52579691Y-62741500D01*
X52346302Y-62838173D01*
X52325000Y-62859475D01*
X52303698Y-62838173D01*
X52070309Y-62741500D01*
X51975750Y-62741500D01*
X51817000Y-62900250D01*
X51563000Y-62900250D01*
X51460000Y-62797250D01*
X51460000Y-62505806D01*
X54087400Y-59878406D01*
X54137188Y-59803893D01*
X54261553Y-59862298D01*
X54261553Y-59862298D01*
G37*
X54261553Y-59862298D02*
X53920853Y-60089946D01*
X53598946Y-60571715D01*
X53485907Y-61140000D01*
X53598946Y-61708285D01*
X53920853Y-62190054D01*
X54023235Y-62258463D01*
X53692599Y-62589099D01*
X53536476Y-62822755D01*
X53340309Y-62741500D01*
X53245750Y-62741500D01*
X53087000Y-62900250D01*
X53087000Y-63821000D01*
X53107000Y-63821000D01*
X53107000Y-64075000D01*
X53087000Y-64075000D01*
X53087000Y-64995750D01*
X53245750Y-65154500D01*
X53340309Y-65154500D01*
X53573698Y-65057827D01*
X53600235Y-65031291D01*
X53724110Y-65115931D01*
X53976000Y-65166940D01*
X54484000Y-65166940D01*
X54719317Y-65122662D01*
X54860371Y-65031896D01*
X54886302Y-65057827D01*
X55119691Y-65154500D01*
X55214250Y-65154500D01*
X55373000Y-64995750D01*
X55373000Y-64075000D01*
X55353000Y-64075000D01*
X55353000Y-63821000D01*
X55373000Y-63821000D01*
X55373000Y-63801000D01*
X55627000Y-63801000D01*
X55627000Y-63821000D01*
X55647000Y-63821000D01*
X55647000Y-64075000D01*
X55627000Y-64075000D01*
X55627000Y-64995750D01*
X55785750Y-65154500D01*
X55880309Y-65154500D01*
X56076476Y-65073245D01*
X56232599Y-65306901D01*
X57063099Y-66137401D01*
X57309660Y-66302148D01*
X57600500Y-66360000D01*
X59800000Y-66360000D01*
X60090839Y-66302148D01*
X60337401Y-66137401D01*
X60802690Y-65672113D01*
X60848665Y-65743560D01*
X60897852Y-65990839D01*
X60907119Y-66004707D01*
X60890302Y-66011673D01*
X60711673Y-66190301D01*
X60615000Y-66423690D01*
X60615000Y-66714250D01*
X60773750Y-66873000D01*
X61375000Y-66873000D01*
X61375000Y-66853000D01*
X61625000Y-66853000D01*
X61625000Y-66873000D01*
X61647000Y-66873000D01*
X61647000Y-67127000D01*
X61625000Y-67127000D01*
X61625000Y-67926250D01*
X61649750Y-67951000D01*
X61627000Y-67973750D01*
X61627000Y-68723000D01*
X61647000Y-68723000D01*
X61647000Y-68977000D01*
X61627000Y-68977000D01*
X61627000Y-68997000D01*
X61373000Y-68997000D01*
X61373000Y-68977000D01*
X60648750Y-68977000D01*
X60490000Y-69135750D01*
X60490000Y-69376309D01*
X60526737Y-69465000D01*
X60195000Y-69465000D01*
X60195000Y-69110005D01*
X60195001Y-69110000D01*
X60127633Y-68771326D01*
X60127633Y-68771325D01*
X59935790Y-68484210D01*
X59935787Y-68484208D01*
X59775271Y-68323691D01*
X60490000Y-68323691D01*
X60490000Y-68564250D01*
X60648750Y-68723000D01*
X61373000Y-68723000D01*
X61373000Y-67973750D01*
X61350250Y-67951000D01*
X61375000Y-67926250D01*
X61375000Y-67127000D01*
X60773750Y-67127000D01*
X60615000Y-67285750D01*
X60615000Y-67576310D01*
X60711673Y-67809699D01*
X60799487Y-67897513D01*
X60765301Y-67911673D01*
X60586673Y-68090302D01*
X60490000Y-68323691D01*
X59775271Y-68323691D01*
X59125790Y-67674210D01*
X59047593Y-67621961D01*
X58838675Y-67482367D01*
X58782484Y-67471190D01*
X58500000Y-67414999D01*
X58499995Y-67415000D01*
X55156505Y-67415000D01*
X55156500Y-67414999D01*
X54874016Y-67471190D01*
X54817825Y-67482367D01*
X54530710Y-67674210D01*
X54530708Y-67674213D01*
X53604210Y-68600710D01*
X53412367Y-68887825D01*
X53404815Y-68925790D01*
X53368119Y-69110270D01*
X53214000Y-69079060D01*
X52706000Y-69079060D01*
X52470683Y-69123338D01*
X52329629Y-69214104D01*
X52303698Y-69188173D01*
X52070309Y-69091500D01*
X51975750Y-69091500D01*
X51817000Y-69250250D01*
X51817000Y-70171000D01*
X51837000Y-70171000D01*
X51837000Y-70425000D01*
X51817000Y-70425000D01*
X51817000Y-70445000D01*
X51563000Y-70445000D01*
X51563000Y-70425000D01*
X50959750Y-70425000D01*
X50801000Y-70583750D01*
X50801000Y-70715000D01*
X50784900Y-70715000D01*
X50785240Y-70325715D01*
X50574831Y-69816485D01*
X50358913Y-69600190D01*
X50801000Y-69600190D01*
X50801000Y-70012250D01*
X50959750Y-70171000D01*
X51563000Y-70171000D01*
X51563000Y-69250250D01*
X51404250Y-69091500D01*
X51309691Y-69091500D01*
X51076302Y-69188173D01*
X50897673Y-69366801D01*
X50801000Y-69600190D01*
X50358913Y-69600190D01*
X50198998Y-69439996D01*
X50235317Y-69433162D01*
X50451441Y-69294090D01*
X50596431Y-69081890D01*
X50647440Y-68830000D01*
X50647440Y-67830000D01*
X50603162Y-67594683D01*
X50464090Y-67378559D01*
X50251890Y-67233569D01*
X50000000Y-67182560D01*
X47060000Y-67182560D01*
X46824683Y-67226838D01*
X46608559Y-67365910D01*
X46463569Y-67578110D01*
X46412560Y-67830000D01*
X46412560Y-68830000D01*
X46456838Y-69065317D01*
X46595910Y-69281441D01*
X46808110Y-69426431D01*
X47060000Y-69477440D01*
X48564123Y-69477440D01*
X48226539Y-69814436D01*
X48015241Y-70323298D01*
X48014760Y-70874285D01*
X48225169Y-71383515D01*
X48614436Y-71773461D01*
X49123298Y-71984759D01*
X49533538Y-71985117D01*
X49774208Y-72225787D01*
X49774210Y-72225790D01*
X49939197Y-72336030D01*
X50032308Y-72398245D01*
X49791091Y-72639041D01*
X49465372Y-73423459D01*
X49464630Y-74272815D01*
X49788980Y-75057800D01*
X50389041Y-75658909D01*
X51173459Y-75984628D01*
X52022815Y-75985370D01*
X52615182Y-75740608D01*
X52614630Y-76372815D01*
X52938980Y-77157800D01*
X53539041Y-77758909D01*
X54323459Y-78084628D01*
X55172815Y-78085370D01*
X55957800Y-77761020D01*
X56558909Y-77160959D01*
X56884628Y-76376541D01*
X56885202Y-75719600D01*
X57523459Y-75984628D01*
X58372815Y-75985370D01*
X59157800Y-75661020D01*
X59758909Y-75060959D01*
X59829329Y-74891369D01*
X60172637Y-75235278D01*
X60773352Y-75484716D01*
X61423795Y-75485284D01*
X61717396Y-75363970D01*
X62965635Y-75363970D01*
X63125418Y-75682739D01*
X63916187Y-75992723D01*
X64765387Y-75976497D01*
X65474582Y-75682739D01*
X65634365Y-75363970D01*
X64300000Y-74029605D01*
X62965635Y-75363970D01*
X61717396Y-75363970D01*
X62024943Y-75236894D01*
X62400086Y-74862406D01*
X62467261Y-75024582D01*
X62786030Y-75184365D01*
X64120395Y-73850000D01*
X64479605Y-73850000D01*
X65813970Y-75184365D01*
X66132739Y-75024582D01*
X66442723Y-74233813D01*
X66426497Y-73384613D01*
X66132739Y-72675418D01*
X65813970Y-72515635D01*
X64479605Y-73850000D01*
X64120395Y-73850000D01*
X62786030Y-72515635D01*
X62467261Y-72675418D01*
X62402530Y-72840546D01*
X62027363Y-72464722D01*
X61717438Y-72336030D01*
X62965635Y-72336030D01*
X64300000Y-73670395D01*
X65634365Y-72336030D01*
X65474582Y-72017261D01*
X64683813Y-71707277D01*
X63834613Y-71723503D01*
X63125418Y-72017261D01*
X62965635Y-72336030D01*
X61717438Y-72336030D01*
X61426648Y-72215284D01*
X60776205Y-72214716D01*
X60175057Y-72463106D01*
X59829537Y-72808023D01*
X59761020Y-72642200D01*
X59160959Y-72041091D01*
X58376541Y-71715372D01*
X57527185Y-71714630D01*
X56742200Y-72038980D01*
X56141091Y-72639041D01*
X55815372Y-73423459D01*
X55814798Y-74080400D01*
X55176541Y-73815372D01*
X54327185Y-73814630D01*
X53734818Y-74059392D01*
X53735370Y-73427185D01*
X53411020Y-72642200D01*
X53254094Y-72485000D01*
X53999495Y-72485000D01*
X53999500Y-72485001D01*
X54281984Y-72428810D01*
X54338175Y-72417633D01*
X54625290Y-72225790D01*
X54855787Y-71995292D01*
X54855790Y-71995290D01*
X55047633Y-71708175D01*
X55059233Y-71649860D01*
X55091881Y-71485730D01*
X55246000Y-71516940D01*
X55754000Y-71516940D01*
X55989317Y-71472662D01*
X56135907Y-71378334D01*
X56264110Y-71465931D01*
X56516000Y-71516940D01*
X57024000Y-71516940D01*
X57259317Y-71472662D01*
X57405907Y-71378334D01*
X57534110Y-71465931D01*
X57786000Y-71516940D01*
X58294000Y-71516940D01*
X58529317Y-71472662D01*
X58675907Y-71378334D01*
X58804110Y-71465931D01*
X59056000Y-71516940D01*
X59564000Y-71516940D01*
X59799317Y-71472662D01*
X60015441Y-71333590D01*
X60082805Y-71235000D01*
X60710025Y-71235000D01*
X60873110Y-71346431D01*
X61125000Y-71397440D01*
X61875000Y-71397440D01*
X62110317Y-71353162D01*
X62293946Y-71235000D01*
X62410025Y-71235000D01*
X62573110Y-71346431D01*
X62825000Y-71397440D01*
X63575000Y-71397440D01*
X63796872Y-71355692D01*
X63914436Y-71473461D01*
X64423298Y-71684759D01*
X64974285Y-71685240D01*
X65483515Y-71474831D01*
X65873461Y-71085564D01*
X66084759Y-70576702D01*
X66085023Y-70274282D01*
X66150000Y-70287440D01*
X67850000Y-70287440D01*
X68085317Y-70243162D01*
X68301441Y-70104090D01*
X68446431Y-69891890D01*
X68490000Y-69676740D01*
X68490000Y-92815000D01*
X56460238Y-92815000D01*
X56460238Y-94315000D01*
X55412617Y-94315000D01*
X55412617Y-97285000D01*
X57948333Y-97285000D01*
X57948333Y-99035000D01*
X61490000Y-99035000D01*
X61490000Y-103000000D01*
X61507902Y-103090000D01*
X55379119Y-103090000D01*
X55808909Y-102660959D01*
X56134628Y-101876541D01*
X56135370Y-101027185D01*
X55811020Y-100242200D01*
X55210959Y-99641091D01*
X54426541Y-99315372D01*
X53577185Y-99314630D01*
X52984818Y-99559392D01*
X52985370Y-98927185D01*
X52661020Y-98142200D01*
X52060959Y-97541091D01*
X51276541Y-97215372D01*
X50427185Y-97214630D01*
X49642200Y-97538980D01*
X49041091Y-98139041D01*
X48715372Y-98923459D01*
X48714798Y-99580400D01*
X48076541Y-99315372D01*
X47227185Y-99314630D01*
X46442200Y-99638980D01*
X45841091Y-100239041D01*
X45770671Y-100408631D01*
X45427363Y-100064722D01*
X44826648Y-99815284D01*
X44176205Y-99814716D01*
X43575057Y-100063106D01*
X43199914Y-100437594D01*
X43132739Y-100275418D01*
X42813970Y-100115635D01*
X41479605Y-101450000D01*
X42813970Y-102784365D01*
X43132739Y-102624582D01*
X43197470Y-102459454D01*
X43572637Y-102835278D01*
X44173352Y-103084716D01*
X44823795Y-103085284D01*
X45424943Y-102836894D01*
X45770463Y-102491977D01*
X45838980Y-102657800D01*
X46270426Y-103090000D01*
X42571192Y-103090000D01*
X42634365Y-102963970D01*
X41300000Y-101629605D01*
X39965635Y-102963970D01*
X40028808Y-103090000D01*
X37210000Y-103090000D01*
X37210000Y-101066187D01*
X39157277Y-101066187D01*
X39173503Y-101915387D01*
X39467261Y-102624582D01*
X39786030Y-102784365D01*
X41120395Y-101450000D01*
X39786030Y-100115635D01*
X39467261Y-100275418D01*
X39157277Y-101066187D01*
X37210000Y-101066187D01*
X37210000Y-99936030D01*
X39965635Y-99936030D01*
X41300000Y-101270395D01*
X42634365Y-99936030D01*
X42474582Y-99617261D01*
X41683813Y-99307277D01*
X40834613Y-99323503D01*
X40125418Y-99617261D01*
X39965635Y-99936030D01*
X37210000Y-99936030D01*
X37210000Y-91513970D01*
X39965635Y-91513970D01*
X40125418Y-91832739D01*
X40916187Y-92142723D01*
X41765387Y-92126497D01*
X42474582Y-91832739D01*
X42634365Y-91513970D01*
X41300000Y-90179605D01*
X39965635Y-91513970D01*
X37210000Y-91513970D01*
X37210000Y-89616187D01*
X39157277Y-89616187D01*
X39173503Y-90465387D01*
X39467261Y-91174582D01*
X39786030Y-91334365D01*
X41120395Y-90000000D01*
X41479605Y-90000000D01*
X42813970Y-91334365D01*
X43132739Y-91174582D01*
X43197470Y-91009454D01*
X43572637Y-91385278D01*
X44173352Y-91634716D01*
X44823795Y-91635284D01*
X45424943Y-91386894D01*
X45770463Y-91041977D01*
X45838980Y-91207800D01*
X46439041Y-91808909D01*
X47223459Y-92134628D01*
X48072815Y-92135370D01*
X48857800Y-91811020D01*
X49458909Y-91210959D01*
X49784628Y-90426541D01*
X49784631Y-90422815D01*
X51864630Y-90422815D01*
X52188980Y-91207800D01*
X52789041Y-91808909D01*
X53573459Y-92134628D01*
X54422815Y-92135370D01*
X55207800Y-91811020D01*
X55808909Y-91210959D01*
X56134628Y-90426541D01*
X56135370Y-89577185D01*
X55811020Y-88792200D01*
X55210959Y-88191091D01*
X54426541Y-87865372D01*
X53577185Y-87864630D01*
X52792200Y-88188980D01*
X52191091Y-88789041D01*
X51865372Y-89573459D01*
X51864630Y-90422815D01*
X49784631Y-90422815D01*
X49785370Y-89577185D01*
X49461020Y-88792200D01*
X48860959Y-88191091D01*
X48076541Y-87865372D01*
X47227185Y-87864630D01*
X46442200Y-88188980D01*
X45841091Y-88789041D01*
X45770671Y-88958631D01*
X45427363Y-88614722D01*
X44826648Y-88365284D01*
X44176205Y-88364716D01*
X43575057Y-88613106D01*
X43199914Y-88987594D01*
X43132739Y-88825418D01*
X42813970Y-88665635D01*
X41479605Y-90000000D01*
X41120395Y-90000000D01*
X39786030Y-88665635D01*
X39467261Y-88825418D01*
X39157277Y-89616187D01*
X37210000Y-89616187D01*
X37210000Y-88486030D01*
X39965635Y-88486030D01*
X41300000Y-89820395D01*
X42634365Y-88486030D01*
X42474582Y-88167261D01*
X41683813Y-87857277D01*
X40834613Y-87873503D01*
X40125418Y-88167261D01*
X39965635Y-88486030D01*
X37210000Y-88486030D01*
X37210000Y-71746803D01*
X37225169Y-71783515D01*
X37614436Y-72173461D01*
X38123298Y-72384759D01*
X38674285Y-72385240D01*
X39040000Y-72234130D01*
X39040000Y-74725001D01*
X39097852Y-75015840D01*
X39262599Y-75262402D01*
X40214999Y-76214802D01*
X40214999Y-84040454D01*
X40191484Y-84050170D01*
X39801538Y-84439437D01*
X39590240Y-84948299D01*
X39589759Y-85499286D01*
X39800168Y-86008516D01*
X40189435Y-86398462D01*
X40698297Y-86609760D01*
X41249284Y-86610241D01*
X41758514Y-86399832D01*
X42148460Y-86010565D01*
X42267944Y-85722815D01*
X49464630Y-85722815D01*
X49788980Y-86507800D01*
X50389041Y-87108909D01*
X51173459Y-87434628D01*
X52022815Y-87435370D01*
X52807800Y-87111020D01*
X53408909Y-86510959D01*
X53734628Y-85726541D01*
X53734631Y-85722815D01*
X55814630Y-85722815D01*
X56138980Y-86507800D01*
X56739041Y-87108909D01*
X57523459Y-87434628D01*
X58372815Y-87435370D01*
X59157800Y-87111020D01*
X59758909Y-86510959D01*
X59829329Y-86341369D01*
X60172637Y-86685278D01*
X60773352Y-86934716D01*
X61423795Y-86935284D01*
X61717396Y-86813970D01*
X62965635Y-86813970D01*
X63125418Y-87132739D01*
X63916187Y-87442723D01*
X64765387Y-87426497D01*
X65474582Y-87132739D01*
X65634365Y-86813970D01*
X64300000Y-85479605D01*
X62965635Y-86813970D01*
X61717396Y-86813970D01*
X62024943Y-86686894D01*
X62400086Y-86312406D01*
X62467261Y-86474582D01*
X62786030Y-86634365D01*
X64120395Y-85300000D01*
X64479605Y-85300000D01*
X65813970Y-86634365D01*
X66132739Y-86474582D01*
X66442723Y-85683813D01*
X66426497Y-84834613D01*
X66132739Y-84125418D01*
X65813970Y-83965635D01*
X64479605Y-85300000D01*
X64120395Y-85300000D01*
X62786030Y-83965635D01*
X62467261Y-84125418D01*
X62402530Y-84290546D01*
X62027363Y-83914722D01*
X61717438Y-83786030D01*
X62965635Y-83786030D01*
X64300000Y-85120395D01*
X65634365Y-83786030D01*
X65474582Y-83467261D01*
X64683813Y-83157277D01*
X63834613Y-83173503D01*
X63125418Y-83467261D01*
X62965635Y-83786030D01*
X61717438Y-83786030D01*
X61426648Y-83665284D01*
X60776205Y-83664716D01*
X60175057Y-83913106D01*
X59829537Y-84258023D01*
X59761020Y-84092200D01*
X59160959Y-83491091D01*
X58376541Y-83165372D01*
X57527185Y-83164630D01*
X56742200Y-83488980D01*
X56141091Y-84089041D01*
X55815372Y-84873459D01*
X55814630Y-85722815D01*
X53734631Y-85722815D01*
X53735370Y-84877185D01*
X53411020Y-84092200D01*
X52810959Y-83491091D01*
X52026541Y-83165372D01*
X51177185Y-83164630D01*
X50392200Y-83488980D01*
X49791091Y-84089041D01*
X49465372Y-84873459D01*
X49464630Y-85722815D01*
X42267944Y-85722815D01*
X42359758Y-85501703D01*
X42360239Y-84950716D01*
X42149830Y-84441486D01*
X41760563Y-84051540D01*
X41734999Y-84040925D01*
X41734999Y-75900000D01*
X41677147Y-75609161D01*
X41512400Y-75362599D01*
X40560000Y-74410199D01*
X40560000Y-73385750D01*
X40665000Y-73385750D01*
X40665000Y-73676310D01*
X40761673Y-73909699D01*
X40940302Y-74088327D01*
X41173691Y-74185000D01*
X41266250Y-74185000D01*
X41425000Y-74026250D01*
X41425000Y-73227000D01*
X40823750Y-73227000D01*
X40665000Y-73385750D01*
X40560000Y-73385750D01*
X40560000Y-72214802D01*
X40719473Y-72055329D01*
X40735309Y-72093655D01*
X40846717Y-72205257D01*
X40761673Y-72290301D01*
X40665000Y-72523690D01*
X40665000Y-72814250D01*
X40823750Y-72973000D01*
X41425000Y-72973000D01*
X41425000Y-72953000D01*
X41675000Y-72953000D01*
X41675000Y-72973000D01*
X41697000Y-72973000D01*
X41697000Y-73227000D01*
X41675000Y-73227000D01*
X41675000Y-74026250D01*
X41833750Y-74185000D01*
X41926309Y-74185000D01*
X42159698Y-74088327D01*
X42300936Y-73947090D01*
X42335910Y-74001441D01*
X42548110Y-74146431D01*
X42800000Y-74197440D01*
X43300000Y-74197440D01*
X43535317Y-74153162D01*
X43751441Y-74014090D01*
X43856726Y-73860000D01*
X44715453Y-73860000D01*
X44725169Y-73883515D01*
X45114436Y-74273461D01*
X45623298Y-74484759D01*
X46174285Y-74485240D01*
X46683515Y-74274831D01*
X47073461Y-73885564D01*
X47284759Y-73376702D01*
X47285240Y-72825715D01*
X47074831Y-72316485D01*
X46685564Y-71926539D01*
X46176702Y-71715241D01*
X45625715Y-71714760D01*
X45116485Y-71925169D01*
X44726539Y-72314436D01*
X44715924Y-72340000D01*
X43855105Y-72340000D01*
X43810000Y-72269905D01*
X43810000Y-64364802D01*
X44164802Y-64010000D01*
X46472721Y-64010000D01*
X46595910Y-64201441D01*
X46808110Y-64346431D01*
X47060000Y-64397440D01*
X49817758Y-64397440D01*
X49572638Y-64642560D01*
X47060000Y-64642560D01*
X46824683Y-64686838D01*
X46608559Y-64825910D01*
X46463569Y-65038110D01*
X46412560Y-65290000D01*
X46412560Y-66290000D01*
X46456838Y-66525317D01*
X46595910Y-66741441D01*
X46808110Y-66886431D01*
X47060000Y-66937440D01*
X50000000Y-66937440D01*
X50235317Y-66893162D01*
X50451441Y-66754090D01*
X50596431Y-66541890D01*
X50647440Y-66290000D01*
X50647440Y-65717362D01*
X51237401Y-65127401D01*
X51238890Y-65125173D01*
X51309691Y-65154500D01*
X51404250Y-65154500D01*
X51563000Y-64995750D01*
X51563000Y-64075000D01*
X51817000Y-64075000D01*
X51817000Y-64995750D01*
X51975750Y-65154500D01*
X52070309Y-65154500D01*
X52303698Y-65057827D01*
X52325000Y-65036525D01*
X52346302Y-65057827D01*
X52579691Y-65154500D01*
X52674250Y-65154500D01*
X52833000Y-64995750D01*
X52833000Y-64075000D01*
X51817000Y-64075000D01*
X51563000Y-64075000D01*
X51543000Y-64075000D01*
X51543000Y-63821000D01*
X51563000Y-63821000D01*
X51563000Y-62900250D01*
X51817000Y-62900250D01*
X51817000Y-63821000D01*
X52833000Y-63821000D01*
X52833000Y-62900250D01*
X52674250Y-62741500D01*
X52579691Y-62741500D01*
X52346302Y-62838173D01*
X52325000Y-62859475D01*
X52303698Y-62838173D01*
X52070309Y-62741500D01*
X51975750Y-62741500D01*
X51817000Y-62900250D01*
X51563000Y-62900250D01*
X51460000Y-62797250D01*
X51460000Y-62505806D01*
X54087400Y-59878406D01*
X54137188Y-59803893D01*
X54261553Y-59862298D01*
G36*
X61490000Y-45500000D02*
X61544046Y-45771705D01*
X61697954Y-46002046D01*
X61928295Y-46155954D01*
X62200000Y-46210000D01*
X68490000Y-46210000D01*
X68490000Y-57098287D01*
X67821434Y-56428553D01*
X66706347Y-55965528D01*
X66057354Y-55964961D01*
X66381447Y-55641434D01*
X66844472Y-54526347D01*
X66845526Y-53318950D01*
X66384448Y-52203057D01*
X65531434Y-51348553D01*
X64416347Y-50885528D01*
X63208950Y-50884474D01*
X62093057Y-51345552D01*
X61238553Y-52198566D01*
X60775528Y-53313653D01*
X60774474Y-54521050D01*
X61235552Y-55636943D01*
X61563037Y-55965000D01*
X60285750Y-55965000D01*
X60127000Y-56123750D01*
X60127000Y-58873000D01*
X62876250Y-58873000D01*
X63035000Y-58714250D01*
X63035000Y-56884441D01*
X63203653Y-56954472D01*
X63852646Y-56955039D01*
X63528553Y-57278566D01*
X63065528Y-58393653D01*
X63064474Y-59601050D01*
X63525552Y-60716943D01*
X64378566Y-61571447D01*
X65493653Y-62034472D01*
X66701050Y-62035526D01*
X67816943Y-61574448D01*
X68490000Y-60902565D01*
X68490000Y-66128876D01*
X68401054Y-65681715D01*
X68079147Y-65199946D01*
X67597378Y-64878039D01*
X67029093Y-64765000D01*
X66970907Y-64765000D01*
X66402622Y-64878039D01*
X65984776Y-65157234D01*
X65985240Y-64625715D01*
X65774831Y-64116485D01*
X65385564Y-63726539D01*
X64876702Y-63515241D01*
X64325715Y-63514760D01*
X63816485Y-63725169D01*
X63652928Y-63888442D01*
X63601890Y-63853569D01*
X63350000Y-63802560D01*
X62850000Y-63802560D01*
X62614683Y-63846838D01*
X62398559Y-63985910D01*
X62350866Y-64055711D01*
X62314090Y-63998559D01*
X62101890Y-63853569D01*
X61850000Y-63802560D01*
X61350000Y-63802560D01*
X61114683Y-63846838D01*
X60898559Y-63985910D01*
X60793274Y-64140000D01*
X60500000Y-64140000D01*
X60211440Y-64197399D01*
X60211440Y-63376500D01*
X60167162Y-63141183D01*
X60070000Y-62990189D01*
X60070000Y-62960002D01*
X60060533Y-62912410D01*
X60029955Y-62758686D01*
X60084759Y-62626704D01*
X60085240Y-62075717D01*
X60068416Y-62035000D01*
X60127002Y-62035000D01*
X60127002Y-61876252D01*
X60285750Y-62035000D01*
X62526309Y-62035000D01*
X62759698Y-61938327D01*
X62938327Y-61759699D01*
X63035000Y-61526310D01*
X63035000Y-59285750D01*
X62876250Y-59127000D01*
X60127000Y-59127000D01*
X60127000Y-59147000D01*
X59873000Y-59147000D01*
X59873000Y-59127000D01*
X57123750Y-59127000D01*
X56965000Y-59285750D01*
X56965000Y-61526310D01*
X57061673Y-61759699D01*
X57240302Y-61938327D01*
X57244341Y-61940000D01*
X56246227Y-61940000D01*
X56401054Y-61708285D01*
X56514093Y-61140000D01*
X56401054Y-60571715D01*
X56079147Y-60089946D01*
X55738447Y-59862298D01*
X55881358Y-59795183D01*
X56271645Y-59366924D01*
X56441476Y-58956890D01*
X56320155Y-58727000D01*
X55127000Y-58727000D01*
X55127000Y-58747000D01*
X54873000Y-58747000D01*
X54873000Y-58727000D01*
X54853000Y-58727000D01*
X54853000Y-58473000D01*
X54873000Y-58473000D01*
X54873000Y-58453000D01*
X55127000Y-58453000D01*
X55127000Y-58473000D01*
X56320155Y-58473000D01*
X56441476Y-58243110D01*
X56271645Y-57833076D01*
X55881358Y-57404817D01*
X55738447Y-57337702D01*
X56079147Y-57110054D01*
X56401054Y-56628285D01*
X56431804Y-56473690D01*
X56965000Y-56473690D01*
X56965000Y-58714250D01*
X57123750Y-58873000D01*
X59873000Y-58873000D01*
X59873000Y-56123750D01*
X59714250Y-55965000D01*
X57473691Y-55965000D01*
X57240302Y-56061673D01*
X57061673Y-56240301D01*
X56965000Y-56473690D01*
X56431804Y-56473690D01*
X56514093Y-56060000D01*
X56401054Y-55491715D01*
X56079147Y-55009946D01*
X55749974Y-54790000D01*
X56079147Y-54570054D01*
X56401054Y-54088285D01*
X56514093Y-53520000D01*
X56401054Y-52951715D01*
X56079147Y-52469946D01*
X55738447Y-52242298D01*
X55881358Y-52175183D01*
X56271645Y-51746924D01*
X56441476Y-51336890D01*
X56320155Y-51107000D01*
X55127000Y-51107000D01*
X55127000Y-51127000D01*
X54873000Y-51127000D01*
X54873000Y-51107000D01*
X53679845Y-51107000D01*
X53558524Y-51336890D01*
X53728355Y-51746924D01*
X54118642Y-52175183D01*
X54261553Y-52242298D01*
X53920853Y-52469946D01*
X53843816Y-52585241D01*
X53585564Y-52326539D01*
X53076702Y-52115241D01*
X52525715Y-52114760D01*
X52016485Y-52325169D01*
X51626539Y-52714436D01*
X51415241Y-53223298D01*
X51414760Y-53774285D01*
X51586529Y-54190000D01*
X50372931Y-54190000D01*
X50314090Y-54098559D01*
X50174250Y-54003010D01*
X50209698Y-53988327D01*
X50388327Y-53809699D01*
X50485000Y-53576310D01*
X50485000Y-53335750D01*
X50326250Y-53177000D01*
X49527000Y-53177000D01*
X49527000Y-53197000D01*
X49273000Y-53197000D01*
X49273000Y-53177000D01*
X48473750Y-53177000D01*
X48387738Y-53263012D01*
X48314090Y-53148559D01*
X48101890Y-53003569D01*
X47850000Y-52952560D01*
X46950000Y-52952560D01*
X46714683Y-52996838D01*
X46498559Y-53135910D01*
X46353569Y-53348110D01*
X46302560Y-53600000D01*
X46302560Y-53958343D01*
X46264090Y-53898559D01*
X46051890Y-53753569D01*
X45800000Y-53702560D01*
X45100000Y-53702560D01*
X44864683Y-53746838D01*
X44648559Y-53885910D01*
X44503569Y-54098110D01*
X44500919Y-54111197D01*
X44364090Y-53898559D01*
X44151890Y-53753569D01*
X43900000Y-53702560D01*
X43200000Y-53702560D01*
X42964683Y-53746838D01*
X42748559Y-53885910D01*
X42603569Y-54098110D01*
X42574836Y-54240000D01*
X42228386Y-54240000D01*
X42168917Y-54199367D01*
X42301441Y-54114090D01*
X42446431Y-53901890D01*
X42497440Y-53650000D01*
X42497440Y-52850000D01*
X42453162Y-52614683D01*
X42314090Y-52398559D01*
X42101890Y-52253569D01*
X41898646Y-52212411D01*
X42051441Y-52114090D01*
X42196431Y-51901890D01*
X42199851Y-51885000D01*
X43599995Y-51885000D01*
X43600000Y-51885001D01*
X43882484Y-51828810D01*
X43938675Y-51817633D01*
X44225790Y-51625790D01*
X44266696Y-51584884D01*
X44674285Y-51585240D01*
X45183515Y-51374831D01*
X45473852Y-51085000D01*
X46952560Y-51085000D01*
X46952560Y-51500000D01*
X46996838Y-51735317D01*
X47135910Y-51951441D01*
X47348110Y-52096431D01*
X47600000Y-52147440D01*
X48554535Y-52147440D01*
X48411673Y-52290301D01*
X48315000Y-52523690D01*
X48315000Y-52764250D01*
X48473750Y-52923000D01*
X49273000Y-52923000D01*
X49273000Y-52903000D01*
X49527000Y-52903000D01*
X49527000Y-52923000D01*
X50326250Y-52923000D01*
X50485000Y-52764250D01*
X50485000Y-52523690D01*
X50388327Y-52290301D01*
X50209698Y-52111673D01*
X49976309Y-52015000D01*
X49685750Y-52015000D01*
X49527002Y-52173748D01*
X49527002Y-52044164D01*
X49651441Y-51964090D01*
X49796431Y-51751890D01*
X49847440Y-51500000D01*
X49847440Y-51085000D01*
X50299995Y-51085000D01*
X50300000Y-51085001D01*
X50582484Y-51028810D01*
X50638675Y-51017633D01*
X50925790Y-50825790D01*
X50925791Y-50825789D01*
X51966695Y-49784884D01*
X52374285Y-49785240D01*
X52883515Y-49574831D01*
X53273461Y-49185564D01*
X53484759Y-48676702D01*
X53485240Y-48125715D01*
X53274831Y-47616485D01*
X53248393Y-47590000D01*
X53502560Y-47590000D01*
X53502560Y-49290000D01*
X53546838Y-49525317D01*
X53685910Y-49741441D01*
X53898110Y-49886431D01*
X54006107Y-49908301D01*
X53728355Y-50213076D01*
X53558524Y-50623110D01*
X53679845Y-50853000D01*
X54873000Y-50853000D01*
X54873000Y-50833000D01*
X55127000Y-50833000D01*
X55127000Y-50853000D01*
X56320155Y-50853000D01*
X56441476Y-50623110D01*
X56271645Y-50213076D01*
X55995499Y-49910063D01*
X56085317Y-49893162D01*
X56301441Y-49754090D01*
X56348135Y-49685750D01*
X57615000Y-49685750D01*
X57615000Y-49976309D01*
X57711673Y-50209698D01*
X57890301Y-50388327D01*
X58123690Y-50485000D01*
X58364250Y-50485000D01*
X58523000Y-50326250D01*
X58523000Y-49527000D01*
X57773750Y-49527000D01*
X57615000Y-49685750D01*
X56348135Y-49685750D01*
X56446431Y-49541890D01*
X56497440Y-49290000D01*
X56497440Y-48823691D01*
X57615000Y-48823691D01*
X57615000Y-49114250D01*
X57773750Y-49273000D01*
X58523000Y-49273000D01*
X58523000Y-48473750D01*
X58364250Y-48315000D01*
X58123690Y-48315000D01*
X57890301Y-48411673D01*
X57711673Y-48590302D01*
X57615000Y-48823691D01*
X56497440Y-48823691D01*
X56497440Y-47590000D01*
X56453162Y-47354683D01*
X56314090Y-47138559D01*
X56101890Y-46993569D01*
X55850000Y-46942560D01*
X54150000Y-46942560D01*
X53914683Y-46986838D01*
X53698559Y-47125910D01*
X53553569Y-47338110D01*
X53502560Y-47590000D01*
X53248393Y-47590000D01*
X52985000Y-47326148D01*
X52985000Y-46766580D01*
X53766579Y-45985000D01*
X57883420Y-45985000D01*
X58602384Y-46703963D01*
X58552560Y-46950000D01*
X58552560Y-47850000D01*
X58596838Y-48085317D01*
X58735910Y-48301441D01*
X58862686Y-48388064D01*
X58777000Y-48473750D01*
X58777000Y-49273000D01*
X58797000Y-49273000D01*
X58797000Y-49527000D01*
X58777000Y-49527000D01*
X58777000Y-50326250D01*
X58935750Y-50485000D01*
X59176310Y-50485000D01*
X59409699Y-50388327D01*
X59588327Y-50209698D01*
X59603423Y-50173253D01*
X59685910Y-50301441D01*
X59898110Y-50446431D01*
X60150000Y-50497440D01*
X60950000Y-50497440D01*
X61185317Y-50453162D01*
X61401441Y-50314090D01*
X61489644Y-50185000D01*
X62726477Y-50185000D01*
X63014436Y-50473461D01*
X63523298Y-50684759D01*
X64074285Y-50685240D01*
X64583515Y-50474831D01*
X64973461Y-50085564D01*
X65184759Y-49576702D01*
X65185240Y-49025715D01*
X64974831Y-48516485D01*
X64585564Y-48126539D01*
X64076702Y-47915241D01*
X63525715Y-47914760D01*
X63016485Y-48125169D01*
X62726148Y-48415000D01*
X61291797Y-48415000D01*
X61201890Y-48353569D01*
X60950000Y-48302560D01*
X60459319Y-48302560D01*
X60596431Y-48101890D01*
X60647440Y-47850000D01*
X60647440Y-46950000D01*
X60603162Y-46714683D01*
X60485000Y-46531054D01*
X60485000Y-46450000D01*
X60417633Y-46111325D01*
X60225790Y-45824210D01*
X60225787Y-45824208D01*
X58875790Y-44474210D01*
X58588675Y-44282367D01*
X58532484Y-44271190D01*
X58250000Y-44214999D01*
X58249995Y-44215000D01*
X53400005Y-44215000D01*
X53400000Y-44214999D01*
X53117516Y-44271190D01*
X53061325Y-44282367D01*
X52774210Y-44474210D01*
X52774208Y-44474213D01*
X51474210Y-45774210D01*
X51282367Y-46061325D01*
X51282367Y-46061326D01*
X51214999Y-46400000D01*
X51215000Y-46400005D01*
X51215000Y-47326477D01*
X50926539Y-47614436D01*
X50715241Y-48123298D01*
X50714883Y-48533538D01*
X49933420Y-49315000D01*
X49847440Y-49315000D01*
X49847440Y-48900000D01*
X49803162Y-48664683D01*
X49664090Y-48448559D01*
X49595994Y-48402031D01*
X49738327Y-48259698D01*
X49835000Y-48026309D01*
X49835000Y-46885750D01*
X49676250Y-46727000D01*
X48527000Y-46727000D01*
X48527000Y-46747000D01*
X48273000Y-46747000D01*
X48273000Y-46727000D01*
X47123750Y-46727000D01*
X46965000Y-46885750D01*
X46965000Y-48026309D01*
X47061673Y-48259698D01*
X47202910Y-48400936D01*
X47148559Y-48435910D01*
X47003569Y-48648110D01*
X46952560Y-48900000D01*
X46952560Y-49315000D01*
X45473523Y-49315000D01*
X45185564Y-49026539D01*
X44676702Y-48815241D01*
X44125715Y-48814760D01*
X43616485Y-49025169D01*
X43226539Y-49414436D01*
X43015241Y-49923298D01*
X43015074Y-50115000D01*
X42203222Y-50115000D01*
X42203162Y-50114683D01*
X42064090Y-49898559D01*
X41851890Y-49753569D01*
X41600000Y-49702560D01*
X40900000Y-49702560D01*
X40664683Y-49746838D01*
X40448559Y-49885910D01*
X40303569Y-50098110D01*
X40300919Y-50111197D01*
X40164090Y-49898559D01*
X39951890Y-49753569D01*
X39700000Y-49702560D01*
X39000000Y-49702560D01*
X38764683Y-49746838D01*
X38548559Y-49885910D01*
X38403569Y-50098110D01*
X38352560Y-50350000D01*
X38352560Y-51650000D01*
X38396838Y-51885317D01*
X38535910Y-52101441D01*
X38640000Y-52172563D01*
X38640000Y-53244895D01*
X38498559Y-53335910D01*
X38353569Y-53548110D01*
X38302560Y-53800000D01*
X38302560Y-54600000D01*
X38346838Y-54835317D01*
X38485910Y-55051441D01*
X38640000Y-55156726D01*
X38640000Y-55285198D01*
X38432599Y-55492599D01*
X38267852Y-55739161D01*
X38210000Y-56030000D01*
X38210000Y-57022560D01*
X37500000Y-57022560D01*
X37264683Y-57066838D01*
X37210000Y-57102026D01*
X37210000Y-46210000D01*
X43500000Y-46210000D01*
X43771705Y-46155954D01*
X44002046Y-46002046D01*
X44155954Y-45771705D01*
X44210000Y-45500000D01*
X44210000Y-45173691D01*
X46965000Y-45173691D01*
X46965000Y-46314250D01*
X47123750Y-46473000D01*
X48273000Y-46473000D01*
X48273000Y-44823750D01*
X48527000Y-44823750D01*
X48527000Y-46473000D01*
X49676250Y-46473000D01*
X49835000Y-46314250D01*
X49835000Y-45173691D01*
X49738327Y-44940302D01*
X49559699Y-44761673D01*
X49326310Y-44665000D01*
X48685750Y-44665000D01*
X48527000Y-44823750D01*
X48273000Y-44823750D01*
X48114250Y-44665000D01*
X47473690Y-44665000D01*
X47240301Y-44761673D01*
X47061673Y-44940302D01*
X46965000Y-45173691D01*
X44210000Y-45173691D01*
X44210000Y-39210000D01*
X61490000Y-39210000D01*
X61490000Y-45500000D01*
X61490000Y-45500000D01*
G37*
X61490000Y-45500000D02*
X61544046Y-45771705D01*
X61697954Y-46002046D01*
X61928295Y-46155954D01*
X62200000Y-46210000D01*
X68490000Y-46210000D01*
X68490000Y-57098287D01*
X67821434Y-56428553D01*
X66706347Y-55965528D01*
X66057354Y-55964961D01*
X66381447Y-55641434D01*
X66844472Y-54526347D01*
X66845526Y-53318950D01*
X66384448Y-52203057D01*
X65531434Y-51348553D01*
X64416347Y-50885528D01*
X63208950Y-50884474D01*
X62093057Y-51345552D01*
X61238553Y-52198566D01*
X60775528Y-53313653D01*
X60774474Y-54521050D01*
X61235552Y-55636943D01*
X61563037Y-55965000D01*
X60285750Y-55965000D01*
X60127000Y-56123750D01*
X60127000Y-58873000D01*
X62876250Y-58873000D01*
X63035000Y-58714250D01*
X63035000Y-56884441D01*
X63203653Y-56954472D01*
X63852646Y-56955039D01*
X63528553Y-57278566D01*
X63065528Y-58393653D01*
X63064474Y-59601050D01*
X63525552Y-60716943D01*
X64378566Y-61571447D01*
X65493653Y-62034472D01*
X66701050Y-62035526D01*
X67816943Y-61574448D01*
X68490000Y-60902565D01*
X68490000Y-66128876D01*
X68401054Y-65681715D01*
X68079147Y-65199946D01*
X67597378Y-64878039D01*
X67029093Y-64765000D01*
X66970907Y-64765000D01*
X66402622Y-64878039D01*
X65984776Y-65157234D01*
X65985240Y-64625715D01*
X65774831Y-64116485D01*
X65385564Y-63726539D01*
X64876702Y-63515241D01*
X64325715Y-63514760D01*
X63816485Y-63725169D01*
X63652928Y-63888442D01*
X63601890Y-63853569D01*
X63350000Y-63802560D01*
X62850000Y-63802560D01*
X62614683Y-63846838D01*
X62398559Y-63985910D01*
X62350866Y-64055711D01*
X62314090Y-63998559D01*
X62101890Y-63853569D01*
X61850000Y-63802560D01*
X61350000Y-63802560D01*
X61114683Y-63846838D01*
X60898559Y-63985910D01*
X60793274Y-64140000D01*
X60500000Y-64140000D01*
X60211440Y-64197399D01*
X60211440Y-63376500D01*
X60167162Y-63141183D01*
X60070000Y-62990189D01*
X60070000Y-62960002D01*
X60060533Y-62912410D01*
X60029955Y-62758686D01*
X60084759Y-62626704D01*
X60085240Y-62075717D01*
X60068416Y-62035000D01*
X60127002Y-62035000D01*
X60127002Y-61876252D01*
X60285750Y-62035000D01*
X62526309Y-62035000D01*
X62759698Y-61938327D01*
X62938327Y-61759699D01*
X63035000Y-61526310D01*
X63035000Y-59285750D01*
X62876250Y-59127000D01*
X60127000Y-59127000D01*
X60127000Y-59147000D01*
X59873000Y-59147000D01*
X59873000Y-59127000D01*
X57123750Y-59127000D01*
X56965000Y-59285750D01*
X56965000Y-61526310D01*
X57061673Y-61759699D01*
X57240302Y-61938327D01*
X57244341Y-61940000D01*
X56246227Y-61940000D01*
X56401054Y-61708285D01*
X56514093Y-61140000D01*
X56401054Y-60571715D01*
X56079147Y-60089946D01*
X55738447Y-59862298D01*
X55881358Y-59795183D01*
X56271645Y-59366924D01*
X56441476Y-58956890D01*
X56320155Y-58727000D01*
X55127000Y-58727000D01*
X55127000Y-58747000D01*
X54873000Y-58747000D01*
X54873000Y-58727000D01*
X54853000Y-58727000D01*
X54853000Y-58473000D01*
X54873000Y-58473000D01*
X54873000Y-58453000D01*
X55127000Y-58453000D01*
X55127000Y-58473000D01*
X56320155Y-58473000D01*
X56441476Y-58243110D01*
X56271645Y-57833076D01*
X55881358Y-57404817D01*
X55738447Y-57337702D01*
X56079147Y-57110054D01*
X56401054Y-56628285D01*
X56431804Y-56473690D01*
X56965000Y-56473690D01*
X56965000Y-58714250D01*
X57123750Y-58873000D01*
X59873000Y-58873000D01*
X59873000Y-56123750D01*
X59714250Y-55965000D01*
X57473691Y-55965000D01*
X57240302Y-56061673D01*
X57061673Y-56240301D01*
X56965000Y-56473690D01*
X56431804Y-56473690D01*
X56514093Y-56060000D01*
X56401054Y-55491715D01*
X56079147Y-55009946D01*
X55749974Y-54790000D01*
X56079147Y-54570054D01*
X56401054Y-54088285D01*
X56514093Y-53520000D01*
X56401054Y-52951715D01*
X56079147Y-52469946D01*
X55738447Y-52242298D01*
X55881358Y-52175183D01*
X56271645Y-51746924D01*
X56441476Y-51336890D01*
X56320155Y-51107000D01*
X55127000Y-51107000D01*
X55127000Y-51127000D01*
X54873000Y-51127000D01*
X54873000Y-51107000D01*
X53679845Y-51107000D01*
X53558524Y-51336890D01*
X53728355Y-51746924D01*
X54118642Y-52175183D01*
X54261553Y-52242298D01*
X53920853Y-52469946D01*
X53843816Y-52585241D01*
X53585564Y-52326539D01*
X53076702Y-52115241D01*
X52525715Y-52114760D01*
X52016485Y-52325169D01*
X51626539Y-52714436D01*
X51415241Y-53223298D01*
X51414760Y-53774285D01*
X51586529Y-54190000D01*
X50372931Y-54190000D01*
X50314090Y-54098559D01*
X50174250Y-54003010D01*
X50209698Y-53988327D01*
X50388327Y-53809699D01*
X50485000Y-53576310D01*
X50485000Y-53335750D01*
X50326250Y-53177000D01*
X49527000Y-53177000D01*
X49527000Y-53197000D01*
X49273000Y-53197000D01*
X49273000Y-53177000D01*
X48473750Y-53177000D01*
X48387738Y-53263012D01*
X48314090Y-53148559D01*
X48101890Y-53003569D01*
X47850000Y-52952560D01*
X46950000Y-52952560D01*
X46714683Y-52996838D01*
X46498559Y-53135910D01*
X46353569Y-53348110D01*
X46302560Y-53600000D01*
X46302560Y-53958343D01*
X46264090Y-53898559D01*
X46051890Y-53753569D01*
X45800000Y-53702560D01*
X45100000Y-53702560D01*
X44864683Y-53746838D01*
X44648559Y-53885910D01*
X44503569Y-54098110D01*
X44500919Y-54111197D01*
X44364090Y-53898559D01*
X44151890Y-53753569D01*
X43900000Y-53702560D01*
X43200000Y-53702560D01*
X42964683Y-53746838D01*
X42748559Y-53885910D01*
X42603569Y-54098110D01*
X42574836Y-54240000D01*
X42228386Y-54240000D01*
X42168917Y-54199367D01*
X42301441Y-54114090D01*
X42446431Y-53901890D01*
X42497440Y-53650000D01*
X42497440Y-52850000D01*
X42453162Y-52614683D01*
X42314090Y-52398559D01*
X42101890Y-52253569D01*
X41898646Y-52212411D01*
X42051441Y-52114090D01*
X42196431Y-51901890D01*
X42199851Y-51885000D01*
X43599995Y-51885000D01*
X43600000Y-51885001D01*
X43882484Y-51828810D01*
X43938675Y-51817633D01*
X44225790Y-51625790D01*
X44266696Y-51584884D01*
X44674285Y-51585240D01*
X45183515Y-51374831D01*
X45473852Y-51085000D01*
X46952560Y-51085000D01*
X46952560Y-51500000D01*
X46996838Y-51735317D01*
X47135910Y-51951441D01*
X47348110Y-52096431D01*
X47600000Y-52147440D01*
X48554535Y-52147440D01*
X48411673Y-52290301D01*
X48315000Y-52523690D01*
X48315000Y-52764250D01*
X48473750Y-52923000D01*
X49273000Y-52923000D01*
X49273000Y-52903000D01*
X49527000Y-52903000D01*
X49527000Y-52923000D01*
X50326250Y-52923000D01*
X50485000Y-52764250D01*
X50485000Y-52523690D01*
X50388327Y-52290301D01*
X50209698Y-52111673D01*
X49976309Y-52015000D01*
X49685750Y-52015000D01*
X49527002Y-52173748D01*
X49527002Y-52044164D01*
X49651441Y-51964090D01*
X49796431Y-51751890D01*
X49847440Y-51500000D01*
X49847440Y-51085000D01*
X50299995Y-51085000D01*
X50300000Y-51085001D01*
X50582484Y-51028810D01*
X50638675Y-51017633D01*
X50925790Y-50825790D01*
X50925791Y-50825789D01*
X51966695Y-49784884D01*
X52374285Y-49785240D01*
X52883515Y-49574831D01*
X53273461Y-49185564D01*
X53484759Y-48676702D01*
X53485240Y-48125715D01*
X53274831Y-47616485D01*
X53248393Y-47590000D01*
X53502560Y-47590000D01*
X53502560Y-49290000D01*
X53546838Y-49525317D01*
X53685910Y-49741441D01*
X53898110Y-49886431D01*
X54006107Y-49908301D01*
X53728355Y-50213076D01*
X53558524Y-50623110D01*
X53679845Y-50853000D01*
X54873000Y-50853000D01*
X54873000Y-50833000D01*
X55127000Y-50833000D01*
X55127000Y-50853000D01*
X56320155Y-50853000D01*
X56441476Y-50623110D01*
X56271645Y-50213076D01*
X55995499Y-49910063D01*
X56085317Y-49893162D01*
X56301441Y-49754090D01*
X56348135Y-49685750D01*
X57615000Y-49685750D01*
X57615000Y-49976309D01*
X57711673Y-50209698D01*
X57890301Y-50388327D01*
X58123690Y-50485000D01*
X58364250Y-50485000D01*
X58523000Y-50326250D01*
X58523000Y-49527000D01*
X57773750Y-49527000D01*
X57615000Y-49685750D01*
X56348135Y-49685750D01*
X56446431Y-49541890D01*
X56497440Y-49290000D01*
X56497440Y-48823691D01*
X57615000Y-48823691D01*
X57615000Y-49114250D01*
X57773750Y-49273000D01*
X58523000Y-49273000D01*
X58523000Y-48473750D01*
X58364250Y-48315000D01*
X58123690Y-48315000D01*
X57890301Y-48411673D01*
X57711673Y-48590302D01*
X57615000Y-48823691D01*
X56497440Y-48823691D01*
X56497440Y-47590000D01*
X56453162Y-47354683D01*
X56314090Y-47138559D01*
X56101890Y-46993569D01*
X55850000Y-46942560D01*
X54150000Y-46942560D01*
X53914683Y-46986838D01*
X53698559Y-47125910D01*
X53553569Y-47338110D01*
X53502560Y-47590000D01*
X53248393Y-47590000D01*
X52985000Y-47326148D01*
X52985000Y-46766580D01*
X53766579Y-45985000D01*
X57883420Y-45985000D01*
X58602384Y-46703963D01*
X58552560Y-46950000D01*
X58552560Y-47850000D01*
X58596838Y-48085317D01*
X58735910Y-48301441D01*
X58862686Y-48388064D01*
X58777000Y-48473750D01*
X58777000Y-49273000D01*
X58797000Y-49273000D01*
X58797000Y-49527000D01*
X58777000Y-49527000D01*
X58777000Y-50326250D01*
X58935750Y-50485000D01*
X59176310Y-50485000D01*
X59409699Y-50388327D01*
X59588327Y-50209698D01*
X59603423Y-50173253D01*
X59685910Y-50301441D01*
X59898110Y-50446431D01*
X60150000Y-50497440D01*
X60950000Y-50497440D01*
X61185317Y-50453162D01*
X61401441Y-50314090D01*
X61489644Y-50185000D01*
X62726477Y-50185000D01*
X63014436Y-50473461D01*
X63523298Y-50684759D01*
X64074285Y-50685240D01*
X64583515Y-50474831D01*
X64973461Y-50085564D01*
X65184759Y-49576702D01*
X65185240Y-49025715D01*
X64974831Y-48516485D01*
X64585564Y-48126539D01*
X64076702Y-47915241D01*
X63525715Y-47914760D01*
X63016485Y-48125169D01*
X62726148Y-48415000D01*
X61291797Y-48415000D01*
X61201890Y-48353569D01*
X60950000Y-48302560D01*
X60459319Y-48302560D01*
X60596431Y-48101890D01*
X60647440Y-47850000D01*
X60647440Y-46950000D01*
X60603162Y-46714683D01*
X60485000Y-46531054D01*
X60485000Y-46450000D01*
X60417633Y-46111325D01*
X60225790Y-45824210D01*
X60225787Y-45824208D01*
X58875790Y-44474210D01*
X58588675Y-44282367D01*
X58532484Y-44271190D01*
X58250000Y-44214999D01*
X58249995Y-44215000D01*
X53400005Y-44215000D01*
X53400000Y-44214999D01*
X53117516Y-44271190D01*
X53061325Y-44282367D01*
X52774210Y-44474210D01*
X52774208Y-44474213D01*
X51474210Y-45774210D01*
X51282367Y-46061325D01*
X51282367Y-46061326D01*
X51214999Y-46400000D01*
X51215000Y-46400005D01*
X51215000Y-47326477D01*
X50926539Y-47614436D01*
X50715241Y-48123298D01*
X50714883Y-48533538D01*
X49933420Y-49315000D01*
X49847440Y-49315000D01*
X49847440Y-48900000D01*
X49803162Y-48664683D01*
X49664090Y-48448559D01*
X49595994Y-48402031D01*
X49738327Y-48259698D01*
X49835000Y-48026309D01*
X49835000Y-46885750D01*
X49676250Y-46727000D01*
X48527000Y-46727000D01*
X48527000Y-46747000D01*
X48273000Y-46747000D01*
X48273000Y-46727000D01*
X47123750Y-46727000D01*
X46965000Y-46885750D01*
X46965000Y-48026309D01*
X47061673Y-48259698D01*
X47202910Y-48400936D01*
X47148559Y-48435910D01*
X47003569Y-48648110D01*
X46952560Y-48900000D01*
X46952560Y-49315000D01*
X45473523Y-49315000D01*
X45185564Y-49026539D01*
X44676702Y-48815241D01*
X44125715Y-48814760D01*
X43616485Y-49025169D01*
X43226539Y-49414436D01*
X43015241Y-49923298D01*
X43015074Y-50115000D01*
X42203222Y-50115000D01*
X42203162Y-50114683D01*
X42064090Y-49898559D01*
X41851890Y-49753569D01*
X41600000Y-49702560D01*
X40900000Y-49702560D01*
X40664683Y-49746838D01*
X40448559Y-49885910D01*
X40303569Y-50098110D01*
X40300919Y-50111197D01*
X40164090Y-49898559D01*
X39951890Y-49753569D01*
X39700000Y-49702560D01*
X39000000Y-49702560D01*
X38764683Y-49746838D01*
X38548559Y-49885910D01*
X38403569Y-50098110D01*
X38352560Y-50350000D01*
X38352560Y-51650000D01*
X38396838Y-51885317D01*
X38535910Y-52101441D01*
X38640000Y-52172563D01*
X38640000Y-53244895D01*
X38498559Y-53335910D01*
X38353569Y-53548110D01*
X38302560Y-53800000D01*
X38302560Y-54600000D01*
X38346838Y-54835317D01*
X38485910Y-55051441D01*
X38640000Y-55156726D01*
X38640000Y-55285198D01*
X38432599Y-55492599D01*
X38267852Y-55739161D01*
X38210000Y-56030000D01*
X38210000Y-57022560D01*
X37500000Y-57022560D01*
X37264683Y-57066838D01*
X37210000Y-57102026D01*
X37210000Y-46210000D01*
X43500000Y-46210000D01*
X43771705Y-46155954D01*
X44002046Y-46002046D01*
X44155954Y-45771705D01*
X44210000Y-45500000D01*
X44210000Y-45173691D01*
X46965000Y-45173691D01*
X46965000Y-46314250D01*
X47123750Y-46473000D01*
X48273000Y-46473000D01*
X48273000Y-44823750D01*
X48527000Y-44823750D01*
X48527000Y-46473000D01*
X49676250Y-46473000D01*
X49835000Y-46314250D01*
X49835000Y-45173691D01*
X49738327Y-44940302D01*
X49559699Y-44761673D01*
X49326310Y-44665000D01*
X48685750Y-44665000D01*
X48527000Y-44823750D01*
X48273000Y-44823750D01*
X48114250Y-44665000D01*
X47473690Y-44665000D01*
X47240301Y-44761673D01*
X47061673Y-44940302D01*
X46965000Y-45173691D01*
X44210000Y-45173691D01*
X44210000Y-39210000D01*
X61490000Y-39210000D01*
X61490000Y-45500000D01*
G36*
X124217449Y-64996768D02*
X124726311Y-65208066D01*
X125277298Y-65208547D01*
X125440000Y-65141320D01*
X125440000Y-67200000D01*
X125497852Y-67490839D01*
X125662599Y-67737401D01*
X127240000Y-69314802D01*
X127240000Y-72085198D01*
X124762599Y-74562599D01*
X124597852Y-74809161D01*
X124540000Y-75100000D01*
X124540000Y-89500000D01*
X124597852Y-89790839D01*
X124762599Y-90037401D01*
X125440000Y-90714802D01*
X125440000Y-91493156D01*
X125373559Y-91535910D01*
X125228569Y-91748110D01*
X125177560Y-92000000D01*
X125177560Y-92800000D01*
X125221838Y-93035317D01*
X125295620Y-93149978D01*
X125228569Y-93248110D01*
X125177560Y-93500000D01*
X125177560Y-94300000D01*
X125221838Y-94535317D01*
X125360910Y-94751441D01*
X125573110Y-94896431D01*
X125825000Y-94947440D01*
X126575000Y-94947440D01*
X126810317Y-94903162D01*
X127026441Y-94764090D01*
X127097563Y-94660000D01*
X127244895Y-94660000D01*
X127335910Y-94801441D01*
X127548110Y-94946431D01*
X127800000Y-94997440D01*
X128300000Y-94997440D01*
X128535317Y-94953162D01*
X128751441Y-94814090D01*
X128797969Y-94745994D01*
X128940302Y-94888327D01*
X129173691Y-94985000D01*
X129266250Y-94985000D01*
X129425000Y-94826250D01*
X129425000Y-94027000D01*
X129675000Y-94027000D01*
X129675000Y-94826250D01*
X129833750Y-94985000D01*
X129926309Y-94985000D01*
X130159698Y-94888327D01*
X130338327Y-94709699D01*
X130435000Y-94476310D01*
X130435000Y-94185750D01*
X130276250Y-94027000D01*
X129675000Y-94027000D01*
X129425000Y-94027000D01*
X129403000Y-94027000D01*
X129403000Y-93773000D01*
X129425000Y-93773000D01*
X129425000Y-92973750D01*
X129266250Y-92815000D01*
X129173691Y-92815000D01*
X129027878Y-92875398D01*
X129146431Y-92701890D01*
X129197440Y-92450000D01*
X129197440Y-91959319D01*
X129215000Y-91971317D01*
X129215000Y-91999995D01*
X129214999Y-92000000D01*
X129249653Y-92174211D01*
X129282367Y-92338675D01*
X129430251Y-92560000D01*
X129474210Y-92625790D01*
X129748585Y-92900165D01*
X129675000Y-92973750D01*
X129675000Y-93773000D01*
X130276250Y-93773000D01*
X130295304Y-93753946D01*
X130514436Y-93973461D01*
X131023298Y-94184759D01*
X131574285Y-94185240D01*
X132083515Y-93974831D01*
X132373852Y-93685000D01*
X132468554Y-93685000D01*
X132496838Y-93835317D01*
X132635910Y-94051441D01*
X132848110Y-94196431D01*
X133100000Y-94247440D01*
X136100000Y-94247440D01*
X136335317Y-94203162D01*
X136551441Y-94064090D01*
X136696431Y-93851890D01*
X136747440Y-93600000D01*
X136747440Y-93085750D01*
X136865000Y-93085750D01*
X136865000Y-93726310D01*
X136961673Y-93959699D01*
X137140302Y-94138327D01*
X137373691Y-94235000D01*
X138714250Y-94235000D01*
X138873000Y-94076250D01*
X138873000Y-92927000D01*
X139127000Y-92927000D01*
X139127000Y-94076250D01*
X139285750Y-94235000D01*
X140626309Y-94235000D01*
X140859698Y-94138327D01*
X141038327Y-93959699D01*
X141135000Y-93726310D01*
X141135000Y-93085750D01*
X140976250Y-92927000D01*
X139127000Y-92927000D01*
X138873000Y-92927000D01*
X137023750Y-92927000D01*
X136865000Y-93085750D01*
X136747440Y-93085750D01*
X136747440Y-92000000D01*
X136723674Y-91873690D01*
X136865000Y-91873690D01*
X136865000Y-92514250D01*
X137023750Y-92673000D01*
X138873000Y-92673000D01*
X138873000Y-91523750D01*
X138714250Y-91365000D01*
X137373691Y-91365000D01*
X137140302Y-91461673D01*
X136961673Y-91640301D01*
X136865000Y-91873690D01*
X136723674Y-91873690D01*
X136703162Y-91764683D01*
X136564090Y-91548559D01*
X136351890Y-91403569D01*
X136100000Y-91352560D01*
X133100000Y-91352560D01*
X132864683Y-91396838D01*
X132648559Y-91535910D01*
X132503569Y-91748110D01*
X132469773Y-91915000D01*
X132373523Y-91915000D01*
X132085564Y-91626539D01*
X131576702Y-91415241D01*
X131197440Y-91414910D01*
X131197440Y-90700000D01*
X131153162Y-90464683D01*
X131014090Y-90248559D01*
X130985000Y-90228683D01*
X130985000Y-89700000D01*
X130917633Y-89361325D01*
X130725790Y-89074210D01*
X130725787Y-89074208D01*
X130435000Y-88783420D01*
X130435000Y-88585000D01*
X133749995Y-88585000D01*
X133750000Y-88585001D01*
X133938828Y-88547440D01*
X134250000Y-88547440D01*
X134485317Y-88503162D01*
X134701441Y-88364090D01*
X134846431Y-88151890D01*
X134897440Y-87900000D01*
X134897440Y-87400000D01*
X134853162Y-87164683D01*
X134714090Y-86948559D01*
X134644289Y-86900866D01*
X134701441Y-86864090D01*
X134704236Y-86860000D01*
X134827069Y-86860000D01*
X134885910Y-86951441D01*
X135098110Y-87096431D01*
X135350000Y-87147440D01*
X136169080Y-87147440D01*
X136262599Y-87287401D01*
X136562599Y-87587401D01*
X136775271Y-87729504D01*
X136885910Y-87901441D01*
X137098110Y-88046431D01*
X137350000Y-88097440D01*
X138250000Y-88097440D01*
X138485317Y-88053162D01*
X138701441Y-87914090D01*
X138846431Y-87701890D01*
X138897440Y-87450000D01*
X138897440Y-87345465D01*
X138990301Y-87438327D01*
X139223690Y-87535000D01*
X139514250Y-87535000D01*
X139673000Y-87376250D01*
X139673000Y-86775000D01*
X139653000Y-86775000D01*
X139653000Y-86525000D01*
X139673000Y-86525000D01*
X139673000Y-86503000D01*
X139927000Y-86503000D01*
X139927000Y-86525000D01*
X139947000Y-86525000D01*
X139947000Y-86775000D01*
X139927000Y-86775000D01*
X139927000Y-87376250D01*
X140085750Y-87535000D01*
X140376310Y-87535000D01*
X140609699Y-87438327D01*
X140641001Y-87407025D01*
X140641001Y-90400173D01*
X140526539Y-90514436D01*
X140315241Y-91023298D01*
X140314943Y-91365000D01*
X139285750Y-91365000D01*
X139127000Y-91523750D01*
X139127000Y-92673000D01*
X140976250Y-92673000D01*
X141099107Y-92550143D01*
X141423298Y-92684759D01*
X141974285Y-92685240D01*
X142483515Y-92474831D01*
X142873461Y-92085564D01*
X143084759Y-91576702D01*
X143085240Y-91025715D01*
X142874831Y-90516485D01*
X142485564Y-90126539D01*
X142411001Y-90095578D01*
X142411001Y-83340579D01*
X142879235Y-82872345D01*
X142925169Y-82983515D01*
X143314436Y-83373461D01*
X143424738Y-83419262D01*
X143297852Y-83609161D01*
X143240000Y-83900000D01*
X143240000Y-88913186D01*
X143297852Y-89204025D01*
X143462599Y-89450587D01*
X143840000Y-89827988D01*
X143840000Y-91800000D01*
X143897852Y-92090839D01*
X144062599Y-92337401D01*
X144962599Y-93237401D01*
X145209160Y-93402148D01*
X145500000Y-93460000D01*
X146652560Y-93460000D01*
X146652560Y-93500000D01*
X146696838Y-93735317D01*
X146835910Y-93951441D01*
X147048110Y-94096431D01*
X147300000Y-94147440D01*
X150300000Y-94147440D01*
X150535317Y-94103162D01*
X150751441Y-93964090D01*
X150896431Y-93751890D01*
X150947440Y-93500000D01*
X150947440Y-91900000D01*
X150903162Y-91664683D01*
X150764090Y-91448559D01*
X150551890Y-91303569D01*
X150300000Y-91252560D01*
X147300000Y-91252560D01*
X147085007Y-91293014D01*
X147085240Y-91025715D01*
X146874831Y-90516485D01*
X146643749Y-90285000D01*
X146699995Y-90285000D01*
X146700000Y-90285001D01*
X146982484Y-90228810D01*
X147038675Y-90217633D01*
X147325790Y-90025790D01*
X147325791Y-90025789D01*
X147724315Y-89627264D01*
X147724318Y-89627262D01*
X147916161Y-89340147D01*
X147927338Y-89283956D01*
X147946872Y-89185750D01*
X148715000Y-89185750D01*
X148715000Y-89476310D01*
X148811673Y-89709699D01*
X148990302Y-89888327D01*
X149223691Y-89985000D01*
X149316250Y-89985000D01*
X149475000Y-89826250D01*
X149475000Y-89027000D01*
X148873750Y-89027000D01*
X148715000Y-89185750D01*
X147946872Y-89185750D01*
X147983529Y-89001472D01*
X147983528Y-89001467D01*
X147983528Y-88968052D01*
X148776597Y-88174983D01*
X148715000Y-88323690D01*
X148715000Y-88614250D01*
X148873750Y-88773000D01*
X149475000Y-88773000D01*
X149475000Y-88753000D01*
X149725000Y-88753000D01*
X149725000Y-88773000D01*
X149747000Y-88773000D01*
X149747000Y-89027000D01*
X149725000Y-89027000D01*
X149725000Y-89826250D01*
X149883750Y-89985000D01*
X149976309Y-89985000D01*
X150209698Y-89888327D01*
X150350936Y-89747090D01*
X150385910Y-89801441D01*
X150598110Y-89946431D01*
X150850000Y-89997440D01*
X151350000Y-89997440D01*
X151585317Y-89953162D01*
X151801441Y-89814090D01*
X151906726Y-89660000D01*
X152194895Y-89660000D01*
X152285910Y-89801441D01*
X152498110Y-89946431D01*
X152750000Y-89997440D01*
X153127758Y-89997440D01*
X152662599Y-90462599D01*
X152497852Y-90709161D01*
X152440000Y-91000000D01*
X152440000Y-91252560D01*
X151700000Y-91252560D01*
X151464683Y-91296838D01*
X151248559Y-91435910D01*
X151103569Y-91648110D01*
X151052560Y-91900000D01*
X151052560Y-93500000D01*
X151096838Y-93735317D01*
X151235910Y-93951441D01*
X151448110Y-94096431D01*
X151700000Y-94147440D01*
X154700000Y-94147440D01*
X154935317Y-94103162D01*
X155140000Y-93971452D01*
X155140000Y-102940000D01*
X131102482Y-102940000D01*
X131202148Y-102790839D01*
X131260000Y-102500000D01*
X131260000Y-96565000D01*
X131865000Y-96565000D01*
X131865000Y-102535000D01*
X135801667Y-102535000D01*
X135801667Y-101035000D01*
X145087383Y-101035000D01*
X145087383Y-98065000D01*
X144039762Y-98065000D01*
X144039762Y-96565000D01*
X131865000Y-96565000D01*
X131260000Y-96565000D01*
X131260000Y-96500000D01*
X131202148Y-96209161D01*
X131037401Y-95962599D01*
X130790839Y-95797852D01*
X130500000Y-95740000D01*
X124250000Y-95740000D01*
X123959161Y-95797852D01*
X123860000Y-95864109D01*
X123860000Y-72692183D01*
X124323459Y-72884628D01*
X125172815Y-72885370D01*
X125957800Y-72561020D01*
X126558909Y-71960959D01*
X126884628Y-71176541D01*
X126885370Y-70327185D01*
X126561020Y-69542200D01*
X125960959Y-68941091D01*
X125176541Y-68615372D01*
X124327185Y-68614630D01*
X123860000Y-68807667D01*
X123860000Y-64638696D01*
X124217449Y-64996768D01*
X124217449Y-64996768D01*
G37*
X124217449Y-64996768D02*
X124726311Y-65208066D01*
X125277298Y-65208547D01*
X125440000Y-65141320D01*
X125440000Y-67200000D01*
X125497852Y-67490839D01*
X125662599Y-67737401D01*
X127240000Y-69314802D01*
X127240000Y-72085198D01*
X124762599Y-74562599D01*
X124597852Y-74809161D01*
X124540000Y-75100000D01*
X124540000Y-89500000D01*
X124597852Y-89790839D01*
X124762599Y-90037401D01*
X125440000Y-90714802D01*
X125440000Y-91493156D01*
X125373559Y-91535910D01*
X125228569Y-91748110D01*
X125177560Y-92000000D01*
X125177560Y-92800000D01*
X125221838Y-93035317D01*
X125295620Y-93149978D01*
X125228569Y-93248110D01*
X125177560Y-93500000D01*
X125177560Y-94300000D01*
X125221838Y-94535317D01*
X125360910Y-94751441D01*
X125573110Y-94896431D01*
X125825000Y-94947440D01*
X126575000Y-94947440D01*
X126810317Y-94903162D01*
X127026441Y-94764090D01*
X127097563Y-94660000D01*
X127244895Y-94660000D01*
X127335910Y-94801441D01*
X127548110Y-94946431D01*
X127800000Y-94997440D01*
X128300000Y-94997440D01*
X128535317Y-94953162D01*
X128751441Y-94814090D01*
X128797969Y-94745994D01*
X128940302Y-94888327D01*
X129173691Y-94985000D01*
X129266250Y-94985000D01*
X129425000Y-94826250D01*
X129425000Y-94027000D01*
X129675000Y-94027000D01*
X129675000Y-94826250D01*
X129833750Y-94985000D01*
X129926309Y-94985000D01*
X130159698Y-94888327D01*
X130338327Y-94709699D01*
X130435000Y-94476310D01*
X130435000Y-94185750D01*
X130276250Y-94027000D01*
X129675000Y-94027000D01*
X129425000Y-94027000D01*
X129403000Y-94027000D01*
X129403000Y-93773000D01*
X129425000Y-93773000D01*
X129425000Y-92973750D01*
X129266250Y-92815000D01*
X129173691Y-92815000D01*
X129027878Y-92875398D01*
X129146431Y-92701890D01*
X129197440Y-92450000D01*
X129197440Y-91959319D01*
X129215000Y-91971317D01*
X129215000Y-91999995D01*
X129214999Y-92000000D01*
X129249653Y-92174211D01*
X129282367Y-92338675D01*
X129430251Y-92560000D01*
X129474210Y-92625790D01*
X129748585Y-92900165D01*
X129675000Y-92973750D01*
X129675000Y-93773000D01*
X130276250Y-93773000D01*
X130295304Y-93753946D01*
X130514436Y-93973461D01*
X131023298Y-94184759D01*
X131574285Y-94185240D01*
X132083515Y-93974831D01*
X132373852Y-93685000D01*
X132468554Y-93685000D01*
X132496838Y-93835317D01*
X132635910Y-94051441D01*
X132848110Y-94196431D01*
X133100000Y-94247440D01*
X136100000Y-94247440D01*
X136335317Y-94203162D01*
X136551441Y-94064090D01*
X136696431Y-93851890D01*
X136747440Y-93600000D01*
X136747440Y-93085750D01*
X136865000Y-93085750D01*
X136865000Y-93726310D01*
X136961673Y-93959699D01*
X137140302Y-94138327D01*
X137373691Y-94235000D01*
X138714250Y-94235000D01*
X138873000Y-94076250D01*
X138873000Y-92927000D01*
X139127000Y-92927000D01*
X139127000Y-94076250D01*
X139285750Y-94235000D01*
X140626309Y-94235000D01*
X140859698Y-94138327D01*
X141038327Y-93959699D01*
X141135000Y-93726310D01*
X141135000Y-93085750D01*
X140976250Y-92927000D01*
X139127000Y-92927000D01*
X138873000Y-92927000D01*
X137023750Y-92927000D01*
X136865000Y-93085750D01*
X136747440Y-93085750D01*
X136747440Y-92000000D01*
X136723674Y-91873690D01*
X136865000Y-91873690D01*
X136865000Y-92514250D01*
X137023750Y-92673000D01*
X138873000Y-92673000D01*
X138873000Y-91523750D01*
X138714250Y-91365000D01*
X137373691Y-91365000D01*
X137140302Y-91461673D01*
X136961673Y-91640301D01*
X136865000Y-91873690D01*
X136723674Y-91873690D01*
X136703162Y-91764683D01*
X136564090Y-91548559D01*
X136351890Y-91403569D01*
X136100000Y-91352560D01*
X133100000Y-91352560D01*
X132864683Y-91396838D01*
X132648559Y-91535910D01*
X132503569Y-91748110D01*
X132469773Y-91915000D01*
X132373523Y-91915000D01*
X132085564Y-91626539D01*
X131576702Y-91415241D01*
X131197440Y-91414910D01*
X131197440Y-90700000D01*
X131153162Y-90464683D01*
X131014090Y-90248559D01*
X130985000Y-90228683D01*
X130985000Y-89700000D01*
X130917633Y-89361325D01*
X130725790Y-89074210D01*
X130725787Y-89074208D01*
X130435000Y-88783420D01*
X130435000Y-88585000D01*
X133749995Y-88585000D01*
X133750000Y-88585001D01*
X133938828Y-88547440D01*
X134250000Y-88547440D01*
X134485317Y-88503162D01*
X134701441Y-88364090D01*
X134846431Y-88151890D01*
X134897440Y-87900000D01*
X134897440Y-87400000D01*
X134853162Y-87164683D01*
X134714090Y-86948559D01*
X134644289Y-86900866D01*
X134701441Y-86864090D01*
X134704236Y-86860000D01*
X134827069Y-86860000D01*
X134885910Y-86951441D01*
X135098110Y-87096431D01*
X135350000Y-87147440D01*
X136169080Y-87147440D01*
X136262599Y-87287401D01*
X136562599Y-87587401D01*
X136775271Y-87729504D01*
X136885910Y-87901441D01*
X137098110Y-88046431D01*
X137350000Y-88097440D01*
X138250000Y-88097440D01*
X138485317Y-88053162D01*
X138701441Y-87914090D01*
X138846431Y-87701890D01*
X138897440Y-87450000D01*
X138897440Y-87345465D01*
X138990301Y-87438327D01*
X139223690Y-87535000D01*
X139514250Y-87535000D01*
X139673000Y-87376250D01*
X139673000Y-86775000D01*
X139653000Y-86775000D01*
X139653000Y-86525000D01*
X139673000Y-86525000D01*
X139673000Y-86503000D01*
X139927000Y-86503000D01*
X139927000Y-86525000D01*
X139947000Y-86525000D01*
X139947000Y-86775000D01*
X139927000Y-86775000D01*
X139927000Y-87376250D01*
X140085750Y-87535000D01*
X140376310Y-87535000D01*
X140609699Y-87438327D01*
X140641001Y-87407025D01*
X140641001Y-90400173D01*
X140526539Y-90514436D01*
X140315241Y-91023298D01*
X140314943Y-91365000D01*
X139285750Y-91365000D01*
X139127000Y-91523750D01*
X139127000Y-92673000D01*
X140976250Y-92673000D01*
X141099107Y-92550143D01*
X141423298Y-92684759D01*
X141974285Y-92685240D01*
X142483515Y-92474831D01*
X142873461Y-92085564D01*
X143084759Y-91576702D01*
X143085240Y-91025715D01*
X142874831Y-90516485D01*
X142485564Y-90126539D01*
X142411001Y-90095578D01*
X142411001Y-83340579D01*
X142879235Y-82872345D01*
X142925169Y-82983515D01*
X143314436Y-83373461D01*
X143424738Y-83419262D01*
X143297852Y-83609161D01*
X143240000Y-83900000D01*
X143240000Y-88913186D01*
X143297852Y-89204025D01*
X143462599Y-89450587D01*
X143840000Y-89827988D01*
X143840000Y-91800000D01*
X143897852Y-92090839D01*
X144062599Y-92337401D01*
X144962599Y-93237401D01*
X145209160Y-93402148D01*
X145500000Y-93460000D01*
X146652560Y-93460000D01*
X146652560Y-93500000D01*
X146696838Y-93735317D01*
X146835910Y-93951441D01*
X147048110Y-94096431D01*
X147300000Y-94147440D01*
X150300000Y-94147440D01*
X150535317Y-94103162D01*
X150751441Y-93964090D01*
X150896431Y-93751890D01*
X150947440Y-93500000D01*
X150947440Y-91900000D01*
X150903162Y-91664683D01*
X150764090Y-91448559D01*
X150551890Y-91303569D01*
X150300000Y-91252560D01*
X147300000Y-91252560D01*
X147085007Y-91293014D01*
X147085240Y-91025715D01*
X146874831Y-90516485D01*
X146643749Y-90285000D01*
X146699995Y-90285000D01*
X146700000Y-90285001D01*
X146982484Y-90228810D01*
X147038675Y-90217633D01*
X147325790Y-90025790D01*
X147325791Y-90025789D01*
X147724315Y-89627264D01*
X147724318Y-89627262D01*
X147916161Y-89340147D01*
X147927338Y-89283956D01*
X147946872Y-89185750D01*
X148715000Y-89185750D01*
X148715000Y-89476310D01*
X148811673Y-89709699D01*
X148990302Y-89888327D01*
X149223691Y-89985000D01*
X149316250Y-89985000D01*
X149475000Y-89826250D01*
X149475000Y-89027000D01*
X148873750Y-89027000D01*
X148715000Y-89185750D01*
X147946872Y-89185750D01*
X147983529Y-89001472D01*
X147983528Y-89001467D01*
X147983528Y-88968052D01*
X148776597Y-88174983D01*
X148715000Y-88323690D01*
X148715000Y-88614250D01*
X148873750Y-88773000D01*
X149475000Y-88773000D01*
X149475000Y-88753000D01*
X149725000Y-88753000D01*
X149725000Y-88773000D01*
X149747000Y-88773000D01*
X149747000Y-89027000D01*
X149725000Y-89027000D01*
X149725000Y-89826250D01*
X149883750Y-89985000D01*
X149976309Y-89985000D01*
X150209698Y-89888327D01*
X150350936Y-89747090D01*
X150385910Y-89801441D01*
X150598110Y-89946431D01*
X150850000Y-89997440D01*
X151350000Y-89997440D01*
X151585317Y-89953162D01*
X151801441Y-89814090D01*
X151906726Y-89660000D01*
X152194895Y-89660000D01*
X152285910Y-89801441D01*
X152498110Y-89946431D01*
X152750000Y-89997440D01*
X153127758Y-89997440D01*
X152662599Y-90462599D01*
X152497852Y-90709161D01*
X152440000Y-91000000D01*
X152440000Y-91252560D01*
X151700000Y-91252560D01*
X151464683Y-91296838D01*
X151248559Y-91435910D01*
X151103569Y-91648110D01*
X151052560Y-91900000D01*
X151052560Y-93500000D01*
X151096838Y-93735317D01*
X151235910Y-93951441D01*
X151448110Y-94096431D01*
X151700000Y-94147440D01*
X154700000Y-94147440D01*
X154935317Y-94103162D01*
X155140000Y-93971452D01*
X155140000Y-102940000D01*
X131102482Y-102940000D01*
X131202148Y-102790839D01*
X131260000Y-102500000D01*
X131260000Y-96565000D01*
X131865000Y-96565000D01*
X131865000Y-102535000D01*
X135801667Y-102535000D01*
X135801667Y-101035000D01*
X145087383Y-101035000D01*
X145087383Y-98065000D01*
X144039762Y-98065000D01*
X144039762Y-96565000D01*
X131865000Y-96565000D01*
X131260000Y-96565000D01*
X131260000Y-96500000D01*
X131202148Y-96209161D01*
X131037401Y-95962599D01*
X130790839Y-95797852D01*
X130500000Y-95740000D01*
X124250000Y-95740000D01*
X123959161Y-95797852D01*
X123860000Y-95864109D01*
X123860000Y-72692183D01*
X124323459Y-72884628D01*
X125172815Y-72885370D01*
X125957800Y-72561020D01*
X126558909Y-71960959D01*
X126884628Y-71176541D01*
X126885370Y-70327185D01*
X126561020Y-69542200D01*
X125960959Y-68941091D01*
X125176541Y-68615372D01*
X124327185Y-68614630D01*
X123860000Y-68807667D01*
X123860000Y-64638696D01*
X124217449Y-64996768D01*
G36*
X132362599Y-50937401D02*
X132609160Y-51102148D01*
X132900000Y-51160000D01*
X134948788Y-51160000D01*
X135740000Y-51951212D01*
X135740000Y-52400000D01*
X135797852Y-52690839D01*
X135962599Y-52937401D01*
X136362599Y-53337401D01*
X136541498Y-53456938D01*
X136546838Y-53485317D01*
X136672752Y-53680994D01*
X136548559Y-53760910D01*
X136403569Y-53973110D01*
X136352560Y-54225000D01*
X136352560Y-54247779D01*
X136061020Y-53542200D01*
X135460959Y-52941091D01*
X134676541Y-52615372D01*
X133827185Y-52614630D01*
X133042200Y-52938980D01*
X132441091Y-53539041D01*
X132115372Y-54323459D01*
X132114630Y-55172815D01*
X132438980Y-55957800D01*
X133039041Y-56558909D01*
X133823459Y-56884628D01*
X134672815Y-56885370D01*
X135457800Y-56561020D01*
X136058909Y-55960959D01*
X136384628Y-55176541D01*
X136384655Y-55145570D01*
X136396838Y-55210317D01*
X136535910Y-55426441D01*
X136640000Y-55497563D01*
X136640000Y-56815209D01*
X136125715Y-56814760D01*
X135616485Y-57025169D01*
X135226539Y-57414436D01*
X135015241Y-57923298D01*
X135014760Y-58474285D01*
X135225169Y-58983515D01*
X135614436Y-59373461D01*
X135837169Y-59465948D01*
X135737587Y-59565530D01*
X135572840Y-59812092D01*
X135514988Y-60102931D01*
X135514988Y-68995214D01*
X135460959Y-68941091D01*
X134676541Y-68615372D01*
X133827185Y-68614630D01*
X133042200Y-68938980D01*
X132441091Y-69539041D01*
X132115372Y-70323459D01*
X132114630Y-71172815D01*
X132438980Y-71957800D01*
X133039041Y-72558909D01*
X133823459Y-72884628D01*
X134672815Y-72885370D01*
X135457800Y-72561020D01*
X135514988Y-72503932D01*
X135514988Y-74410210D01*
X132962599Y-76962599D01*
X132930991Y-77009903D01*
X132870643Y-76949449D01*
X132306670Y-76715267D01*
X131696009Y-76714735D01*
X131131629Y-76947932D01*
X130749712Y-77329182D01*
X130370643Y-76949449D01*
X129806670Y-76715267D01*
X129196009Y-76714735D01*
X128631629Y-76947932D01*
X128199449Y-77379357D01*
X128195706Y-77388372D01*
X128080159Y-77349446D01*
X127179605Y-78250000D01*
X128080159Y-79150554D01*
X128195214Y-79111793D01*
X128197932Y-79118371D01*
X128629357Y-79550551D01*
X129193330Y-79784733D01*
X129803991Y-79785265D01*
X130368371Y-79552068D01*
X130750288Y-79170818D01*
X131129357Y-79550551D01*
X131693330Y-79784733D01*
X132141602Y-79785124D01*
X132115241Y-79848607D01*
X132114760Y-80399594D01*
X132325169Y-80908824D01*
X132714436Y-81298770D01*
X133223298Y-81510068D01*
X133774285Y-81510549D01*
X134283515Y-81300140D01*
X134673461Y-80910873D01*
X134813471Y-80573691D01*
X137265000Y-80573691D01*
X137265000Y-81914250D01*
X137423750Y-82073000D01*
X138573000Y-82073000D01*
X138573000Y-80223750D01*
X138827000Y-80223750D01*
X138827000Y-82073000D01*
X139976250Y-82073000D01*
X140135000Y-81914250D01*
X140135000Y-80573691D01*
X140038327Y-80340302D01*
X139859699Y-80161673D01*
X139626310Y-80065000D01*
X138985750Y-80065000D01*
X138827000Y-80223750D01*
X138573000Y-80223750D01*
X138414250Y-80065000D01*
X137773690Y-80065000D01*
X137540301Y-80161673D01*
X137361673Y-80340302D01*
X137265000Y-80573691D01*
X134813471Y-80573691D01*
X134884759Y-80402011D01*
X134885240Y-79851024D01*
X134674831Y-79341794D01*
X134285564Y-78951848D01*
X134260000Y-78941233D01*
X134260000Y-77814802D01*
X136812389Y-75262413D01*
X136977136Y-75015851D01*
X137034988Y-74725012D01*
X137034988Y-74109790D01*
X138062599Y-75137401D01*
X138309160Y-75302148D01*
X138600000Y-75360000D01*
X138694895Y-75360000D01*
X138785910Y-75501441D01*
X138998110Y-75646431D01*
X139028376Y-75652560D01*
X137900000Y-75652560D01*
X137664683Y-75696838D01*
X137448559Y-75835910D01*
X137303569Y-76048110D01*
X137252560Y-76300000D01*
X137252560Y-79300000D01*
X137296838Y-79535317D01*
X137435910Y-79751441D01*
X137648110Y-79896431D01*
X137900000Y-79947440D01*
X139500000Y-79947440D01*
X139735317Y-79903162D01*
X139951441Y-79764090D01*
X140096431Y-79551890D01*
X140147440Y-79300000D01*
X140147440Y-78560000D01*
X141250177Y-78560000D01*
X141425169Y-78983515D01*
X141814436Y-79373461D01*
X142323298Y-79584759D01*
X142874285Y-79585240D01*
X143315000Y-79403141D01*
X143315000Y-79933421D01*
X140900211Y-82348209D01*
X140708368Y-82635324D01*
X140708368Y-82635325D01*
X140641000Y-82973999D01*
X140641001Y-82974004D01*
X140641001Y-84398619D01*
X140501890Y-84303569D01*
X140250000Y-84252560D01*
X139825338Y-84252560D01*
X139859699Y-84238327D01*
X140038327Y-84059698D01*
X140135000Y-83826309D01*
X140135000Y-82485750D01*
X139976250Y-82327000D01*
X138827000Y-82327000D01*
X138827000Y-82347000D01*
X138573000Y-82347000D01*
X138573000Y-82327000D01*
X137423750Y-82327000D01*
X137265000Y-82485750D01*
X137265000Y-83826309D01*
X137361673Y-84059698D01*
X137404535Y-84102560D01*
X137350000Y-84102560D01*
X137114683Y-84146838D01*
X136898559Y-84285910D01*
X136883196Y-84308394D01*
X136837401Y-84262599D01*
X136590839Y-84097852D01*
X136369673Y-84053859D01*
X136484759Y-83776702D01*
X136485240Y-83225715D01*
X136274831Y-82716485D01*
X135885564Y-82326539D01*
X135376702Y-82115241D01*
X134825715Y-82114760D01*
X134316485Y-82325169D01*
X134273348Y-82368231D01*
X134251890Y-82353569D01*
X134000000Y-82302560D01*
X133500000Y-82302560D01*
X133264683Y-82346838D01*
X133048559Y-82485910D01*
X133000866Y-82555711D01*
X132964090Y-82498559D01*
X132751890Y-82353569D01*
X132500000Y-82302560D01*
X132000000Y-82302560D01*
X131764683Y-82346838D01*
X131548559Y-82485910D01*
X131443274Y-82640000D01*
X131218930Y-82640000D01*
X131273461Y-82585564D01*
X131484759Y-82076702D01*
X131485240Y-81525715D01*
X131274831Y-81016485D01*
X130885564Y-80626539D01*
X130376702Y-80415241D01*
X129825715Y-80414760D01*
X129316485Y-80625169D01*
X128926539Y-81014436D01*
X128715241Y-81523298D01*
X128714760Y-82074285D01*
X128925169Y-82583515D01*
X129051207Y-82709773D01*
X129002560Y-82950000D01*
X129002560Y-83440681D01*
X128801890Y-83303569D01*
X128550000Y-83252560D01*
X127650000Y-83252560D01*
X127414683Y-83296838D01*
X127198559Y-83435910D01*
X127053569Y-83648110D01*
X127002560Y-83900000D01*
X127002560Y-84700000D01*
X127046838Y-84935317D01*
X127185910Y-85151441D01*
X127340000Y-85256726D01*
X127340000Y-86798437D01*
X127203569Y-86998110D01*
X127152560Y-87250000D01*
X127152560Y-88150000D01*
X127196838Y-88385317D01*
X127290000Y-88530095D01*
X127290000Y-89227069D01*
X127198559Y-89285910D01*
X127053569Y-89498110D01*
X127002560Y-89750000D01*
X127002560Y-90550000D01*
X127046838Y-90785317D01*
X127185910Y-91001441D01*
X127331083Y-91100633D01*
X127198559Y-91185910D01*
X127053569Y-91398110D01*
X127025046Y-91538963D01*
X126960000Y-91494519D01*
X126960000Y-90400000D01*
X126923201Y-90215000D01*
X126902148Y-90109160D01*
X126737401Y-89862599D01*
X126060000Y-89185198D01*
X126060000Y-79369608D01*
X126099447Y-79330161D01*
X126185852Y-79586643D01*
X126759336Y-79796458D01*
X127369460Y-79770839D01*
X127814148Y-79586643D01*
X127900554Y-79330159D01*
X127000000Y-78429605D01*
X126985858Y-78443748D01*
X126806253Y-78264143D01*
X126820395Y-78250000D01*
X126806253Y-78235858D01*
X126985858Y-78056253D01*
X127000000Y-78070395D01*
X127900554Y-77169841D01*
X127814148Y-76913357D01*
X127240664Y-76703542D01*
X126630540Y-76729161D01*
X126185852Y-76913357D01*
X126099447Y-77169839D01*
X126060000Y-77130392D01*
X126060000Y-75414802D01*
X128537401Y-72937401D01*
X128702148Y-72690839D01*
X128760000Y-72400000D01*
X128760000Y-69000000D01*
X128702148Y-68709161D01*
X128702148Y-68709160D01*
X128537401Y-68462599D01*
X126960000Y-66885198D01*
X126960000Y-63784965D01*
X127303991Y-63785265D01*
X127868371Y-63552068D01*
X128250288Y-63170818D01*
X128629357Y-63550551D01*
X129193330Y-63784733D01*
X129803991Y-63785265D01*
X130368371Y-63552068D01*
X130750288Y-63170818D01*
X131129357Y-63550551D01*
X131693330Y-63784733D01*
X132303991Y-63785265D01*
X132715073Y-63615409D01*
X132714760Y-63974285D01*
X132925169Y-64483515D01*
X133314436Y-64873461D01*
X133823298Y-65084759D01*
X134374285Y-65085240D01*
X134883515Y-64874831D01*
X135273461Y-64485564D01*
X135484759Y-63976702D01*
X135485240Y-63425715D01*
X135274831Y-62916485D01*
X134885564Y-62526539D01*
X134860000Y-62515924D01*
X134860000Y-61700000D01*
X134802148Y-61409161D01*
X134637401Y-61162599D01*
X133337401Y-59862599D01*
X133090839Y-59697852D01*
X132800000Y-59640000D01*
X127514802Y-59640000D01*
X127160000Y-59285198D01*
X127160000Y-58614802D01*
X128737401Y-57037401D01*
X128902148Y-56790840D01*
X128923201Y-56685000D01*
X128960000Y-56500000D01*
X128960000Y-53527180D01*
X128934702Y-53400000D01*
X128902148Y-53236340D01*
X128737401Y-52989779D01*
X127760000Y-52012378D01*
X127760000Y-49737473D01*
X127773110Y-49746431D01*
X128025000Y-49797440D01*
X128775000Y-49797440D01*
X129010317Y-49753162D01*
X129226441Y-49614090D01*
X129297563Y-49510000D01*
X130935198Y-49510000D01*
X132362599Y-50937401D01*
X132362599Y-50937401D01*
G37*
X132362599Y-50937401D02*
X132609160Y-51102148D01*
X132900000Y-51160000D01*
X134948788Y-51160000D01*
X135740000Y-51951212D01*
X135740000Y-52400000D01*
X135797852Y-52690839D01*
X135962599Y-52937401D01*
X136362599Y-53337401D01*
X136541498Y-53456938D01*
X136546838Y-53485317D01*
X136672752Y-53680994D01*
X136548559Y-53760910D01*
X136403569Y-53973110D01*
X136352560Y-54225000D01*
X136352560Y-54247779D01*
X136061020Y-53542200D01*
X135460959Y-52941091D01*
X134676541Y-52615372D01*
X133827185Y-52614630D01*
X133042200Y-52938980D01*
X132441091Y-53539041D01*
X132115372Y-54323459D01*
X132114630Y-55172815D01*
X132438980Y-55957800D01*
X133039041Y-56558909D01*
X133823459Y-56884628D01*
X134672815Y-56885370D01*
X135457800Y-56561020D01*
X136058909Y-55960959D01*
X136384628Y-55176541D01*
X136384655Y-55145570D01*
X136396838Y-55210317D01*
X136535910Y-55426441D01*
X136640000Y-55497563D01*
X136640000Y-56815209D01*
X136125715Y-56814760D01*
X135616485Y-57025169D01*
X135226539Y-57414436D01*
X135015241Y-57923298D01*
X135014760Y-58474285D01*
X135225169Y-58983515D01*
X135614436Y-59373461D01*
X135837169Y-59465948D01*
X135737587Y-59565530D01*
X135572840Y-59812092D01*
X135514988Y-60102931D01*
X135514988Y-68995214D01*
X135460959Y-68941091D01*
X134676541Y-68615372D01*
X133827185Y-68614630D01*
X133042200Y-68938980D01*
X132441091Y-69539041D01*
X132115372Y-70323459D01*
X132114630Y-71172815D01*
X132438980Y-71957800D01*
X133039041Y-72558909D01*
X133823459Y-72884628D01*
X134672815Y-72885370D01*
X135457800Y-72561020D01*
X135514988Y-72503932D01*
X135514988Y-74410210D01*
X132962599Y-76962599D01*
X132930991Y-77009903D01*
X132870643Y-76949449D01*
X132306670Y-76715267D01*
X131696009Y-76714735D01*
X131131629Y-76947932D01*
X130749712Y-77329182D01*
X130370643Y-76949449D01*
X129806670Y-76715267D01*
X129196009Y-76714735D01*
X128631629Y-76947932D01*
X128199449Y-77379357D01*
X128195706Y-77388372D01*
X128080159Y-77349446D01*
X127179605Y-78250000D01*
X128080159Y-79150554D01*
X128195214Y-79111793D01*
X128197932Y-79118371D01*
X128629357Y-79550551D01*
X129193330Y-79784733D01*
X129803991Y-79785265D01*
X130368371Y-79552068D01*
X130750288Y-79170818D01*
X131129357Y-79550551D01*
X131693330Y-79784733D01*
X132141602Y-79785124D01*
X132115241Y-79848607D01*
X132114760Y-80399594D01*
X132325169Y-80908824D01*
X132714436Y-81298770D01*
X133223298Y-81510068D01*
X133774285Y-81510549D01*
X134283515Y-81300140D01*
X134673461Y-80910873D01*
X134813471Y-80573691D01*
X137265000Y-80573691D01*
X137265000Y-81914250D01*
X137423750Y-82073000D01*
X138573000Y-82073000D01*
X138573000Y-80223750D01*
X138827000Y-80223750D01*
X138827000Y-82073000D01*
X139976250Y-82073000D01*
X140135000Y-81914250D01*
X140135000Y-80573691D01*
X140038327Y-80340302D01*
X139859699Y-80161673D01*
X139626310Y-80065000D01*
X138985750Y-80065000D01*
X138827000Y-80223750D01*
X138573000Y-80223750D01*
X138414250Y-80065000D01*
X137773690Y-80065000D01*
X137540301Y-80161673D01*
X137361673Y-80340302D01*
X137265000Y-80573691D01*
X134813471Y-80573691D01*
X134884759Y-80402011D01*
X134885240Y-79851024D01*
X134674831Y-79341794D01*
X134285564Y-78951848D01*
X134260000Y-78941233D01*
X134260000Y-77814802D01*
X136812389Y-75262413D01*
X136977136Y-75015851D01*
X137034988Y-74725012D01*
X137034988Y-74109790D01*
X138062599Y-75137401D01*
X138309160Y-75302148D01*
X138600000Y-75360000D01*
X138694895Y-75360000D01*
X138785910Y-75501441D01*
X138998110Y-75646431D01*
X139028376Y-75652560D01*
X137900000Y-75652560D01*
X137664683Y-75696838D01*
X137448559Y-75835910D01*
X137303569Y-76048110D01*
X137252560Y-76300000D01*
X137252560Y-79300000D01*
X137296838Y-79535317D01*
X137435910Y-79751441D01*
X137648110Y-79896431D01*
X137900000Y-79947440D01*
X139500000Y-79947440D01*
X139735317Y-79903162D01*
X139951441Y-79764090D01*
X140096431Y-79551890D01*
X140147440Y-79300000D01*
X140147440Y-78560000D01*
X141250177Y-78560000D01*
X141425169Y-78983515D01*
X141814436Y-79373461D01*
X142323298Y-79584759D01*
X142874285Y-79585240D01*
X143315000Y-79403141D01*
X143315000Y-79933421D01*
X140900211Y-82348209D01*
X140708368Y-82635324D01*
X140708368Y-82635325D01*
X140641000Y-82973999D01*
X140641001Y-82974004D01*
X140641001Y-84398619D01*
X140501890Y-84303569D01*
X140250000Y-84252560D01*
X139825338Y-84252560D01*
X139859699Y-84238327D01*
X140038327Y-84059698D01*
X140135000Y-83826309D01*
X140135000Y-82485750D01*
X139976250Y-82327000D01*
X138827000Y-82327000D01*
X138827000Y-82347000D01*
X138573000Y-82347000D01*
X138573000Y-82327000D01*
X137423750Y-82327000D01*
X137265000Y-82485750D01*
X137265000Y-83826309D01*
X137361673Y-84059698D01*
X137404535Y-84102560D01*
X137350000Y-84102560D01*
X137114683Y-84146838D01*
X136898559Y-84285910D01*
X136883196Y-84308394D01*
X136837401Y-84262599D01*
X136590839Y-84097852D01*
X136369673Y-84053859D01*
X136484759Y-83776702D01*
X136485240Y-83225715D01*
X136274831Y-82716485D01*
X135885564Y-82326539D01*
X135376702Y-82115241D01*
X134825715Y-82114760D01*
X134316485Y-82325169D01*
X134273348Y-82368231D01*
X134251890Y-82353569D01*
X134000000Y-82302560D01*
X133500000Y-82302560D01*
X133264683Y-82346838D01*
X133048559Y-82485910D01*
X133000866Y-82555711D01*
X132964090Y-82498559D01*
X132751890Y-82353569D01*
X132500000Y-82302560D01*
X132000000Y-82302560D01*
X131764683Y-82346838D01*
X131548559Y-82485910D01*
X131443274Y-82640000D01*
X131218930Y-82640000D01*
X131273461Y-82585564D01*
X131484759Y-82076702D01*
X131485240Y-81525715D01*
X131274831Y-81016485D01*
X130885564Y-80626539D01*
X130376702Y-80415241D01*
X129825715Y-80414760D01*
X129316485Y-80625169D01*
X128926539Y-81014436D01*
X128715241Y-81523298D01*
X128714760Y-82074285D01*
X128925169Y-82583515D01*
X129051207Y-82709773D01*
X129002560Y-82950000D01*
X129002560Y-83440681D01*
X128801890Y-83303569D01*
X128550000Y-83252560D01*
X127650000Y-83252560D01*
X127414683Y-83296838D01*
X127198559Y-83435910D01*
X127053569Y-83648110D01*
X127002560Y-83900000D01*
X127002560Y-84700000D01*
X127046838Y-84935317D01*
X127185910Y-85151441D01*
X127340000Y-85256726D01*
X127340000Y-86798437D01*
X127203569Y-86998110D01*
X127152560Y-87250000D01*
X127152560Y-88150000D01*
X127196838Y-88385317D01*
X127290000Y-88530095D01*
X127290000Y-89227069D01*
X127198559Y-89285910D01*
X127053569Y-89498110D01*
X127002560Y-89750000D01*
X127002560Y-90550000D01*
X127046838Y-90785317D01*
X127185910Y-91001441D01*
X127331083Y-91100633D01*
X127198559Y-91185910D01*
X127053569Y-91398110D01*
X127025046Y-91538963D01*
X126960000Y-91494519D01*
X126960000Y-90400000D01*
X126923201Y-90215000D01*
X126902148Y-90109160D01*
X126737401Y-89862599D01*
X126060000Y-89185198D01*
X126060000Y-79369608D01*
X126099447Y-79330161D01*
X126185852Y-79586643D01*
X126759336Y-79796458D01*
X127369460Y-79770839D01*
X127814148Y-79586643D01*
X127900554Y-79330159D01*
X127000000Y-78429605D01*
X126985858Y-78443748D01*
X126806253Y-78264143D01*
X126820395Y-78250000D01*
X126806253Y-78235858D01*
X126985858Y-78056253D01*
X127000000Y-78070395D01*
X127900554Y-77169841D01*
X127814148Y-76913357D01*
X127240664Y-76703542D01*
X126630540Y-76729161D01*
X126185852Y-76913357D01*
X126099447Y-77169839D01*
X126060000Y-77130392D01*
X126060000Y-75414802D01*
X128537401Y-72937401D01*
X128702148Y-72690839D01*
X128760000Y-72400000D01*
X128760000Y-69000000D01*
X128702148Y-68709161D01*
X128702148Y-68709160D01*
X128537401Y-68462599D01*
X126960000Y-66885198D01*
X126960000Y-63784965D01*
X127303991Y-63785265D01*
X127868371Y-63552068D01*
X128250288Y-63170818D01*
X128629357Y-63550551D01*
X129193330Y-63784733D01*
X129803991Y-63785265D01*
X130368371Y-63552068D01*
X130750288Y-63170818D01*
X131129357Y-63550551D01*
X131693330Y-63784733D01*
X132303991Y-63785265D01*
X132715073Y-63615409D01*
X132714760Y-63974285D01*
X132925169Y-64483515D01*
X133314436Y-64873461D01*
X133823298Y-65084759D01*
X134374285Y-65085240D01*
X134883515Y-64874831D01*
X135273461Y-64485564D01*
X135484759Y-63976702D01*
X135485240Y-63425715D01*
X135274831Y-62916485D01*
X134885564Y-62526539D01*
X134860000Y-62515924D01*
X134860000Y-61700000D01*
X134802148Y-61409161D01*
X134637401Y-61162599D01*
X133337401Y-59862599D01*
X133090839Y-59697852D01*
X132800000Y-59640000D01*
X127514802Y-59640000D01*
X127160000Y-59285198D01*
X127160000Y-58614802D01*
X128737401Y-57037401D01*
X128902148Y-56790840D01*
X128923201Y-56685000D01*
X128960000Y-56500000D01*
X128960000Y-53527180D01*
X128934702Y-53400000D01*
X128902148Y-53236340D01*
X128737401Y-52989779D01*
X127760000Y-52012378D01*
X127760000Y-49737473D01*
X127773110Y-49746431D01*
X128025000Y-49797440D01*
X128775000Y-49797440D01*
X129010317Y-49753162D01*
X129226441Y-49614090D01*
X129297563Y-49510000D01*
X130935198Y-49510000D01*
X132362599Y-50937401D01*
G36*
X150662580Y-66462617D02*
X150497833Y-66709178D01*
X150439981Y-67000018D01*
X150439981Y-72172803D01*
X150497833Y-72463642D01*
X150662580Y-72710204D01*
X153339978Y-75387602D01*
X153339978Y-77644388D01*
X153252068Y-77431629D01*
X152820643Y-76999449D01*
X152256670Y-76765267D01*
X151646009Y-76764735D01*
X151081629Y-76997932D01*
X150699712Y-77379182D01*
X150320643Y-76999449D01*
X149756670Y-76765267D01*
X149146009Y-76764735D01*
X148581629Y-76997932D01*
X148149449Y-77429357D01*
X148145706Y-77438372D01*
X148030159Y-77399446D01*
X147129605Y-78300000D01*
X148030159Y-79200554D01*
X148145214Y-79161793D01*
X148147932Y-79168371D01*
X148579357Y-79600551D01*
X149143330Y-79834733D01*
X149753991Y-79835265D01*
X150318371Y-79602068D01*
X150700288Y-79220818D01*
X151079357Y-79600551D01*
X151643330Y-79834733D01*
X152253991Y-79835265D01*
X152818371Y-79602068D01*
X153250551Y-79170643D01*
X153339978Y-78955279D01*
X153339978Y-81015000D01*
X153085750Y-81015000D01*
X152927000Y-81173750D01*
X152927000Y-81775000D01*
X152947000Y-81775000D01*
X152947000Y-82025000D01*
X152927000Y-82025000D01*
X152927000Y-82047000D01*
X152673000Y-82047000D01*
X152673000Y-82025000D01*
X151873750Y-82025000D01*
X151715000Y-82183750D01*
X151715000Y-82276309D01*
X151764584Y-82396014D01*
X151550000Y-82352560D01*
X151006174Y-82352560D01*
X151173461Y-82185564D01*
X151384759Y-81676702D01*
X151384892Y-81523691D01*
X151715000Y-81523691D01*
X151715000Y-81616250D01*
X151873750Y-81775000D01*
X152673000Y-81775000D01*
X152673000Y-81173750D01*
X152514250Y-81015000D01*
X152223690Y-81015000D01*
X151990301Y-81111673D01*
X151811673Y-81290302D01*
X151715000Y-81523691D01*
X151384892Y-81523691D01*
X151385240Y-81125715D01*
X151174831Y-80616485D01*
X150785564Y-80226539D01*
X150276702Y-80015241D01*
X149725715Y-80014760D01*
X149216485Y-80225169D01*
X148826539Y-80614436D01*
X148615241Y-81123298D01*
X148614965Y-81440000D01*
X148455105Y-81440000D01*
X148364090Y-81298559D01*
X148151890Y-81153569D01*
X147900000Y-81102560D01*
X147400000Y-81102560D01*
X147164683Y-81146838D01*
X146948559Y-81285910D01*
X146902031Y-81354006D01*
X146759698Y-81211673D01*
X146526309Y-81115000D01*
X146433750Y-81115000D01*
X146275000Y-81273750D01*
X146275000Y-82073000D01*
X146297000Y-82073000D01*
X146297000Y-82327000D01*
X146275000Y-82327000D01*
X146275000Y-82347000D01*
X146060000Y-82347000D01*
X146060000Y-79411487D01*
X146135852Y-79636643D01*
X146709336Y-79846458D01*
X147319460Y-79820839D01*
X147764148Y-79636643D01*
X147850554Y-79380159D01*
X146950000Y-78479605D01*
X146935858Y-78493748D01*
X146756253Y-78314143D01*
X146770395Y-78300000D01*
X146756253Y-78285858D01*
X146935858Y-78106253D01*
X146950000Y-78120395D01*
X147850554Y-77219841D01*
X147764148Y-76963357D01*
X147190664Y-76753542D01*
X146580540Y-76779161D01*
X146135852Y-76963357D01*
X146060000Y-77188513D01*
X146060000Y-74714802D01*
X147937401Y-72837401D01*
X148102148Y-72590840D01*
X148127449Y-72463642D01*
X148160000Y-72299999D01*
X148159998Y-69763587D01*
X148102146Y-69472748D01*
X147937399Y-69226187D01*
X146123801Y-67412589D01*
X145877239Y-67247842D01*
X145586400Y-67189990D01*
X144801202Y-67189990D01*
X144510010Y-66898798D01*
X144510010Y-66210010D01*
X144986402Y-66210009D01*
X145277241Y-66152157D01*
X145523799Y-65987412D01*
X145523802Y-65987410D01*
X145976211Y-65535001D01*
X146024999Y-65535001D01*
X146315838Y-65477149D01*
X146562400Y-65312402D01*
X147014802Y-64860000D01*
X152265198Y-64860000D01*
X150662580Y-66462617D01*
X150662580Y-66462617D01*
G37*
X150662580Y-66462617D02*
X150497833Y-66709178D01*
X150439981Y-67000018D01*
X150439981Y-72172803D01*
X150497833Y-72463642D01*
X150662580Y-72710204D01*
X153339978Y-75387602D01*
X153339978Y-77644388D01*
X153252068Y-77431629D01*
X152820643Y-76999449D01*
X152256670Y-76765267D01*
X151646009Y-76764735D01*
X151081629Y-76997932D01*
X150699712Y-77379182D01*
X150320643Y-76999449D01*
X149756670Y-76765267D01*
X149146009Y-76764735D01*
X148581629Y-76997932D01*
X148149449Y-77429357D01*
X148145706Y-77438372D01*
X148030159Y-77399446D01*
X147129605Y-78300000D01*
X148030159Y-79200554D01*
X148145214Y-79161793D01*
X148147932Y-79168371D01*
X148579357Y-79600551D01*
X149143330Y-79834733D01*
X149753991Y-79835265D01*
X150318371Y-79602068D01*
X150700288Y-79220818D01*
X151079357Y-79600551D01*
X151643330Y-79834733D01*
X152253991Y-79835265D01*
X152818371Y-79602068D01*
X153250551Y-79170643D01*
X153339978Y-78955279D01*
X153339978Y-81015000D01*
X153085750Y-81015000D01*
X152927000Y-81173750D01*
X152927000Y-81775000D01*
X152947000Y-81775000D01*
X152947000Y-82025000D01*
X152927000Y-82025000D01*
X152927000Y-82047000D01*
X152673000Y-82047000D01*
X152673000Y-82025000D01*
X151873750Y-82025000D01*
X151715000Y-82183750D01*
X151715000Y-82276309D01*
X151764584Y-82396014D01*
X151550000Y-82352560D01*
X151006174Y-82352560D01*
X151173461Y-82185564D01*
X151384759Y-81676702D01*
X151384892Y-81523691D01*
X151715000Y-81523691D01*
X151715000Y-81616250D01*
X151873750Y-81775000D01*
X152673000Y-81775000D01*
X152673000Y-81173750D01*
X152514250Y-81015000D01*
X152223690Y-81015000D01*
X151990301Y-81111673D01*
X151811673Y-81290302D01*
X151715000Y-81523691D01*
X151384892Y-81523691D01*
X151385240Y-81125715D01*
X151174831Y-80616485D01*
X150785564Y-80226539D01*
X150276702Y-80015241D01*
X149725715Y-80014760D01*
X149216485Y-80225169D01*
X148826539Y-80614436D01*
X148615241Y-81123298D01*
X148614965Y-81440000D01*
X148455105Y-81440000D01*
X148364090Y-81298559D01*
X148151890Y-81153569D01*
X147900000Y-81102560D01*
X147400000Y-81102560D01*
X147164683Y-81146838D01*
X146948559Y-81285910D01*
X146902031Y-81354006D01*
X146759698Y-81211673D01*
X146526309Y-81115000D01*
X146433750Y-81115000D01*
X146275000Y-81273750D01*
X146275000Y-82073000D01*
X146297000Y-82073000D01*
X146297000Y-82327000D01*
X146275000Y-82327000D01*
X146275000Y-82347000D01*
X146060000Y-82347000D01*
X146060000Y-79411487D01*
X146135852Y-79636643D01*
X146709336Y-79846458D01*
X147319460Y-79820839D01*
X147764148Y-79636643D01*
X147850554Y-79380159D01*
X146950000Y-78479605D01*
X146935858Y-78493748D01*
X146756253Y-78314143D01*
X146770395Y-78300000D01*
X146756253Y-78285858D01*
X146935858Y-78106253D01*
X146950000Y-78120395D01*
X147850554Y-77219841D01*
X147764148Y-76963357D01*
X147190664Y-76753542D01*
X146580540Y-76779161D01*
X146135852Y-76963357D01*
X146060000Y-77188513D01*
X146060000Y-74714802D01*
X147937401Y-72837401D01*
X148102148Y-72590840D01*
X148127449Y-72463642D01*
X148160000Y-72299999D01*
X148159998Y-69763587D01*
X148102146Y-69472748D01*
X147937399Y-69226187D01*
X146123801Y-67412589D01*
X145877239Y-67247842D01*
X145586400Y-67189990D01*
X144801202Y-67189990D01*
X144510010Y-66898798D01*
X144510010Y-66210010D01*
X144986402Y-66210009D01*
X145277241Y-66152157D01*
X145523799Y-65987412D01*
X145523802Y-65987410D01*
X145976211Y-65535001D01*
X146024999Y-65535001D01*
X146315838Y-65477149D01*
X146562400Y-65312402D01*
X147014802Y-64860000D01*
X152265198Y-64860000D01*
X150662580Y-66462617D01*
G36*
X137815241Y-62323298D02*
X137814760Y-62874285D01*
X138025169Y-63383515D01*
X138151207Y-63509773D01*
X138102560Y-63750000D01*
X138102560Y-65050000D01*
X138146838Y-65285317D01*
X138285910Y-65501441D01*
X138498110Y-65646431D01*
X138750000Y-65697440D01*
X139450000Y-65697440D01*
X139685317Y-65653162D01*
X139901441Y-65514090D01*
X140046431Y-65301890D01*
X140049081Y-65288803D01*
X140185910Y-65501441D01*
X140398110Y-65646431D01*
X140650000Y-65697440D01*
X141350000Y-65697440D01*
X141585317Y-65653162D01*
X141714999Y-65569714D01*
X141714999Y-72099994D01*
X141714998Y-72099999D01*
X141754782Y-72300000D01*
X141782366Y-72438674D01*
X141974209Y-72725789D01*
X143315000Y-74066579D01*
X143315000Y-76997238D01*
X142876702Y-76815241D01*
X142325715Y-76814760D01*
X141816485Y-77025169D01*
X141801628Y-77040000D01*
X140147440Y-77040000D01*
X140147440Y-76300000D01*
X140103162Y-76064683D01*
X139964090Y-75848559D01*
X139751890Y-75703569D01*
X139721624Y-75697440D01*
X140050000Y-75697440D01*
X140285317Y-75653162D01*
X140501441Y-75514090D01*
X140596990Y-75374250D01*
X140611673Y-75409698D01*
X140790301Y-75588327D01*
X141023690Y-75685000D01*
X141264250Y-75685000D01*
X141423000Y-75526250D01*
X141423000Y-74727000D01*
X141677000Y-74727000D01*
X141677000Y-75526250D01*
X141835750Y-75685000D01*
X142076310Y-75685000D01*
X142309699Y-75588327D01*
X142488327Y-75409698D01*
X142585000Y-75176309D01*
X142585000Y-74885750D01*
X142426250Y-74727000D01*
X141677000Y-74727000D01*
X141423000Y-74727000D01*
X141403000Y-74727000D01*
X141403000Y-74473000D01*
X141423000Y-74473000D01*
X141423000Y-73673750D01*
X141677000Y-73673750D01*
X141677000Y-74473000D01*
X142426250Y-74473000D01*
X142585000Y-74314250D01*
X142585000Y-74023691D01*
X142488327Y-73790302D01*
X142309699Y-73611673D01*
X142076310Y-73515000D01*
X141835750Y-73515000D01*
X141677000Y-73673750D01*
X141423000Y-73673750D01*
X141336988Y-73587738D01*
X141451441Y-73514090D01*
X141596431Y-73301890D01*
X141647440Y-73050000D01*
X141647440Y-72150000D01*
X141603162Y-71914683D01*
X141464090Y-71698559D01*
X141251890Y-71553569D01*
X141000000Y-71502560D01*
X140200000Y-71502560D01*
X139964683Y-71546838D01*
X139922536Y-71573959D01*
X139890919Y-71497440D01*
X140850000Y-71497440D01*
X141085317Y-71453162D01*
X141301441Y-71314090D01*
X141446431Y-71101890D01*
X141497440Y-70850000D01*
X141497440Y-69150000D01*
X141453162Y-68914683D01*
X141314090Y-68698559D01*
X141101890Y-68553569D01*
X141034459Y-68539914D01*
X141079147Y-68510054D01*
X141401054Y-68028285D01*
X141514093Y-67460000D01*
X141401054Y-66891715D01*
X141079147Y-66409946D01*
X140597378Y-66088039D01*
X140029093Y-65975000D01*
X139970907Y-65975000D01*
X139402622Y-66088039D01*
X138920853Y-66409946D01*
X138598946Y-66891715D01*
X138485907Y-67460000D01*
X138598946Y-68028285D01*
X138920853Y-68510054D01*
X138962452Y-68537850D01*
X138914683Y-68546838D01*
X138698559Y-68685910D01*
X138553569Y-68898110D01*
X138502560Y-69150000D01*
X138502560Y-70614914D01*
X138325715Y-70614760D01*
X137816485Y-70825169D01*
X137568998Y-71072225D01*
X137568998Y-62365804D01*
X137959913Y-61974889D01*
X137815241Y-62323298D01*
X137815241Y-62323298D01*
G37*
X137815241Y-62323298D02*
X137814760Y-62874285D01*
X138025169Y-63383515D01*
X138151207Y-63509773D01*
X138102560Y-63750000D01*
X138102560Y-65050000D01*
X138146838Y-65285317D01*
X138285910Y-65501441D01*
X138498110Y-65646431D01*
X138750000Y-65697440D01*
X139450000Y-65697440D01*
X139685317Y-65653162D01*
X139901441Y-65514090D01*
X140046431Y-65301890D01*
X140049081Y-65288803D01*
X140185910Y-65501441D01*
X140398110Y-65646431D01*
X140650000Y-65697440D01*
X141350000Y-65697440D01*
X141585317Y-65653162D01*
X141714999Y-65569714D01*
X141714999Y-72099994D01*
X141714998Y-72099999D01*
X141754782Y-72300000D01*
X141782366Y-72438674D01*
X141974209Y-72725789D01*
X143315000Y-74066579D01*
X143315000Y-76997238D01*
X142876702Y-76815241D01*
X142325715Y-76814760D01*
X141816485Y-77025169D01*
X141801628Y-77040000D01*
X140147440Y-77040000D01*
X140147440Y-76300000D01*
X140103162Y-76064683D01*
X139964090Y-75848559D01*
X139751890Y-75703569D01*
X139721624Y-75697440D01*
X140050000Y-75697440D01*
X140285317Y-75653162D01*
X140501441Y-75514090D01*
X140596990Y-75374250D01*
X140611673Y-75409698D01*
X140790301Y-75588327D01*
X141023690Y-75685000D01*
X141264250Y-75685000D01*
X141423000Y-75526250D01*
X141423000Y-74727000D01*
X141677000Y-74727000D01*
X141677000Y-75526250D01*
X141835750Y-75685000D01*
X142076310Y-75685000D01*
X142309699Y-75588327D01*
X142488327Y-75409698D01*
X142585000Y-75176309D01*
X142585000Y-74885750D01*
X142426250Y-74727000D01*
X141677000Y-74727000D01*
X141423000Y-74727000D01*
X141403000Y-74727000D01*
X141403000Y-74473000D01*
X141423000Y-74473000D01*
X141423000Y-73673750D01*
X141677000Y-73673750D01*
X141677000Y-74473000D01*
X142426250Y-74473000D01*
X142585000Y-74314250D01*
X142585000Y-74023691D01*
X142488327Y-73790302D01*
X142309699Y-73611673D01*
X142076310Y-73515000D01*
X141835750Y-73515000D01*
X141677000Y-73673750D01*
X141423000Y-73673750D01*
X141336988Y-73587738D01*
X141451441Y-73514090D01*
X141596431Y-73301890D01*
X141647440Y-73050000D01*
X141647440Y-72150000D01*
X141603162Y-71914683D01*
X141464090Y-71698559D01*
X141251890Y-71553569D01*
X141000000Y-71502560D01*
X140200000Y-71502560D01*
X139964683Y-71546838D01*
X139922536Y-71573959D01*
X139890919Y-71497440D01*
X140850000Y-71497440D01*
X141085317Y-71453162D01*
X141301441Y-71314090D01*
X141446431Y-71101890D01*
X141497440Y-70850000D01*
X141497440Y-69150000D01*
X141453162Y-68914683D01*
X141314090Y-68698559D01*
X141101890Y-68553569D01*
X141034459Y-68539914D01*
X141079147Y-68510054D01*
X141401054Y-68028285D01*
X141514093Y-67460000D01*
X141401054Y-66891715D01*
X141079147Y-66409946D01*
X140597378Y-66088039D01*
X140029093Y-65975000D01*
X139970907Y-65975000D01*
X139402622Y-66088039D01*
X138920853Y-66409946D01*
X138598946Y-66891715D01*
X138485907Y-67460000D01*
X138598946Y-68028285D01*
X138920853Y-68510054D01*
X138962452Y-68537850D01*
X138914683Y-68546838D01*
X138698559Y-68685910D01*
X138553569Y-68898110D01*
X138502560Y-69150000D01*
X138502560Y-70614914D01*
X138325715Y-70614760D01*
X137816485Y-70825169D01*
X137568998Y-71072225D01*
X137568998Y-62365804D01*
X137959913Y-61974889D01*
X137815241Y-62323298D01*
G36*
X139515241Y-39123298D02*
X139514760Y-39674285D01*
X139725169Y-40183515D01*
X139791315Y-40249776D01*
X139726539Y-40314439D01*
X139515241Y-40823301D01*
X139514760Y-41374288D01*
X139725169Y-41883518D01*
X140114436Y-42273464D01*
X140623298Y-42484762D01*
X141174285Y-42485243D01*
X141683515Y-42274834D01*
X142073461Y-41885567D01*
X142101758Y-41817420D01*
X142250000Y-41847440D01*
X143150000Y-41847440D01*
X143385317Y-41803162D01*
X143601441Y-41664090D01*
X143746431Y-41451890D01*
X143797440Y-41200000D01*
X143797440Y-40700000D01*
X143753162Y-40464683D01*
X143614090Y-40248559D01*
X143544289Y-40200866D01*
X143601441Y-40164090D01*
X143746431Y-39951890D01*
X143797440Y-39700000D01*
X143797440Y-39200000D01*
X143771097Y-39060000D01*
X148140000Y-39060000D01*
X148140000Y-45350000D01*
X148194046Y-45621705D01*
X148347954Y-45852046D01*
X148578295Y-46005954D01*
X148850000Y-46060000D01*
X150241525Y-46060000D01*
X150215241Y-46123298D01*
X150214760Y-46674285D01*
X150425169Y-47183515D01*
X150814436Y-47573461D01*
X151323298Y-47784759D01*
X151640000Y-47785035D01*
X151640000Y-51285198D01*
X150162599Y-52762599D01*
X149997852Y-53009161D01*
X149940000Y-53300000D01*
X149940000Y-56200000D01*
X149997852Y-56490839D01*
X150162599Y-56737401D01*
X152739980Y-59314782D01*
X152739980Y-60895193D01*
X152306670Y-60715267D01*
X151696009Y-60714735D01*
X151131629Y-60947932D01*
X150749712Y-61329182D01*
X150370643Y-60949449D01*
X149806670Y-60715267D01*
X149196009Y-60714735D01*
X148631629Y-60947932D01*
X148249712Y-61329182D01*
X147870643Y-60949449D01*
X147306670Y-60715267D01*
X146696009Y-60714735D01*
X146260000Y-60894890D01*
X146260000Y-59551212D01*
X148887411Y-56923801D01*
X149052158Y-56677239D01*
X149110010Y-56386400D01*
X149110009Y-53213599D01*
X149099347Y-53160000D01*
X149052157Y-52922759D01*
X148887410Y-52676198D01*
X147160000Y-50948788D01*
X147160000Y-49810000D01*
X147771614Y-49810000D01*
X147898110Y-49896431D01*
X148150000Y-49947440D01*
X149050000Y-49947440D01*
X149285317Y-49903162D01*
X149501441Y-49764090D01*
X149646431Y-49551890D01*
X149697440Y-49300000D01*
X149697440Y-48800000D01*
X149653162Y-48564683D01*
X149514090Y-48348559D01*
X149444289Y-48300866D01*
X149501441Y-48264090D01*
X149646431Y-48051890D01*
X149697440Y-47800000D01*
X149697440Y-47300000D01*
X149653162Y-47064683D01*
X149514090Y-46848559D01*
X149301890Y-46703569D01*
X149050000Y-46652560D01*
X148150000Y-46652560D01*
X147914683Y-46696838D01*
X147769905Y-46790000D01*
X147550000Y-46790000D01*
X147259160Y-46847852D01*
X147097440Y-46955910D01*
X147097440Y-45690000D01*
X147053162Y-45454683D01*
X146914090Y-45238559D01*
X146701890Y-45093569D01*
X146634459Y-45079914D01*
X146679147Y-45050054D01*
X147001054Y-44568285D01*
X147114093Y-44000000D01*
X147001054Y-43431715D01*
X146679147Y-42949946D01*
X146349974Y-42730000D01*
X146679147Y-42510054D01*
X147001054Y-42028285D01*
X147114093Y-41460000D01*
X147001054Y-40891715D01*
X146679147Y-40409946D01*
X146197378Y-40088039D01*
X145629093Y-39975000D01*
X145570907Y-39975000D01*
X145002622Y-40088039D01*
X144520853Y-40409946D01*
X144198946Y-40891715D01*
X144085907Y-41460000D01*
X144198946Y-42028285D01*
X144520853Y-42510054D01*
X144850026Y-42730000D01*
X144520853Y-42949946D01*
X144198946Y-43431715D01*
X144085907Y-44000000D01*
X144198946Y-44568285D01*
X144520853Y-45050054D01*
X144562452Y-45077850D01*
X144514683Y-45086838D01*
X144298559Y-45225910D01*
X144153569Y-45438110D01*
X144102560Y-45690000D01*
X144102560Y-47390000D01*
X144137370Y-47575000D01*
X142990854Y-47575000D01*
X142953162Y-47374683D01*
X142814090Y-47158559D01*
X142601890Y-47013569D01*
X142350000Y-46962560D01*
X140650000Y-46962560D01*
X140414683Y-47006838D01*
X140198559Y-47145910D01*
X140053569Y-47358110D01*
X140002560Y-47610000D01*
X140002560Y-49310000D01*
X140046838Y-49545317D01*
X140185910Y-49761441D01*
X140398110Y-49906431D01*
X140506107Y-49928301D01*
X140228355Y-50233076D01*
X140058524Y-50643110D01*
X140179845Y-50873000D01*
X141373000Y-50873000D01*
X141373000Y-50853000D01*
X141627000Y-50853000D01*
X141627000Y-50873000D01*
X141647000Y-50873000D01*
X141647000Y-51127000D01*
X141627000Y-51127000D01*
X141627000Y-51147000D01*
X141373000Y-51147000D01*
X141373000Y-51127000D01*
X140179845Y-51127000D01*
X140058524Y-51356890D01*
X140228355Y-51766924D01*
X140618642Y-52195183D01*
X140761553Y-52262298D01*
X140420853Y-52489946D01*
X140098946Y-52971715D01*
X139985907Y-53540000D01*
X140098946Y-54108285D01*
X140420853Y-54590054D01*
X140750026Y-54810000D01*
X140420853Y-55029946D01*
X140216182Y-55336259D01*
X140007080Y-55377852D01*
X139760518Y-55542599D01*
X138160000Y-57143117D01*
X138160000Y-55521486D01*
X138373691Y-55610000D01*
X138614250Y-55610000D01*
X138773000Y-55451250D01*
X138773000Y-54727000D01*
X139027000Y-54727000D01*
X139027000Y-55451250D01*
X139185750Y-55610000D01*
X139426309Y-55610000D01*
X139659698Y-55513327D01*
X139838327Y-55334699D01*
X139935000Y-55101310D01*
X139935000Y-54885750D01*
X139776250Y-54727000D01*
X139027000Y-54727000D01*
X138773000Y-54727000D01*
X138753000Y-54727000D01*
X138753000Y-54473000D01*
X138773000Y-54473000D01*
X138773000Y-53748750D01*
X138762750Y-53738500D01*
X138775000Y-53726250D01*
X138775000Y-52927000D01*
X139025000Y-52927000D01*
X139025000Y-53726250D01*
X139037250Y-53738500D01*
X139027000Y-53748750D01*
X139027000Y-54473000D01*
X139776250Y-54473000D01*
X139935000Y-54314250D01*
X139935000Y-54098690D01*
X139838327Y-53865301D01*
X139659698Y-53686673D01*
X139625513Y-53672513D01*
X139688327Y-53609699D01*
X139785000Y-53376310D01*
X139785000Y-53085750D01*
X139626250Y-52927000D01*
X139025000Y-52927000D01*
X138775000Y-52927000D01*
X138753000Y-52927000D01*
X138753000Y-52673000D01*
X138775000Y-52673000D01*
X138775000Y-51127000D01*
X139025000Y-51127000D01*
X139025000Y-52673000D01*
X139626250Y-52673000D01*
X139785000Y-52514250D01*
X139785000Y-52223690D01*
X139688327Y-51990301D01*
X139598025Y-51900000D01*
X139688327Y-51809699D01*
X139785000Y-51576310D01*
X139785000Y-51285750D01*
X139626250Y-51127000D01*
X139025000Y-51127000D01*
X138775000Y-51127000D01*
X138753000Y-51127000D01*
X138753000Y-50873000D01*
X138775000Y-50873000D01*
X138775000Y-50853000D01*
X139025000Y-50853000D01*
X139025000Y-50873000D01*
X139626250Y-50873000D01*
X139785000Y-50714250D01*
X139785000Y-50423690D01*
X139688327Y-50190301D01*
X139578355Y-50080330D01*
X139773461Y-49885564D01*
X139984759Y-49376702D01*
X139985240Y-48825715D01*
X139774831Y-48316485D01*
X139385564Y-47926539D01*
X138876702Y-47715241D01*
X138864129Y-47715230D01*
X138881441Y-47704090D01*
X139026431Y-47491890D01*
X139077440Y-47240000D01*
X139077440Y-45240000D01*
X139033162Y-45004683D01*
X139012402Y-44972422D01*
X139026431Y-44951890D01*
X139077440Y-44700000D01*
X139077440Y-42700000D01*
X139033162Y-42464683D01*
X139012402Y-42432422D01*
X139026431Y-42411890D01*
X139077440Y-42160000D01*
X139077440Y-40160000D01*
X139033162Y-39924683D01*
X138894090Y-39708559D01*
X138681890Y-39563569D01*
X138430000Y-39512560D01*
X135930000Y-39512560D01*
X135694683Y-39556838D01*
X135478559Y-39695910D01*
X135333569Y-39908110D01*
X135282560Y-40160000D01*
X135282560Y-42160000D01*
X135326838Y-42395317D01*
X135347598Y-42427578D01*
X135333569Y-42448110D01*
X135282560Y-42700000D01*
X135282560Y-44700000D01*
X135326838Y-44935317D01*
X135347598Y-44967578D01*
X135333569Y-44988110D01*
X135282560Y-45240000D01*
X135282560Y-47240000D01*
X135326838Y-47475317D01*
X135465910Y-47691441D01*
X135678110Y-47836431D01*
X135930000Y-47887440D01*
X137907796Y-47887440D01*
X137816485Y-47925169D01*
X137636199Y-48105141D01*
X137500000Y-48077560D01*
X136700000Y-48077560D01*
X136464683Y-48121838D01*
X136350022Y-48195620D01*
X136251890Y-48128569D01*
X136000000Y-48077560D01*
X135200000Y-48077560D01*
X134964683Y-48121838D01*
X134748559Y-48260910D01*
X134694519Y-48340000D01*
X134349823Y-48340000D01*
X134174831Y-47916485D01*
X134145837Y-47887440D01*
X134270000Y-47887440D01*
X134505317Y-47843162D01*
X134721441Y-47704090D01*
X134866431Y-47491890D01*
X134917440Y-47240000D01*
X134917440Y-45240000D01*
X134873162Y-45004683D01*
X134852402Y-44972422D01*
X134866431Y-44951890D01*
X134917440Y-44700000D01*
X134917440Y-42700000D01*
X134873162Y-42464683D01*
X134852402Y-42432422D01*
X134866431Y-42411890D01*
X134917440Y-42160000D01*
X134917440Y-40160000D01*
X134873162Y-39924683D01*
X134734090Y-39708559D01*
X134521890Y-39563569D01*
X134270000Y-39512560D01*
X131770000Y-39512560D01*
X131534683Y-39556838D01*
X131318559Y-39695910D01*
X131173569Y-39908110D01*
X131122560Y-40160000D01*
X131122560Y-42160000D01*
X131166838Y-42395317D01*
X131187598Y-42427578D01*
X131173569Y-42448110D01*
X131122560Y-42700000D01*
X131122560Y-44700000D01*
X131166838Y-44935317D01*
X131187598Y-44967578D01*
X131173569Y-44988110D01*
X131122560Y-45240000D01*
X131122560Y-46363948D01*
X130885564Y-46126539D01*
X130488186Y-45961533D01*
X130652046Y-45852046D01*
X130805954Y-45621705D01*
X130860000Y-45350000D01*
X130860000Y-39060000D01*
X139541525Y-39060000D01*
X139515241Y-39123298D01*
X139515241Y-39123298D01*
G37*
X139515241Y-39123298D02*
X139514760Y-39674285D01*
X139725169Y-40183515D01*
X139791315Y-40249776D01*
X139726539Y-40314439D01*
X139515241Y-40823301D01*
X139514760Y-41374288D01*
X139725169Y-41883518D01*
X140114436Y-42273464D01*
X140623298Y-42484762D01*
X141174285Y-42485243D01*
X141683515Y-42274834D01*
X142073461Y-41885567D01*
X142101758Y-41817420D01*
X142250000Y-41847440D01*
X143150000Y-41847440D01*
X143385317Y-41803162D01*
X143601441Y-41664090D01*
X143746431Y-41451890D01*
X143797440Y-41200000D01*
X143797440Y-40700000D01*
X143753162Y-40464683D01*
X143614090Y-40248559D01*
X143544289Y-40200866D01*
X143601441Y-40164090D01*
X143746431Y-39951890D01*
X143797440Y-39700000D01*
X143797440Y-39200000D01*
X143771097Y-39060000D01*
X148140000Y-39060000D01*
X148140000Y-45350000D01*
X148194046Y-45621705D01*
X148347954Y-45852046D01*
X148578295Y-46005954D01*
X148850000Y-46060000D01*
X150241525Y-46060000D01*
X150215241Y-46123298D01*
X150214760Y-46674285D01*
X150425169Y-47183515D01*
X150814436Y-47573461D01*
X151323298Y-47784759D01*
X151640000Y-47785035D01*
X151640000Y-51285198D01*
X150162599Y-52762599D01*
X149997852Y-53009161D01*
X149940000Y-53300000D01*
X149940000Y-56200000D01*
X149997852Y-56490839D01*
X150162599Y-56737401D01*
X152739980Y-59314782D01*
X152739980Y-60895193D01*
X152306670Y-60715267D01*
X151696009Y-60714735D01*
X151131629Y-60947932D01*
X150749712Y-61329182D01*
X150370643Y-60949449D01*
X149806670Y-60715267D01*
X149196009Y-60714735D01*
X148631629Y-60947932D01*
X148249712Y-61329182D01*
X147870643Y-60949449D01*
X147306670Y-60715267D01*
X146696009Y-60714735D01*
X146260000Y-60894890D01*
X146260000Y-59551212D01*
X148887411Y-56923801D01*
X149052158Y-56677239D01*
X149110010Y-56386400D01*
X149110009Y-53213599D01*
X149099347Y-53160000D01*
X149052157Y-52922759D01*
X148887410Y-52676198D01*
X147160000Y-50948788D01*
X147160000Y-49810000D01*
X147771614Y-49810000D01*
X147898110Y-49896431D01*
X148150000Y-49947440D01*
X149050000Y-49947440D01*
X149285317Y-49903162D01*
X149501441Y-49764090D01*
X149646431Y-49551890D01*
X149697440Y-49300000D01*
X149697440Y-48800000D01*
X149653162Y-48564683D01*
X149514090Y-48348559D01*
X149444289Y-48300866D01*
X149501441Y-48264090D01*
X149646431Y-48051890D01*
X149697440Y-47800000D01*
X149697440Y-47300000D01*
X149653162Y-47064683D01*
X149514090Y-46848559D01*
X149301890Y-46703569D01*
X149050000Y-46652560D01*
X148150000Y-46652560D01*
X147914683Y-46696838D01*
X147769905Y-46790000D01*
X147550000Y-46790000D01*
X147259160Y-46847852D01*
X147097440Y-46955910D01*
X147097440Y-45690000D01*
X147053162Y-45454683D01*
X146914090Y-45238559D01*
X146701890Y-45093569D01*
X146634459Y-45079914D01*
X146679147Y-45050054D01*
X147001054Y-44568285D01*
X147114093Y-44000000D01*
X147001054Y-43431715D01*
X146679147Y-42949946D01*
X146349974Y-42730000D01*
X146679147Y-42510054D01*
X147001054Y-42028285D01*
X147114093Y-41460000D01*
X147001054Y-40891715D01*
X146679147Y-40409946D01*
X146197378Y-40088039D01*
X145629093Y-39975000D01*
X145570907Y-39975000D01*
X145002622Y-40088039D01*
X144520853Y-40409946D01*
X144198946Y-40891715D01*
X144085907Y-41460000D01*
X144198946Y-42028285D01*
X144520853Y-42510054D01*
X144850026Y-42730000D01*
X144520853Y-42949946D01*
X144198946Y-43431715D01*
X144085907Y-44000000D01*
X144198946Y-44568285D01*
X144520853Y-45050054D01*
X144562452Y-45077850D01*
X144514683Y-45086838D01*
X144298559Y-45225910D01*
X144153569Y-45438110D01*
X144102560Y-45690000D01*
X144102560Y-47390000D01*
X144137370Y-47575000D01*
X142990854Y-47575000D01*
X142953162Y-47374683D01*
X142814090Y-47158559D01*
X142601890Y-47013569D01*
X142350000Y-46962560D01*
X140650000Y-46962560D01*
X140414683Y-47006838D01*
X140198559Y-47145910D01*
X140053569Y-47358110D01*
X140002560Y-47610000D01*
X140002560Y-49310000D01*
X140046838Y-49545317D01*
X140185910Y-49761441D01*
X140398110Y-49906431D01*
X140506107Y-49928301D01*
X140228355Y-50233076D01*
X140058524Y-50643110D01*
X140179845Y-50873000D01*
X141373000Y-50873000D01*
X141373000Y-50853000D01*
X141627000Y-50853000D01*
X141627000Y-50873000D01*
X141647000Y-50873000D01*
X141647000Y-51127000D01*
X141627000Y-51127000D01*
X141627000Y-51147000D01*
X141373000Y-51147000D01*
X141373000Y-51127000D01*
X140179845Y-51127000D01*
X140058524Y-51356890D01*
X140228355Y-51766924D01*
X140618642Y-52195183D01*
X140761553Y-52262298D01*
X140420853Y-52489946D01*
X140098946Y-52971715D01*
X139985907Y-53540000D01*
X140098946Y-54108285D01*
X140420853Y-54590054D01*
X140750026Y-54810000D01*
X140420853Y-55029946D01*
X140216182Y-55336259D01*
X140007080Y-55377852D01*
X139760518Y-55542599D01*
X138160000Y-57143117D01*
X138160000Y-55521486D01*
X138373691Y-55610000D01*
X138614250Y-55610000D01*
X138773000Y-55451250D01*
X138773000Y-54727000D01*
X139027000Y-54727000D01*
X139027000Y-55451250D01*
X139185750Y-55610000D01*
X139426309Y-55610000D01*
X139659698Y-55513327D01*
X139838327Y-55334699D01*
X139935000Y-55101310D01*
X139935000Y-54885750D01*
X139776250Y-54727000D01*
X139027000Y-54727000D01*
X138773000Y-54727000D01*
X138753000Y-54727000D01*
X138753000Y-54473000D01*
X138773000Y-54473000D01*
X138773000Y-53748750D01*
X138762750Y-53738500D01*
X138775000Y-53726250D01*
X138775000Y-52927000D01*
X139025000Y-52927000D01*
X139025000Y-53726250D01*
X139037250Y-53738500D01*
X139027000Y-53748750D01*
X139027000Y-54473000D01*
X139776250Y-54473000D01*
X139935000Y-54314250D01*
X139935000Y-54098690D01*
X139838327Y-53865301D01*
X139659698Y-53686673D01*
X139625513Y-53672513D01*
X139688327Y-53609699D01*
X139785000Y-53376310D01*
X139785000Y-53085750D01*
X139626250Y-52927000D01*
X139025000Y-52927000D01*
X138775000Y-52927000D01*
X138753000Y-52927000D01*
X138753000Y-52673000D01*
X138775000Y-52673000D01*
X138775000Y-51127000D01*
X139025000Y-51127000D01*
X139025000Y-52673000D01*
X139626250Y-52673000D01*
X139785000Y-52514250D01*
X139785000Y-52223690D01*
X139688327Y-51990301D01*
X139598025Y-51900000D01*
X139688327Y-51809699D01*
X139785000Y-51576310D01*
X139785000Y-51285750D01*
X139626250Y-51127000D01*
X139025000Y-51127000D01*
X138775000Y-51127000D01*
X138753000Y-51127000D01*
X138753000Y-50873000D01*
X138775000Y-50873000D01*
X138775000Y-50853000D01*
X139025000Y-50853000D01*
X139025000Y-50873000D01*
X139626250Y-50873000D01*
X139785000Y-50714250D01*
X139785000Y-50423690D01*
X139688327Y-50190301D01*
X139578355Y-50080330D01*
X139773461Y-49885564D01*
X139984759Y-49376702D01*
X139985240Y-48825715D01*
X139774831Y-48316485D01*
X139385564Y-47926539D01*
X138876702Y-47715241D01*
X138864129Y-47715230D01*
X138881441Y-47704090D01*
X139026431Y-47491890D01*
X139077440Y-47240000D01*
X139077440Y-45240000D01*
X139033162Y-45004683D01*
X139012402Y-44972422D01*
X139026431Y-44951890D01*
X139077440Y-44700000D01*
X139077440Y-42700000D01*
X139033162Y-42464683D01*
X139012402Y-42432422D01*
X139026431Y-42411890D01*
X139077440Y-42160000D01*
X139077440Y-40160000D01*
X139033162Y-39924683D01*
X138894090Y-39708559D01*
X138681890Y-39563569D01*
X138430000Y-39512560D01*
X135930000Y-39512560D01*
X135694683Y-39556838D01*
X135478559Y-39695910D01*
X135333569Y-39908110D01*
X135282560Y-40160000D01*
X135282560Y-42160000D01*
X135326838Y-42395317D01*
X135347598Y-42427578D01*
X135333569Y-42448110D01*
X135282560Y-42700000D01*
X135282560Y-44700000D01*
X135326838Y-44935317D01*
X135347598Y-44967578D01*
X135333569Y-44988110D01*
X135282560Y-45240000D01*
X135282560Y-47240000D01*
X135326838Y-47475317D01*
X135465910Y-47691441D01*
X135678110Y-47836431D01*
X135930000Y-47887440D01*
X137907796Y-47887440D01*
X137816485Y-47925169D01*
X137636199Y-48105141D01*
X137500000Y-48077560D01*
X136700000Y-48077560D01*
X136464683Y-48121838D01*
X136350022Y-48195620D01*
X136251890Y-48128569D01*
X136000000Y-48077560D01*
X135200000Y-48077560D01*
X134964683Y-48121838D01*
X134748559Y-48260910D01*
X134694519Y-48340000D01*
X134349823Y-48340000D01*
X134174831Y-47916485D01*
X134145837Y-47887440D01*
X134270000Y-47887440D01*
X134505317Y-47843162D01*
X134721441Y-47704090D01*
X134866431Y-47491890D01*
X134917440Y-47240000D01*
X134917440Y-45240000D01*
X134873162Y-45004683D01*
X134852402Y-44972422D01*
X134866431Y-44951890D01*
X134917440Y-44700000D01*
X134917440Y-42700000D01*
X134873162Y-42464683D01*
X134852402Y-42432422D01*
X134866431Y-42411890D01*
X134917440Y-42160000D01*
X134917440Y-40160000D01*
X134873162Y-39924683D01*
X134734090Y-39708559D01*
X134521890Y-39563569D01*
X134270000Y-39512560D01*
X131770000Y-39512560D01*
X131534683Y-39556838D01*
X131318559Y-39695910D01*
X131173569Y-39908110D01*
X131122560Y-40160000D01*
X131122560Y-42160000D01*
X131166838Y-42395317D01*
X131187598Y-42427578D01*
X131173569Y-42448110D01*
X131122560Y-42700000D01*
X131122560Y-44700000D01*
X131166838Y-44935317D01*
X131187598Y-44967578D01*
X131173569Y-44988110D01*
X131122560Y-45240000D01*
X131122560Y-46363948D01*
X130885564Y-46126539D01*
X130488186Y-45961533D01*
X130652046Y-45852046D01*
X130805954Y-45621705D01*
X130860000Y-45350000D01*
X130860000Y-39060000D01*
X139541525Y-39060000D01*
X139515241Y-39123298D01*
G36*
X143539041Y-56558909D02*
X144323459Y-56884628D01*
X144763408Y-56885012D01*
X142848227Y-58800193D01*
X142820155Y-58747000D01*
X141627000Y-58747000D01*
X141627000Y-58767000D01*
X141373000Y-58767000D01*
X141373000Y-58747000D01*
X140179845Y-58747000D01*
X140058524Y-58976890D01*
X140228355Y-59386924D01*
X140618642Y-59815183D01*
X140761553Y-59882298D01*
X140420853Y-60109946D01*
X140227046Y-60400000D01*
X137700000Y-60400000D01*
X137409161Y-60457852D01*
X137162599Y-60622599D01*
X137034988Y-60750210D01*
X137034988Y-60417733D01*
X140381525Y-57071196D01*
X140420853Y-57130054D01*
X140761553Y-57357702D01*
X140618642Y-57424817D01*
X140228355Y-57853076D01*
X140058524Y-58263110D01*
X140179845Y-58493000D01*
X141373000Y-58493000D01*
X141373000Y-58473000D01*
X141627000Y-58473000D01*
X141627000Y-58493000D01*
X142820155Y-58493000D01*
X142941476Y-58263110D01*
X142771645Y-57853076D01*
X142381358Y-57424817D01*
X142238447Y-57357702D01*
X142579147Y-57130054D01*
X142901054Y-56648285D01*
X143014093Y-56080000D01*
X143002429Y-56021359D01*
X143539041Y-56558909D01*
X143539041Y-56558909D01*
G37*
X143539041Y-56558909D02*
X144323459Y-56884628D01*
X144763408Y-56885012D01*
X142848227Y-58800193D01*
X142820155Y-58747000D01*
X141627000Y-58747000D01*
X141627000Y-58767000D01*
X141373000Y-58767000D01*
X141373000Y-58747000D01*
X140179845Y-58747000D01*
X140058524Y-58976890D01*
X140228355Y-59386924D01*
X140618642Y-59815183D01*
X140761553Y-59882298D01*
X140420853Y-60109946D01*
X140227046Y-60400000D01*
X137700000Y-60400000D01*
X137409161Y-60457852D01*
X137162599Y-60622599D01*
X137034988Y-60750210D01*
X137034988Y-60417733D01*
X140381525Y-57071196D01*
X140420853Y-57130054D01*
X140761553Y-57357702D01*
X140618642Y-57424817D01*
X140228355Y-57853076D01*
X140058524Y-58263110D01*
X140179845Y-58493000D01*
X141373000Y-58493000D01*
X141373000Y-58473000D01*
X141627000Y-58473000D01*
X141627000Y-58493000D01*
X142820155Y-58493000D01*
X142941476Y-58263110D01*
X142771645Y-57853076D01*
X142381358Y-57424817D01*
X142238447Y-57357702D01*
X142579147Y-57130054D01*
X142901054Y-56648285D01*
X143014093Y-56080000D01*
X143002429Y-56021359D01*
X143539041Y-56558909D01*
M02*
