G04 #@! TF.FileFunction,Copper,L2,Bot,Signal*
%FSLAX46Y46*%
G04 Gerber Fmt 4.6, Leading zero omitted, Abs format (unit mm)*
G04 Created by KiCad (PCBNEW 4.0.7) date 12/09/17 16:35:47*
%MOMM*%
%LPD*%
G01*
G04 APERTURE LIST*
%ADD10C,0.100000*%
%ADD11C,0.200000*%
%ADD12C,0.150000*%
%ADD13R,0.800000X0.750000*%
%ADD14R,0.750000X0.800000*%
%ADD15R,1.700000X1.700000*%
%ADD16O,1.700000X1.700000*%
%ADD17C,3.000000*%
%ADD18C,4.800000*%
%ADD19R,4.800000X4.800000*%
%ADD20R,0.800000X0.900000*%
%ADD21R,0.500000X0.900000*%
%ADD22R,0.900000X0.500000*%
%ADD23R,1.300000X0.700000*%
%ADD24C,1.800000*%
%ADD25R,2.500000X2.500000*%
%ADD26O,2.500000X2.500000*%
%ADD27R,1.000000X1.000000*%
%ADD28O,1.000000X1.000000*%
%ADD29C,1.500000*%
%ADD30C,0.250000*%
%ADD31C,0.500000*%
%ADD32C,0.254000*%
G04 APERTURE END LIST*
D10*
D11*
X134857143Y-100785714D02*
X134619048Y-101452381D01*
X134380952Y-100785714D01*
X133809524Y-100452381D02*
X133714285Y-100452381D01*
X133619047Y-100500000D01*
X133571428Y-100547619D01*
X133523809Y-100642857D01*
X133476190Y-100833333D01*
X133476190Y-101071429D01*
X133523809Y-101261905D01*
X133571428Y-101357143D01*
X133619047Y-101404762D01*
X133714285Y-101452381D01*
X133809524Y-101452381D01*
X133904762Y-101404762D01*
X133952381Y-101357143D01*
X134000000Y-101261905D01*
X134047619Y-101071429D01*
X134047619Y-100833333D01*
X134000000Y-100642857D01*
X133952381Y-100547619D01*
X133904762Y-100500000D01*
X133809524Y-100452381D01*
X132523809Y-101452381D02*
X133095238Y-101452381D01*
X132809524Y-101452381D02*
X132809524Y-100452381D01*
X132904762Y-100595238D01*
X133000000Y-100690476D01*
X133095238Y-100738095D01*
X144261905Y-99952381D02*
X144261905Y-98952381D01*
X143833333Y-99952381D02*
X143833333Y-99428571D01*
X143880952Y-99333333D01*
X143976190Y-99285714D01*
X144119048Y-99285714D01*
X144214286Y-99333333D01*
X144261905Y-99380952D01*
X143214286Y-99952381D02*
X143309524Y-99904762D01*
X143357143Y-99857143D01*
X143404762Y-99761905D01*
X143404762Y-99476190D01*
X143357143Y-99380952D01*
X143309524Y-99333333D01*
X143214286Y-99285714D01*
X143071428Y-99285714D01*
X142976190Y-99333333D01*
X142928571Y-99380952D01*
X142880952Y-99476190D01*
X142880952Y-99761905D01*
X142928571Y-99857143D01*
X142976190Y-99904762D01*
X143071428Y-99952381D01*
X143214286Y-99952381D01*
X142595238Y-99285714D02*
X142214286Y-99285714D01*
X142452381Y-98952381D02*
X142452381Y-99809524D01*
X142404762Y-99904762D01*
X142309524Y-99952381D01*
X142214286Y-99952381D01*
X141166666Y-99904762D02*
X141071428Y-99952381D01*
X140880952Y-99952381D01*
X140785713Y-99904762D01*
X140738094Y-99809524D01*
X140738094Y-99761905D01*
X140785713Y-99666667D01*
X140880952Y-99619048D01*
X141023809Y-99619048D01*
X141119047Y-99571429D01*
X141166666Y-99476190D01*
X141166666Y-99428571D01*
X141119047Y-99333333D01*
X141023809Y-99285714D01*
X140880952Y-99285714D01*
X140785713Y-99333333D01*
X140309523Y-99952381D02*
X140309523Y-99285714D01*
X140309523Y-98952381D02*
X140357142Y-99000000D01*
X140309523Y-99047619D01*
X140261904Y-99000000D01*
X140309523Y-98952381D01*
X140309523Y-99047619D01*
X139690476Y-99952381D02*
X139785714Y-99904762D01*
X139833333Y-99809524D01*
X139833333Y-98952381D01*
X139309523Y-99952381D02*
X139309523Y-99285714D01*
X139309523Y-98952381D02*
X139357142Y-99000000D01*
X139309523Y-99047619D01*
X139261904Y-99000000D01*
X139309523Y-98952381D01*
X139309523Y-99047619D01*
X138404761Y-99904762D02*
X138499999Y-99952381D01*
X138690476Y-99952381D01*
X138785714Y-99904762D01*
X138833333Y-99857143D01*
X138880952Y-99761905D01*
X138880952Y-99476190D01*
X138833333Y-99380952D01*
X138785714Y-99333333D01*
X138690476Y-99285714D01*
X138499999Y-99285714D01*
X138404761Y-99333333D01*
X137833333Y-99952381D02*
X137928571Y-99904762D01*
X137976190Y-99857143D01*
X138023809Y-99761905D01*
X138023809Y-99476190D01*
X137976190Y-99380952D01*
X137928571Y-99333333D01*
X137833333Y-99285714D01*
X137690475Y-99285714D01*
X137595237Y-99333333D01*
X137547618Y-99380952D01*
X137499999Y-99476190D01*
X137499999Y-99761905D01*
X137547618Y-99857143D01*
X137595237Y-99904762D01*
X137690475Y-99952381D01*
X137833333Y-99952381D01*
X137071428Y-99285714D02*
X137071428Y-99952381D01*
X137071428Y-99380952D02*
X137023809Y-99333333D01*
X136928571Y-99285714D01*
X136785713Y-99285714D01*
X136690475Y-99333333D01*
X136642856Y-99428571D01*
X136642856Y-99952381D01*
X135547618Y-99285714D02*
X135166666Y-99285714D01*
X135404761Y-99952381D02*
X135404761Y-99095238D01*
X135357142Y-99000000D01*
X135261904Y-98952381D01*
X135166666Y-98952381D01*
X134404760Y-99285714D02*
X134404760Y-99952381D01*
X134833332Y-99285714D02*
X134833332Y-99809524D01*
X134785713Y-99904762D01*
X134690475Y-99952381D01*
X134547617Y-99952381D01*
X134452379Y-99904762D01*
X134404760Y-99857143D01*
X134023808Y-99285714D02*
X133499998Y-99285714D01*
X134023808Y-99952381D01*
X133499998Y-99952381D01*
X133214284Y-99285714D02*
X132690474Y-99285714D01*
X133214284Y-99952381D01*
X132690474Y-99952381D01*
X142440476Y-98452381D02*
X142773810Y-97976190D01*
X143011905Y-98452381D02*
X143011905Y-97452381D01*
X142630952Y-97452381D01*
X142535714Y-97500000D01*
X142488095Y-97547619D01*
X142440476Y-97642857D01*
X142440476Y-97785714D01*
X142488095Y-97880952D01*
X142535714Y-97928571D01*
X142630952Y-97976190D01*
X143011905Y-97976190D01*
X142059524Y-98166667D02*
X141583333Y-98166667D01*
X142154762Y-98452381D02*
X141821429Y-97452381D01*
X141488095Y-98452381D01*
X141154762Y-98452381D02*
X141154762Y-97452381D01*
X140583333Y-98452381D01*
X140583333Y-97452381D01*
X140107143Y-98452381D02*
X140107143Y-97452381D01*
X139869048Y-97452381D01*
X139726190Y-97500000D01*
X139630952Y-97595238D01*
X139583333Y-97690476D01*
X139535714Y-97880952D01*
X139535714Y-98023810D01*
X139583333Y-98214286D01*
X139630952Y-98309524D01*
X139726190Y-98404762D01*
X139869048Y-98452381D01*
X140107143Y-98452381D01*
X139154762Y-98166667D02*
X138678571Y-98166667D01*
X139250000Y-98452381D02*
X138916667Y-97452381D01*
X138583333Y-98452381D01*
X137726190Y-97500000D02*
X137821428Y-97452381D01*
X137964285Y-97452381D01*
X138107143Y-97500000D01*
X138202381Y-97595238D01*
X138250000Y-97690476D01*
X138297619Y-97880952D01*
X138297619Y-98023810D01*
X138250000Y-98214286D01*
X138202381Y-98309524D01*
X138107143Y-98404762D01*
X137964285Y-98452381D01*
X137869047Y-98452381D01*
X137726190Y-98404762D01*
X137678571Y-98357143D01*
X137678571Y-98023810D01*
X137869047Y-98023810D01*
X137059524Y-97452381D02*
X136869047Y-97452381D01*
X136773809Y-97500000D01*
X136678571Y-97595238D01*
X136630952Y-97785714D01*
X136630952Y-98119048D01*
X136678571Y-98309524D01*
X136773809Y-98404762D01*
X136869047Y-98452381D01*
X137059524Y-98452381D01*
X137154762Y-98404762D01*
X137250000Y-98309524D01*
X137297619Y-98119048D01*
X137297619Y-97785714D01*
X137250000Y-97595238D01*
X137154762Y-97500000D01*
X137059524Y-97452381D01*
X136202381Y-98452381D02*
X136202381Y-97452381D01*
X135964286Y-97452381D01*
X135821428Y-97500000D01*
X135726190Y-97595238D01*
X135678571Y-97690476D01*
X135630952Y-97880952D01*
X135630952Y-98023810D01*
X135678571Y-98214286D01*
X135726190Y-98309524D01*
X135821428Y-98404762D01*
X135964286Y-98452381D01*
X136202381Y-98452381D01*
X134630952Y-98452381D02*
X134964286Y-97976190D01*
X135202381Y-98452381D02*
X135202381Y-97452381D01*
X134821428Y-97452381D01*
X134726190Y-97500000D01*
X134678571Y-97547619D01*
X134630952Y-97642857D01*
X134630952Y-97785714D01*
X134678571Y-97880952D01*
X134726190Y-97928571D01*
X134821428Y-97976190D01*
X135202381Y-97976190D01*
X134011905Y-97452381D02*
X133821428Y-97452381D01*
X133726190Y-97500000D01*
X133630952Y-97595238D01*
X133583333Y-97785714D01*
X133583333Y-98119048D01*
X133630952Y-98309524D01*
X133726190Y-98404762D01*
X133821428Y-98452381D01*
X134011905Y-98452381D01*
X134107143Y-98404762D01*
X134202381Y-98309524D01*
X134250000Y-98119048D01*
X134250000Y-97785714D01*
X134202381Y-97595238D01*
X134107143Y-97500000D01*
X134011905Y-97452381D01*
X133154762Y-98452381D02*
X133154762Y-97452381D01*
X132583333Y-98452381D01*
X132583333Y-97452381D01*
X61023810Y-97285714D02*
X60785715Y-97952381D01*
X60547619Y-97285714D01*
X59976191Y-96952381D02*
X59880952Y-96952381D01*
X59785714Y-97000000D01*
X59738095Y-97047619D01*
X59690476Y-97142857D01*
X59642857Y-97333333D01*
X59642857Y-97571429D01*
X59690476Y-97761905D01*
X59738095Y-97857143D01*
X59785714Y-97904762D01*
X59880952Y-97952381D01*
X59976191Y-97952381D01*
X60071429Y-97904762D01*
X60119048Y-97857143D01*
X60166667Y-97761905D01*
X60214286Y-97571429D01*
X60214286Y-97333333D01*
X60166667Y-97142857D01*
X60119048Y-97047619D01*
X60071429Y-97000000D01*
X59976191Y-96952381D01*
X58690476Y-97952381D02*
X59261905Y-97952381D01*
X58976191Y-97952381D02*
X58976191Y-96952381D01*
X59071429Y-97095238D01*
X59166667Y-97190476D01*
X59261905Y-97238095D01*
X67345238Y-94702381D02*
X67678572Y-94226190D01*
X67916667Y-94702381D02*
X67916667Y-93702381D01*
X67535714Y-93702381D01*
X67440476Y-93750000D01*
X67392857Y-93797619D01*
X67345238Y-93892857D01*
X67345238Y-94035714D01*
X67392857Y-94130952D01*
X67440476Y-94178571D01*
X67535714Y-94226190D01*
X67916667Y-94226190D01*
X66964286Y-94416667D02*
X66488095Y-94416667D01*
X67059524Y-94702381D02*
X66726191Y-93702381D01*
X66392857Y-94702381D01*
X66059524Y-94702381D02*
X66059524Y-93702381D01*
X65488095Y-94702381D01*
X65488095Y-93702381D01*
X65011905Y-94702381D02*
X65011905Y-93702381D01*
X64773810Y-93702381D01*
X64630952Y-93750000D01*
X64535714Y-93845238D01*
X64488095Y-93940476D01*
X64440476Y-94130952D01*
X64440476Y-94273810D01*
X64488095Y-94464286D01*
X64535714Y-94559524D01*
X64630952Y-94654762D01*
X64773810Y-94702381D01*
X65011905Y-94702381D01*
X64059524Y-94416667D02*
X63583333Y-94416667D01*
X64154762Y-94702381D02*
X63821429Y-93702381D01*
X63488095Y-94702381D01*
X62630952Y-93750000D02*
X62726190Y-93702381D01*
X62869047Y-93702381D01*
X63011905Y-93750000D01*
X63107143Y-93845238D01*
X63154762Y-93940476D01*
X63202381Y-94130952D01*
X63202381Y-94273810D01*
X63154762Y-94464286D01*
X63107143Y-94559524D01*
X63011905Y-94654762D01*
X62869047Y-94702381D01*
X62773809Y-94702381D01*
X62630952Y-94654762D01*
X62583333Y-94607143D01*
X62583333Y-94273810D01*
X62773809Y-94273810D01*
X61964286Y-93702381D02*
X61773809Y-93702381D01*
X61678571Y-93750000D01*
X61583333Y-93845238D01*
X61535714Y-94035714D01*
X61535714Y-94369048D01*
X61583333Y-94559524D01*
X61678571Y-94654762D01*
X61773809Y-94702381D01*
X61964286Y-94702381D01*
X62059524Y-94654762D01*
X62154762Y-94559524D01*
X62202381Y-94369048D01*
X62202381Y-94035714D01*
X62154762Y-93845238D01*
X62059524Y-93750000D01*
X61964286Y-93702381D01*
X61107143Y-94702381D02*
X61107143Y-93702381D01*
X60869048Y-93702381D01*
X60726190Y-93750000D01*
X60630952Y-93845238D01*
X60583333Y-93940476D01*
X60535714Y-94130952D01*
X60535714Y-94273810D01*
X60583333Y-94464286D01*
X60630952Y-94559524D01*
X60726190Y-94654762D01*
X60869048Y-94702381D01*
X61107143Y-94702381D01*
X59535714Y-94702381D02*
X59869048Y-94226190D01*
X60107143Y-94702381D02*
X60107143Y-93702381D01*
X59726190Y-93702381D01*
X59630952Y-93750000D01*
X59583333Y-93797619D01*
X59535714Y-93892857D01*
X59535714Y-94035714D01*
X59583333Y-94130952D01*
X59630952Y-94178571D01*
X59726190Y-94226190D01*
X60107143Y-94226190D01*
X58916667Y-93702381D02*
X58726190Y-93702381D01*
X58630952Y-93750000D01*
X58535714Y-93845238D01*
X58488095Y-94035714D01*
X58488095Y-94369048D01*
X58535714Y-94559524D01*
X58630952Y-94654762D01*
X58726190Y-94702381D01*
X58916667Y-94702381D01*
X59011905Y-94654762D01*
X59107143Y-94559524D01*
X59154762Y-94369048D01*
X59154762Y-94035714D01*
X59107143Y-93845238D01*
X59011905Y-93750000D01*
X58916667Y-93702381D01*
X58059524Y-94702381D02*
X58059524Y-93702381D01*
X57488095Y-94702381D01*
X57488095Y-93702381D01*
X67964288Y-96202381D02*
X67964288Y-95202381D01*
X67535716Y-96202381D02*
X67535716Y-95678571D01*
X67583335Y-95583333D01*
X67678573Y-95535714D01*
X67821431Y-95535714D01*
X67916669Y-95583333D01*
X67964288Y-95630952D01*
X66916669Y-96202381D02*
X67011907Y-96154762D01*
X67059526Y-96107143D01*
X67107145Y-96011905D01*
X67107145Y-95726190D01*
X67059526Y-95630952D01*
X67011907Y-95583333D01*
X66916669Y-95535714D01*
X66773811Y-95535714D01*
X66678573Y-95583333D01*
X66630954Y-95630952D01*
X66583335Y-95726190D01*
X66583335Y-96011905D01*
X66630954Y-96107143D01*
X66678573Y-96154762D01*
X66773811Y-96202381D01*
X66916669Y-96202381D01*
X66297621Y-95535714D02*
X65916669Y-95535714D01*
X66154764Y-95202381D02*
X66154764Y-96059524D01*
X66107145Y-96154762D01*
X66011907Y-96202381D01*
X65916669Y-96202381D01*
X64869049Y-96154762D02*
X64773811Y-96202381D01*
X64583335Y-96202381D01*
X64488096Y-96154762D01*
X64440477Y-96059524D01*
X64440477Y-96011905D01*
X64488096Y-95916667D01*
X64583335Y-95869048D01*
X64726192Y-95869048D01*
X64821430Y-95821429D01*
X64869049Y-95726190D01*
X64869049Y-95678571D01*
X64821430Y-95583333D01*
X64726192Y-95535714D01*
X64583335Y-95535714D01*
X64488096Y-95583333D01*
X64011906Y-96202381D02*
X64011906Y-95535714D01*
X64011906Y-95202381D02*
X64059525Y-95250000D01*
X64011906Y-95297619D01*
X63964287Y-95250000D01*
X64011906Y-95202381D01*
X64011906Y-95297619D01*
X63392859Y-96202381D02*
X63488097Y-96154762D01*
X63535716Y-96059524D01*
X63535716Y-95202381D01*
X63011906Y-96202381D02*
X63011906Y-95535714D01*
X63011906Y-95202381D02*
X63059525Y-95250000D01*
X63011906Y-95297619D01*
X62964287Y-95250000D01*
X63011906Y-95202381D01*
X63011906Y-95297619D01*
X62107144Y-96154762D02*
X62202382Y-96202381D01*
X62392859Y-96202381D01*
X62488097Y-96154762D01*
X62535716Y-96107143D01*
X62583335Y-96011905D01*
X62583335Y-95726190D01*
X62535716Y-95630952D01*
X62488097Y-95583333D01*
X62392859Y-95535714D01*
X62202382Y-95535714D01*
X62107144Y-95583333D01*
X61535716Y-96202381D02*
X61630954Y-96154762D01*
X61678573Y-96107143D01*
X61726192Y-96011905D01*
X61726192Y-95726190D01*
X61678573Y-95630952D01*
X61630954Y-95583333D01*
X61535716Y-95535714D01*
X61392858Y-95535714D01*
X61297620Y-95583333D01*
X61250001Y-95630952D01*
X61202382Y-95726190D01*
X61202382Y-96011905D01*
X61250001Y-96107143D01*
X61297620Y-96154762D01*
X61392858Y-96202381D01*
X61535716Y-96202381D01*
X60773811Y-95535714D02*
X60773811Y-96202381D01*
X60773811Y-95630952D02*
X60726192Y-95583333D01*
X60630954Y-95535714D01*
X60488096Y-95535714D01*
X60392858Y-95583333D01*
X60345239Y-95678571D01*
X60345239Y-96202381D01*
X59250001Y-95535714D02*
X58869049Y-95535714D01*
X59107144Y-96202381D02*
X59107144Y-95345238D01*
X59059525Y-95250000D01*
X58964287Y-95202381D01*
X58869049Y-95202381D01*
X58107143Y-95535714D02*
X58107143Y-96202381D01*
X58535715Y-95535714D02*
X58535715Y-96059524D01*
X58488096Y-96154762D01*
X58392858Y-96202381D01*
X58250000Y-96202381D01*
X58154762Y-96154762D01*
X58107143Y-96107143D01*
X57726191Y-95535714D02*
X57202381Y-95535714D01*
X57726191Y-96202381D01*
X57202381Y-96202381D01*
X56916667Y-95535714D02*
X56392857Y-95535714D01*
X56916667Y-96202381D01*
X56392857Y-96202381D01*
D12*
X155850000Y-45350000D02*
X155850000Y-103650000D01*
X123150000Y-103650000D02*
X123150000Y-45350000D01*
X155850000Y-103650000D02*
X123150000Y-103650000D01*
X148850000Y-45350000D02*
X155850000Y-45350000D01*
X148850000Y-38350000D02*
X148850000Y-45350000D01*
X123150000Y-45350000D02*
X130150000Y-45350000D01*
X130150000Y-38350000D02*
X148850000Y-38350000D01*
X130150000Y-45350000D02*
X130150000Y-38350000D01*
X36500000Y-103800000D02*
X36500000Y-45500000D01*
X69200000Y-103800000D02*
X36500000Y-103800000D01*
X69200000Y-45500000D02*
X69200000Y-103800000D01*
X62200000Y-45500000D02*
X69200000Y-45500000D01*
X62200000Y-38500000D02*
X62200000Y-45500000D01*
X43500000Y-38500000D02*
X62200000Y-38500000D01*
X43500000Y-45500000D02*
X43500000Y-38500000D01*
X36500000Y-45500000D02*
X43500000Y-45500000D01*
D13*
X129250000Y-55750000D03*
X127750000Y-55750000D03*
X140000000Y-61000000D03*
X138500000Y-61000000D03*
D14*
X134250000Y-57750000D03*
X134250000Y-59250000D03*
D13*
X125500000Y-59750000D03*
X127000000Y-59750000D03*
D15*
X140000000Y-70000000D03*
D16*
X140000000Y-67460000D03*
D17*
X64300000Y-73800000D03*
X57950000Y-73800000D03*
X51600000Y-85250000D03*
X51600000Y-73800000D03*
X64300000Y-85250000D03*
X57950000Y-85250000D03*
X41050000Y-101500000D03*
X47400000Y-101500000D03*
X53750000Y-90050000D03*
X53750000Y-101500000D03*
X41050000Y-90050000D03*
X47400000Y-90050000D03*
D18*
X66100000Y-59000000D03*
D19*
X60000000Y-59000000D03*
D18*
X63810000Y-53920000D03*
D15*
X67000000Y-68790000D03*
D16*
X67000000Y-66250000D03*
D15*
X132250000Y-43000000D03*
D16*
X132250000Y-40460000D03*
X134790000Y-43000000D03*
X134790000Y-40460000D03*
X137330000Y-43000000D03*
X137330000Y-40460000D03*
D20*
X140950000Y-75000000D03*
X139050000Y-75000000D03*
X140000000Y-73000000D03*
D21*
X150750000Y-59250000D03*
X149250000Y-59250000D03*
X150250000Y-72500000D03*
X151750000Y-72500000D03*
X127000000Y-57750000D03*
X125500000Y-57750000D03*
D22*
X136750000Y-61000000D03*
X136750000Y-62500000D03*
X134750000Y-61000000D03*
X134750000Y-62500000D03*
X131500000Y-55000000D03*
X131500000Y-53500000D03*
D21*
X130250000Y-66750000D03*
X128750000Y-66750000D03*
D22*
X129250000Y-59750000D03*
X129250000Y-58250000D03*
D23*
X140500000Y-62850000D03*
X140500000Y-64750000D03*
D24*
X147000000Y-62250000D03*
X149500000Y-62250000D03*
X152000000Y-62250000D03*
D17*
X144750000Y-54750000D03*
X154250000Y-54750000D03*
D24*
X147000000Y-75750000D03*
X149500000Y-75750000D03*
X152000000Y-75750000D03*
D17*
X144750000Y-68250000D03*
X154250000Y-68250000D03*
D24*
X127000000Y-62250000D03*
X129500000Y-62250000D03*
X132000000Y-62250000D03*
D17*
X124750000Y-54750000D03*
X134250000Y-54750000D03*
D24*
X127000000Y-75750000D03*
X129500000Y-75750000D03*
X132000000Y-75750000D03*
D17*
X124750000Y-68250000D03*
X134250000Y-68250000D03*
D25*
X58800000Y-40100000D03*
D26*
X58800000Y-44800000D03*
X58800000Y-49500000D03*
D25*
X51500000Y-49300000D03*
D26*
X46700000Y-49300000D03*
X51500000Y-44600000D03*
X46700000Y-44600000D03*
X51500000Y-39900000D03*
X46700000Y-39900000D03*
D15*
X141500000Y-41750000D03*
D16*
X144040000Y-41750000D03*
X146580000Y-41750000D03*
D27*
X55000000Y-52750000D03*
D28*
X55000000Y-54020000D03*
X55000000Y-55290000D03*
X55000000Y-56560000D03*
X55000000Y-57830000D03*
X55000000Y-59100000D03*
D27*
X51750000Y-52750000D03*
D28*
X51750000Y-54020000D03*
X51750000Y-55290000D03*
X51750000Y-56560000D03*
X51750000Y-57830000D03*
X51750000Y-59100000D03*
D27*
X141500000Y-52500000D03*
D28*
X141500000Y-53770000D03*
X141500000Y-55040000D03*
X141500000Y-56310000D03*
X141500000Y-57580000D03*
X141500000Y-58850000D03*
D27*
X138500000Y-52500000D03*
D28*
X138500000Y-53770000D03*
X138500000Y-55040000D03*
X138500000Y-56310000D03*
X138500000Y-57580000D03*
X138500000Y-58850000D03*
D29*
X41750000Y-78000000D03*
X42250000Y-80250000D03*
X65000000Y-48750000D03*
X48750000Y-55750000D03*
X46750000Y-71250000D03*
X45000000Y-51500000D03*
X58250000Y-54500000D03*
X39000000Y-84750000D03*
X61500000Y-65750000D03*
X40250000Y-47500000D03*
X138500000Y-64750000D03*
X145250000Y-90750000D03*
X126500000Y-83500000D03*
X135000000Y-83500000D03*
X152500000Y-48500000D03*
X143135140Y-58614860D03*
X141749994Y-61250000D03*
X126750000Y-49000000D03*
X139500000Y-44000000D03*
X153000000Y-95000000D03*
X125500000Y-81250000D03*
X153000000Y-87250000D03*
X139000000Y-77250000D03*
X136500000Y-66250000D03*
X129750000Y-77750000D03*
X125700003Y-63750000D03*
X150750000Y-77500000D03*
X134750000Y-93425000D03*
X135000000Y-88000000D03*
X136500000Y-51250000D03*
X124000000Y-63750000D03*
X132260150Y-47010144D03*
X139000000Y-47500000D03*
X135750006Y-64000000D03*
X130750000Y-49000000D03*
X136500000Y-57000000D03*
X135290732Y-48853398D03*
X42250000Y-86500000D03*
X46250000Y-79000000D03*
X46250000Y-76500000D03*
X54552347Y-60677346D03*
X132750000Y-48999990D03*
X133500000Y-63750000D03*
X136500000Y-58750000D03*
X136750008Y-53000000D03*
X137250000Y-49000000D03*
X143250000Y-56749996D03*
X142760140Y-73760140D03*
X143000000Y-64750000D03*
X153250000Y-63750000D03*
X62561982Y-64422522D03*
X56108682Y-62161612D03*
X142739860Y-75489860D03*
X144750000Y-77250000D03*
X141000000Y-77250000D03*
X67000000Y-64250000D03*
X150750000Y-63750000D03*
X142462412Y-63137236D03*
X130750000Y-63750000D03*
X132000000Y-77750000D03*
D30*
X125750000Y-99750000D02*
X124750000Y-100750000D01*
X124750000Y-100750000D02*
X124750000Y-102000000D01*
X128000000Y-102000000D02*
X130000000Y-102000000D01*
X124750000Y-102000000D02*
X126000000Y-102000000D01*
X127000000Y-101000000D02*
X128000000Y-102000000D01*
X130000000Y-102000000D02*
X130000000Y-99750000D01*
X126000000Y-102000000D02*
X127000000Y-101000000D01*
X124250000Y-102500000D02*
X130500000Y-102500000D01*
X124250000Y-96500000D02*
X124250000Y-102500000D01*
X130000000Y-99750000D02*
X127250000Y-97000000D01*
X130000000Y-98250000D02*
X128750000Y-97000000D01*
X130000000Y-99000000D02*
X128000000Y-97000000D01*
X130000000Y-97500000D02*
X129504010Y-97004010D01*
X130500000Y-96500000D02*
X124250000Y-96500000D01*
X127250000Y-97000000D02*
X125500000Y-97000000D01*
X130500000Y-102500000D02*
X130500000Y-96500000D01*
X125500000Y-97000000D02*
X124750000Y-97750000D01*
X124750000Y-97750000D02*
X124750000Y-98750000D01*
X124750000Y-98750000D02*
X125750000Y-99750000D01*
X62750000Y-102500000D02*
X64000000Y-102500000D01*
X62750000Y-101250000D02*
X62750000Y-102500000D01*
X63750000Y-100250000D02*
X62750000Y-101250000D01*
X64000000Y-102500000D02*
X65000000Y-101500000D01*
X62250000Y-103000000D02*
X68250000Y-103000000D01*
X68250000Y-97000000D02*
X62250000Y-97000000D01*
X68250000Y-103000000D02*
X68250000Y-97000000D01*
X62250000Y-97000000D02*
X62250000Y-103000000D01*
X63750000Y-100233960D02*
X63750000Y-100250000D01*
X67745990Y-98000000D02*
X67250000Y-97504010D01*
X67745990Y-98750000D02*
X66500000Y-97504010D01*
X67745990Y-99500000D02*
X65750000Y-97504010D01*
X67750000Y-102500000D02*
X67750000Y-100254010D01*
X66000000Y-102500000D02*
X67750000Y-102500000D01*
X65000000Y-101500000D02*
X66000000Y-102500000D01*
X67750000Y-100254010D02*
X65000000Y-97504010D01*
X62758020Y-99241980D02*
X63750000Y-100233960D01*
X65000000Y-97504010D02*
X63504010Y-97504010D01*
X63504010Y-97504010D02*
X62758020Y-98250000D01*
X62758020Y-98250000D02*
X62758020Y-99241980D01*
X58800000Y-40100000D02*
X58800000Y-41950000D01*
X58800000Y-41950000D02*
X58450010Y-42299990D01*
X53027335Y-68472665D02*
X52000000Y-69500000D01*
X58450010Y-42299990D02*
X56950010Y-42299990D01*
X53099980Y-46150020D02*
X53099980Y-59902300D01*
X42499999Y-77250001D02*
X41750000Y-78000000D01*
X56950010Y-42299990D02*
X53099980Y-46150020D01*
X53027335Y-59974945D02*
X53027335Y-68472665D01*
X53099980Y-59902300D02*
X53027335Y-59974945D01*
X52000000Y-69500000D02*
X50250000Y-69500000D01*
X50250000Y-69500000D02*
X42499999Y-77250001D01*
X58800000Y-49500000D02*
X60750000Y-47550000D01*
X60750000Y-47550000D02*
X60750000Y-44000000D01*
X52250000Y-70000000D02*
X50439340Y-70000000D01*
X60750000Y-44000000D02*
X59500000Y-42750000D01*
X50439340Y-70000000D02*
X43500000Y-76939340D01*
X59500000Y-42750000D02*
X57250000Y-42750000D01*
X57250000Y-42750000D02*
X53549991Y-46450009D01*
X53477346Y-60161345D02*
X53477346Y-68772654D01*
X53549991Y-46450009D02*
X53549991Y-60088700D01*
X53549991Y-60088700D02*
X53477346Y-60161345D01*
X53477346Y-68772654D02*
X52250000Y-70000000D01*
X43500000Y-76939340D02*
X43500000Y-79000000D01*
X43500000Y-79000000D02*
X42250000Y-80250000D01*
D31*
X39000000Y-84750000D02*
X39000000Y-88000000D01*
X39000000Y-88000000D02*
X41050000Y-90050000D01*
X65000000Y-48750000D02*
X66000000Y-48750000D01*
X45000000Y-51500000D02*
X48750000Y-55250000D01*
X48750000Y-55250000D02*
X48750000Y-55750000D01*
X40250000Y-47500000D02*
X40250000Y-64750000D01*
X39000000Y-79000000D02*
X46000001Y-71999999D01*
X40250000Y-64750000D02*
X46000001Y-70500001D01*
X39000000Y-84750000D02*
X39000000Y-79000000D01*
X46000001Y-70500001D02*
X46750000Y-71250000D01*
X46000001Y-71999999D02*
X46750000Y-71250000D01*
X55000000Y-54020000D02*
X57770000Y-54020000D01*
X57770000Y-54020000D02*
X58250000Y-54500000D01*
X60000000Y-59000000D02*
X60000000Y-56100000D01*
X60000000Y-56100000D02*
X58400000Y-54500000D01*
X58400000Y-54500000D02*
X58250000Y-54500000D01*
X61500000Y-65750000D02*
X61500000Y-70550000D01*
X61500000Y-70550000D02*
X64750000Y-73800000D01*
X67000000Y-59900000D02*
X66100000Y-59000000D01*
X55000000Y-52750000D02*
X62640000Y-52750000D01*
X62640000Y-52750000D02*
X63810000Y-53920000D01*
X138500000Y-64750000D02*
X139000000Y-64250000D01*
X139000000Y-64250000D02*
X139000000Y-63200000D01*
X139000000Y-63200000D02*
X139350000Y-62850000D01*
X139350000Y-62850000D02*
X140500000Y-62850000D01*
X140500000Y-62850000D02*
X140400000Y-62850000D01*
X142250000Y-95000000D02*
X145250000Y-92000000D01*
X145250000Y-92000000D02*
X145250000Y-90750000D01*
X134000000Y-95000000D02*
X142250000Y-95000000D01*
X133000000Y-94000000D02*
X134000000Y-95000000D01*
X133000000Y-83500000D02*
X126500000Y-83500000D01*
X135000000Y-83500000D02*
X133000000Y-83500000D01*
X133000000Y-83500000D02*
X133000000Y-94000000D01*
D30*
X143135140Y-58614860D02*
X143135140Y-59864854D01*
X143135140Y-59864854D02*
X141749994Y-61250000D01*
X142499993Y-60500001D02*
X141749994Y-61250000D01*
X143500000Y-47750000D02*
X139750000Y-44000000D01*
X139750000Y-44000000D02*
X139500000Y-44000000D01*
X143500000Y-52750000D02*
X143500000Y-47750000D01*
X142480000Y-53770000D02*
X143500000Y-52750000D01*
X141500000Y-53770000D02*
X142480000Y-53770000D01*
X153000000Y-87250000D02*
X153000000Y-95000000D01*
X129750000Y-77750000D02*
X126250000Y-81250000D01*
X126250000Y-81250000D02*
X125500000Y-81250000D01*
X128000000Y-68250000D02*
X125700003Y-65950003D01*
X125700003Y-65950003D02*
X125700003Y-63750000D01*
X131000000Y-68250000D02*
X128000000Y-68250000D01*
X133439340Y-65810660D02*
X131000000Y-68250000D01*
X135000000Y-65810660D02*
X135439340Y-66250000D01*
X134674994Y-65485654D02*
X135000000Y-65810660D01*
X135000000Y-65810660D02*
X133439340Y-65810660D01*
X134750000Y-62500000D02*
X134750000Y-63000000D01*
X134750000Y-63000000D02*
X134674994Y-63075006D01*
X134674994Y-63075006D02*
X134674994Y-65485654D01*
X135439340Y-66250000D02*
X136500000Y-66250000D01*
X153000000Y-87250000D02*
X135749999Y-87250001D01*
X135749999Y-87250001D02*
X135000000Y-88000000D01*
X139000000Y-77250000D02*
X139000000Y-84000000D01*
X139000000Y-84000000D02*
X135000000Y-88000000D01*
X139050000Y-75000000D02*
X139050000Y-77200000D01*
X139050000Y-77200000D02*
X139000000Y-77250000D01*
X127000000Y-75750000D02*
X129000000Y-77750000D01*
X129000000Y-77750000D02*
X129750000Y-77750000D01*
X125500000Y-59750000D02*
X125500000Y-63549997D01*
X125500000Y-63549997D02*
X125700003Y-63750000D01*
X134750000Y-62500000D02*
X136750000Y-62500000D01*
X125500000Y-57750000D02*
X125500000Y-59750000D01*
X134750000Y-93425000D02*
X134750000Y-88250000D01*
X134750000Y-88250000D02*
X135000000Y-88000000D01*
X153500000Y-73250000D02*
X152750000Y-72500000D01*
X152750000Y-72500000D02*
X151750000Y-72500000D01*
X153500000Y-76750000D02*
X153500000Y-73250000D01*
X152750000Y-77500000D02*
X153500000Y-76750000D01*
X150750000Y-77500000D02*
X152750000Y-77500000D01*
X147000000Y-75750000D02*
X148750000Y-77500000D01*
X148750000Y-77500000D02*
X150750000Y-77500000D01*
X136500000Y-51250000D02*
X134250000Y-51250000D01*
X134250000Y-51250000D02*
X132250000Y-51250000D01*
X134215731Y-48337397D02*
X134215731Y-51215731D01*
X134215731Y-51215731D02*
X134250000Y-51250000D01*
X134000000Y-51250000D02*
X132250000Y-51250000D01*
X132250000Y-51250000D02*
X129250000Y-54250000D01*
X129250000Y-54250000D02*
X129250000Y-55750000D01*
X135439340Y-51250000D02*
X136500000Y-51250000D01*
X134790000Y-43000000D02*
X134790000Y-47763128D01*
X134500000Y-51250000D02*
X135439340Y-51250000D01*
X134790000Y-47763128D02*
X134215731Y-48337397D01*
X129250000Y-55750000D02*
X129250000Y-58250000D01*
X124000000Y-63750000D02*
X124000000Y-57000000D01*
X124000000Y-57000000D02*
X124250000Y-56750000D01*
X124250000Y-56750000D02*
X126750000Y-56750000D01*
X126750000Y-56750000D02*
X127000000Y-57000000D01*
X127000000Y-57000000D02*
X127000000Y-57750000D01*
X128000000Y-57500000D02*
X127750000Y-57750000D01*
X127750000Y-57750000D02*
X127000000Y-57750000D01*
X128000000Y-56625000D02*
X128000000Y-57500000D01*
X127750000Y-55750000D02*
X127750000Y-56375000D01*
X127750000Y-56375000D02*
X128000000Y-56625000D01*
X132250000Y-43000000D02*
X132250000Y-46999994D01*
X132250000Y-46999994D02*
X132260150Y-47010144D01*
X140000000Y-50750000D02*
X140000000Y-55500000D01*
X139000000Y-47500000D02*
X139000000Y-49750000D01*
X139000000Y-49750000D02*
X140000000Y-50750000D01*
X140000000Y-55500000D02*
X140000000Y-61000000D01*
X132250000Y-40460000D02*
X130750000Y-41960000D01*
X130750000Y-41960000D02*
X130750000Y-45559000D01*
X130750000Y-45559000D02*
X131174999Y-45983999D01*
X131174999Y-45983999D02*
X131174999Y-48575001D01*
X131174999Y-48575001D02*
X130750000Y-49000000D01*
X138500000Y-62310666D02*
X136810666Y-64000000D01*
X138500000Y-61000000D02*
X138500000Y-62310666D01*
X136810666Y-64000000D02*
X135750006Y-64000000D01*
X136750000Y-61000000D02*
X138500000Y-61000000D01*
X135750001Y-57749999D02*
X136500000Y-57000000D01*
X134250000Y-57750000D02*
X135750001Y-57749999D01*
X135999999Y-41790001D02*
X135999999Y-43750000D01*
X135290732Y-47792738D02*
X135290732Y-48853398D01*
X135290732Y-44459267D02*
X135290732Y-47792738D01*
X137330000Y-40460000D02*
X135999999Y-41790001D01*
X135999999Y-43750000D02*
X135290732Y-44459267D01*
X138440000Y-56250000D02*
X138500000Y-56310000D01*
X131500000Y-55000000D02*
X131500000Y-56000000D01*
X131500000Y-56000000D02*
X133250000Y-57750000D01*
X133250000Y-57750000D02*
X134250000Y-57750000D01*
X131750000Y-56250000D02*
X133250000Y-57750000D01*
X134750000Y-60500000D02*
X134250000Y-60000000D01*
X134250000Y-60000000D02*
X134250000Y-59250000D01*
X134750000Y-61000000D02*
X134750000Y-60500000D01*
X127000000Y-62250000D02*
X127000000Y-64000000D01*
X128750000Y-66750000D02*
X128750000Y-65750000D01*
X128750000Y-65750000D02*
X127000000Y-64000000D01*
X127000000Y-59750000D02*
X127000000Y-62250000D01*
X127000000Y-59750000D02*
X129250000Y-59750000D01*
X52050000Y-85250000D02*
X43500000Y-85250000D01*
X43500000Y-85250000D02*
X42250000Y-86500000D01*
X53750000Y-90050000D02*
X53750000Y-87928680D01*
X53750000Y-87928680D02*
X54899999Y-86778681D01*
X54899999Y-86778681D02*
X54899999Y-84149999D01*
X46250000Y-79000000D02*
X46325001Y-79075001D01*
X46325001Y-79075001D02*
X49825001Y-79075001D01*
X49825001Y-79075001D02*
X54899999Y-84149999D01*
X58800000Y-44800000D02*
X55950000Y-44800000D01*
X55950000Y-44800000D02*
X54000000Y-46750000D01*
X55000000Y-55290000D02*
X54290000Y-55290000D01*
X54290000Y-55290000D02*
X54000000Y-55000000D01*
X54000000Y-55000000D02*
X54000000Y-46750000D01*
X51750000Y-52750000D02*
X51750000Y-49550000D01*
X51750000Y-49550000D02*
X51500000Y-49300000D01*
X46700000Y-49300000D02*
X44700000Y-49300000D01*
X44700000Y-49300000D02*
X43500000Y-50500000D01*
X49800020Y-58199980D02*
X50250000Y-57750000D01*
X50250000Y-57750000D02*
X50250000Y-57000000D01*
X43500000Y-50500000D02*
X43500000Y-53863590D01*
X43500000Y-53863590D02*
X47836390Y-58199980D01*
X47836390Y-58199980D02*
X49800020Y-58199980D01*
X50250000Y-57000000D02*
X50690000Y-56560000D01*
X50690000Y-56560000D02*
X51750000Y-56560000D01*
X51750000Y-54020000D02*
X50020000Y-54020000D01*
X49500000Y-46600000D02*
X51500000Y-44600000D01*
X50020000Y-54020000D02*
X49500000Y-53500000D01*
X49500000Y-53500000D02*
X49500000Y-46600000D01*
X51750000Y-57830000D02*
X50930009Y-58649991D01*
X50930009Y-58649991D02*
X47649990Y-58649991D01*
X47649990Y-58649991D02*
X43049989Y-54049990D01*
X43049989Y-54049990D02*
X43049989Y-50200011D01*
X43049989Y-50200011D02*
X46700000Y-46550000D01*
X46700000Y-46550000D02*
X46700000Y-44600000D01*
X51500000Y-39900000D02*
X49049990Y-42350010D01*
X49049990Y-42350010D02*
X49049991Y-53686401D01*
X51042894Y-55290000D02*
X51750000Y-55290000D01*
X49049991Y-53686401D02*
X50653590Y-55290000D01*
X50653590Y-55290000D02*
X51042894Y-55290000D01*
X51750000Y-59100000D02*
X47463589Y-59100000D01*
X47463589Y-59100000D02*
X42599978Y-54236390D01*
X42599978Y-54236390D02*
X42599978Y-49900022D01*
X46700000Y-41667766D02*
X46700000Y-39900000D01*
X42599978Y-49900022D02*
X44750000Y-47750000D01*
X44750000Y-47750000D02*
X44750000Y-43617766D01*
X44750000Y-43617766D02*
X46700000Y-41667766D01*
X56560000Y-56560000D02*
X57000000Y-57000000D01*
X57000000Y-57000000D02*
X57000000Y-59750000D01*
X55000000Y-56560000D02*
X56560000Y-56560000D01*
X57000000Y-59750000D02*
X54000001Y-62749999D01*
X54000001Y-62749999D02*
X54000001Y-68999999D01*
X52500000Y-70500000D02*
X50636410Y-70500000D01*
X54000001Y-68999999D02*
X52500000Y-70500000D01*
X50636410Y-70500000D02*
X46250000Y-74886410D01*
X46250000Y-74886410D02*
X46250000Y-76500000D01*
X55000000Y-60229693D02*
X54552347Y-60677346D01*
X55000000Y-59100000D02*
X55000000Y-60229693D01*
X134790000Y-40460000D02*
X133575002Y-41674998D01*
X133575002Y-41674998D02*
X133575002Y-48174988D01*
X133575002Y-48174988D02*
X133499999Y-48249991D01*
X133499999Y-48249991D02*
X132750000Y-48999990D01*
X130250000Y-66750000D02*
X130250000Y-66050000D01*
X130250000Y-66050000D02*
X132000000Y-64300000D01*
X132000000Y-64300000D02*
X132000000Y-63750000D01*
X132000000Y-62250000D02*
X132000000Y-63750000D01*
X133500000Y-63750000D02*
X132000000Y-63750000D01*
X136000009Y-52250001D02*
X136750008Y-53000000D01*
X136000007Y-52249999D02*
X136000009Y-52250001D01*
X132200000Y-53500000D02*
X133450001Y-52249999D01*
X133450001Y-52249999D02*
X136000007Y-52249999D01*
X131500000Y-53500000D02*
X132200000Y-53500000D01*
X136250000Y-45282081D02*
X136250000Y-48000000D01*
X136250000Y-48000000D02*
X137250000Y-49000000D01*
X137330000Y-43000000D02*
X137330000Y-44202081D01*
X137330000Y-44202081D02*
X136250000Y-45282081D01*
X142760140Y-73760140D02*
X142760140Y-72239860D01*
X144250000Y-63522821D02*
X144250000Y-57749996D01*
X142760140Y-72239860D02*
X144500000Y-70500000D01*
X144500000Y-70500000D02*
X145799989Y-70500000D01*
X145799989Y-70500000D02*
X146799989Y-69500000D01*
X146799989Y-69500000D02*
X146799989Y-66072810D01*
X146799989Y-66072810D02*
X144250000Y-63522821D01*
X144250000Y-57749996D02*
X143250000Y-56749996D01*
X142250001Y-65499999D02*
X143000000Y-64750000D01*
X142250001Y-70499999D02*
X142250001Y-65499999D01*
X140950000Y-71800000D02*
X142250001Y-70499999D01*
X140950000Y-75000000D02*
X140950000Y-71800000D01*
X153250000Y-63750000D02*
X153250000Y-63500000D01*
X153250000Y-63500000D02*
X152000000Y-62250000D01*
X150750000Y-59250000D02*
X150750000Y-61000000D01*
X150750000Y-61000000D02*
X152000000Y-62250000D01*
X62561982Y-64422522D02*
X61811983Y-63672523D01*
X61811983Y-63672523D02*
X56558933Y-63672523D01*
X56558933Y-63672523D02*
X56108682Y-63222272D01*
X56108682Y-62161612D02*
X56108682Y-63222272D01*
X56108682Y-63222272D02*
X56250000Y-63363590D01*
X150250000Y-71000000D02*
X150250000Y-71250000D01*
X148750000Y-69500000D02*
X150250000Y-71000000D01*
X148750000Y-65272792D02*
X148750000Y-69500000D01*
X147000000Y-62250000D02*
X147000000Y-63522792D01*
X147000000Y-63522792D02*
X148750000Y-65272792D01*
X150250000Y-71250000D02*
X150250000Y-72500000D01*
X149250000Y-59250000D02*
X149250000Y-60000000D01*
X149250000Y-60000000D02*
X147000000Y-62250000D01*
X150250000Y-72500000D02*
X150250000Y-73500000D01*
X150250000Y-73500000D02*
X149500000Y-74250000D01*
X149500000Y-74250000D02*
X149500000Y-75750000D01*
X152000000Y-75750000D02*
X149500000Y-75750000D01*
X142739860Y-75489860D02*
X143510140Y-75489860D01*
X143500000Y-44250000D02*
X142750000Y-43500000D01*
X144700011Y-59049989D02*
X147750000Y-56000000D01*
X143510140Y-75489860D02*
X144000000Y-75000000D01*
X147250000Y-65886410D02*
X144700011Y-63336421D01*
X144000000Y-75000000D02*
X144000000Y-71750000D01*
X142750000Y-43500000D02*
X142150000Y-43500000D01*
X147750000Y-49100000D02*
X143500000Y-44850000D01*
X144000000Y-71750000D02*
X144750000Y-71000000D01*
X144750000Y-71000000D02*
X145936399Y-71000000D01*
X143500000Y-44850000D02*
X143500000Y-44250000D01*
X145936399Y-71000000D02*
X147250000Y-69686399D01*
X141500000Y-42850000D02*
X141500000Y-41750000D01*
X147250000Y-69686399D02*
X147250000Y-65886410D01*
X144700011Y-63336421D02*
X144700011Y-59049989D01*
X147750000Y-56000000D02*
X147750000Y-49100000D01*
X142150000Y-43500000D02*
X141500000Y-42850000D01*
X144750000Y-77250000D02*
X144750000Y-75636410D01*
X144900020Y-72122800D02*
X145122802Y-71900018D01*
X144750000Y-75636410D02*
X144900020Y-75486390D01*
X148250000Y-69959219D02*
X148250000Y-65500000D01*
X145650022Y-59599978D02*
X148750000Y-56500000D01*
X144900020Y-75486390D02*
X144900020Y-72122800D01*
X145122802Y-71900018D02*
X146309201Y-71900018D01*
X146309201Y-71900018D02*
X148250000Y-69959219D01*
X148250000Y-65500000D02*
X145650022Y-62900022D01*
X145650022Y-62900022D02*
X145650022Y-59599978D01*
X148750000Y-56500000D02*
X148750000Y-48500000D01*
X144750000Y-44500000D02*
X144750000Y-43580000D01*
X148750000Y-48500000D02*
X144750000Y-44500000D01*
X144750000Y-43580000D02*
X146580000Y-41750000D01*
X141000000Y-77250000D02*
X142500000Y-77250000D01*
X142500000Y-77250000D02*
X144450010Y-75299990D01*
X144450010Y-75299990D02*
X144450010Y-71936400D01*
X144450010Y-71936400D02*
X144936400Y-71450010D01*
X144936400Y-71450010D02*
X146122800Y-71450009D01*
X146122800Y-71450009D02*
X147750000Y-69822809D01*
X147750000Y-69822809D02*
X147750000Y-65750000D01*
X145200011Y-63200011D02*
X145200011Y-59299989D01*
X145200011Y-59299989D02*
X148250000Y-56250000D01*
X148250000Y-56250000D02*
X148250000Y-48750000D01*
X147750000Y-65750000D02*
X145200011Y-63200011D01*
X148250000Y-48750000D02*
X144040000Y-44540000D01*
X144040000Y-44540000D02*
X144040000Y-41750000D01*
X67000000Y-66250000D02*
X67000000Y-64250000D01*
X149500000Y-62250000D02*
X149500000Y-62500000D01*
X149500000Y-62500000D02*
X150750000Y-63750000D01*
X151000000Y-63750000D02*
X149500000Y-62250000D01*
X140000000Y-70000000D02*
X140000000Y-73000000D01*
X140500000Y-65750000D02*
X140500000Y-64750000D01*
X140000000Y-66250000D02*
X140500000Y-65750000D01*
X140000000Y-67460000D02*
X140000000Y-66250000D01*
X141750000Y-65363590D02*
X141750000Y-63849648D01*
X141750000Y-63849648D02*
X142462412Y-63137236D01*
X141500000Y-67699002D02*
X141500000Y-65613590D01*
X141500000Y-65613590D02*
X141750000Y-65363590D01*
X140449002Y-68750000D02*
X141500000Y-67699002D01*
X136500000Y-68750000D02*
X140449002Y-68750000D01*
X129500000Y-75750000D02*
X136500000Y-68750000D01*
X130750000Y-63750000D02*
X130750000Y-63500000D01*
X130750000Y-63500000D02*
X129500000Y-62250000D01*
X132000000Y-75750000D02*
X132000000Y-77750000D01*
D32*
G36*
X43990000Y-47435198D02*
X42062577Y-49362621D01*
X41897830Y-49609183D01*
X41839978Y-49900022D01*
X41839978Y-54236390D01*
X41897830Y-54527229D01*
X42062577Y-54773791D01*
X46926188Y-59637401D01*
X47172750Y-59802148D01*
X47463589Y-59860000D01*
X50896756Y-59860000D01*
X50925198Y-59902566D01*
X51293418Y-60148603D01*
X51727764Y-60235000D01*
X51772236Y-60235000D01*
X52206582Y-60148603D01*
X52267335Y-60108009D01*
X52267335Y-68157863D01*
X51685198Y-68740000D01*
X50250000Y-68740000D01*
X49959161Y-68797852D01*
X49712599Y-68962599D01*
X42050200Y-76624998D01*
X42026702Y-76615241D01*
X41475715Y-76614760D01*
X40966485Y-76825169D01*
X40576539Y-77214436D01*
X40365241Y-77723298D01*
X40364760Y-78274285D01*
X40575169Y-78783515D01*
X40964436Y-79173461D01*
X41249462Y-79291814D01*
X41076539Y-79464436D01*
X40865241Y-79973298D01*
X40864760Y-80524285D01*
X41075169Y-81033515D01*
X41464436Y-81423461D01*
X41973298Y-81634759D01*
X42524285Y-81635240D01*
X43033515Y-81424831D01*
X43423461Y-81035564D01*
X43634759Y-80526702D01*
X43635240Y-79975715D01*
X43624670Y-79950132D01*
X44037401Y-79537401D01*
X44202148Y-79290839D01*
X44260000Y-79000000D01*
X44260000Y-77254142D01*
X44864869Y-76649273D01*
X44864760Y-76774285D01*
X45075169Y-77283515D01*
X45464436Y-77673461D01*
X45648586Y-77749927D01*
X45466485Y-77825169D01*
X45076539Y-78214436D01*
X44865241Y-78723298D01*
X44864760Y-79274285D01*
X45075169Y-79783515D01*
X45464436Y-80173461D01*
X45973298Y-80384759D01*
X46524285Y-80385240D01*
X47033515Y-80174831D01*
X47373938Y-79835001D01*
X49510199Y-79835001D01*
X54139999Y-84464801D01*
X54139999Y-86463879D01*
X53212599Y-87391279D01*
X53047852Y-87637841D01*
X52990000Y-87928680D01*
X52990000Y-88053952D01*
X52542200Y-88238980D01*
X51941091Y-88839041D01*
X51615372Y-89623459D01*
X51614630Y-90472815D01*
X51938980Y-91257800D01*
X52539041Y-91858909D01*
X53323459Y-92184628D01*
X54172815Y-92185370D01*
X54957800Y-91861020D01*
X55558909Y-91260959D01*
X55884628Y-90476541D01*
X55885370Y-89627185D01*
X55561020Y-88842200D01*
X54960959Y-88241091D01*
X54644003Y-88109479D01*
X55437400Y-87316082D01*
X55602147Y-87069521D01*
X55659999Y-86778681D01*
X55659999Y-85672815D01*
X55814630Y-85672815D01*
X56138980Y-86457800D01*
X56739041Y-87058909D01*
X57523459Y-87384628D01*
X58372815Y-87385370D01*
X59157800Y-87061020D01*
X59758909Y-86460959D01*
X59829329Y-86291369D01*
X60172637Y-86635278D01*
X60773352Y-86884716D01*
X61423795Y-86885284D01*
X61717396Y-86763970D01*
X62965635Y-86763970D01*
X63125418Y-87082739D01*
X63916187Y-87392723D01*
X64765387Y-87376497D01*
X65474582Y-87082739D01*
X65634365Y-86763970D01*
X64300000Y-85429605D01*
X62965635Y-86763970D01*
X61717396Y-86763970D01*
X62024943Y-86636894D01*
X62400086Y-86262406D01*
X62467261Y-86424582D01*
X62786030Y-86584365D01*
X64120395Y-85250000D01*
X64479605Y-85250000D01*
X65813970Y-86584365D01*
X66132739Y-86424582D01*
X66442723Y-85633813D01*
X66426497Y-84784613D01*
X66132739Y-84075418D01*
X65813970Y-83915635D01*
X64479605Y-85250000D01*
X64120395Y-85250000D01*
X62786030Y-83915635D01*
X62467261Y-84075418D01*
X62402530Y-84240546D01*
X62027363Y-83864722D01*
X61717438Y-83736030D01*
X62965635Y-83736030D01*
X64300000Y-85070395D01*
X65634365Y-83736030D01*
X65474582Y-83417261D01*
X64683813Y-83107277D01*
X63834613Y-83123503D01*
X63125418Y-83417261D01*
X62965635Y-83736030D01*
X61717438Y-83736030D01*
X61426648Y-83615284D01*
X60776205Y-83614716D01*
X60175057Y-83863106D01*
X59829537Y-84208023D01*
X59761020Y-84042200D01*
X59160959Y-83441091D01*
X58376541Y-83115372D01*
X57527185Y-83114630D01*
X56742200Y-83438980D01*
X56141091Y-84039041D01*
X55815372Y-84823459D01*
X55814630Y-85672815D01*
X55659999Y-85672815D01*
X55659999Y-84149999D01*
X55602147Y-83859160D01*
X55437400Y-83612598D01*
X50362402Y-78537600D01*
X50115840Y-78372853D01*
X49825001Y-78315001D01*
X47465537Y-78315001D01*
X47424831Y-78216485D01*
X47035564Y-77826539D01*
X46851414Y-77750073D01*
X47033515Y-77674831D01*
X47423461Y-77285564D01*
X47634759Y-76776702D01*
X47635240Y-76225715D01*
X47424831Y-75716485D01*
X47035564Y-75326539D01*
X47010000Y-75315924D01*
X47010000Y-75201212D01*
X47988397Y-74222815D01*
X49464630Y-74222815D01*
X49788980Y-75007800D01*
X50389041Y-75608909D01*
X51173459Y-75934628D01*
X52022815Y-75935370D01*
X52615182Y-75690608D01*
X52614630Y-76322815D01*
X52938980Y-77107800D01*
X53539041Y-77708909D01*
X54323459Y-78034628D01*
X55172815Y-78035370D01*
X55957800Y-77711020D01*
X56558909Y-77110959D01*
X56884628Y-76326541D01*
X56885202Y-75669600D01*
X57523459Y-75934628D01*
X58372815Y-75935370D01*
X59157800Y-75611020D01*
X59758909Y-75010959D01*
X59829329Y-74841369D01*
X60172637Y-75185278D01*
X60773352Y-75434716D01*
X61423795Y-75435284D01*
X61717396Y-75313970D01*
X62965635Y-75313970D01*
X63125418Y-75632739D01*
X63916187Y-75942723D01*
X64765387Y-75926497D01*
X65474582Y-75632739D01*
X65634365Y-75313970D01*
X64300000Y-73979605D01*
X62965635Y-75313970D01*
X61717396Y-75313970D01*
X62024943Y-75186894D01*
X62400086Y-74812406D01*
X62467261Y-74974582D01*
X62786030Y-75134365D01*
X64120395Y-73800000D01*
X64479605Y-73800000D01*
X65813970Y-75134365D01*
X66132739Y-74974582D01*
X66442723Y-74183813D01*
X66426497Y-73334613D01*
X66132739Y-72625418D01*
X65813970Y-72465635D01*
X64479605Y-73800000D01*
X64120395Y-73800000D01*
X62786030Y-72465635D01*
X62467261Y-72625418D01*
X62402530Y-72790546D01*
X62027363Y-72414722D01*
X61717438Y-72286030D01*
X62965635Y-72286030D01*
X64300000Y-73620395D01*
X65634365Y-72286030D01*
X65474582Y-71967261D01*
X64683813Y-71657277D01*
X63834613Y-71673503D01*
X63125418Y-71967261D01*
X62965635Y-72286030D01*
X61717438Y-72286030D01*
X61426648Y-72165284D01*
X60776205Y-72164716D01*
X60175057Y-72413106D01*
X59829537Y-72758023D01*
X59761020Y-72592200D01*
X59160959Y-71991091D01*
X58376541Y-71665372D01*
X57527185Y-71664630D01*
X56742200Y-71988980D01*
X56141091Y-72589041D01*
X55815372Y-73373459D01*
X55814798Y-74030400D01*
X55176541Y-73765372D01*
X54327185Y-73764630D01*
X53734818Y-74009392D01*
X53735370Y-73377185D01*
X53411020Y-72592200D01*
X52810959Y-71991091D01*
X52026541Y-71665372D01*
X51177185Y-71664630D01*
X50392200Y-71988980D01*
X49791091Y-72589041D01*
X49465372Y-73373459D01*
X49464630Y-74222815D01*
X47988397Y-74222815D01*
X50951212Y-71260000D01*
X52500000Y-71260000D01*
X52790839Y-71202148D01*
X53037401Y-71037401D01*
X54537402Y-69537400D01*
X54702149Y-69290838D01*
X54760001Y-68999999D01*
X54760001Y-63064801D01*
X54918011Y-62906791D01*
X54933851Y-62945127D01*
X55323118Y-63335073D01*
X55375441Y-63356800D01*
X55406534Y-63513111D01*
X55571281Y-63759673D01*
X56021532Y-64209924D01*
X56268094Y-64374671D01*
X56558933Y-64432523D01*
X61176973Y-64432523D01*
X61176742Y-64696807D01*
X61387151Y-65206037D01*
X61776418Y-65595983D01*
X62285280Y-65807281D01*
X62836267Y-65807762D01*
X63345497Y-65597353D01*
X63735443Y-65208086D01*
X63946741Y-64699224D01*
X63947222Y-64148237D01*
X63736813Y-63639007D01*
X63347546Y-63249061D01*
X62838684Y-63037763D01*
X62287697Y-63037282D01*
X62235335Y-63058917D01*
X62102822Y-62970375D01*
X61811983Y-62912523D01*
X57296532Y-62912523D01*
X57493441Y-62438314D01*
X57493793Y-62035000D01*
X59714250Y-62035000D01*
X59873000Y-61876250D01*
X59873000Y-59127000D01*
X60127000Y-59127000D01*
X60127000Y-61876250D01*
X60285750Y-62035000D01*
X62526309Y-62035000D01*
X62759698Y-61938327D01*
X62938327Y-61759699D01*
X63035000Y-61526310D01*
X63035000Y-59285750D01*
X62876250Y-59127000D01*
X60127000Y-59127000D01*
X59873000Y-59127000D01*
X59853000Y-59127000D01*
X59853000Y-58873000D01*
X59873000Y-58873000D01*
X59873000Y-56123750D01*
X59714250Y-55965000D01*
X57473691Y-55965000D01*
X57240302Y-56061673D01*
X57188388Y-56113586D01*
X57097401Y-56022599D01*
X56850839Y-55857852D01*
X56560000Y-55800000D01*
X56020289Y-55800000D01*
X56070839Y-55724346D01*
X56157236Y-55290000D01*
X56070839Y-54855654D01*
X55930549Y-54645696D01*
X55987127Y-54580209D01*
X56094119Y-54321874D01*
X55967954Y-54147000D01*
X55127000Y-54147000D01*
X55127000Y-54167000D01*
X55082564Y-54167000D01*
X55022236Y-54155000D01*
X54977764Y-54155000D01*
X54917436Y-54167000D01*
X54873000Y-54167000D01*
X54873000Y-54147000D01*
X54853000Y-54147000D01*
X54853000Y-53897440D01*
X55500000Y-53897440D01*
X55523597Y-53893000D01*
X55967954Y-53893000D01*
X56094119Y-53718126D01*
X56059692Y-53635000D01*
X60775247Y-53635000D01*
X60774474Y-54521050D01*
X61235552Y-55636943D01*
X61563037Y-55965000D01*
X60285750Y-55965000D01*
X60127000Y-56123750D01*
X60127000Y-58873000D01*
X62876250Y-58873000D01*
X63035000Y-58714250D01*
X63035000Y-56884441D01*
X63203653Y-56954472D01*
X63852646Y-56955039D01*
X63528553Y-57278566D01*
X63065528Y-58393653D01*
X63064474Y-59601050D01*
X63525552Y-60716943D01*
X64378566Y-61571447D01*
X65493653Y-62034472D01*
X66701050Y-62035526D01*
X67816943Y-61574448D01*
X68490000Y-60902565D01*
X68490000Y-66128876D01*
X68401054Y-65681715D01*
X68079147Y-65199946D01*
X68037002Y-65171786D01*
X68173461Y-65035564D01*
X68384759Y-64526702D01*
X68385240Y-63975715D01*
X68174831Y-63466485D01*
X67785564Y-63076539D01*
X67276702Y-62865241D01*
X66725715Y-62864760D01*
X66216485Y-63075169D01*
X65826539Y-63464436D01*
X65615241Y-63973298D01*
X65614760Y-64524285D01*
X65825169Y-65033515D01*
X65963119Y-65171705D01*
X65920853Y-65199946D01*
X65598946Y-65681715D01*
X65485907Y-66250000D01*
X65598946Y-66818285D01*
X65920853Y-67300054D01*
X65962452Y-67327850D01*
X65914683Y-67336838D01*
X65698559Y-67475910D01*
X65553569Y-67688110D01*
X65502560Y-67940000D01*
X65502560Y-69640000D01*
X65546838Y-69875317D01*
X65685910Y-70091441D01*
X65898110Y-70236431D01*
X66150000Y-70287440D01*
X67850000Y-70287440D01*
X68085317Y-70243162D01*
X68301441Y-70104090D01*
X68446431Y-69891890D01*
X68490000Y-69676740D01*
X68490000Y-92815000D01*
X56615000Y-92815000D01*
X56615000Y-94315000D01*
X55615000Y-94315000D01*
X55615000Y-97285000D01*
X57865000Y-97285000D01*
X57865000Y-99035000D01*
X61490000Y-99035000D01*
X61490000Y-103000000D01*
X61507902Y-103090000D01*
X55179206Y-103090000D01*
X55558909Y-102710959D01*
X55884628Y-101926541D01*
X55885370Y-101077185D01*
X55561020Y-100292200D01*
X54960959Y-99691091D01*
X54176541Y-99365372D01*
X53327185Y-99364630D01*
X52734818Y-99609392D01*
X52735370Y-98977185D01*
X52411020Y-98192200D01*
X51810959Y-97591091D01*
X51026541Y-97265372D01*
X50177185Y-97264630D01*
X49392200Y-97588980D01*
X48791091Y-98189041D01*
X48465372Y-98973459D01*
X48464798Y-99630400D01*
X47826541Y-99365372D01*
X46977185Y-99364630D01*
X46192200Y-99688980D01*
X45591091Y-100289041D01*
X45520671Y-100458631D01*
X45177363Y-100114722D01*
X44576648Y-99865284D01*
X43926205Y-99864716D01*
X43325057Y-100113106D01*
X42949914Y-100487594D01*
X42882739Y-100325418D01*
X42563970Y-100165635D01*
X41229605Y-101500000D01*
X42563970Y-102834365D01*
X42882739Y-102674582D01*
X42947470Y-102509454D01*
X43322637Y-102885278D01*
X43815664Y-103090000D01*
X42346255Y-103090000D01*
X42384365Y-103013970D01*
X41050000Y-101679605D01*
X39715635Y-103013970D01*
X39753745Y-103090000D01*
X37210000Y-103090000D01*
X37210000Y-101116187D01*
X38907277Y-101116187D01*
X38923503Y-101965387D01*
X39217261Y-102674582D01*
X39536030Y-102834365D01*
X40870395Y-101500000D01*
X39536030Y-100165635D01*
X39217261Y-100325418D01*
X38907277Y-101116187D01*
X37210000Y-101116187D01*
X37210000Y-99986030D01*
X39715635Y-99986030D01*
X41050000Y-101320395D01*
X42384365Y-99986030D01*
X42224582Y-99667261D01*
X41433813Y-99357277D01*
X40584613Y-99373503D01*
X39875418Y-99667261D01*
X39715635Y-99986030D01*
X37210000Y-99986030D01*
X37210000Y-91563970D01*
X39715635Y-91563970D01*
X39875418Y-91882739D01*
X40666187Y-92192723D01*
X41515387Y-92176497D01*
X42224582Y-91882739D01*
X42384365Y-91563970D01*
X41050000Y-90229605D01*
X39715635Y-91563970D01*
X37210000Y-91563970D01*
X37210000Y-89666187D01*
X38907277Y-89666187D01*
X38923503Y-90515387D01*
X39217261Y-91224582D01*
X39536030Y-91384365D01*
X40870395Y-90050000D01*
X41229605Y-90050000D01*
X42563970Y-91384365D01*
X42882739Y-91224582D01*
X42947470Y-91059454D01*
X43322637Y-91435278D01*
X43923352Y-91684716D01*
X44573795Y-91685284D01*
X45174943Y-91436894D01*
X45520463Y-91091977D01*
X45588980Y-91257800D01*
X46189041Y-91858909D01*
X46973459Y-92184628D01*
X47822815Y-92185370D01*
X48607800Y-91861020D01*
X49208909Y-91260959D01*
X49534628Y-90476541D01*
X49535370Y-89627185D01*
X49211020Y-88842200D01*
X48610959Y-88241091D01*
X47826541Y-87915372D01*
X46977185Y-87914630D01*
X46192200Y-88238980D01*
X45591091Y-88839041D01*
X45520671Y-89008631D01*
X45177363Y-88664722D01*
X44576648Y-88415284D01*
X43926205Y-88414716D01*
X43325057Y-88663106D01*
X42949914Y-89037594D01*
X42882739Y-88875418D01*
X42563970Y-88715635D01*
X41229605Y-90050000D01*
X40870395Y-90050000D01*
X39536030Y-88715635D01*
X39217261Y-88875418D01*
X38907277Y-89666187D01*
X37210000Y-89666187D01*
X37210000Y-88536030D01*
X39715635Y-88536030D01*
X41050000Y-89870395D01*
X42384365Y-88536030D01*
X42224582Y-88217261D01*
X41433813Y-87907277D01*
X40584613Y-87923503D01*
X39875418Y-88217261D01*
X39715635Y-88536030D01*
X37210000Y-88536030D01*
X37210000Y-86774285D01*
X40864760Y-86774285D01*
X41075169Y-87283515D01*
X41464436Y-87673461D01*
X41973298Y-87884759D01*
X42524285Y-87885240D01*
X43033515Y-87674831D01*
X43423461Y-87285564D01*
X43634759Y-86776702D01*
X43635240Y-86225715D01*
X43624670Y-86200132D01*
X43814802Y-86010000D01*
X49603952Y-86010000D01*
X49788980Y-86457800D01*
X50389041Y-87058909D01*
X51173459Y-87384628D01*
X52022815Y-87385370D01*
X52807800Y-87061020D01*
X53408909Y-86460959D01*
X53734628Y-85676541D01*
X53735370Y-84827185D01*
X53411020Y-84042200D01*
X52810959Y-83441091D01*
X52026541Y-83115372D01*
X51177185Y-83114630D01*
X50392200Y-83438980D01*
X49791091Y-84039041D01*
X49603836Y-84490000D01*
X43500000Y-84490000D01*
X43209161Y-84547852D01*
X42962599Y-84712599D01*
X42550200Y-85124998D01*
X42526702Y-85115241D01*
X41975715Y-85114760D01*
X41466485Y-85325169D01*
X41076539Y-85714436D01*
X40865241Y-86223298D01*
X40864760Y-86774285D01*
X37210000Y-86774285D01*
X37210000Y-46210000D01*
X43500000Y-46210000D01*
X43771705Y-46155954D01*
X43990000Y-46010095D01*
X43990000Y-47435198D01*
X43990000Y-47435198D01*
G37*
X43990000Y-47435198D02*
X42062577Y-49362621D01*
X41897830Y-49609183D01*
X41839978Y-49900022D01*
X41839978Y-54236390D01*
X41897830Y-54527229D01*
X42062577Y-54773791D01*
X46926188Y-59637401D01*
X47172750Y-59802148D01*
X47463589Y-59860000D01*
X50896756Y-59860000D01*
X50925198Y-59902566D01*
X51293418Y-60148603D01*
X51727764Y-60235000D01*
X51772236Y-60235000D01*
X52206582Y-60148603D01*
X52267335Y-60108009D01*
X52267335Y-68157863D01*
X51685198Y-68740000D01*
X50250000Y-68740000D01*
X49959161Y-68797852D01*
X49712599Y-68962599D01*
X42050200Y-76624998D01*
X42026702Y-76615241D01*
X41475715Y-76614760D01*
X40966485Y-76825169D01*
X40576539Y-77214436D01*
X40365241Y-77723298D01*
X40364760Y-78274285D01*
X40575169Y-78783515D01*
X40964436Y-79173461D01*
X41249462Y-79291814D01*
X41076539Y-79464436D01*
X40865241Y-79973298D01*
X40864760Y-80524285D01*
X41075169Y-81033515D01*
X41464436Y-81423461D01*
X41973298Y-81634759D01*
X42524285Y-81635240D01*
X43033515Y-81424831D01*
X43423461Y-81035564D01*
X43634759Y-80526702D01*
X43635240Y-79975715D01*
X43624670Y-79950132D01*
X44037401Y-79537401D01*
X44202148Y-79290839D01*
X44260000Y-79000000D01*
X44260000Y-77254142D01*
X44864869Y-76649273D01*
X44864760Y-76774285D01*
X45075169Y-77283515D01*
X45464436Y-77673461D01*
X45648586Y-77749927D01*
X45466485Y-77825169D01*
X45076539Y-78214436D01*
X44865241Y-78723298D01*
X44864760Y-79274285D01*
X45075169Y-79783515D01*
X45464436Y-80173461D01*
X45973298Y-80384759D01*
X46524285Y-80385240D01*
X47033515Y-80174831D01*
X47373938Y-79835001D01*
X49510199Y-79835001D01*
X54139999Y-84464801D01*
X54139999Y-86463879D01*
X53212599Y-87391279D01*
X53047852Y-87637841D01*
X52990000Y-87928680D01*
X52990000Y-88053952D01*
X52542200Y-88238980D01*
X51941091Y-88839041D01*
X51615372Y-89623459D01*
X51614630Y-90472815D01*
X51938980Y-91257800D01*
X52539041Y-91858909D01*
X53323459Y-92184628D01*
X54172815Y-92185370D01*
X54957800Y-91861020D01*
X55558909Y-91260959D01*
X55884628Y-90476541D01*
X55885370Y-89627185D01*
X55561020Y-88842200D01*
X54960959Y-88241091D01*
X54644003Y-88109479D01*
X55437400Y-87316082D01*
X55602147Y-87069521D01*
X55659999Y-86778681D01*
X55659999Y-85672815D01*
X55814630Y-85672815D01*
X56138980Y-86457800D01*
X56739041Y-87058909D01*
X57523459Y-87384628D01*
X58372815Y-87385370D01*
X59157800Y-87061020D01*
X59758909Y-86460959D01*
X59829329Y-86291369D01*
X60172637Y-86635278D01*
X60773352Y-86884716D01*
X61423795Y-86885284D01*
X61717396Y-86763970D01*
X62965635Y-86763970D01*
X63125418Y-87082739D01*
X63916187Y-87392723D01*
X64765387Y-87376497D01*
X65474582Y-87082739D01*
X65634365Y-86763970D01*
X64300000Y-85429605D01*
X62965635Y-86763970D01*
X61717396Y-86763970D01*
X62024943Y-86636894D01*
X62400086Y-86262406D01*
X62467261Y-86424582D01*
X62786030Y-86584365D01*
X64120395Y-85250000D01*
X64479605Y-85250000D01*
X65813970Y-86584365D01*
X66132739Y-86424582D01*
X66442723Y-85633813D01*
X66426497Y-84784613D01*
X66132739Y-84075418D01*
X65813970Y-83915635D01*
X64479605Y-85250000D01*
X64120395Y-85250000D01*
X62786030Y-83915635D01*
X62467261Y-84075418D01*
X62402530Y-84240546D01*
X62027363Y-83864722D01*
X61717438Y-83736030D01*
X62965635Y-83736030D01*
X64300000Y-85070395D01*
X65634365Y-83736030D01*
X65474582Y-83417261D01*
X64683813Y-83107277D01*
X63834613Y-83123503D01*
X63125418Y-83417261D01*
X62965635Y-83736030D01*
X61717438Y-83736030D01*
X61426648Y-83615284D01*
X60776205Y-83614716D01*
X60175057Y-83863106D01*
X59829537Y-84208023D01*
X59761020Y-84042200D01*
X59160959Y-83441091D01*
X58376541Y-83115372D01*
X57527185Y-83114630D01*
X56742200Y-83438980D01*
X56141091Y-84039041D01*
X55815372Y-84823459D01*
X55814630Y-85672815D01*
X55659999Y-85672815D01*
X55659999Y-84149999D01*
X55602147Y-83859160D01*
X55437400Y-83612598D01*
X50362402Y-78537600D01*
X50115840Y-78372853D01*
X49825001Y-78315001D01*
X47465537Y-78315001D01*
X47424831Y-78216485D01*
X47035564Y-77826539D01*
X46851414Y-77750073D01*
X47033515Y-77674831D01*
X47423461Y-77285564D01*
X47634759Y-76776702D01*
X47635240Y-76225715D01*
X47424831Y-75716485D01*
X47035564Y-75326539D01*
X47010000Y-75315924D01*
X47010000Y-75201212D01*
X47988397Y-74222815D01*
X49464630Y-74222815D01*
X49788980Y-75007800D01*
X50389041Y-75608909D01*
X51173459Y-75934628D01*
X52022815Y-75935370D01*
X52615182Y-75690608D01*
X52614630Y-76322815D01*
X52938980Y-77107800D01*
X53539041Y-77708909D01*
X54323459Y-78034628D01*
X55172815Y-78035370D01*
X55957800Y-77711020D01*
X56558909Y-77110959D01*
X56884628Y-76326541D01*
X56885202Y-75669600D01*
X57523459Y-75934628D01*
X58372815Y-75935370D01*
X59157800Y-75611020D01*
X59758909Y-75010959D01*
X59829329Y-74841369D01*
X60172637Y-75185278D01*
X60773352Y-75434716D01*
X61423795Y-75435284D01*
X61717396Y-75313970D01*
X62965635Y-75313970D01*
X63125418Y-75632739D01*
X63916187Y-75942723D01*
X64765387Y-75926497D01*
X65474582Y-75632739D01*
X65634365Y-75313970D01*
X64300000Y-73979605D01*
X62965635Y-75313970D01*
X61717396Y-75313970D01*
X62024943Y-75186894D01*
X62400086Y-74812406D01*
X62467261Y-74974582D01*
X62786030Y-75134365D01*
X64120395Y-73800000D01*
X64479605Y-73800000D01*
X65813970Y-75134365D01*
X66132739Y-74974582D01*
X66442723Y-74183813D01*
X66426497Y-73334613D01*
X66132739Y-72625418D01*
X65813970Y-72465635D01*
X64479605Y-73800000D01*
X64120395Y-73800000D01*
X62786030Y-72465635D01*
X62467261Y-72625418D01*
X62402530Y-72790546D01*
X62027363Y-72414722D01*
X61717438Y-72286030D01*
X62965635Y-72286030D01*
X64300000Y-73620395D01*
X65634365Y-72286030D01*
X65474582Y-71967261D01*
X64683813Y-71657277D01*
X63834613Y-71673503D01*
X63125418Y-71967261D01*
X62965635Y-72286030D01*
X61717438Y-72286030D01*
X61426648Y-72165284D01*
X60776205Y-72164716D01*
X60175057Y-72413106D01*
X59829537Y-72758023D01*
X59761020Y-72592200D01*
X59160959Y-71991091D01*
X58376541Y-71665372D01*
X57527185Y-71664630D01*
X56742200Y-71988980D01*
X56141091Y-72589041D01*
X55815372Y-73373459D01*
X55814798Y-74030400D01*
X55176541Y-73765372D01*
X54327185Y-73764630D01*
X53734818Y-74009392D01*
X53735370Y-73377185D01*
X53411020Y-72592200D01*
X52810959Y-71991091D01*
X52026541Y-71665372D01*
X51177185Y-71664630D01*
X50392200Y-71988980D01*
X49791091Y-72589041D01*
X49465372Y-73373459D01*
X49464630Y-74222815D01*
X47988397Y-74222815D01*
X50951212Y-71260000D01*
X52500000Y-71260000D01*
X52790839Y-71202148D01*
X53037401Y-71037401D01*
X54537402Y-69537400D01*
X54702149Y-69290838D01*
X54760001Y-68999999D01*
X54760001Y-63064801D01*
X54918011Y-62906791D01*
X54933851Y-62945127D01*
X55323118Y-63335073D01*
X55375441Y-63356800D01*
X55406534Y-63513111D01*
X55571281Y-63759673D01*
X56021532Y-64209924D01*
X56268094Y-64374671D01*
X56558933Y-64432523D01*
X61176973Y-64432523D01*
X61176742Y-64696807D01*
X61387151Y-65206037D01*
X61776418Y-65595983D01*
X62285280Y-65807281D01*
X62836267Y-65807762D01*
X63345497Y-65597353D01*
X63735443Y-65208086D01*
X63946741Y-64699224D01*
X63947222Y-64148237D01*
X63736813Y-63639007D01*
X63347546Y-63249061D01*
X62838684Y-63037763D01*
X62287697Y-63037282D01*
X62235335Y-63058917D01*
X62102822Y-62970375D01*
X61811983Y-62912523D01*
X57296532Y-62912523D01*
X57493441Y-62438314D01*
X57493793Y-62035000D01*
X59714250Y-62035000D01*
X59873000Y-61876250D01*
X59873000Y-59127000D01*
X60127000Y-59127000D01*
X60127000Y-61876250D01*
X60285750Y-62035000D01*
X62526309Y-62035000D01*
X62759698Y-61938327D01*
X62938327Y-61759699D01*
X63035000Y-61526310D01*
X63035000Y-59285750D01*
X62876250Y-59127000D01*
X60127000Y-59127000D01*
X59873000Y-59127000D01*
X59853000Y-59127000D01*
X59853000Y-58873000D01*
X59873000Y-58873000D01*
X59873000Y-56123750D01*
X59714250Y-55965000D01*
X57473691Y-55965000D01*
X57240302Y-56061673D01*
X57188388Y-56113586D01*
X57097401Y-56022599D01*
X56850839Y-55857852D01*
X56560000Y-55800000D01*
X56020289Y-55800000D01*
X56070839Y-55724346D01*
X56157236Y-55290000D01*
X56070839Y-54855654D01*
X55930549Y-54645696D01*
X55987127Y-54580209D01*
X56094119Y-54321874D01*
X55967954Y-54147000D01*
X55127000Y-54147000D01*
X55127000Y-54167000D01*
X55082564Y-54167000D01*
X55022236Y-54155000D01*
X54977764Y-54155000D01*
X54917436Y-54167000D01*
X54873000Y-54167000D01*
X54873000Y-54147000D01*
X54853000Y-54147000D01*
X54853000Y-53897440D01*
X55500000Y-53897440D01*
X55523597Y-53893000D01*
X55967954Y-53893000D01*
X56094119Y-53718126D01*
X56059692Y-53635000D01*
X60775247Y-53635000D01*
X60774474Y-54521050D01*
X61235552Y-55636943D01*
X61563037Y-55965000D01*
X60285750Y-55965000D01*
X60127000Y-56123750D01*
X60127000Y-58873000D01*
X62876250Y-58873000D01*
X63035000Y-58714250D01*
X63035000Y-56884441D01*
X63203653Y-56954472D01*
X63852646Y-56955039D01*
X63528553Y-57278566D01*
X63065528Y-58393653D01*
X63064474Y-59601050D01*
X63525552Y-60716943D01*
X64378566Y-61571447D01*
X65493653Y-62034472D01*
X66701050Y-62035526D01*
X67816943Y-61574448D01*
X68490000Y-60902565D01*
X68490000Y-66128876D01*
X68401054Y-65681715D01*
X68079147Y-65199946D01*
X68037002Y-65171786D01*
X68173461Y-65035564D01*
X68384759Y-64526702D01*
X68385240Y-63975715D01*
X68174831Y-63466485D01*
X67785564Y-63076539D01*
X67276702Y-62865241D01*
X66725715Y-62864760D01*
X66216485Y-63075169D01*
X65826539Y-63464436D01*
X65615241Y-63973298D01*
X65614760Y-64524285D01*
X65825169Y-65033515D01*
X65963119Y-65171705D01*
X65920853Y-65199946D01*
X65598946Y-65681715D01*
X65485907Y-66250000D01*
X65598946Y-66818285D01*
X65920853Y-67300054D01*
X65962452Y-67327850D01*
X65914683Y-67336838D01*
X65698559Y-67475910D01*
X65553569Y-67688110D01*
X65502560Y-67940000D01*
X65502560Y-69640000D01*
X65546838Y-69875317D01*
X65685910Y-70091441D01*
X65898110Y-70236431D01*
X66150000Y-70287440D01*
X67850000Y-70287440D01*
X68085317Y-70243162D01*
X68301441Y-70104090D01*
X68446431Y-69891890D01*
X68490000Y-69676740D01*
X68490000Y-92815000D01*
X56615000Y-92815000D01*
X56615000Y-94315000D01*
X55615000Y-94315000D01*
X55615000Y-97285000D01*
X57865000Y-97285000D01*
X57865000Y-99035000D01*
X61490000Y-99035000D01*
X61490000Y-103000000D01*
X61507902Y-103090000D01*
X55179206Y-103090000D01*
X55558909Y-102710959D01*
X55884628Y-101926541D01*
X55885370Y-101077185D01*
X55561020Y-100292200D01*
X54960959Y-99691091D01*
X54176541Y-99365372D01*
X53327185Y-99364630D01*
X52734818Y-99609392D01*
X52735370Y-98977185D01*
X52411020Y-98192200D01*
X51810959Y-97591091D01*
X51026541Y-97265372D01*
X50177185Y-97264630D01*
X49392200Y-97588980D01*
X48791091Y-98189041D01*
X48465372Y-98973459D01*
X48464798Y-99630400D01*
X47826541Y-99365372D01*
X46977185Y-99364630D01*
X46192200Y-99688980D01*
X45591091Y-100289041D01*
X45520671Y-100458631D01*
X45177363Y-100114722D01*
X44576648Y-99865284D01*
X43926205Y-99864716D01*
X43325057Y-100113106D01*
X42949914Y-100487594D01*
X42882739Y-100325418D01*
X42563970Y-100165635D01*
X41229605Y-101500000D01*
X42563970Y-102834365D01*
X42882739Y-102674582D01*
X42947470Y-102509454D01*
X43322637Y-102885278D01*
X43815664Y-103090000D01*
X42346255Y-103090000D01*
X42384365Y-103013970D01*
X41050000Y-101679605D01*
X39715635Y-103013970D01*
X39753745Y-103090000D01*
X37210000Y-103090000D01*
X37210000Y-101116187D01*
X38907277Y-101116187D01*
X38923503Y-101965387D01*
X39217261Y-102674582D01*
X39536030Y-102834365D01*
X40870395Y-101500000D01*
X39536030Y-100165635D01*
X39217261Y-100325418D01*
X38907277Y-101116187D01*
X37210000Y-101116187D01*
X37210000Y-99986030D01*
X39715635Y-99986030D01*
X41050000Y-101320395D01*
X42384365Y-99986030D01*
X42224582Y-99667261D01*
X41433813Y-99357277D01*
X40584613Y-99373503D01*
X39875418Y-99667261D01*
X39715635Y-99986030D01*
X37210000Y-99986030D01*
X37210000Y-91563970D01*
X39715635Y-91563970D01*
X39875418Y-91882739D01*
X40666187Y-92192723D01*
X41515387Y-92176497D01*
X42224582Y-91882739D01*
X42384365Y-91563970D01*
X41050000Y-90229605D01*
X39715635Y-91563970D01*
X37210000Y-91563970D01*
X37210000Y-89666187D01*
X38907277Y-89666187D01*
X38923503Y-90515387D01*
X39217261Y-91224582D01*
X39536030Y-91384365D01*
X40870395Y-90050000D01*
X41229605Y-90050000D01*
X42563970Y-91384365D01*
X42882739Y-91224582D01*
X42947470Y-91059454D01*
X43322637Y-91435278D01*
X43923352Y-91684716D01*
X44573795Y-91685284D01*
X45174943Y-91436894D01*
X45520463Y-91091977D01*
X45588980Y-91257800D01*
X46189041Y-91858909D01*
X46973459Y-92184628D01*
X47822815Y-92185370D01*
X48607800Y-91861020D01*
X49208909Y-91260959D01*
X49534628Y-90476541D01*
X49535370Y-89627185D01*
X49211020Y-88842200D01*
X48610959Y-88241091D01*
X47826541Y-87915372D01*
X46977185Y-87914630D01*
X46192200Y-88238980D01*
X45591091Y-88839041D01*
X45520671Y-89008631D01*
X45177363Y-88664722D01*
X44576648Y-88415284D01*
X43926205Y-88414716D01*
X43325057Y-88663106D01*
X42949914Y-89037594D01*
X42882739Y-88875418D01*
X42563970Y-88715635D01*
X41229605Y-90050000D01*
X40870395Y-90050000D01*
X39536030Y-88715635D01*
X39217261Y-88875418D01*
X38907277Y-89666187D01*
X37210000Y-89666187D01*
X37210000Y-88536030D01*
X39715635Y-88536030D01*
X41050000Y-89870395D01*
X42384365Y-88536030D01*
X42224582Y-88217261D01*
X41433813Y-87907277D01*
X40584613Y-87923503D01*
X39875418Y-88217261D01*
X39715635Y-88536030D01*
X37210000Y-88536030D01*
X37210000Y-86774285D01*
X40864760Y-86774285D01*
X41075169Y-87283515D01*
X41464436Y-87673461D01*
X41973298Y-87884759D01*
X42524285Y-87885240D01*
X43033515Y-87674831D01*
X43423461Y-87285564D01*
X43634759Y-86776702D01*
X43635240Y-86225715D01*
X43624670Y-86200132D01*
X43814802Y-86010000D01*
X49603952Y-86010000D01*
X49788980Y-86457800D01*
X50389041Y-87058909D01*
X51173459Y-87384628D01*
X52022815Y-87385370D01*
X52807800Y-87061020D01*
X53408909Y-86460959D01*
X53734628Y-85676541D01*
X53735370Y-84827185D01*
X53411020Y-84042200D01*
X52810959Y-83441091D01*
X52026541Y-83115372D01*
X51177185Y-83114630D01*
X50392200Y-83438980D01*
X49791091Y-84039041D01*
X49603836Y-84490000D01*
X43500000Y-84490000D01*
X43209161Y-84547852D01*
X42962599Y-84712599D01*
X42550200Y-85124998D01*
X42526702Y-85115241D01*
X41975715Y-85114760D01*
X41466485Y-85325169D01*
X41076539Y-85714436D01*
X40865241Y-86223298D01*
X40864760Y-86774285D01*
X37210000Y-86774285D01*
X37210000Y-46210000D01*
X43500000Y-46210000D01*
X43771705Y-46155954D01*
X43990000Y-46010095D01*
X43990000Y-47435198D01*
G36*
X56240000Y-59435198D02*
X55929855Y-59745343D01*
X56070839Y-59534346D01*
X56157236Y-59100000D01*
X56070839Y-58665654D01*
X55930549Y-58455696D01*
X55987127Y-58390209D01*
X56094119Y-58131874D01*
X55967954Y-57957000D01*
X55127000Y-57957000D01*
X55127000Y-57977000D01*
X55082564Y-57977000D01*
X55022236Y-57965000D01*
X54977764Y-57965000D01*
X54917436Y-57977000D01*
X54873000Y-57977000D01*
X54873000Y-57957000D01*
X54853000Y-57957000D01*
X54853000Y-57703000D01*
X54873000Y-57703000D01*
X54873000Y-57683000D01*
X54917436Y-57683000D01*
X54977764Y-57695000D01*
X55022236Y-57695000D01*
X55082564Y-57683000D01*
X55127000Y-57683000D01*
X55127000Y-57703000D01*
X55967954Y-57703000D01*
X56094119Y-57528126D01*
X56007922Y-57320000D01*
X56240000Y-57320000D01*
X56240000Y-59435198D01*
X56240000Y-59435198D01*
G37*
X56240000Y-59435198D02*
X55929855Y-59745343D01*
X56070839Y-59534346D01*
X56157236Y-59100000D01*
X56070839Y-58665654D01*
X55930549Y-58455696D01*
X55987127Y-58390209D01*
X56094119Y-58131874D01*
X55967954Y-57957000D01*
X55127000Y-57957000D01*
X55127000Y-57977000D01*
X55082564Y-57977000D01*
X55022236Y-57965000D01*
X54977764Y-57965000D01*
X54917436Y-57977000D01*
X54873000Y-57977000D01*
X54873000Y-57957000D01*
X54853000Y-57957000D01*
X54853000Y-57703000D01*
X54873000Y-57703000D01*
X54873000Y-57683000D01*
X54917436Y-57683000D01*
X54977764Y-57695000D01*
X55022236Y-57695000D01*
X55082564Y-57683000D01*
X55127000Y-57683000D01*
X55127000Y-57703000D01*
X55967954Y-57703000D01*
X56094119Y-57528126D01*
X56007922Y-57320000D01*
X56240000Y-57320000D01*
X56240000Y-59435198D01*
G36*
X45330175Y-50632896D02*
X45941713Y-51041513D01*
X46663071Y-51185000D01*
X46736929Y-51185000D01*
X47458287Y-51041513D01*
X48069825Y-50632896D01*
X48289991Y-50303395D01*
X48289991Y-53686401D01*
X48347843Y-53977240D01*
X48512590Y-54223802D01*
X50116189Y-55827401D01*
X50280461Y-55937164D01*
X50152599Y-56022599D01*
X49712599Y-56462599D01*
X49547852Y-56709161D01*
X49490000Y-57000000D01*
X49490000Y-57435198D01*
X49485218Y-57439980D01*
X48151192Y-57439980D01*
X44260000Y-53548788D01*
X44260000Y-50814802D01*
X44974384Y-50100418D01*
X45330175Y-50632896D01*
X45330175Y-50632896D01*
G37*
X45330175Y-50632896D02*
X45941713Y-51041513D01*
X46663071Y-51185000D01*
X46736929Y-51185000D01*
X47458287Y-51041513D01*
X48069825Y-50632896D01*
X48289991Y-50303395D01*
X48289991Y-53686401D01*
X48347843Y-53977240D01*
X48512590Y-54223802D01*
X50116189Y-55827401D01*
X50280461Y-55937164D01*
X50152599Y-56022599D01*
X49712599Y-56462599D01*
X49547852Y-56709161D01*
X49490000Y-57000000D01*
X49490000Y-57435198D01*
X49485218Y-57439980D01*
X48151192Y-57439980D01*
X44260000Y-53548788D01*
X44260000Y-50814802D01*
X44974384Y-50100418D01*
X45330175Y-50632896D01*
G36*
X57430175Y-46132896D02*
X58041713Y-46541513D01*
X58763071Y-46685000D01*
X58836929Y-46685000D01*
X59558287Y-46541513D01*
X59990000Y-46253051D01*
X59990000Y-47235198D01*
X59481904Y-47743294D01*
X58836929Y-47615000D01*
X58763071Y-47615000D01*
X58041713Y-47758487D01*
X57430175Y-48167104D01*
X57021558Y-48778642D01*
X56878071Y-49500000D01*
X57021558Y-50221358D01*
X57430175Y-50832896D01*
X58041713Y-51241513D01*
X58763071Y-51385000D01*
X58836929Y-51385000D01*
X59558287Y-51241513D01*
X60169825Y-50832896D01*
X60578442Y-50221358D01*
X60721929Y-49500000D01*
X60581382Y-48793420D01*
X61287401Y-48087401D01*
X61452148Y-47840840D01*
X61470217Y-47750000D01*
X61510000Y-47550000D01*
X61510000Y-45600546D01*
X61544046Y-45771705D01*
X61697954Y-46002046D01*
X61928295Y-46155954D01*
X62200000Y-46210000D01*
X68490000Y-46210000D01*
X68490000Y-57098287D01*
X67821434Y-56428553D01*
X66706347Y-55965528D01*
X66057354Y-55964961D01*
X66381447Y-55641434D01*
X66844472Y-54526347D01*
X66845526Y-53318950D01*
X66384448Y-52203057D01*
X65531434Y-51348553D01*
X64416347Y-50885528D01*
X63208950Y-50884474D01*
X62093057Y-51345552D01*
X61572702Y-51865000D01*
X56006844Y-51865000D01*
X55964090Y-51798559D01*
X55751890Y-51653569D01*
X55500000Y-51602560D01*
X54760000Y-51602560D01*
X54760000Y-47064802D01*
X56264802Y-45560000D01*
X57047378Y-45560000D01*
X57430175Y-46132896D01*
X57430175Y-46132896D01*
G37*
X57430175Y-46132896D02*
X58041713Y-46541513D01*
X58763071Y-46685000D01*
X58836929Y-46685000D01*
X59558287Y-46541513D01*
X59990000Y-46253051D01*
X59990000Y-47235198D01*
X59481904Y-47743294D01*
X58836929Y-47615000D01*
X58763071Y-47615000D01*
X58041713Y-47758487D01*
X57430175Y-48167104D01*
X57021558Y-48778642D01*
X56878071Y-49500000D01*
X57021558Y-50221358D01*
X57430175Y-50832896D01*
X58041713Y-51241513D01*
X58763071Y-51385000D01*
X58836929Y-51385000D01*
X59558287Y-51241513D01*
X60169825Y-50832896D01*
X60578442Y-50221358D01*
X60721929Y-49500000D01*
X60581382Y-48793420D01*
X61287401Y-48087401D01*
X61452148Y-47840840D01*
X61470217Y-47750000D01*
X61510000Y-47550000D01*
X61510000Y-45600546D01*
X61544046Y-45771705D01*
X61697954Y-46002046D01*
X61928295Y-46155954D01*
X62200000Y-46210000D01*
X68490000Y-46210000D01*
X68490000Y-57098287D01*
X67821434Y-56428553D01*
X66706347Y-55965528D01*
X66057354Y-55964961D01*
X66381447Y-55641434D01*
X66844472Y-54526347D01*
X66845526Y-53318950D01*
X66384448Y-52203057D01*
X65531434Y-51348553D01*
X64416347Y-50885528D01*
X63208950Y-50884474D01*
X62093057Y-51345552D01*
X61572702Y-51865000D01*
X56006844Y-51865000D01*
X55964090Y-51798559D01*
X55751890Y-51653569D01*
X55500000Y-51602560D01*
X54760000Y-51602560D01*
X54760000Y-47064802D01*
X56264802Y-45560000D01*
X57047378Y-45560000D01*
X57430175Y-46132896D01*
G36*
X148140000Y-45350000D02*
X148194046Y-45621705D01*
X148347954Y-45852046D01*
X148578295Y-46005954D01*
X148850000Y-46060000D01*
X155140000Y-46060000D01*
X155140000Y-52807817D01*
X154676541Y-52615372D01*
X153827185Y-52614630D01*
X153042200Y-52938980D01*
X152441091Y-53539041D01*
X152115372Y-54323459D01*
X152114630Y-55172815D01*
X152438980Y-55957800D01*
X153039041Y-56558909D01*
X153823459Y-56884628D01*
X154672815Y-56885370D01*
X155140000Y-56692333D01*
X155140000Y-66307817D01*
X154676541Y-66115372D01*
X153827185Y-66114630D01*
X153042200Y-66438980D01*
X152441091Y-67039041D01*
X152115372Y-67823459D01*
X152114630Y-68672815D01*
X152438980Y-69457800D01*
X153039041Y-70058909D01*
X153823459Y-70384628D01*
X154672815Y-70385370D01*
X155140000Y-70192333D01*
X155140000Y-102940000D01*
X131102482Y-102940000D01*
X131202148Y-102790839D01*
X131260000Y-102500000D01*
X131260000Y-99565000D01*
X131698333Y-99565000D01*
X131698333Y-102535000D01*
X135635000Y-102535000D01*
X135635000Y-101035000D01*
X145135000Y-101035000D01*
X145135000Y-98065000D01*
X143885000Y-98065000D01*
X143885000Y-96565000D01*
X131710238Y-96565000D01*
X131710238Y-99535000D01*
X131912617Y-99535000D01*
X131912617Y-99565000D01*
X131698333Y-99565000D01*
X131260000Y-99565000D01*
X131260000Y-96500000D01*
X131202148Y-96209161D01*
X131037401Y-95962599D01*
X130790839Y-95797852D01*
X130500000Y-95740000D01*
X124250000Y-95740000D01*
X123959161Y-95797852D01*
X123860000Y-95864109D01*
X123860000Y-83774285D01*
X125114760Y-83774285D01*
X125325169Y-84283515D01*
X125714436Y-84673461D01*
X126223298Y-84884759D01*
X126774285Y-84885240D01*
X127283515Y-84674831D01*
X127573852Y-84385000D01*
X132115000Y-84385000D01*
X132115000Y-93999995D01*
X132114999Y-94000000D01*
X132151275Y-94182367D01*
X132182367Y-94338675D01*
X132374210Y-94625790D01*
X133374208Y-95625787D01*
X133374210Y-95625790D01*
X133545138Y-95740000D01*
X133661326Y-95817634D01*
X134000000Y-95885001D01*
X134000005Y-95885000D01*
X142249995Y-95885000D01*
X142250000Y-95885001D01*
X142532484Y-95828810D01*
X142588675Y-95817633D01*
X142875790Y-95625790D01*
X145875787Y-92625792D01*
X145875790Y-92625790D01*
X146067633Y-92338675D01*
X146108195Y-92134759D01*
X146135001Y-92000000D01*
X146135000Y-91999995D01*
X146135000Y-91823523D01*
X146423461Y-91535564D01*
X146634759Y-91026702D01*
X146635240Y-90475715D01*
X146424831Y-89966485D01*
X146035564Y-89576539D01*
X145526702Y-89365241D01*
X144975715Y-89364760D01*
X144466485Y-89575169D01*
X144076539Y-89964436D01*
X143865241Y-90473298D01*
X143864760Y-91024285D01*
X144075169Y-91533515D01*
X144269868Y-91728553D01*
X141883420Y-94115000D01*
X134366579Y-94115000D01*
X133885000Y-93633420D01*
X133885000Y-84385000D01*
X133926477Y-84385000D01*
X134214436Y-84673461D01*
X134723298Y-84884759D01*
X135274285Y-84885240D01*
X135783515Y-84674831D01*
X136173461Y-84285564D01*
X136384759Y-83776702D01*
X136385240Y-83225715D01*
X136174831Y-82716485D01*
X135785564Y-82326539D01*
X135276702Y-82115241D01*
X134725715Y-82114760D01*
X134216485Y-82325169D01*
X133926148Y-82615000D01*
X127573523Y-82615000D01*
X127285564Y-82326539D01*
X126776702Y-82115241D01*
X126225715Y-82114760D01*
X125716485Y-82325169D01*
X125326539Y-82714436D01*
X125115241Y-83223298D01*
X125114760Y-83774285D01*
X123860000Y-83774285D01*
X123860000Y-76830159D01*
X126099446Y-76830159D01*
X126185852Y-77086643D01*
X126759336Y-77296458D01*
X127369460Y-77270839D01*
X127814148Y-77086643D01*
X127900554Y-76830159D01*
X127000000Y-75929605D01*
X126099446Y-76830159D01*
X123860000Y-76830159D01*
X123860000Y-75509336D01*
X125453542Y-75509336D01*
X125479161Y-76119460D01*
X125663357Y-76564148D01*
X125919841Y-76650554D01*
X126820395Y-75750000D01*
X125919841Y-74849446D01*
X125663357Y-74935852D01*
X125453542Y-75509336D01*
X123860000Y-75509336D01*
X123860000Y-74669841D01*
X126099446Y-74669841D01*
X127000000Y-75570395D01*
X127900554Y-74669841D01*
X127814148Y-74413357D01*
X127240664Y-74203542D01*
X126630540Y-74229161D01*
X126185852Y-74413357D01*
X126099446Y-74669841D01*
X123860000Y-74669841D01*
X123860000Y-70192183D01*
X124323459Y-70384628D01*
X125172815Y-70385370D01*
X125957800Y-70061020D01*
X126558909Y-69460959D01*
X126884628Y-68676541D01*
X126885370Y-67827185D01*
X126561020Y-67042200D01*
X125960959Y-66441091D01*
X125176541Y-66115372D01*
X124327185Y-66114630D01*
X123860000Y-66307667D01*
X123860000Y-65134878D01*
X124274285Y-65135240D01*
X124783515Y-64924831D01*
X125173461Y-64535564D01*
X125384759Y-64026702D01*
X125385240Y-63475715D01*
X125174831Y-62966485D01*
X124785564Y-62576539D01*
X124760000Y-62565924D01*
X124760000Y-60671486D01*
X124973691Y-60760000D01*
X125214250Y-60760000D01*
X125373000Y-60601250D01*
X125373000Y-59877000D01*
X125353000Y-59877000D01*
X125353000Y-59623000D01*
X125373000Y-59623000D01*
X125373000Y-58898750D01*
X125262750Y-58788500D01*
X125375000Y-58676250D01*
X125375000Y-57877000D01*
X125353000Y-57877000D01*
X125353000Y-57623000D01*
X125375000Y-57623000D01*
X125375000Y-57603000D01*
X125625000Y-57603000D01*
X125625000Y-57623000D01*
X125647000Y-57623000D01*
X125647000Y-57877000D01*
X125625000Y-57877000D01*
X125625000Y-58676250D01*
X125737250Y-58788500D01*
X125627000Y-58898750D01*
X125627000Y-59623000D01*
X125647000Y-59623000D01*
X125647000Y-59877000D01*
X125627000Y-59877000D01*
X125627000Y-60601250D01*
X125785750Y-60760000D01*
X126026309Y-60760000D01*
X126240000Y-60671486D01*
X126240000Y-60903154D01*
X126131629Y-60947932D01*
X125699449Y-61379357D01*
X125465267Y-61943330D01*
X125464735Y-62553991D01*
X125697932Y-63118371D01*
X126129357Y-63550551D01*
X126240000Y-63596494D01*
X126240000Y-64000000D01*
X126297852Y-64290839D01*
X126462599Y-64537401D01*
X127931877Y-66006679D01*
X127903569Y-66048110D01*
X127852560Y-66300000D01*
X127852560Y-67200000D01*
X127896838Y-67435317D01*
X128035910Y-67651441D01*
X128248110Y-67796431D01*
X128500000Y-67847440D01*
X129000000Y-67847440D01*
X129235317Y-67803162D01*
X129451441Y-67664090D01*
X129499134Y-67594289D01*
X129535910Y-67651441D01*
X129748110Y-67796431D01*
X130000000Y-67847440D01*
X130500000Y-67847440D01*
X130735317Y-67803162D01*
X130951441Y-67664090D01*
X131096431Y-67451890D01*
X131147440Y-67200000D01*
X131147440Y-66300000D01*
X131135937Y-66238865D01*
X132537401Y-64837401D01*
X132573939Y-64782719D01*
X132714436Y-64923461D01*
X133223298Y-65134759D01*
X133774285Y-65135240D01*
X134283515Y-64924831D01*
X134531343Y-64677434D01*
X134575175Y-64783515D01*
X134964442Y-65173461D01*
X135473304Y-65384759D01*
X136024291Y-65385240D01*
X136533521Y-65174831D01*
X136923467Y-64785564D01*
X136945194Y-64733241D01*
X137101505Y-64702148D01*
X137115049Y-64693098D01*
X137114760Y-65024285D01*
X137325169Y-65533515D01*
X137714436Y-65923461D01*
X138223298Y-66134759D01*
X138774285Y-66135240D01*
X139283515Y-65924831D01*
X139395458Y-65813083D01*
X139297852Y-65959161D01*
X139252227Y-66188529D01*
X138920853Y-66409946D01*
X138598946Y-66891715D01*
X138485907Y-67460000D01*
X138591331Y-67990000D01*
X136500000Y-67990000D01*
X136385208Y-68012834D01*
X136385370Y-67827185D01*
X136061020Y-67042200D01*
X135460959Y-66441091D01*
X134676541Y-66115372D01*
X133827185Y-66114630D01*
X133042200Y-66438980D01*
X132441091Y-67039041D01*
X132115372Y-67823459D01*
X132114630Y-68672815D01*
X132438980Y-69457800D01*
X133039041Y-70058909D01*
X133800220Y-70374978D01*
X129914964Y-74260234D01*
X129806670Y-74215267D01*
X129196009Y-74214735D01*
X128631629Y-74447932D01*
X128199449Y-74879357D01*
X128195706Y-74888372D01*
X128080159Y-74849446D01*
X127179605Y-75750000D01*
X128080159Y-76650554D01*
X128195214Y-76611793D01*
X128197932Y-76618371D01*
X128629357Y-77050551D01*
X129193330Y-77284733D01*
X129803991Y-77285265D01*
X130368371Y-77052068D01*
X130750288Y-76670818D01*
X130935155Y-76856009D01*
X130826539Y-76964436D01*
X130615241Y-77473298D01*
X130614760Y-78024285D01*
X130825169Y-78533515D01*
X131214436Y-78923461D01*
X131723298Y-79134759D01*
X132274285Y-79135240D01*
X132783515Y-78924831D01*
X133173461Y-78535564D01*
X133384759Y-78026702D01*
X133385240Y-77475715D01*
X133174831Y-76966485D01*
X133064660Y-76856122D01*
X133300551Y-76620643D01*
X133534733Y-76056670D01*
X133535265Y-75446009D01*
X133469048Y-75285750D01*
X138015000Y-75285750D01*
X138015000Y-75576309D01*
X138111673Y-75809698D01*
X138290301Y-75988327D01*
X138523690Y-76085000D01*
X138764250Y-76085000D01*
X138923000Y-75926250D01*
X138923000Y-75127000D01*
X138173750Y-75127000D01*
X138015000Y-75285750D01*
X133469048Y-75285750D01*
X133302068Y-74881629D01*
X132870643Y-74449449D01*
X132808611Y-74423691D01*
X138015000Y-74423691D01*
X138015000Y-74714250D01*
X138173750Y-74873000D01*
X138923000Y-74873000D01*
X138923000Y-74073750D01*
X138764250Y-73915000D01*
X138523690Y-73915000D01*
X138290301Y-74011673D01*
X138111673Y-74190302D01*
X138015000Y-74423691D01*
X132808611Y-74423691D01*
X132306670Y-74215267D01*
X132109707Y-74215095D01*
X136814802Y-69510000D01*
X138502560Y-69510000D01*
X138502560Y-70850000D01*
X138546838Y-71085317D01*
X138685910Y-71301441D01*
X138898110Y-71446431D01*
X139150000Y-71497440D01*
X139240000Y-71497440D01*
X139240000Y-72027069D01*
X139148559Y-72085910D01*
X139003569Y-72298110D01*
X138952560Y-72550000D01*
X138952560Y-73450000D01*
X138996838Y-73685317D01*
X139135910Y-73901441D01*
X139262686Y-73988064D01*
X139177000Y-74073750D01*
X139177000Y-74873000D01*
X139197000Y-74873000D01*
X139197000Y-75127000D01*
X139177000Y-75127000D01*
X139177000Y-75926250D01*
X139335750Y-76085000D01*
X139576310Y-76085000D01*
X139809699Y-75988327D01*
X139988327Y-75809698D01*
X140003423Y-75773253D01*
X140085910Y-75901441D01*
X140293560Y-76043322D01*
X140216485Y-76075169D01*
X139826539Y-76464436D01*
X139615241Y-76973298D01*
X139614760Y-77524285D01*
X139825169Y-78033515D01*
X140214436Y-78423461D01*
X140723298Y-78634759D01*
X141274285Y-78635240D01*
X141783515Y-78424831D01*
X142173461Y-78035564D01*
X142184076Y-78010000D01*
X142500000Y-78010000D01*
X142790839Y-77952148D01*
X143037401Y-77787401D01*
X143364816Y-77459986D01*
X143364760Y-77524285D01*
X143575169Y-78033515D01*
X143964436Y-78423461D01*
X144473298Y-78634759D01*
X145024285Y-78635240D01*
X145533515Y-78424831D01*
X145923461Y-78035564D01*
X146134759Y-77526702D01*
X146135240Y-76975715D01*
X146082217Y-76847391D01*
X146099447Y-76830161D01*
X146185852Y-77086643D01*
X146759336Y-77296458D01*
X147369460Y-77270839D01*
X147814148Y-77086643D01*
X147900554Y-76830159D01*
X147000000Y-75929605D01*
X146985858Y-75943748D01*
X146806253Y-75764143D01*
X146820395Y-75750000D01*
X145919841Y-74849446D01*
X145663357Y-74935852D01*
X145660020Y-74944973D01*
X145660020Y-74669841D01*
X146099446Y-74669841D01*
X147000000Y-75570395D01*
X147900554Y-74669841D01*
X147814148Y-74413357D01*
X147240664Y-74203542D01*
X146630540Y-74229161D01*
X146185852Y-74413357D01*
X146099446Y-74669841D01*
X145660020Y-74669841D01*
X145660020Y-72660018D01*
X146309201Y-72660018D01*
X146600040Y-72602166D01*
X146846602Y-72437419D01*
X148729610Y-70554412D01*
X149490000Y-71314802D01*
X149490000Y-71671614D01*
X149403569Y-71798110D01*
X149352560Y-72050000D01*
X149352560Y-72950000D01*
X149396838Y-73185317D01*
X149433268Y-73241930D01*
X148962599Y-73712599D01*
X148797852Y-73959161D01*
X148740000Y-74250000D01*
X148740000Y-74403154D01*
X148631629Y-74447932D01*
X148199449Y-74879357D01*
X148195706Y-74888372D01*
X148080159Y-74849446D01*
X147179605Y-75750000D01*
X148080159Y-76650554D01*
X148195214Y-76611793D01*
X148197932Y-76618371D01*
X148629357Y-77050551D01*
X149193330Y-77284733D01*
X149803991Y-77285265D01*
X150368371Y-77052068D01*
X150750288Y-76670818D01*
X151129357Y-77050551D01*
X151693330Y-77284733D01*
X152303991Y-77285265D01*
X152868371Y-77052068D01*
X153300551Y-76620643D01*
X153534733Y-76056670D01*
X153535265Y-75446009D01*
X153302068Y-74881629D01*
X152870643Y-74449449D01*
X152306670Y-74215267D01*
X151696009Y-74214735D01*
X151131629Y-74447932D01*
X150749712Y-74829182D01*
X150372996Y-74451806D01*
X150787401Y-74037401D01*
X150952148Y-73790840D01*
X151010000Y-73500000D01*
X151010000Y-73358026D01*
X151140302Y-73488327D01*
X151373691Y-73585000D01*
X151466250Y-73585000D01*
X151625000Y-73426250D01*
X151625000Y-72627000D01*
X151875000Y-72627000D01*
X151875000Y-73426250D01*
X152033750Y-73585000D01*
X152126309Y-73585000D01*
X152359698Y-73488327D01*
X152538327Y-73309699D01*
X152635000Y-73076310D01*
X152635000Y-72785750D01*
X152476250Y-72627000D01*
X151875000Y-72627000D01*
X151625000Y-72627000D01*
X151603000Y-72627000D01*
X151603000Y-72373000D01*
X151625000Y-72373000D01*
X151625000Y-71573750D01*
X151875000Y-71573750D01*
X151875000Y-72373000D01*
X152476250Y-72373000D01*
X152635000Y-72214250D01*
X152635000Y-71923690D01*
X152538327Y-71690301D01*
X152359698Y-71511673D01*
X152126309Y-71415000D01*
X152033750Y-71415000D01*
X151875000Y-71573750D01*
X151625000Y-71573750D01*
X151466250Y-71415000D01*
X151373691Y-71415000D01*
X151140302Y-71511673D01*
X151010000Y-71641974D01*
X151010000Y-71000000D01*
X150992617Y-70912609D01*
X150952148Y-70709160D01*
X150787401Y-70462599D01*
X149510000Y-69185198D01*
X149510000Y-65272792D01*
X149452148Y-64981953D01*
X149287401Y-64735391D01*
X147986328Y-63434318D01*
X148250288Y-63170818D01*
X148629357Y-63550551D01*
X149193330Y-63784733D01*
X149364969Y-63784883D01*
X149364760Y-64024285D01*
X149575169Y-64533515D01*
X149964436Y-64923461D01*
X150473298Y-65134759D01*
X151024285Y-65135240D01*
X151533515Y-64924831D01*
X151923461Y-64535564D01*
X151999927Y-64351414D01*
X152075169Y-64533515D01*
X152464436Y-64923461D01*
X152973298Y-65134759D01*
X153524285Y-65135240D01*
X154033515Y-64924831D01*
X154423461Y-64535564D01*
X154634759Y-64026702D01*
X154635240Y-63475715D01*
X154424831Y-62966485D01*
X154035564Y-62576539D01*
X153534897Y-62368644D01*
X153535265Y-61946009D01*
X153302068Y-61381629D01*
X152870643Y-60949449D01*
X152306670Y-60715267D01*
X151696009Y-60714735D01*
X151585287Y-60760485D01*
X151510000Y-60685198D01*
X151510000Y-60078386D01*
X151596431Y-59951890D01*
X151647440Y-59700000D01*
X151647440Y-58800000D01*
X151603162Y-58564683D01*
X151464090Y-58348559D01*
X151251890Y-58203569D01*
X151000000Y-58152560D01*
X150500000Y-58152560D01*
X150264683Y-58196838D01*
X150048559Y-58335910D01*
X150000866Y-58405711D01*
X149964090Y-58348559D01*
X149751890Y-58203569D01*
X149500000Y-58152560D01*
X149000000Y-58152560D01*
X148764683Y-58196838D01*
X148548559Y-58335910D01*
X148403569Y-58548110D01*
X148352560Y-58800000D01*
X148352560Y-59700000D01*
X148371982Y-59803216D01*
X147414964Y-60760234D01*
X147306670Y-60715267D01*
X146696009Y-60714735D01*
X146410022Y-60832902D01*
X146410022Y-59914780D01*
X149287401Y-57037401D01*
X149452148Y-56790839D01*
X149510000Y-56500000D01*
X149510000Y-48500000D01*
X149476212Y-48330139D01*
X149452148Y-48209160D01*
X149287401Y-47962599D01*
X145510000Y-44185198D01*
X145510000Y-43894802D01*
X146213592Y-43191210D01*
X146580000Y-43264093D01*
X147148285Y-43151054D01*
X147630054Y-42829147D01*
X147951961Y-42347378D01*
X148065000Y-41779093D01*
X148065000Y-41720907D01*
X147951961Y-41152622D01*
X147630054Y-40670853D01*
X147148285Y-40348946D01*
X146580000Y-40235907D01*
X146011715Y-40348946D01*
X145529946Y-40670853D01*
X145310000Y-41000026D01*
X145090054Y-40670853D01*
X144608285Y-40348946D01*
X144040000Y-40235907D01*
X143471715Y-40348946D01*
X142989946Y-40670853D01*
X142962150Y-40712452D01*
X142953162Y-40664683D01*
X142814090Y-40448559D01*
X142601890Y-40303569D01*
X142350000Y-40252560D01*
X140650000Y-40252560D01*
X140414683Y-40296838D01*
X140198559Y-40435910D01*
X140053569Y-40648110D01*
X140002560Y-40900000D01*
X140002560Y-42600000D01*
X140046838Y-42835317D01*
X140185910Y-43051441D01*
X140398110Y-43196431D01*
X140650000Y-43247440D01*
X140869080Y-43247440D01*
X140962599Y-43387401D01*
X141612599Y-44037401D01*
X141859161Y-44202148D01*
X142150000Y-44260000D01*
X142435198Y-44260000D01*
X142740000Y-44564802D01*
X142740000Y-44850000D01*
X142797852Y-45140839D01*
X142962599Y-45387401D01*
X146990000Y-49414802D01*
X146990000Y-55685198D01*
X144995931Y-57679267D01*
X144952148Y-57459157D01*
X144787401Y-57212595D01*
X144625002Y-57050196D01*
X144634759Y-57026698D01*
X144634883Y-56884900D01*
X145172815Y-56885370D01*
X145957800Y-56561020D01*
X146558909Y-55960959D01*
X146884628Y-55176541D01*
X146885370Y-54327185D01*
X146561020Y-53542200D01*
X145960959Y-52941091D01*
X145176541Y-52615372D01*
X144327185Y-52614630D01*
X143542200Y-52938980D01*
X142941091Y-53539041D01*
X142615372Y-54323459D01*
X142614932Y-54827323D01*
X142570839Y-54605654D01*
X142430549Y-54395696D01*
X142487127Y-54330209D01*
X142594119Y-54071874D01*
X142467954Y-53897000D01*
X141627000Y-53897000D01*
X141627000Y-53917000D01*
X141582564Y-53917000D01*
X141522236Y-53905000D01*
X141477764Y-53905000D01*
X141417436Y-53917000D01*
X141373000Y-53917000D01*
X141373000Y-53897000D01*
X141353000Y-53897000D01*
X141353000Y-53647440D01*
X142000000Y-53647440D01*
X142023597Y-53643000D01*
X142467954Y-53643000D01*
X142594119Y-53468126D01*
X142539233Y-53335602D01*
X142596431Y-53251890D01*
X142647440Y-53000000D01*
X142647440Y-52000000D01*
X142603162Y-51764683D01*
X142464090Y-51548559D01*
X142251890Y-51403569D01*
X142000000Y-51352560D01*
X141000000Y-51352560D01*
X140764683Y-51396838D01*
X140760000Y-51399851D01*
X140760000Y-50750000D01*
X140702148Y-50459161D01*
X140537401Y-50212599D01*
X139760000Y-49435198D01*
X139760000Y-48684547D01*
X139783515Y-48674831D01*
X140173461Y-48285564D01*
X140384759Y-47776702D01*
X140385240Y-47225715D01*
X140174831Y-46716485D01*
X139785564Y-46326539D01*
X139276702Y-46115241D01*
X138725715Y-46114760D01*
X138216485Y-46325169D01*
X137826539Y-46714436D01*
X137615241Y-47223298D01*
X137614867Y-47651850D01*
X137526702Y-47615241D01*
X137010000Y-47614790D01*
X137010000Y-45596883D01*
X137867401Y-44739482D01*
X138032148Y-44492920D01*
X138073741Y-44283818D01*
X138380054Y-44079147D01*
X138701961Y-43597378D01*
X138815000Y-43029093D01*
X138815000Y-42970907D01*
X138701961Y-42402622D01*
X138380054Y-41920853D01*
X138094422Y-41730000D01*
X138380054Y-41539147D01*
X138701961Y-41057378D01*
X138815000Y-40489093D01*
X138815000Y-40430907D01*
X138701961Y-39862622D01*
X138380054Y-39380853D01*
X137899862Y-39060000D01*
X148140000Y-39060000D01*
X148140000Y-45350000D01*
X148140000Y-45350000D01*
G37*
X148140000Y-45350000D02*
X148194046Y-45621705D01*
X148347954Y-45852046D01*
X148578295Y-46005954D01*
X148850000Y-46060000D01*
X155140000Y-46060000D01*
X155140000Y-52807817D01*
X154676541Y-52615372D01*
X153827185Y-52614630D01*
X153042200Y-52938980D01*
X152441091Y-53539041D01*
X152115372Y-54323459D01*
X152114630Y-55172815D01*
X152438980Y-55957800D01*
X153039041Y-56558909D01*
X153823459Y-56884628D01*
X154672815Y-56885370D01*
X155140000Y-56692333D01*
X155140000Y-66307817D01*
X154676541Y-66115372D01*
X153827185Y-66114630D01*
X153042200Y-66438980D01*
X152441091Y-67039041D01*
X152115372Y-67823459D01*
X152114630Y-68672815D01*
X152438980Y-69457800D01*
X153039041Y-70058909D01*
X153823459Y-70384628D01*
X154672815Y-70385370D01*
X155140000Y-70192333D01*
X155140000Y-102940000D01*
X131102482Y-102940000D01*
X131202148Y-102790839D01*
X131260000Y-102500000D01*
X131260000Y-99565000D01*
X131698333Y-99565000D01*
X131698333Y-102535000D01*
X135635000Y-102535000D01*
X135635000Y-101035000D01*
X145135000Y-101035000D01*
X145135000Y-98065000D01*
X143885000Y-98065000D01*
X143885000Y-96565000D01*
X131710238Y-96565000D01*
X131710238Y-99535000D01*
X131912617Y-99535000D01*
X131912617Y-99565000D01*
X131698333Y-99565000D01*
X131260000Y-99565000D01*
X131260000Y-96500000D01*
X131202148Y-96209161D01*
X131037401Y-95962599D01*
X130790839Y-95797852D01*
X130500000Y-95740000D01*
X124250000Y-95740000D01*
X123959161Y-95797852D01*
X123860000Y-95864109D01*
X123860000Y-83774285D01*
X125114760Y-83774285D01*
X125325169Y-84283515D01*
X125714436Y-84673461D01*
X126223298Y-84884759D01*
X126774285Y-84885240D01*
X127283515Y-84674831D01*
X127573852Y-84385000D01*
X132115000Y-84385000D01*
X132115000Y-93999995D01*
X132114999Y-94000000D01*
X132151275Y-94182367D01*
X132182367Y-94338675D01*
X132374210Y-94625790D01*
X133374208Y-95625787D01*
X133374210Y-95625790D01*
X133545138Y-95740000D01*
X133661326Y-95817634D01*
X134000000Y-95885001D01*
X134000005Y-95885000D01*
X142249995Y-95885000D01*
X142250000Y-95885001D01*
X142532484Y-95828810D01*
X142588675Y-95817633D01*
X142875790Y-95625790D01*
X145875787Y-92625792D01*
X145875790Y-92625790D01*
X146067633Y-92338675D01*
X146108195Y-92134759D01*
X146135001Y-92000000D01*
X146135000Y-91999995D01*
X146135000Y-91823523D01*
X146423461Y-91535564D01*
X146634759Y-91026702D01*
X146635240Y-90475715D01*
X146424831Y-89966485D01*
X146035564Y-89576539D01*
X145526702Y-89365241D01*
X144975715Y-89364760D01*
X144466485Y-89575169D01*
X144076539Y-89964436D01*
X143865241Y-90473298D01*
X143864760Y-91024285D01*
X144075169Y-91533515D01*
X144269868Y-91728553D01*
X141883420Y-94115000D01*
X134366579Y-94115000D01*
X133885000Y-93633420D01*
X133885000Y-84385000D01*
X133926477Y-84385000D01*
X134214436Y-84673461D01*
X134723298Y-84884759D01*
X135274285Y-84885240D01*
X135783515Y-84674831D01*
X136173461Y-84285564D01*
X136384759Y-83776702D01*
X136385240Y-83225715D01*
X136174831Y-82716485D01*
X135785564Y-82326539D01*
X135276702Y-82115241D01*
X134725715Y-82114760D01*
X134216485Y-82325169D01*
X133926148Y-82615000D01*
X127573523Y-82615000D01*
X127285564Y-82326539D01*
X126776702Y-82115241D01*
X126225715Y-82114760D01*
X125716485Y-82325169D01*
X125326539Y-82714436D01*
X125115241Y-83223298D01*
X125114760Y-83774285D01*
X123860000Y-83774285D01*
X123860000Y-76830159D01*
X126099446Y-76830159D01*
X126185852Y-77086643D01*
X126759336Y-77296458D01*
X127369460Y-77270839D01*
X127814148Y-77086643D01*
X127900554Y-76830159D01*
X127000000Y-75929605D01*
X126099446Y-76830159D01*
X123860000Y-76830159D01*
X123860000Y-75509336D01*
X125453542Y-75509336D01*
X125479161Y-76119460D01*
X125663357Y-76564148D01*
X125919841Y-76650554D01*
X126820395Y-75750000D01*
X125919841Y-74849446D01*
X125663357Y-74935852D01*
X125453542Y-75509336D01*
X123860000Y-75509336D01*
X123860000Y-74669841D01*
X126099446Y-74669841D01*
X127000000Y-75570395D01*
X127900554Y-74669841D01*
X127814148Y-74413357D01*
X127240664Y-74203542D01*
X126630540Y-74229161D01*
X126185852Y-74413357D01*
X126099446Y-74669841D01*
X123860000Y-74669841D01*
X123860000Y-70192183D01*
X124323459Y-70384628D01*
X125172815Y-70385370D01*
X125957800Y-70061020D01*
X126558909Y-69460959D01*
X126884628Y-68676541D01*
X126885370Y-67827185D01*
X126561020Y-67042200D01*
X125960959Y-66441091D01*
X125176541Y-66115372D01*
X124327185Y-66114630D01*
X123860000Y-66307667D01*
X123860000Y-65134878D01*
X124274285Y-65135240D01*
X124783515Y-64924831D01*
X125173461Y-64535564D01*
X125384759Y-64026702D01*
X125385240Y-63475715D01*
X125174831Y-62966485D01*
X124785564Y-62576539D01*
X124760000Y-62565924D01*
X124760000Y-60671486D01*
X124973691Y-60760000D01*
X125214250Y-60760000D01*
X125373000Y-60601250D01*
X125373000Y-59877000D01*
X125353000Y-59877000D01*
X125353000Y-59623000D01*
X125373000Y-59623000D01*
X125373000Y-58898750D01*
X125262750Y-58788500D01*
X125375000Y-58676250D01*
X125375000Y-57877000D01*
X125353000Y-57877000D01*
X125353000Y-57623000D01*
X125375000Y-57623000D01*
X125375000Y-57603000D01*
X125625000Y-57603000D01*
X125625000Y-57623000D01*
X125647000Y-57623000D01*
X125647000Y-57877000D01*
X125625000Y-57877000D01*
X125625000Y-58676250D01*
X125737250Y-58788500D01*
X125627000Y-58898750D01*
X125627000Y-59623000D01*
X125647000Y-59623000D01*
X125647000Y-59877000D01*
X125627000Y-59877000D01*
X125627000Y-60601250D01*
X125785750Y-60760000D01*
X126026309Y-60760000D01*
X126240000Y-60671486D01*
X126240000Y-60903154D01*
X126131629Y-60947932D01*
X125699449Y-61379357D01*
X125465267Y-61943330D01*
X125464735Y-62553991D01*
X125697932Y-63118371D01*
X126129357Y-63550551D01*
X126240000Y-63596494D01*
X126240000Y-64000000D01*
X126297852Y-64290839D01*
X126462599Y-64537401D01*
X127931877Y-66006679D01*
X127903569Y-66048110D01*
X127852560Y-66300000D01*
X127852560Y-67200000D01*
X127896838Y-67435317D01*
X128035910Y-67651441D01*
X128248110Y-67796431D01*
X128500000Y-67847440D01*
X129000000Y-67847440D01*
X129235317Y-67803162D01*
X129451441Y-67664090D01*
X129499134Y-67594289D01*
X129535910Y-67651441D01*
X129748110Y-67796431D01*
X130000000Y-67847440D01*
X130500000Y-67847440D01*
X130735317Y-67803162D01*
X130951441Y-67664090D01*
X131096431Y-67451890D01*
X131147440Y-67200000D01*
X131147440Y-66300000D01*
X131135937Y-66238865D01*
X132537401Y-64837401D01*
X132573939Y-64782719D01*
X132714436Y-64923461D01*
X133223298Y-65134759D01*
X133774285Y-65135240D01*
X134283515Y-64924831D01*
X134531343Y-64677434D01*
X134575175Y-64783515D01*
X134964442Y-65173461D01*
X135473304Y-65384759D01*
X136024291Y-65385240D01*
X136533521Y-65174831D01*
X136923467Y-64785564D01*
X136945194Y-64733241D01*
X137101505Y-64702148D01*
X137115049Y-64693098D01*
X137114760Y-65024285D01*
X137325169Y-65533515D01*
X137714436Y-65923461D01*
X138223298Y-66134759D01*
X138774285Y-66135240D01*
X139283515Y-65924831D01*
X139395458Y-65813083D01*
X139297852Y-65959161D01*
X139252227Y-66188529D01*
X138920853Y-66409946D01*
X138598946Y-66891715D01*
X138485907Y-67460000D01*
X138591331Y-67990000D01*
X136500000Y-67990000D01*
X136385208Y-68012834D01*
X136385370Y-67827185D01*
X136061020Y-67042200D01*
X135460959Y-66441091D01*
X134676541Y-66115372D01*
X133827185Y-66114630D01*
X133042200Y-66438980D01*
X132441091Y-67039041D01*
X132115372Y-67823459D01*
X132114630Y-68672815D01*
X132438980Y-69457800D01*
X133039041Y-70058909D01*
X133800220Y-70374978D01*
X129914964Y-74260234D01*
X129806670Y-74215267D01*
X129196009Y-74214735D01*
X128631629Y-74447932D01*
X128199449Y-74879357D01*
X128195706Y-74888372D01*
X128080159Y-74849446D01*
X127179605Y-75750000D01*
X128080159Y-76650554D01*
X128195214Y-76611793D01*
X128197932Y-76618371D01*
X128629357Y-77050551D01*
X129193330Y-77284733D01*
X129803991Y-77285265D01*
X130368371Y-77052068D01*
X130750288Y-76670818D01*
X130935155Y-76856009D01*
X130826539Y-76964436D01*
X130615241Y-77473298D01*
X130614760Y-78024285D01*
X130825169Y-78533515D01*
X131214436Y-78923461D01*
X131723298Y-79134759D01*
X132274285Y-79135240D01*
X132783515Y-78924831D01*
X133173461Y-78535564D01*
X133384759Y-78026702D01*
X133385240Y-77475715D01*
X133174831Y-76966485D01*
X133064660Y-76856122D01*
X133300551Y-76620643D01*
X133534733Y-76056670D01*
X133535265Y-75446009D01*
X133469048Y-75285750D01*
X138015000Y-75285750D01*
X138015000Y-75576309D01*
X138111673Y-75809698D01*
X138290301Y-75988327D01*
X138523690Y-76085000D01*
X138764250Y-76085000D01*
X138923000Y-75926250D01*
X138923000Y-75127000D01*
X138173750Y-75127000D01*
X138015000Y-75285750D01*
X133469048Y-75285750D01*
X133302068Y-74881629D01*
X132870643Y-74449449D01*
X132808611Y-74423691D01*
X138015000Y-74423691D01*
X138015000Y-74714250D01*
X138173750Y-74873000D01*
X138923000Y-74873000D01*
X138923000Y-74073750D01*
X138764250Y-73915000D01*
X138523690Y-73915000D01*
X138290301Y-74011673D01*
X138111673Y-74190302D01*
X138015000Y-74423691D01*
X132808611Y-74423691D01*
X132306670Y-74215267D01*
X132109707Y-74215095D01*
X136814802Y-69510000D01*
X138502560Y-69510000D01*
X138502560Y-70850000D01*
X138546838Y-71085317D01*
X138685910Y-71301441D01*
X138898110Y-71446431D01*
X139150000Y-71497440D01*
X139240000Y-71497440D01*
X139240000Y-72027069D01*
X139148559Y-72085910D01*
X139003569Y-72298110D01*
X138952560Y-72550000D01*
X138952560Y-73450000D01*
X138996838Y-73685317D01*
X139135910Y-73901441D01*
X139262686Y-73988064D01*
X139177000Y-74073750D01*
X139177000Y-74873000D01*
X139197000Y-74873000D01*
X139197000Y-75127000D01*
X139177000Y-75127000D01*
X139177000Y-75926250D01*
X139335750Y-76085000D01*
X139576310Y-76085000D01*
X139809699Y-75988327D01*
X139988327Y-75809698D01*
X140003423Y-75773253D01*
X140085910Y-75901441D01*
X140293560Y-76043322D01*
X140216485Y-76075169D01*
X139826539Y-76464436D01*
X139615241Y-76973298D01*
X139614760Y-77524285D01*
X139825169Y-78033515D01*
X140214436Y-78423461D01*
X140723298Y-78634759D01*
X141274285Y-78635240D01*
X141783515Y-78424831D01*
X142173461Y-78035564D01*
X142184076Y-78010000D01*
X142500000Y-78010000D01*
X142790839Y-77952148D01*
X143037401Y-77787401D01*
X143364816Y-77459986D01*
X143364760Y-77524285D01*
X143575169Y-78033515D01*
X143964436Y-78423461D01*
X144473298Y-78634759D01*
X145024285Y-78635240D01*
X145533515Y-78424831D01*
X145923461Y-78035564D01*
X146134759Y-77526702D01*
X146135240Y-76975715D01*
X146082217Y-76847391D01*
X146099447Y-76830161D01*
X146185852Y-77086643D01*
X146759336Y-77296458D01*
X147369460Y-77270839D01*
X147814148Y-77086643D01*
X147900554Y-76830159D01*
X147000000Y-75929605D01*
X146985858Y-75943748D01*
X146806253Y-75764143D01*
X146820395Y-75750000D01*
X145919841Y-74849446D01*
X145663357Y-74935852D01*
X145660020Y-74944973D01*
X145660020Y-74669841D01*
X146099446Y-74669841D01*
X147000000Y-75570395D01*
X147900554Y-74669841D01*
X147814148Y-74413357D01*
X147240664Y-74203542D01*
X146630540Y-74229161D01*
X146185852Y-74413357D01*
X146099446Y-74669841D01*
X145660020Y-74669841D01*
X145660020Y-72660018D01*
X146309201Y-72660018D01*
X146600040Y-72602166D01*
X146846602Y-72437419D01*
X148729610Y-70554412D01*
X149490000Y-71314802D01*
X149490000Y-71671614D01*
X149403569Y-71798110D01*
X149352560Y-72050000D01*
X149352560Y-72950000D01*
X149396838Y-73185317D01*
X149433268Y-73241930D01*
X148962599Y-73712599D01*
X148797852Y-73959161D01*
X148740000Y-74250000D01*
X148740000Y-74403154D01*
X148631629Y-74447932D01*
X148199449Y-74879357D01*
X148195706Y-74888372D01*
X148080159Y-74849446D01*
X147179605Y-75750000D01*
X148080159Y-76650554D01*
X148195214Y-76611793D01*
X148197932Y-76618371D01*
X148629357Y-77050551D01*
X149193330Y-77284733D01*
X149803991Y-77285265D01*
X150368371Y-77052068D01*
X150750288Y-76670818D01*
X151129357Y-77050551D01*
X151693330Y-77284733D01*
X152303991Y-77285265D01*
X152868371Y-77052068D01*
X153300551Y-76620643D01*
X153534733Y-76056670D01*
X153535265Y-75446009D01*
X153302068Y-74881629D01*
X152870643Y-74449449D01*
X152306670Y-74215267D01*
X151696009Y-74214735D01*
X151131629Y-74447932D01*
X150749712Y-74829182D01*
X150372996Y-74451806D01*
X150787401Y-74037401D01*
X150952148Y-73790840D01*
X151010000Y-73500000D01*
X151010000Y-73358026D01*
X151140302Y-73488327D01*
X151373691Y-73585000D01*
X151466250Y-73585000D01*
X151625000Y-73426250D01*
X151625000Y-72627000D01*
X151875000Y-72627000D01*
X151875000Y-73426250D01*
X152033750Y-73585000D01*
X152126309Y-73585000D01*
X152359698Y-73488327D01*
X152538327Y-73309699D01*
X152635000Y-73076310D01*
X152635000Y-72785750D01*
X152476250Y-72627000D01*
X151875000Y-72627000D01*
X151625000Y-72627000D01*
X151603000Y-72627000D01*
X151603000Y-72373000D01*
X151625000Y-72373000D01*
X151625000Y-71573750D01*
X151875000Y-71573750D01*
X151875000Y-72373000D01*
X152476250Y-72373000D01*
X152635000Y-72214250D01*
X152635000Y-71923690D01*
X152538327Y-71690301D01*
X152359698Y-71511673D01*
X152126309Y-71415000D01*
X152033750Y-71415000D01*
X151875000Y-71573750D01*
X151625000Y-71573750D01*
X151466250Y-71415000D01*
X151373691Y-71415000D01*
X151140302Y-71511673D01*
X151010000Y-71641974D01*
X151010000Y-71000000D01*
X150992617Y-70912609D01*
X150952148Y-70709160D01*
X150787401Y-70462599D01*
X149510000Y-69185198D01*
X149510000Y-65272792D01*
X149452148Y-64981953D01*
X149287401Y-64735391D01*
X147986328Y-63434318D01*
X148250288Y-63170818D01*
X148629357Y-63550551D01*
X149193330Y-63784733D01*
X149364969Y-63784883D01*
X149364760Y-64024285D01*
X149575169Y-64533515D01*
X149964436Y-64923461D01*
X150473298Y-65134759D01*
X151024285Y-65135240D01*
X151533515Y-64924831D01*
X151923461Y-64535564D01*
X151999927Y-64351414D01*
X152075169Y-64533515D01*
X152464436Y-64923461D01*
X152973298Y-65134759D01*
X153524285Y-65135240D01*
X154033515Y-64924831D01*
X154423461Y-64535564D01*
X154634759Y-64026702D01*
X154635240Y-63475715D01*
X154424831Y-62966485D01*
X154035564Y-62576539D01*
X153534897Y-62368644D01*
X153535265Y-61946009D01*
X153302068Y-61381629D01*
X152870643Y-60949449D01*
X152306670Y-60715267D01*
X151696009Y-60714735D01*
X151585287Y-60760485D01*
X151510000Y-60685198D01*
X151510000Y-60078386D01*
X151596431Y-59951890D01*
X151647440Y-59700000D01*
X151647440Y-58800000D01*
X151603162Y-58564683D01*
X151464090Y-58348559D01*
X151251890Y-58203569D01*
X151000000Y-58152560D01*
X150500000Y-58152560D01*
X150264683Y-58196838D01*
X150048559Y-58335910D01*
X150000866Y-58405711D01*
X149964090Y-58348559D01*
X149751890Y-58203569D01*
X149500000Y-58152560D01*
X149000000Y-58152560D01*
X148764683Y-58196838D01*
X148548559Y-58335910D01*
X148403569Y-58548110D01*
X148352560Y-58800000D01*
X148352560Y-59700000D01*
X148371982Y-59803216D01*
X147414964Y-60760234D01*
X147306670Y-60715267D01*
X146696009Y-60714735D01*
X146410022Y-60832902D01*
X146410022Y-59914780D01*
X149287401Y-57037401D01*
X149452148Y-56790839D01*
X149510000Y-56500000D01*
X149510000Y-48500000D01*
X149476212Y-48330139D01*
X149452148Y-48209160D01*
X149287401Y-47962599D01*
X145510000Y-44185198D01*
X145510000Y-43894802D01*
X146213592Y-43191210D01*
X146580000Y-43264093D01*
X147148285Y-43151054D01*
X147630054Y-42829147D01*
X147951961Y-42347378D01*
X148065000Y-41779093D01*
X148065000Y-41720907D01*
X147951961Y-41152622D01*
X147630054Y-40670853D01*
X147148285Y-40348946D01*
X146580000Y-40235907D01*
X146011715Y-40348946D01*
X145529946Y-40670853D01*
X145310000Y-41000026D01*
X145090054Y-40670853D01*
X144608285Y-40348946D01*
X144040000Y-40235907D01*
X143471715Y-40348946D01*
X142989946Y-40670853D01*
X142962150Y-40712452D01*
X142953162Y-40664683D01*
X142814090Y-40448559D01*
X142601890Y-40303569D01*
X142350000Y-40252560D01*
X140650000Y-40252560D01*
X140414683Y-40296838D01*
X140198559Y-40435910D01*
X140053569Y-40648110D01*
X140002560Y-40900000D01*
X140002560Y-42600000D01*
X140046838Y-42835317D01*
X140185910Y-43051441D01*
X140398110Y-43196431D01*
X140650000Y-43247440D01*
X140869080Y-43247440D01*
X140962599Y-43387401D01*
X141612599Y-44037401D01*
X141859161Y-44202148D01*
X142150000Y-44260000D01*
X142435198Y-44260000D01*
X142740000Y-44564802D01*
X142740000Y-44850000D01*
X142797852Y-45140839D01*
X142962599Y-45387401D01*
X146990000Y-49414802D01*
X146990000Y-55685198D01*
X144995931Y-57679267D01*
X144952148Y-57459157D01*
X144787401Y-57212595D01*
X144625002Y-57050196D01*
X144634759Y-57026698D01*
X144634883Y-56884900D01*
X145172815Y-56885370D01*
X145957800Y-56561020D01*
X146558909Y-55960959D01*
X146884628Y-55176541D01*
X146885370Y-54327185D01*
X146561020Y-53542200D01*
X145960959Y-52941091D01*
X145176541Y-52615372D01*
X144327185Y-52614630D01*
X143542200Y-52938980D01*
X142941091Y-53539041D01*
X142615372Y-54323459D01*
X142614932Y-54827323D01*
X142570839Y-54605654D01*
X142430549Y-54395696D01*
X142487127Y-54330209D01*
X142594119Y-54071874D01*
X142467954Y-53897000D01*
X141627000Y-53897000D01*
X141627000Y-53917000D01*
X141582564Y-53917000D01*
X141522236Y-53905000D01*
X141477764Y-53905000D01*
X141417436Y-53917000D01*
X141373000Y-53917000D01*
X141373000Y-53897000D01*
X141353000Y-53897000D01*
X141353000Y-53647440D01*
X142000000Y-53647440D01*
X142023597Y-53643000D01*
X142467954Y-53643000D01*
X142594119Y-53468126D01*
X142539233Y-53335602D01*
X142596431Y-53251890D01*
X142647440Y-53000000D01*
X142647440Y-52000000D01*
X142603162Y-51764683D01*
X142464090Y-51548559D01*
X142251890Y-51403569D01*
X142000000Y-51352560D01*
X141000000Y-51352560D01*
X140764683Y-51396838D01*
X140760000Y-51399851D01*
X140760000Y-50750000D01*
X140702148Y-50459161D01*
X140537401Y-50212599D01*
X139760000Y-49435198D01*
X139760000Y-48684547D01*
X139783515Y-48674831D01*
X140173461Y-48285564D01*
X140384759Y-47776702D01*
X140385240Y-47225715D01*
X140174831Y-46716485D01*
X139785564Y-46326539D01*
X139276702Y-46115241D01*
X138725715Y-46114760D01*
X138216485Y-46325169D01*
X137826539Y-46714436D01*
X137615241Y-47223298D01*
X137614867Y-47651850D01*
X137526702Y-47615241D01*
X137010000Y-47614790D01*
X137010000Y-45596883D01*
X137867401Y-44739482D01*
X138032148Y-44492920D01*
X138073741Y-44283818D01*
X138380054Y-44079147D01*
X138701961Y-43597378D01*
X138815000Y-43029093D01*
X138815000Y-42970907D01*
X138701961Y-42402622D01*
X138380054Y-41920853D01*
X138094422Y-41730000D01*
X138380054Y-41539147D01*
X138701961Y-41057378D01*
X138815000Y-40489093D01*
X138815000Y-40430907D01*
X138701961Y-39862622D01*
X138380054Y-39380853D01*
X137899862Y-39060000D01*
X148140000Y-39060000D01*
X148140000Y-45350000D01*
G36*
X135823750Y-62375000D02*
X136623000Y-62375000D01*
X136623000Y-62353000D01*
X136877000Y-62353000D01*
X136877000Y-62375000D01*
X136897000Y-62375000D01*
X136897000Y-62625000D01*
X136877000Y-62625000D01*
X136877000Y-62647000D01*
X136623000Y-62647000D01*
X136623000Y-62625000D01*
X136050210Y-62625000D01*
X136026708Y-62615241D01*
X135475721Y-62614760D01*
X135450938Y-62625000D01*
X134877000Y-62625000D01*
X134877000Y-62647000D01*
X134623000Y-62647000D01*
X134623000Y-62625000D01*
X134603000Y-62625000D01*
X134603000Y-62375000D01*
X134623000Y-62375000D01*
X134623000Y-62353000D01*
X134877000Y-62353000D01*
X134877000Y-62375000D01*
X135676250Y-62375000D01*
X135750000Y-62301250D01*
X135823750Y-62375000D01*
X135823750Y-62375000D01*
G37*
X135823750Y-62375000D02*
X136623000Y-62375000D01*
X136623000Y-62353000D01*
X136877000Y-62353000D01*
X136877000Y-62375000D01*
X136897000Y-62375000D01*
X136897000Y-62625000D01*
X136877000Y-62625000D01*
X136877000Y-62647000D01*
X136623000Y-62647000D01*
X136623000Y-62625000D01*
X136050210Y-62625000D01*
X136026708Y-62615241D01*
X135475721Y-62614760D01*
X135450938Y-62625000D01*
X134877000Y-62625000D01*
X134877000Y-62647000D01*
X134623000Y-62647000D01*
X134623000Y-62625000D01*
X134603000Y-62625000D01*
X134603000Y-62375000D01*
X134623000Y-62375000D01*
X134623000Y-62353000D01*
X134877000Y-62353000D01*
X134877000Y-62375000D01*
X135676250Y-62375000D01*
X135750000Y-62301250D01*
X135823750Y-62375000D01*
G36*
X142973298Y-58134755D02*
X143490000Y-58135206D01*
X143490000Y-62206221D01*
X143247976Y-61963775D01*
X142739114Y-61752477D01*
X142188127Y-61751996D01*
X141678897Y-61962405D01*
X141601328Y-62039839D01*
X141401890Y-61903569D01*
X141150000Y-61852560D01*
X140830508Y-61852560D01*
X140851441Y-61839090D01*
X140996431Y-61626890D01*
X141047440Y-61375000D01*
X141047440Y-60625000D01*
X141003162Y-60389683D01*
X140864090Y-60173559D01*
X140760000Y-60102437D01*
X140760000Y-59709229D01*
X141043418Y-59898603D01*
X141477764Y-59985000D01*
X141522236Y-59985000D01*
X141956582Y-59898603D01*
X142324802Y-59652566D01*
X142570839Y-59284346D01*
X142657236Y-58850000D01*
X142570839Y-58415654D01*
X142430549Y-58205696D01*
X142487127Y-58140209D01*
X142560395Y-57963302D01*
X142973298Y-58134755D01*
X142973298Y-58134755D01*
G37*
X142973298Y-58134755D02*
X143490000Y-58135206D01*
X143490000Y-62206221D01*
X143247976Y-61963775D01*
X142739114Y-61752477D01*
X142188127Y-61751996D01*
X141678897Y-61962405D01*
X141601328Y-62039839D01*
X141401890Y-61903569D01*
X141150000Y-61852560D01*
X140830508Y-61852560D01*
X140851441Y-61839090D01*
X140996431Y-61626890D01*
X141047440Y-61375000D01*
X141047440Y-60625000D01*
X141003162Y-60389683D01*
X140864090Y-60173559D01*
X140760000Y-60102437D01*
X140760000Y-59709229D01*
X141043418Y-59898603D01*
X141477764Y-59985000D01*
X141522236Y-59985000D01*
X141956582Y-59898603D01*
X142324802Y-59652566D01*
X142570839Y-59284346D01*
X142657236Y-58850000D01*
X142570839Y-58415654D01*
X142430549Y-58205696D01*
X142487127Y-58140209D01*
X142560395Y-57963302D01*
X142973298Y-58134755D01*
G36*
X141477764Y-57445000D02*
X141522236Y-57445000D01*
X141582564Y-57433000D01*
X141627000Y-57433000D01*
X141627000Y-57453000D01*
X141647000Y-57453000D01*
X141647000Y-57707000D01*
X141627000Y-57707000D01*
X141627000Y-57727000D01*
X141582564Y-57727000D01*
X141522236Y-57715000D01*
X141477764Y-57715000D01*
X141417436Y-57727000D01*
X141373000Y-57727000D01*
X141373000Y-57707000D01*
X141353000Y-57707000D01*
X141353000Y-57453000D01*
X141373000Y-57453000D01*
X141373000Y-57433000D01*
X141417436Y-57433000D01*
X141477764Y-57445000D01*
X141477764Y-57445000D01*
G37*
X141477764Y-57445000D02*
X141522236Y-57445000D01*
X141582564Y-57433000D01*
X141627000Y-57433000D01*
X141627000Y-57453000D01*
X141647000Y-57453000D01*
X141647000Y-57707000D01*
X141627000Y-57707000D01*
X141627000Y-57727000D01*
X141582564Y-57727000D01*
X141522236Y-57715000D01*
X141477764Y-57715000D01*
X141417436Y-57727000D01*
X141373000Y-57727000D01*
X141373000Y-57707000D01*
X141353000Y-57707000D01*
X141353000Y-57453000D01*
X141373000Y-57453000D01*
X141373000Y-57433000D01*
X141417436Y-57433000D01*
X141477764Y-57445000D01*
G36*
X130212599Y-46096401D02*
X130414999Y-46298801D01*
X130414999Y-47639847D01*
X129966485Y-47825169D01*
X129576539Y-48214436D01*
X129365241Y-48723298D01*
X129364760Y-49274285D01*
X129575169Y-49783515D01*
X129964436Y-50173461D01*
X130473298Y-50384759D01*
X131024285Y-50385240D01*
X131533515Y-50174831D01*
X131750041Y-49958682D01*
X131964436Y-50173451D01*
X132473298Y-50384749D01*
X133024285Y-50385230D01*
X133455731Y-50206961D01*
X133455731Y-50490000D01*
X132250000Y-50490000D01*
X131959161Y-50547852D01*
X131712599Y-50712599D01*
X128712599Y-53712599D01*
X128547852Y-53959161D01*
X128490000Y-54250000D01*
X128490000Y-54838772D01*
X128401890Y-54778569D01*
X128150000Y-54727560D01*
X127350000Y-54727560D01*
X127114683Y-54771838D01*
X126898559Y-54910910D01*
X126884843Y-54930985D01*
X126885370Y-54327185D01*
X126561020Y-53542200D01*
X125960959Y-52941091D01*
X125176541Y-52615372D01*
X124327185Y-52614630D01*
X123860000Y-52807667D01*
X123860000Y-46060000D01*
X130150000Y-46060000D01*
X130183786Y-46053279D01*
X130212599Y-46096401D01*
X130212599Y-46096401D01*
G37*
X130212599Y-46096401D02*
X130414999Y-46298801D01*
X130414999Y-47639847D01*
X129966485Y-47825169D01*
X129576539Y-48214436D01*
X129365241Y-48723298D01*
X129364760Y-49274285D01*
X129575169Y-49783515D01*
X129964436Y-50173461D01*
X130473298Y-50384759D01*
X131024285Y-50385240D01*
X131533515Y-50174831D01*
X131750041Y-49958682D01*
X131964436Y-50173451D01*
X132473298Y-50384749D01*
X133024285Y-50385230D01*
X133455731Y-50206961D01*
X133455731Y-50490000D01*
X132250000Y-50490000D01*
X131959161Y-50547852D01*
X131712599Y-50712599D01*
X128712599Y-53712599D01*
X128547852Y-53959161D01*
X128490000Y-54250000D01*
X128490000Y-54838772D01*
X128401890Y-54778569D01*
X128150000Y-54727560D01*
X127350000Y-54727560D01*
X127114683Y-54771838D01*
X126898559Y-54910910D01*
X126884843Y-54930985D01*
X126885370Y-54327185D01*
X126561020Y-53542200D01*
X125960959Y-52941091D01*
X125176541Y-52615372D01*
X124327185Y-52614630D01*
X123860000Y-52807667D01*
X123860000Y-46060000D01*
X130150000Y-46060000D01*
X130183786Y-46053279D01*
X130212599Y-46096401D01*
M02*
