G04 #@! TF.GenerationSoftware,KiCad,Pcbnew,(5.0.0)*
G04 #@! TF.CreationDate,2018-12-06T20:04:42+01:00*
G04 #@! TF.ProjectId,hot_silicon_fuzz,686F745F73696C69636F6E5F66757A7A,rev?*
G04 #@! TF.SameCoordinates,Original*
G04 #@! TF.FileFunction,Copper,L2,Bot,Signal*
G04 #@! TF.FilePolarity,Positive*
%FSLAX46Y46*%
G04 Gerber Fmt 4.6, Leading zero omitted, Abs format (unit mm)*
G04 Created by KiCad (PCBNEW (5.0.0)) date 12/06/18 20:04:42*
%MOMM*%
%LPD*%
G01*
G04 APERTURE LIST*
G04 #@! TA.AperFunction,NonConductor*
%ADD10C,0.150000*%
G04 #@! TD*
G04 #@! TA.AperFunction,NonConductor*
%ADD11C,0.200000*%
G04 #@! TD*
G04 #@! TA.AperFunction,ComponentPad*
%ADD12R,1.700000X1.700000*%
G04 #@! TD*
G04 #@! TA.AperFunction,ComponentPad*
%ADD13O,1.700000X1.700000*%
G04 #@! TD*
G04 #@! TA.AperFunction,ComponentPad*
%ADD14R,2.500000X2.000000*%
G04 #@! TD*
G04 #@! TA.AperFunction,ComponentPad*
%ADD15C,1.800000*%
G04 #@! TD*
G04 #@! TA.AperFunction,WasherPad*
%ADD16C,3.000000*%
G04 #@! TD*
G04 #@! TA.AperFunction,ComponentPad*
%ADD17C,4.800000*%
G04 #@! TD*
G04 #@! TA.AperFunction,ComponentPad*
%ADD18R,4.800000X4.800000*%
G04 #@! TD*
G04 #@! TA.AperFunction,ComponentPad*
%ADD19C,3.000000*%
G04 #@! TD*
G04 #@! TA.AperFunction,ViaPad*
%ADD20C,1.500000*%
G04 #@! TD*
G04 #@! TA.AperFunction,Conductor*
%ADD21C,0.250000*%
G04 #@! TD*
G04 #@! TA.AperFunction,Conductor*
%ADD22C,0.500000*%
G04 #@! TD*
G04 #@! TA.AperFunction,Conductor*
%ADD23C,0.254000*%
G04 #@! TD*
G04 APERTURE END LIST*
D10*
X41816666Y-42000000D02*
G75*
G03X41816666Y-42000000I-1666666J0D01*
G01*
X37650000Y-42000000D02*
X42650000Y-42000000D01*
X40150000Y-39500000D02*
X40150000Y-44500000D01*
X75616666Y-99100000D02*
G75*
G03X75616666Y-99100000I-1666666J0D01*
G01*
X71450000Y-99100000D02*
X76450000Y-99100000D01*
X73950000Y-96600000D02*
X73950000Y-101600000D01*
X120316666Y-99800000D02*
G75*
G03X120316666Y-99800000I-1666666J0D01*
G01*
X116150000Y-99800000D02*
X121150000Y-99800000D01*
X118650000Y-97300000D02*
X118650000Y-102300000D01*
X154366666Y-41350000D02*
G75*
G03X154366666Y-41350000I-1666666J0D01*
G01*
X150200000Y-41350000D02*
X155200000Y-41350000D01*
X152700000Y-38850000D02*
X152700000Y-43850000D01*
D11*
X134727142Y-100785714D02*
X134489047Y-101452380D01*
X134250952Y-100785714D01*
X133679523Y-100452380D02*
X133584285Y-100452380D01*
X133489047Y-100500000D01*
X133441428Y-100547619D01*
X133393809Y-100642857D01*
X133346190Y-100833333D01*
X133346190Y-101071428D01*
X133393809Y-101261904D01*
X133441428Y-101357142D01*
X133489047Y-101404761D01*
X133584285Y-101452380D01*
X133679523Y-101452380D01*
X133774761Y-101404761D01*
X133822380Y-101357142D01*
X133870000Y-101261904D01*
X133917619Y-101071428D01*
X133917619Y-100833333D01*
X133870000Y-100642857D01*
X133822380Y-100547619D01*
X133774761Y-100500000D01*
X133679523Y-100452380D01*
X132965238Y-100547619D02*
X132917619Y-100500000D01*
X132822380Y-100452380D01*
X132584285Y-100452380D01*
X132489047Y-100500000D01*
X132441428Y-100547619D01*
X132393809Y-100642857D01*
X132393809Y-100738095D01*
X132441428Y-100880952D01*
X133012857Y-101452380D01*
X132393809Y-101452380D01*
X144131904Y-99952380D02*
X144131904Y-98952380D01*
X143703333Y-99952380D02*
X143703333Y-99428571D01*
X143750952Y-99333333D01*
X143846190Y-99285714D01*
X143989047Y-99285714D01*
X144084285Y-99333333D01*
X144131904Y-99380952D01*
X143084285Y-99952380D02*
X143179523Y-99904761D01*
X143227142Y-99857142D01*
X143274761Y-99761904D01*
X143274761Y-99476190D01*
X143227142Y-99380952D01*
X143179523Y-99333333D01*
X143084285Y-99285714D01*
X142941428Y-99285714D01*
X142846190Y-99333333D01*
X142798571Y-99380952D01*
X142750952Y-99476190D01*
X142750952Y-99761904D01*
X142798571Y-99857142D01*
X142846190Y-99904761D01*
X142941428Y-99952380D01*
X143084285Y-99952380D01*
X142465238Y-99285714D02*
X142084285Y-99285714D01*
X142322380Y-98952380D02*
X142322380Y-99809523D01*
X142274761Y-99904761D01*
X142179523Y-99952380D01*
X142084285Y-99952380D01*
X141036666Y-99904761D02*
X140941428Y-99952380D01*
X140750952Y-99952380D01*
X140655714Y-99904761D01*
X140608095Y-99809523D01*
X140608095Y-99761904D01*
X140655714Y-99666666D01*
X140750952Y-99619047D01*
X140893809Y-99619047D01*
X140989047Y-99571428D01*
X141036666Y-99476190D01*
X141036666Y-99428571D01*
X140989047Y-99333333D01*
X140893809Y-99285714D01*
X140750952Y-99285714D01*
X140655714Y-99333333D01*
X140179523Y-99952380D02*
X140179523Y-99285714D01*
X140179523Y-98952380D02*
X140227142Y-99000000D01*
X140179523Y-99047619D01*
X140131904Y-99000000D01*
X140179523Y-98952380D01*
X140179523Y-99047619D01*
X139560476Y-99952380D02*
X139655714Y-99904761D01*
X139703333Y-99809523D01*
X139703333Y-98952380D01*
X139179523Y-99952380D02*
X139179523Y-99285714D01*
X139179523Y-98952380D02*
X139227142Y-99000000D01*
X139179523Y-99047619D01*
X139131904Y-99000000D01*
X139179523Y-98952380D01*
X139179523Y-99047619D01*
X138274761Y-99904761D02*
X138370000Y-99952380D01*
X138560476Y-99952380D01*
X138655714Y-99904761D01*
X138703333Y-99857142D01*
X138750952Y-99761904D01*
X138750952Y-99476190D01*
X138703333Y-99380952D01*
X138655714Y-99333333D01*
X138560476Y-99285714D01*
X138370000Y-99285714D01*
X138274761Y-99333333D01*
X137703333Y-99952380D02*
X137798571Y-99904761D01*
X137846190Y-99857142D01*
X137893809Y-99761904D01*
X137893809Y-99476190D01*
X137846190Y-99380952D01*
X137798571Y-99333333D01*
X137703333Y-99285714D01*
X137560476Y-99285714D01*
X137465238Y-99333333D01*
X137417619Y-99380952D01*
X137370000Y-99476190D01*
X137370000Y-99761904D01*
X137417619Y-99857142D01*
X137465238Y-99904761D01*
X137560476Y-99952380D01*
X137703333Y-99952380D01*
X136941428Y-99285714D02*
X136941428Y-99952380D01*
X136941428Y-99380952D02*
X136893809Y-99333333D01*
X136798571Y-99285714D01*
X136655714Y-99285714D01*
X136560476Y-99333333D01*
X136512857Y-99428571D01*
X136512857Y-99952380D01*
X135417619Y-99285714D02*
X135036666Y-99285714D01*
X135274761Y-99952380D02*
X135274761Y-99095238D01*
X135227142Y-99000000D01*
X135131904Y-98952380D01*
X135036666Y-98952380D01*
X134274761Y-99285714D02*
X134274761Y-99952380D01*
X134703333Y-99285714D02*
X134703333Y-99809523D01*
X134655714Y-99904761D01*
X134560476Y-99952380D01*
X134417619Y-99952380D01*
X134322380Y-99904761D01*
X134274761Y-99857142D01*
X133893809Y-99285714D02*
X133370000Y-99285714D01*
X133893809Y-99952380D01*
X133370000Y-99952380D01*
X133084285Y-99285714D02*
X132560476Y-99285714D01*
X133084285Y-99952380D01*
X132560476Y-99952380D01*
X142310476Y-98452380D02*
X142643809Y-97976190D01*
X142881904Y-98452380D02*
X142881904Y-97452380D01*
X142500952Y-97452380D01*
X142405714Y-97500000D01*
X142358095Y-97547619D01*
X142310476Y-97642857D01*
X142310476Y-97785714D01*
X142358095Y-97880952D01*
X142405714Y-97928571D01*
X142500952Y-97976190D01*
X142881904Y-97976190D01*
X141929523Y-98166666D02*
X141453333Y-98166666D01*
X142024761Y-98452380D02*
X141691428Y-97452380D01*
X141358095Y-98452380D01*
X141024761Y-98452380D02*
X141024761Y-97452380D01*
X140453333Y-98452380D01*
X140453333Y-97452380D01*
X139977142Y-98452380D02*
X139977142Y-97452380D01*
X139739047Y-97452380D01*
X139596190Y-97500000D01*
X139500952Y-97595238D01*
X139453333Y-97690476D01*
X139405714Y-97880952D01*
X139405714Y-98023809D01*
X139453333Y-98214285D01*
X139500952Y-98309523D01*
X139596190Y-98404761D01*
X139739047Y-98452380D01*
X139977142Y-98452380D01*
X139024761Y-98166666D02*
X138548571Y-98166666D01*
X139120000Y-98452380D02*
X138786666Y-97452380D01*
X138453333Y-98452380D01*
X137596190Y-97500000D02*
X137691428Y-97452380D01*
X137834285Y-97452380D01*
X137977142Y-97500000D01*
X138072380Y-97595238D01*
X138120000Y-97690476D01*
X138167619Y-97880952D01*
X138167619Y-98023809D01*
X138120000Y-98214285D01*
X138072380Y-98309523D01*
X137977142Y-98404761D01*
X137834285Y-98452380D01*
X137739047Y-98452380D01*
X137596190Y-98404761D01*
X137548571Y-98357142D01*
X137548571Y-98023809D01*
X137739047Y-98023809D01*
X136929523Y-97452380D02*
X136739047Y-97452380D01*
X136643809Y-97500000D01*
X136548571Y-97595238D01*
X136500952Y-97785714D01*
X136500952Y-98119047D01*
X136548571Y-98309523D01*
X136643809Y-98404761D01*
X136739047Y-98452380D01*
X136929523Y-98452380D01*
X137024761Y-98404761D01*
X137120000Y-98309523D01*
X137167619Y-98119047D01*
X137167619Y-97785714D01*
X137120000Y-97595238D01*
X137024761Y-97500000D01*
X136929523Y-97452380D01*
X136072380Y-98452380D02*
X136072380Y-97452380D01*
X135834285Y-97452380D01*
X135691428Y-97500000D01*
X135596190Y-97595238D01*
X135548571Y-97690476D01*
X135500952Y-97880952D01*
X135500952Y-98023809D01*
X135548571Y-98214285D01*
X135596190Y-98309523D01*
X135691428Y-98404761D01*
X135834285Y-98452380D01*
X136072380Y-98452380D01*
X134500952Y-98452380D02*
X134834285Y-97976190D01*
X135072380Y-98452380D02*
X135072380Y-97452380D01*
X134691428Y-97452380D01*
X134596190Y-97500000D01*
X134548571Y-97547619D01*
X134500952Y-97642857D01*
X134500952Y-97785714D01*
X134548571Y-97880952D01*
X134596190Y-97928571D01*
X134691428Y-97976190D01*
X135072380Y-97976190D01*
X133881904Y-97452380D02*
X133691428Y-97452380D01*
X133596190Y-97500000D01*
X133500952Y-97595238D01*
X133453333Y-97785714D01*
X133453333Y-98119047D01*
X133500952Y-98309523D01*
X133596190Y-98404761D01*
X133691428Y-98452380D01*
X133881904Y-98452380D01*
X133977142Y-98404761D01*
X134072380Y-98309523D01*
X134120000Y-98119047D01*
X134120000Y-97785714D01*
X134072380Y-97595238D01*
X133977142Y-97500000D01*
X133881904Y-97452380D01*
X133024761Y-98452380D02*
X133024761Y-97452380D01*
X132453333Y-98452380D01*
X132453333Y-97452380D01*
X61153809Y-97285714D02*
X60915714Y-97952380D01*
X60677619Y-97285714D01*
X60106190Y-96952380D02*
X60010952Y-96952380D01*
X59915714Y-97000000D01*
X59868095Y-97047619D01*
X59820476Y-97142857D01*
X59772857Y-97333333D01*
X59772857Y-97571428D01*
X59820476Y-97761904D01*
X59868095Y-97857142D01*
X59915714Y-97904761D01*
X60010952Y-97952380D01*
X60106190Y-97952380D01*
X60201428Y-97904761D01*
X60249047Y-97857142D01*
X60296666Y-97761904D01*
X60344285Y-97571428D01*
X60344285Y-97333333D01*
X60296666Y-97142857D01*
X60249047Y-97047619D01*
X60201428Y-97000000D01*
X60106190Y-96952380D01*
X59391904Y-97047619D02*
X59344285Y-97000000D01*
X59249047Y-96952380D01*
X59010952Y-96952380D01*
X58915714Y-97000000D01*
X58868095Y-97047619D01*
X58820476Y-97142857D01*
X58820476Y-97238095D01*
X58868095Y-97380952D01*
X59439523Y-97952380D01*
X58820476Y-97952380D01*
X67475238Y-94702380D02*
X67808571Y-94226190D01*
X68046666Y-94702380D02*
X68046666Y-93702380D01*
X67665714Y-93702380D01*
X67570476Y-93750000D01*
X67522857Y-93797619D01*
X67475238Y-93892857D01*
X67475238Y-94035714D01*
X67522857Y-94130952D01*
X67570476Y-94178571D01*
X67665714Y-94226190D01*
X68046666Y-94226190D01*
X67094285Y-94416666D02*
X66618095Y-94416666D01*
X67189523Y-94702380D02*
X66856190Y-93702380D01*
X66522857Y-94702380D01*
X66189523Y-94702380D02*
X66189523Y-93702380D01*
X65618095Y-94702380D01*
X65618095Y-93702380D01*
X65141904Y-94702380D02*
X65141904Y-93702380D01*
X64903809Y-93702380D01*
X64760952Y-93750000D01*
X64665714Y-93845238D01*
X64618095Y-93940476D01*
X64570476Y-94130952D01*
X64570476Y-94273809D01*
X64618095Y-94464285D01*
X64665714Y-94559523D01*
X64760952Y-94654761D01*
X64903809Y-94702380D01*
X65141904Y-94702380D01*
X64189523Y-94416666D02*
X63713333Y-94416666D01*
X64284761Y-94702380D02*
X63951428Y-93702380D01*
X63618095Y-94702380D01*
X62760952Y-93750000D02*
X62856190Y-93702380D01*
X62999047Y-93702380D01*
X63141904Y-93750000D01*
X63237142Y-93845238D01*
X63284761Y-93940476D01*
X63332380Y-94130952D01*
X63332380Y-94273809D01*
X63284761Y-94464285D01*
X63237142Y-94559523D01*
X63141904Y-94654761D01*
X62999047Y-94702380D01*
X62903809Y-94702380D01*
X62760952Y-94654761D01*
X62713333Y-94607142D01*
X62713333Y-94273809D01*
X62903809Y-94273809D01*
X62094285Y-93702380D02*
X61903809Y-93702380D01*
X61808571Y-93750000D01*
X61713333Y-93845238D01*
X61665714Y-94035714D01*
X61665714Y-94369047D01*
X61713333Y-94559523D01*
X61808571Y-94654761D01*
X61903809Y-94702380D01*
X62094285Y-94702380D01*
X62189523Y-94654761D01*
X62284761Y-94559523D01*
X62332380Y-94369047D01*
X62332380Y-94035714D01*
X62284761Y-93845238D01*
X62189523Y-93750000D01*
X62094285Y-93702380D01*
X61237142Y-94702380D02*
X61237142Y-93702380D01*
X60999047Y-93702380D01*
X60856190Y-93750000D01*
X60760952Y-93845238D01*
X60713333Y-93940476D01*
X60665714Y-94130952D01*
X60665714Y-94273809D01*
X60713333Y-94464285D01*
X60760952Y-94559523D01*
X60856190Y-94654761D01*
X60999047Y-94702380D01*
X61237142Y-94702380D01*
X59665714Y-94702380D02*
X59999047Y-94226190D01*
X60237142Y-94702380D02*
X60237142Y-93702380D01*
X59856190Y-93702380D01*
X59760952Y-93750000D01*
X59713333Y-93797619D01*
X59665714Y-93892857D01*
X59665714Y-94035714D01*
X59713333Y-94130952D01*
X59760952Y-94178571D01*
X59856190Y-94226190D01*
X60237142Y-94226190D01*
X59046666Y-93702380D02*
X58856190Y-93702380D01*
X58760952Y-93750000D01*
X58665714Y-93845238D01*
X58618095Y-94035714D01*
X58618095Y-94369047D01*
X58665714Y-94559523D01*
X58760952Y-94654761D01*
X58856190Y-94702380D01*
X59046666Y-94702380D01*
X59141904Y-94654761D01*
X59237142Y-94559523D01*
X59284761Y-94369047D01*
X59284761Y-94035714D01*
X59237142Y-93845238D01*
X59141904Y-93750000D01*
X59046666Y-93702380D01*
X58189523Y-94702380D02*
X58189523Y-93702380D01*
X57618095Y-94702380D01*
X57618095Y-93702380D01*
X68094285Y-96202380D02*
X68094285Y-95202380D01*
X67665714Y-96202380D02*
X67665714Y-95678571D01*
X67713333Y-95583333D01*
X67808571Y-95535714D01*
X67951428Y-95535714D01*
X68046666Y-95583333D01*
X68094285Y-95630952D01*
X67046666Y-96202380D02*
X67141904Y-96154761D01*
X67189523Y-96107142D01*
X67237142Y-96011904D01*
X67237142Y-95726190D01*
X67189523Y-95630952D01*
X67141904Y-95583333D01*
X67046666Y-95535714D01*
X66903809Y-95535714D01*
X66808571Y-95583333D01*
X66760952Y-95630952D01*
X66713333Y-95726190D01*
X66713333Y-96011904D01*
X66760952Y-96107142D01*
X66808571Y-96154761D01*
X66903809Y-96202380D01*
X67046666Y-96202380D01*
X66427619Y-95535714D02*
X66046666Y-95535714D01*
X66284761Y-95202380D02*
X66284761Y-96059523D01*
X66237142Y-96154761D01*
X66141904Y-96202380D01*
X66046666Y-96202380D01*
X64999047Y-96154761D02*
X64903809Y-96202380D01*
X64713333Y-96202380D01*
X64618095Y-96154761D01*
X64570476Y-96059523D01*
X64570476Y-96011904D01*
X64618095Y-95916666D01*
X64713333Y-95869047D01*
X64856190Y-95869047D01*
X64951428Y-95821428D01*
X64999047Y-95726190D01*
X64999047Y-95678571D01*
X64951428Y-95583333D01*
X64856190Y-95535714D01*
X64713333Y-95535714D01*
X64618095Y-95583333D01*
X64141904Y-96202380D02*
X64141904Y-95535714D01*
X64141904Y-95202380D02*
X64189523Y-95250000D01*
X64141904Y-95297619D01*
X64094285Y-95250000D01*
X64141904Y-95202380D01*
X64141904Y-95297619D01*
X63522857Y-96202380D02*
X63618095Y-96154761D01*
X63665714Y-96059523D01*
X63665714Y-95202380D01*
X63141904Y-96202380D02*
X63141904Y-95535714D01*
X63141904Y-95202380D02*
X63189523Y-95250000D01*
X63141904Y-95297619D01*
X63094285Y-95250000D01*
X63141904Y-95202380D01*
X63141904Y-95297619D01*
X62237142Y-96154761D02*
X62332380Y-96202380D01*
X62522857Y-96202380D01*
X62618095Y-96154761D01*
X62665714Y-96107142D01*
X62713333Y-96011904D01*
X62713333Y-95726190D01*
X62665714Y-95630952D01*
X62618095Y-95583333D01*
X62522857Y-95535714D01*
X62332380Y-95535714D01*
X62237142Y-95583333D01*
X61665714Y-96202380D02*
X61760952Y-96154761D01*
X61808571Y-96107142D01*
X61856190Y-96011904D01*
X61856190Y-95726190D01*
X61808571Y-95630952D01*
X61760952Y-95583333D01*
X61665714Y-95535714D01*
X61522857Y-95535714D01*
X61427619Y-95583333D01*
X61380000Y-95630952D01*
X61332380Y-95726190D01*
X61332380Y-96011904D01*
X61380000Y-96107142D01*
X61427619Y-96154761D01*
X61522857Y-96202380D01*
X61665714Y-96202380D01*
X60903809Y-95535714D02*
X60903809Y-96202380D01*
X60903809Y-95630952D02*
X60856190Y-95583333D01*
X60760952Y-95535714D01*
X60618095Y-95535714D01*
X60522857Y-95583333D01*
X60475238Y-95678571D01*
X60475238Y-96202380D01*
X59380000Y-95535714D02*
X58999047Y-95535714D01*
X59237142Y-96202380D02*
X59237142Y-95345238D01*
X59189523Y-95250000D01*
X59094285Y-95202380D01*
X58999047Y-95202380D01*
X58237142Y-95535714D02*
X58237142Y-96202380D01*
X58665714Y-95535714D02*
X58665714Y-96059523D01*
X58618095Y-96154761D01*
X58522857Y-96202380D01*
X58380000Y-96202380D01*
X58284761Y-96154761D01*
X58237142Y-96107142D01*
X57856190Y-95535714D02*
X57332380Y-95535714D01*
X57856190Y-96202380D01*
X57332380Y-96202380D01*
X57046666Y-95535714D02*
X56522857Y-95535714D01*
X57046666Y-96202380D01*
X56522857Y-96202380D01*
D10*
X155850000Y-45350000D02*
X155850000Y-103650000D01*
X123150000Y-103650000D02*
X123150000Y-45350000D01*
X155850000Y-103650000D02*
X123150000Y-103650000D01*
X148850000Y-45350000D02*
X155850000Y-45350000D01*
X148850000Y-38350000D02*
X148850000Y-45350000D01*
X123150000Y-45350000D02*
X130150000Y-45350000D01*
X130150000Y-38350000D02*
X148850000Y-38350000D01*
X130150000Y-45350000D02*
X130150000Y-38350000D01*
X36500000Y-103800000D02*
X36500000Y-45500000D01*
X69200000Y-103800000D02*
X36500000Y-103800000D01*
X69200000Y-45500000D02*
X69200000Y-103800000D01*
X62200000Y-45500000D02*
X69200000Y-45500000D01*
X62200000Y-38500000D02*
X62200000Y-45500000D01*
X43500000Y-38500000D02*
X62200000Y-38500000D01*
X43500000Y-45500000D02*
X43500000Y-38500000D01*
X36500000Y-45500000D02*
X43500000Y-45500000D01*
D12*
G04 #@! TO.P,J302,1*
G04 #@! TO.N,VAA*
X141500000Y-48460000D03*
D13*
G04 #@! TO.P,J302,2*
G04 #@! TO.N,GNDD*
X141500000Y-51000000D03*
G04 #@! TO.P,J302,3*
G04 #@! TO.N,/Hot Silicon/FX_IN_B*
X141500000Y-53540000D03*
G04 #@! TO.P,J302,4*
G04 #@! TO.N,/Hot Silicon/FX_OUT_B*
X141500000Y-56080000D03*
G04 #@! TO.P,J302,5*
G04 #@! TO.N,GNDD*
X141500000Y-58620000D03*
G04 #@! TO.P,J302,6*
G04 #@! TO.N,/Hot Silicon/LED_CMD_B*
X141500000Y-61160000D03*
G04 #@! TD*
D14*
G04 #@! TO.P,J301,1*
G04 #@! TO.N,/Hot Silicon/EQ_SW_1_3B*
X137180000Y-46240000D03*
G04 #@! TO.P,J301,2*
G04 #@! TO.N,/Hot Silicon/EQ_SW_2_3B*
X133020000Y-46240000D03*
G04 #@! TO.P,J301,3*
G04 #@! TO.N,/Hot Silicon/EQ_SW_1_2B*
X137180000Y-43700000D03*
G04 #@! TO.P,J301,4*
G04 #@! TO.N,/Hot Silicon/EQ_SW_2_2B*
X133020000Y-43700000D03*
G04 #@! TO.P,J301,5*
G04 #@! TO.N,/Hot Silicon/EQ_SW_1_1B*
X137180000Y-41160000D03*
G04 #@! TO.P,J301,6*
G04 #@! TO.N,/Hot Silicon/EQ_SW_2_1B*
X133020000Y-41160000D03*
G04 #@! TD*
D12*
G04 #@! TO.P,J207,1*
G04 #@! TO.N,VDD*
X55000000Y-48440000D03*
D13*
G04 #@! TO.P,J207,2*
G04 #@! TO.N,VSS*
X55000000Y-50980000D03*
G04 #@! TO.P,J207,3*
G04 #@! TO.N,/CONNECTORS/FX_IN_A*
X55000000Y-53520000D03*
G04 #@! TO.P,J207,4*
G04 #@! TO.N,/CONNECTORS/FX_OUT_A*
X55000000Y-56060000D03*
G04 #@! TO.P,J207,5*
G04 #@! TO.N,VSS*
X55000000Y-58600000D03*
G04 #@! TO.P,J207,6*
G04 #@! TO.N,/CONNECTORS/BYPASS_CMD*
X55000000Y-61140000D03*
G04 #@! TD*
D15*
G04 #@! TO.P,RV304,1*
G04 #@! TO.N,GNDD*
X127000000Y-78250000D03*
G04 #@! TO.P,RV304,2*
G04 #@! TO.N,/Hot Silicon/FX_OUT_B*
X129500000Y-78250000D03*
G04 #@! TO.P,RV304,3*
G04 #@! TO.N,Net-(RV303-Pad2)*
X132000000Y-78250000D03*
D16*
G04 #@! TO.P,RV304,*
G04 #@! TO.N,*
X124750000Y-70750000D03*
X134250000Y-70750000D03*
G04 #@! TD*
D15*
G04 #@! TO.P,RV303,1*
G04 #@! TO.N,Net-(C307-Pad1)*
X127000000Y-62250000D03*
G04 #@! TO.P,RV303,2*
G04 #@! TO.N,Net-(RV303-Pad2)*
X129500000Y-62250000D03*
G04 #@! TO.P,RV303,3*
G04 #@! TO.N,/Hot Silicon/EQ_SW_2_2B*
X132000000Y-62250000D03*
D16*
G04 #@! TO.P,RV303,*
G04 #@! TO.N,*
X124750000Y-54750000D03*
X134250000Y-54750000D03*
G04 #@! TD*
D15*
G04 #@! TO.P,RV302,1*
G04 #@! TO.N,GNDD*
X146950000Y-78300000D03*
G04 #@! TO.P,RV302,2*
G04 #@! TO.N,Net-(R307-Pad2)*
X149450000Y-78300000D03*
G04 #@! TO.P,RV302,3*
X151950000Y-78300000D03*
D16*
G04 #@! TO.P,RV302,*
G04 #@! TO.N,*
X144700000Y-70800000D03*
X154200000Y-70800000D03*
G04 #@! TD*
D15*
G04 #@! TO.P,RV301,1*
G04 #@! TO.N,Net-(R307-Pad2)*
X147000000Y-62250000D03*
G04 #@! TO.P,RV301,2*
G04 #@! TO.N,Net-(C303-Pad1)*
X149500000Y-62250000D03*
G04 #@! TO.P,RV301,3*
G04 #@! TO.N,Net-(Q303-Pad2)*
X152000000Y-62250000D03*
D16*
G04 #@! TO.P,RV301,*
G04 #@! TO.N,*
X144750000Y-54750000D03*
X154250000Y-54750000D03*
G04 #@! TD*
D12*
G04 #@! TO.P,J204,1*
G04 #@! TO.N,VDD*
X67000000Y-68790000D03*
D13*
G04 #@! TO.P,J204,2*
G04 #@! TO.N,Net-(C204-Pad1)*
X67000000Y-66250000D03*
G04 #@! TD*
D17*
G04 #@! TO.P,J203,2*
G04 #@! TO.N,Net-(J203-Pad2)*
X66100000Y-59000000D03*
D18*
G04 #@! TO.P,J203,1*
G04 #@! TO.N,VSS*
X60000000Y-59000000D03*
D17*
G04 #@! TO.P,J203,3*
G04 #@! TO.N,Net-(J203-Pad2)*
X63810000Y-53920000D03*
G04 #@! TD*
D19*
G04 #@! TO.P,J202,1*
G04 #@! TO.N,VSS*
X41300000Y-101450000D03*
G04 #@! TO.P,J202,2*
G04 #@! TO.N,N/C*
X47650000Y-101450000D03*
G04 #@! TO.P,J202,6*
X54000000Y-90000000D03*
G04 #@! TO.P,J202,3*
G04 #@! TO.N,/CONNECTORS/AUDIO_OUT*
X54000000Y-101450000D03*
G04 #@! TO.P,J202,4*
G04 #@! TO.N,VSS*
X41300000Y-90000000D03*
G04 #@! TO.P,J202,5*
G04 #@! TO.N,N/C*
X47650000Y-90000000D03*
G04 #@! TD*
G04 #@! TO.P,J201,1*
G04 #@! TO.N,VSS*
X64300000Y-73850000D03*
G04 #@! TO.P,J201,2*
G04 #@! TO.N,N/C*
X57950000Y-73850000D03*
G04 #@! TO.P,J201,6*
X51600000Y-85300000D03*
G04 #@! TO.P,J201,3*
G04 #@! TO.N,/CONNECTORS/AUDIO_IN*
X51600000Y-73850000D03*
G04 #@! TO.P,J201,4*
G04 #@! TO.N,VSS*
X64300000Y-85300000D03*
G04 #@! TO.P,J201,5*
G04 #@! TO.N,N/C*
X57950000Y-85300000D03*
G04 #@! TD*
D12*
G04 #@! TO.P,D301,1*
G04 #@! TO.N,Net-(D301-Pad1)*
X140000000Y-70000000D03*
D13*
G04 #@! TO.P,D301,2*
G04 #@! TO.N,Net-(D301-Pad2)*
X140000000Y-67460000D03*
G04 #@! TD*
D12*
G04 #@! TO.P,J304,1*
G04 #@! TO.N,Net-(C308-Pad2)*
X145600000Y-46540000D03*
D13*
G04 #@! TO.P,J304,2*
G04 #@! TO.N,Net-(J304-Pad2)*
X145600000Y-44000000D03*
G04 #@! TO.P,J304,3*
G04 #@! TO.N,Net-(C309-Pad1)*
X145600000Y-41460000D03*
G04 #@! TD*
D20*
G04 #@! TO.N,VSS*
X52699242Y-62205745D03*
X44400000Y-48000000D03*
X42700000Y-83400000D03*
X52300000Y-51000000D03*
X58280000Y-50980000D03*
G04 #@! TO.N,VDD*
X44400000Y-50200000D03*
X49400000Y-70600000D03*
X64700000Y-70300000D03*
X52100000Y-48400000D03*
G04 #@! TO.N,VAA*
X141700000Y-91300000D03*
X131300000Y-92800000D03*
X145700000Y-91300000D03*
G04 #@! TO.N,GNDD*
X139000000Y-89000000D03*
X146375000Y-80500000D03*
X134700000Y-78600000D03*
X148298529Y-89098529D03*
X138478819Y-56378819D03*
X138500000Y-60000000D03*
G04 #@! TO.N,Net-(C302-Pad2)*
X135100000Y-83500000D03*
X145800000Y-88199997D03*
G04 #@! TO.N,/Hot Silicon/EQ_SW_1_2B*
X126400000Y-48100003D03*
G04 #@! TO.N,/Hot Silicon/EQ_SW_1_3B*
X138600000Y-49100000D03*
G04 #@! TO.N,/Hot Silicon/EQ_SW_2_3B*
X133000000Y-48700000D03*
G04 #@! TO.N,/Hot Silicon/EQ_SW_2_1B*
X130100000Y-47300000D03*
X140900000Y-39400000D03*
G04 #@! TO.N,Net-(C307-Pad1)*
X125003013Y-63823307D03*
X136400000Y-58200000D03*
G04 #@! TO.N,/CONNECTORS/AUDIO_IN*
X45900000Y-73100000D03*
G04 #@! TO.N,/CONNECTORS/AUDIO_OUT*
X40974999Y-85225001D03*
G04 #@! TO.N,/CONNECTORS/FX_IN_A*
X52800000Y-53500000D03*
G04 #@! TO.N,/CONNECTORS/FX_OUT_A*
X41910140Y-71310140D03*
X51000000Y-56800000D03*
X38400000Y-71000000D03*
G04 #@! TO.N,/CONNECTORS/BYPASS_CMD*
X52400000Y-58600004D03*
X58700000Y-62350002D03*
G04 #@! TO.N,/Hot Silicon/EQ_SW_2_2B*
X134100000Y-63700000D03*
X126400000Y-46400000D03*
G04 #@! TO.N,/Hot Silicon/EQ_SW_1_1B*
X140900000Y-41100003D03*
G04 #@! TO.N,/Hot Silicon/FX_IN_B*
X154475000Y-49800000D03*
X144100000Y-50000000D03*
G04 #@! TO.N,Net-(Q303-Pad2)*
X130100000Y-81800000D03*
X144100000Y-82200000D03*
X145500000Y-63700000D03*
G04 #@! TO.N,Net-(R307-Pad2)*
X150000000Y-81400000D03*
X143800000Y-63700000D03*
G04 #@! TO.N,Net-(C308-Pad2)*
X153975000Y-48100965D03*
G04 #@! TO.N,Net-(C309-Pad1)*
X151600000Y-46400000D03*
G04 #@! TO.N,Net-(J304-Pad2)*
X153400000Y-46500000D03*
G04 #@! TO.N,Net-(C204-Pad1)*
X64600000Y-64900000D03*
G04 #@! TO.N,Net-(C303-Pad1)*
X142600000Y-78200000D03*
G04 #@! TO.N,Net-(D301-Pad1)*
X138600000Y-72000000D03*
G04 #@! TO.N,Net-(D301-Pad2)*
X139200000Y-62600000D03*
G04 #@! TO.N,/Hot Silicon/FX_OUT_B*
X133500000Y-80125309D03*
G04 #@! TO.N,Net-(J203-Pad2)*
X63800000Y-49300000D03*
G04 #@! TD*
D21*
G04 #@! TO.N,*
X125750000Y-99750000D02*
X124750000Y-100750000D01*
X124750000Y-100750000D02*
X124750000Y-102000000D01*
X128000000Y-102000000D02*
X130000000Y-102000000D01*
X124750000Y-102000000D02*
X126000000Y-102000000D01*
X127000000Y-101000000D02*
X128000000Y-102000000D01*
X130000000Y-102000000D02*
X130000000Y-99750000D01*
X126000000Y-102000000D02*
X127000000Y-101000000D01*
X124250000Y-102500000D02*
X130500000Y-102500000D01*
X124250000Y-96500000D02*
X124250000Y-102500000D01*
X130000000Y-99750000D02*
X127250000Y-97000000D01*
X130000000Y-98250000D02*
X128750000Y-97000000D01*
X130000000Y-99000000D02*
X128000000Y-97000000D01*
X130000000Y-97500000D02*
X129504010Y-97004010D01*
X130500000Y-96500000D02*
X124250000Y-96500000D01*
X127250000Y-97000000D02*
X125500000Y-97000000D01*
X130500000Y-102500000D02*
X130500000Y-96500000D01*
X125500000Y-97000000D02*
X124750000Y-97750000D01*
X124750000Y-97750000D02*
X124750000Y-98750000D01*
X124750000Y-98750000D02*
X125750000Y-99750000D01*
X62750000Y-102500000D02*
X64000000Y-102500000D01*
X62750000Y-101250000D02*
X62750000Y-102500000D01*
X63750000Y-100250000D02*
X62750000Y-101250000D01*
X64000000Y-102500000D02*
X65000000Y-101500000D01*
X62250000Y-103000000D02*
X68250000Y-103000000D01*
X68250000Y-97000000D02*
X62250000Y-97000000D01*
X68250000Y-103000000D02*
X68250000Y-97000000D01*
X62250000Y-97000000D02*
X62250000Y-103000000D01*
X63750000Y-100233960D02*
X63750000Y-100250000D01*
X67745990Y-98000000D02*
X67250000Y-97504010D01*
X67745990Y-98750000D02*
X66500000Y-97504010D01*
X67745990Y-99500000D02*
X65750000Y-97504010D01*
X67750000Y-102500000D02*
X67750000Y-100254010D01*
X66000000Y-102500000D02*
X67750000Y-102500000D01*
X65000000Y-101500000D02*
X66000000Y-102500000D01*
X67750000Y-100254010D02*
X65000000Y-97504010D01*
X62758020Y-99241980D02*
X63750000Y-100233960D01*
X65000000Y-97504010D02*
X63504010Y-97504010D01*
X63504010Y-97504010D02*
X62758020Y-98250000D01*
X62758020Y-98250000D02*
X62758020Y-99241980D01*
D22*
G04 #@! TO.N,VSS*
X54043500Y-63550003D02*
X59200000Y-63550003D01*
X59200000Y-63550003D02*
X60049997Y-63550003D01*
X64300000Y-73850000D02*
X64300000Y-71728680D01*
X64300000Y-71728680D02*
X59200000Y-66628680D01*
X59200000Y-66628680D02*
X59200000Y-63550003D01*
X60600000Y-63000000D02*
X60000000Y-62400000D01*
X60000000Y-62400000D02*
X60000000Y-59000000D01*
X60049997Y-63550003D02*
X60600000Y-63000000D01*
X52699242Y-62205745D02*
X54043500Y-63550003D01*
X52699242Y-62205745D02*
X53200000Y-62706503D01*
X44400000Y-48000000D02*
X49300000Y-48000000D01*
X49300000Y-48000000D02*
X52300000Y-51000000D01*
X55000000Y-58600000D02*
X59600000Y-58600000D01*
X59600000Y-58600000D02*
X60000000Y-59000000D01*
X54800000Y-58400000D02*
X55000000Y-58600000D01*
X41300000Y-101450000D02*
X41300000Y-99328680D01*
X41300000Y-99328680D02*
X41300000Y-90000000D01*
X64300000Y-73850000D02*
X64300000Y-85300000D01*
X48400000Y-79800000D02*
X44800000Y-83400000D01*
X44800000Y-83400000D02*
X42700000Y-83400000D01*
X64300000Y-85300000D02*
X58800000Y-79800000D01*
X58800000Y-79800000D02*
X48400000Y-79800000D01*
X42700000Y-83400000D02*
X41023998Y-83400000D01*
X41023998Y-83400000D02*
X39774998Y-84649000D01*
X39774998Y-84649000D02*
X39774998Y-88474998D01*
X39774998Y-88474998D02*
X39800001Y-88500001D01*
X39800001Y-88500001D02*
X41300000Y-90000000D01*
X52300000Y-51000000D02*
X54980000Y-51000000D01*
X54980000Y-51000000D02*
X55000000Y-50980000D01*
X60000000Y-52700000D02*
X58280000Y-50980000D01*
X58280000Y-50980000D02*
X55000000Y-50980000D01*
X60000000Y-59000000D02*
X60000000Y-52700000D01*
G04 #@! TO.N,VDD*
X49400000Y-70600000D02*
X44400000Y-65600000D01*
X44400000Y-65600000D02*
X44400000Y-50200000D01*
X67000000Y-68790000D02*
X65210000Y-68790000D01*
X65210000Y-68790000D02*
X64700000Y-69300000D01*
X64700000Y-69300000D02*
X64700000Y-70300000D01*
X55000000Y-48440000D02*
X52140000Y-48440000D01*
X52140000Y-48440000D02*
X52100000Y-48400000D01*
G04 #@! TO.N,VAA*
X145700000Y-91300000D02*
X141700000Y-91300000D01*
X141700000Y-91300000D02*
X133700000Y-91300000D01*
X132400000Y-91300000D02*
X131300000Y-92400000D01*
X133700000Y-91300000D02*
X132400000Y-91300000D01*
X131300000Y-92400000D02*
X131300000Y-92800000D01*
D21*
G04 #@! TO.N,GNDD*
X134700000Y-81200309D02*
X132200309Y-81200309D01*
X132200309Y-81200309D02*
X131400000Y-80400000D01*
X131400000Y-80400000D02*
X127600000Y-80400000D01*
X140610659Y-84900000D02*
X139000000Y-84900000D01*
X139000000Y-84900000D02*
X131608998Y-84900000D01*
X139000000Y-89000000D02*
X139000000Y-87939340D01*
X139000000Y-87939340D02*
X139000000Y-84900000D01*
X141349999Y-86700000D02*
X141349999Y-85639340D01*
X141349999Y-85639340D02*
X140610659Y-84900000D01*
X131608998Y-84900000D02*
X127600000Y-80891002D01*
X127600000Y-80891002D02*
X127600000Y-80400000D01*
X144900000Y-79700000D02*
X144700000Y-79900000D01*
X144700000Y-79900000D02*
X143399691Y-81200309D01*
X146375000Y-80500000D02*
X145314340Y-80500000D01*
X145314340Y-80500000D02*
X144714340Y-79900000D01*
X144714340Y-79900000D02*
X144700000Y-79900000D01*
X138500000Y-60000000D02*
X137750001Y-60749999D01*
X137750001Y-60749999D02*
X137750001Y-71258997D01*
X137750001Y-71258997D02*
X136300000Y-72708998D01*
X136300000Y-77000000D02*
X134700000Y-78600000D01*
X136300000Y-72708998D02*
X136300000Y-77000000D01*
X146950000Y-78300000D02*
X145600000Y-78300000D01*
X145600000Y-78300000D02*
X144900000Y-79000000D01*
X144900000Y-79000000D02*
X144900000Y-79700000D01*
X143399691Y-81200309D02*
X142329632Y-81200309D01*
X127600000Y-80400000D02*
X127000000Y-79800000D01*
X127000000Y-79800000D02*
X127000000Y-78250000D01*
X142329632Y-81200309D02*
X134700000Y-81200309D01*
X134700000Y-78600000D02*
X134700000Y-79660660D01*
X134700000Y-79660660D02*
X134700000Y-81200309D01*
X142649999Y-87449999D02*
X145048528Y-89848528D01*
X145048528Y-89848528D02*
X147548530Y-89848528D01*
X147548530Y-89848528D02*
X148298529Y-89098529D01*
X141349999Y-86700000D02*
X142099998Y-87449999D01*
X142099998Y-87449999D02*
X142649999Y-87449999D01*
X138500000Y-60000000D02*
X138500000Y-56400000D01*
X138500000Y-56400000D02*
X138478819Y-56378819D01*
G04 #@! TO.N,Net-(C302-Pad2)*
X135100000Y-83500000D02*
X141100003Y-83500000D01*
X141100003Y-83500000D02*
X142300003Y-84700000D01*
X142300003Y-84700000D02*
X145800000Y-88199997D01*
G04 #@! TO.N,/Hot Silicon/EQ_SW_1_2B*
X137180000Y-43700000D02*
X135400000Y-43700000D01*
X135100000Y-44000000D02*
X135100000Y-48300000D01*
X135400000Y-43700000D02*
X135100000Y-44000000D01*
X129100000Y-49000000D02*
X127600000Y-47500000D01*
X127600000Y-47500000D02*
X127000003Y-47500000D01*
X135100000Y-48300000D02*
X133500000Y-49900000D01*
X133500000Y-49900000D02*
X132500000Y-49900000D01*
X127000003Y-47500000D02*
X126400000Y-48100003D01*
X132500000Y-49900000D02*
X131600000Y-49000000D01*
X131600000Y-49000000D02*
X129100000Y-49000000D01*
G04 #@! TO.N,/Hot Silicon/EQ_SW_1_3B*
X137180000Y-46240000D02*
X137180000Y-47680000D01*
X137180000Y-47680000D02*
X138600000Y-49100000D01*
G04 #@! TO.N,/Hot Silicon/EQ_SW_2_3B*
X133020000Y-46240000D02*
X133020000Y-48680000D01*
X133020000Y-48680000D02*
X133000000Y-48700000D01*
G04 #@! TO.N,/Hot Silicon/EQ_SW_2_1B*
X130100000Y-47300000D02*
X130600000Y-46800000D01*
X130600000Y-46800000D02*
X130600000Y-41900000D01*
X130600000Y-41900000D02*
X131340000Y-41160000D01*
X131340000Y-41160000D02*
X133020000Y-41160000D01*
X140900000Y-39400000D02*
X133530000Y-39400000D01*
X133530000Y-39400000D02*
X133020000Y-39910000D01*
X133020000Y-39910000D02*
X133020000Y-41160000D01*
G04 #@! TO.N,Net-(C307-Pad1)*
X125426693Y-63823307D02*
X125003013Y-63823307D01*
X127000000Y-62250000D02*
X125426693Y-63823307D01*
X136400000Y-58200000D02*
X135339340Y-58200000D01*
X135339340Y-58200000D02*
X134139340Y-59400000D01*
X134139340Y-59400000D02*
X128000000Y-59400000D01*
X128000000Y-59400000D02*
X127000000Y-60400000D01*
X127000000Y-60400000D02*
X127000000Y-62250000D01*
G04 #@! TO.N,/CONNECTORS/AUDIO_IN*
X51600000Y-73850000D02*
X46650000Y-73850000D01*
X46650000Y-73850000D02*
X45900000Y-73100000D01*
G04 #@! TO.N,/CONNECTORS/AUDIO_OUT*
X40974999Y-85225001D02*
X46725001Y-85225001D01*
X46725001Y-85225001D02*
X50900000Y-89400000D01*
X50900000Y-89400000D02*
X50900000Y-94700000D01*
X50900000Y-94700000D02*
X54000000Y-97800000D01*
X54000000Y-97800000D02*
X54000000Y-101450000D01*
G04 #@! TO.N,/CONNECTORS/FX_IN_A*
X52800000Y-53500000D02*
X54980000Y-53500000D01*
X54980000Y-53500000D02*
X55000000Y-53520000D01*
G04 #@! TO.N,/CONNECTORS/FX_OUT_A*
X51000000Y-56800000D02*
X54260000Y-56800000D01*
X54260000Y-56800000D02*
X55000000Y-56060000D01*
X41910140Y-71310140D02*
X38710140Y-71310140D01*
X38710140Y-71310140D02*
X38400000Y-71000000D01*
G04 #@! TO.N,/CONNECTORS/BYPASS_CMD*
X55000000Y-61140000D02*
X52460004Y-58600004D01*
X52460004Y-58600004D02*
X52400000Y-58600004D01*
X58700000Y-62350002D02*
X57250002Y-62350002D01*
X57250002Y-62350002D02*
X56040000Y-61140000D01*
X56040000Y-61140000D02*
X55000000Y-61140000D01*
G04 #@! TO.N,/Hot Silicon/EQ_SW_2_2B*
X132000000Y-62250000D02*
X132000000Y-63522792D01*
X132000000Y-63522792D02*
X132177208Y-63700000D01*
X132177208Y-63700000D02*
X133039340Y-63700000D01*
X133039340Y-63700000D02*
X134100000Y-63700000D01*
X129400000Y-48500000D02*
X127300000Y-46400000D01*
X127300000Y-46400000D02*
X126400000Y-46400000D01*
X130491002Y-48500000D02*
X129400000Y-48500000D01*
X133020000Y-43700000D02*
X131520000Y-43700000D01*
X131520000Y-43700000D02*
X131175001Y-44044999D01*
X131175001Y-44044999D02*
X131175001Y-47816001D01*
X131175001Y-47816001D02*
X130491002Y-48500000D01*
G04 #@! TO.N,/Hot Silicon/EQ_SW_1_1B*
X137180000Y-41160000D02*
X140840003Y-41160000D01*
X140840003Y-41160000D02*
X140900000Y-41100003D01*
G04 #@! TO.N,/Hot Silicon/FX_IN_B*
X154475000Y-49800000D02*
X144300000Y-49800000D01*
X144300000Y-49800000D02*
X144100000Y-50000000D01*
G04 #@! TO.N,Net-(Q303-Pad2)*
X130100000Y-81800000D02*
X135900000Y-81800000D01*
X135900000Y-81800000D02*
X136900000Y-82800000D01*
X136900000Y-82800000D02*
X143500000Y-82800000D01*
X143500000Y-82800000D02*
X144100000Y-82200000D01*
X151322792Y-64200000D02*
X146000000Y-64200000D01*
X146000000Y-64200000D02*
X145500000Y-63700000D01*
X152000000Y-62250000D02*
X152000000Y-63522792D01*
X152000000Y-63522792D02*
X151322792Y-64200000D01*
G04 #@! TO.N,Net-(R307-Pad2)*
X149450000Y-78300000D02*
X151950000Y-78300000D01*
X148550001Y-69750001D02*
X143800000Y-65000000D01*
X143800000Y-65000000D02*
X143800000Y-63700000D01*
X149450000Y-78300000D02*
X148550001Y-77400001D01*
X148550001Y-77400001D02*
X148550001Y-69750001D01*
X149450000Y-78300000D02*
X149450000Y-80850000D01*
X149450000Y-80850000D02*
X150000000Y-81400000D01*
X147000000Y-62250000D02*
X145250000Y-62250000D01*
X145250000Y-62250000D02*
X143800000Y-63700000D01*
G04 #@! TO.N,Net-(C308-Pad2)*
X153975000Y-48100965D02*
X151073553Y-48100965D01*
X151073553Y-48100965D02*
X150272608Y-47300020D01*
X148003590Y-46540000D02*
X145600000Y-46540000D01*
X150272608Y-47300020D02*
X148763610Y-47300020D01*
X148763610Y-47300020D02*
X148003590Y-46540000D01*
X145660000Y-46600000D02*
X145600000Y-46540000D01*
G04 #@! TO.N,Net-(C309-Pad1)*
X151600000Y-46400000D02*
X149300000Y-46400000D01*
X149300000Y-46400000D02*
X148300000Y-45400000D01*
X148300000Y-45400000D02*
X148300000Y-42400000D01*
X148300000Y-42400000D02*
X147360000Y-41460000D01*
X147360000Y-41460000D02*
X145600000Y-41460000D01*
G04 #@! TO.N,Net-(J304-Pad2)*
X150459008Y-46850010D02*
X148950010Y-46850010D01*
X148950010Y-46850010D02*
X147800000Y-45700000D01*
X152400000Y-47500000D02*
X151108998Y-47500000D01*
X151108998Y-47500000D02*
X150459008Y-46850010D01*
X153400000Y-46500000D02*
X152400000Y-47500000D01*
X147800000Y-45700000D02*
X147800000Y-44900000D01*
X147800000Y-44900000D02*
X146900000Y-44000000D01*
X146900000Y-44000000D02*
X145600000Y-44000000D01*
G04 #@! TO.N,Net-(C204-Pad1)*
X67000000Y-66250000D02*
X65650000Y-64900000D01*
X65650000Y-64900000D02*
X64600000Y-64900000D01*
G04 #@! TO.N,Net-(C303-Pad1)*
X142700000Y-63200000D02*
X142700000Y-66000000D01*
X142700000Y-66000000D02*
X142700000Y-66500000D01*
X142600000Y-78200000D02*
X142600000Y-77139340D01*
X142600000Y-77139340D02*
X142700000Y-77039340D01*
X142700000Y-77039340D02*
X142700000Y-66000000D01*
X149500000Y-62250000D02*
X147750000Y-60500000D01*
X147750000Y-60500000D02*
X145400000Y-60500000D01*
X145400000Y-60500000D02*
X142700000Y-63200000D01*
G04 #@! TO.N,Net-(D301-Pad1)*
X140000000Y-70000000D02*
X140000000Y-71100000D01*
X140000000Y-71100000D02*
X139100000Y-72000000D01*
X139100000Y-72000000D02*
X138600000Y-72000000D01*
G04 #@! TO.N,Net-(D301-Pad2)*
X140000000Y-67460000D02*
X140000000Y-63400000D01*
X140000000Y-63400000D02*
X139200000Y-62600000D01*
G04 #@! TO.N,/Hot Silicon/FX_OUT_B*
X129877208Y-79900000D02*
X133274691Y-79900000D01*
X133274691Y-79900000D02*
X133500000Y-80125309D01*
X129500000Y-78250000D02*
X129500000Y-79522792D01*
X129500000Y-79522792D02*
X129877208Y-79900000D01*
G04 #@! TO.N,Net-(RV303-Pad2)*
X129500000Y-62250000D02*
X129500000Y-72800000D01*
X129500000Y-72800000D02*
X129500000Y-73250000D01*
X129500000Y-74477208D02*
X129500000Y-72800000D01*
X132000000Y-78250000D02*
X132000000Y-76977208D01*
X132000000Y-76977208D02*
X129500000Y-74477208D01*
D22*
G04 #@! TO.N,Net-(J203-Pad2)*
X63810000Y-53920000D02*
X63810000Y-57314112D01*
X63810000Y-57314112D02*
X65495888Y-59000000D01*
X65495888Y-59000000D02*
X66100000Y-59000000D01*
X63810000Y-53920000D02*
X63810000Y-49310000D01*
X63810000Y-49310000D02*
X63800000Y-49300000D01*
G04 #@! TD*
D23*
G04 #@! TO.N,VSS*
G36*
X61490001Y-45430069D02*
X61476091Y-45500000D01*
X61531195Y-45777028D01*
X61688119Y-46011881D01*
X61922972Y-46168805D01*
X62130074Y-46210000D01*
X62130075Y-46210000D01*
X62200000Y-46223909D01*
X62269926Y-46210000D01*
X68490000Y-46210000D01*
X68490000Y-57097862D01*
X67819189Y-56427051D01*
X66703699Y-55965000D01*
X66057138Y-55965000D01*
X66382949Y-55639189D01*
X66845000Y-54523699D01*
X66845000Y-53316301D01*
X66382949Y-52200811D01*
X65529189Y-51347051D01*
X64695000Y-51001519D01*
X64695000Y-50363687D01*
X64974147Y-50084540D01*
X65185000Y-49575494D01*
X65185000Y-49024506D01*
X64974147Y-48515460D01*
X64584540Y-48125853D01*
X64075494Y-47915000D01*
X63524506Y-47915000D01*
X63015460Y-48125853D01*
X62625853Y-48515460D01*
X62415000Y-49024506D01*
X62415000Y-49575494D01*
X62625853Y-50084540D01*
X62925001Y-50383688D01*
X62925001Y-51001518D01*
X62090811Y-51347051D01*
X61237051Y-52200811D01*
X60775000Y-53316301D01*
X60775000Y-54523699D01*
X61237051Y-55639189D01*
X61562862Y-55965000D01*
X60285750Y-55965000D01*
X60127000Y-56123750D01*
X60127000Y-58873000D01*
X62876250Y-58873000D01*
X63035000Y-58714250D01*
X63035000Y-57747200D01*
X63122576Y-57878266D01*
X63122578Y-57878268D01*
X63171952Y-57952161D01*
X63232274Y-57992467D01*
X63065000Y-58396301D01*
X63065000Y-59603699D01*
X63527051Y-60719189D01*
X64380811Y-61572949D01*
X65496301Y-62035000D01*
X66703699Y-62035000D01*
X67819189Y-61572949D01*
X68490000Y-60902138D01*
X68490000Y-66128883D01*
X68398839Y-65670582D01*
X68070625Y-65179375D01*
X67579418Y-64851161D01*
X67146256Y-64765000D01*
X66853744Y-64765000D01*
X66633592Y-64808791D01*
X66240331Y-64415530D01*
X66197929Y-64352071D01*
X65946537Y-64184096D01*
X65789651Y-64152889D01*
X65774147Y-64115460D01*
X65384540Y-63725853D01*
X64875494Y-63515000D01*
X64324506Y-63515000D01*
X63815460Y-63725853D01*
X63425853Y-64115460D01*
X63215000Y-64624506D01*
X63215000Y-65175494D01*
X63425853Y-65684540D01*
X63815460Y-66074147D01*
X64324506Y-66285000D01*
X64875494Y-66285000D01*
X65384540Y-66074147D01*
X65554742Y-65903945D01*
X65485908Y-66250000D01*
X65601161Y-66829418D01*
X65929375Y-67320625D01*
X65947619Y-67332816D01*
X65902235Y-67341843D01*
X65692191Y-67482191D01*
X65551843Y-67692235D01*
X65509522Y-67905000D01*
X65297161Y-67905000D01*
X65210000Y-67887663D01*
X65122839Y-67905000D01*
X65122835Y-67905000D01*
X64864690Y-67956348D01*
X64571951Y-68151951D01*
X64522575Y-68225847D01*
X64135847Y-68612575D01*
X64061951Y-68661951D01*
X63866348Y-68954691D01*
X63815000Y-69212836D01*
X63815000Y-69212839D01*
X63811655Y-69229658D01*
X63525853Y-69515460D01*
X63315000Y-70024506D01*
X63315000Y-70575494D01*
X63525853Y-71084540D01*
X63915460Y-71474147D01*
X64424506Y-71685000D01*
X64975494Y-71685000D01*
X65484540Y-71474147D01*
X65874147Y-71084540D01*
X66085000Y-70575494D01*
X66085000Y-70274511D01*
X66150000Y-70287440D01*
X67850000Y-70287440D01*
X68097765Y-70238157D01*
X68307809Y-70097809D01*
X68448157Y-69887765D01*
X68490000Y-69677402D01*
X68490001Y-92845000D01*
X56615000Y-92845000D01*
X56615000Y-94345000D01*
X55615000Y-94345000D01*
X55615000Y-97315000D01*
X57865000Y-97315000D01*
X57865000Y-99065000D01*
X61490000Y-99065000D01*
X61490001Y-102925143D01*
X61475111Y-103000000D01*
X61493013Y-103090000D01*
X55379346Y-103090000D01*
X55809966Y-102659380D01*
X56135000Y-101874678D01*
X56135000Y-101025322D01*
X55809966Y-100240620D01*
X55209380Y-99640034D01*
X54760000Y-99453895D01*
X54760000Y-97874846D01*
X54774888Y-97799999D01*
X54760000Y-97725152D01*
X54760000Y-97725148D01*
X54715904Y-97503463D01*
X54547929Y-97252071D01*
X54484473Y-97209671D01*
X51660000Y-94385199D01*
X51660000Y-89575322D01*
X51865000Y-89575322D01*
X51865000Y-90424678D01*
X52190034Y-91209380D01*
X52790620Y-91809966D01*
X53575322Y-92135000D01*
X54424678Y-92135000D01*
X55209380Y-91809966D01*
X55809966Y-91209380D01*
X56135000Y-90424678D01*
X56135000Y-89575322D01*
X55809966Y-88790620D01*
X55209380Y-88190034D01*
X54424678Y-87865000D01*
X53575322Y-87865000D01*
X52790620Y-88190034D01*
X52190034Y-88790620D01*
X51865000Y-89575322D01*
X51660000Y-89575322D01*
X51660000Y-89474846D01*
X51674888Y-89399999D01*
X51660000Y-89325152D01*
X51660000Y-89325148D01*
X51615904Y-89103463D01*
X51447929Y-88852071D01*
X51384473Y-88809671D01*
X47450124Y-84875322D01*
X49465000Y-84875322D01*
X49465000Y-85724678D01*
X49790034Y-86509380D01*
X50390620Y-87109966D01*
X51175322Y-87435000D01*
X52024678Y-87435000D01*
X52809380Y-87109966D01*
X53409966Y-86509380D01*
X53735000Y-85724678D01*
X53735000Y-84875322D01*
X55815000Y-84875322D01*
X55815000Y-85724678D01*
X56140034Y-86509380D01*
X56740620Y-87109966D01*
X57525322Y-87435000D01*
X58374678Y-87435000D01*
X59159380Y-87109966D01*
X59759966Y-86509380D01*
X59829433Y-86341672D01*
X60173847Y-86686086D01*
X60774778Y-86935000D01*
X61425222Y-86935000D01*
X61717413Y-86813970D01*
X62965635Y-86813970D01*
X63125418Y-87132739D01*
X63916187Y-87442723D01*
X64765387Y-87426497D01*
X65474582Y-87132739D01*
X65634365Y-86813970D01*
X64300000Y-85479605D01*
X62965635Y-86813970D01*
X61717413Y-86813970D01*
X62026153Y-86686086D01*
X62400012Y-86312227D01*
X62467261Y-86474582D01*
X62786030Y-86634365D01*
X64120395Y-85300000D01*
X64479605Y-85300000D01*
X65813970Y-86634365D01*
X66132739Y-86474582D01*
X66442723Y-85683813D01*
X66426497Y-84834613D01*
X66132739Y-84125418D01*
X65813970Y-83965635D01*
X64479605Y-85300000D01*
X64120395Y-85300000D01*
X62786030Y-83965635D01*
X62467261Y-84125418D01*
X62402602Y-84290363D01*
X62026153Y-83913914D01*
X61717414Y-83786030D01*
X62965635Y-83786030D01*
X64300000Y-85120395D01*
X65634365Y-83786030D01*
X65474582Y-83467261D01*
X64683813Y-83157277D01*
X63834613Y-83173503D01*
X63125418Y-83467261D01*
X62965635Y-83786030D01*
X61717414Y-83786030D01*
X61425222Y-83665000D01*
X60774778Y-83665000D01*
X60173847Y-83913914D01*
X59829433Y-84258328D01*
X59759966Y-84090620D01*
X59159380Y-83490034D01*
X58374678Y-83165000D01*
X57525322Y-83165000D01*
X56740620Y-83490034D01*
X56140034Y-84090620D01*
X55815000Y-84875322D01*
X53735000Y-84875322D01*
X53409966Y-84090620D01*
X52809380Y-83490034D01*
X52024678Y-83165000D01*
X51175322Y-83165000D01*
X50390620Y-83490034D01*
X49790034Y-84090620D01*
X49465000Y-84875322D01*
X47450124Y-84875322D01*
X47315332Y-84740531D01*
X47272930Y-84677072D01*
X47021538Y-84509097D01*
X46799853Y-84465001D01*
X46799848Y-84465001D01*
X46725001Y-84450113D01*
X46650154Y-84465001D01*
X42159311Y-84465001D01*
X42149146Y-84440461D01*
X41759539Y-84050854D01*
X41250493Y-83840001D01*
X40699505Y-83840001D01*
X40190459Y-84050854D01*
X39800852Y-84440461D01*
X39589999Y-84949507D01*
X39589999Y-85500495D01*
X39800852Y-86009541D01*
X40190459Y-86399148D01*
X40699505Y-86610001D01*
X41250493Y-86610001D01*
X41759539Y-86399148D01*
X42149146Y-86009541D01*
X42159311Y-85985001D01*
X46410200Y-85985001D01*
X48442594Y-88017396D01*
X48074678Y-87865000D01*
X47225322Y-87865000D01*
X46440620Y-88190034D01*
X45840034Y-88790620D01*
X45770567Y-88958328D01*
X45426153Y-88613914D01*
X44825222Y-88365000D01*
X44174778Y-88365000D01*
X43573847Y-88613914D01*
X43199988Y-88987773D01*
X43132739Y-88825418D01*
X42813970Y-88665635D01*
X41479605Y-90000000D01*
X42813970Y-91334365D01*
X43132739Y-91174582D01*
X43197398Y-91009637D01*
X43573847Y-91386086D01*
X44174778Y-91635000D01*
X44825222Y-91635000D01*
X45426153Y-91386086D01*
X45770567Y-91041672D01*
X45840034Y-91209380D01*
X46440620Y-91809966D01*
X47225322Y-92135000D01*
X48074678Y-92135000D01*
X48859380Y-91809966D01*
X49459966Y-91209380D01*
X49785000Y-90424678D01*
X49785000Y-89575322D01*
X49632604Y-89207406D01*
X50140000Y-89714802D01*
X50140001Y-94625148D01*
X50125112Y-94700000D01*
X50140001Y-94774852D01*
X50184097Y-94996537D01*
X50352072Y-95247929D01*
X50415528Y-95290329D01*
X53240000Y-98114802D01*
X53240000Y-99453895D01*
X52985000Y-99559519D01*
X52985000Y-98925322D01*
X52659966Y-98140620D01*
X52059380Y-97540034D01*
X51274678Y-97215000D01*
X50425322Y-97215000D01*
X49640620Y-97540034D01*
X49040034Y-98140620D01*
X48715000Y-98925322D01*
X48715000Y-99580230D01*
X48074678Y-99315000D01*
X47225322Y-99315000D01*
X46440620Y-99640034D01*
X45840034Y-100240620D01*
X45770567Y-100408328D01*
X45426153Y-100063914D01*
X44825222Y-99815000D01*
X44174778Y-99815000D01*
X43573847Y-100063914D01*
X43199988Y-100437773D01*
X43132739Y-100275418D01*
X42813970Y-100115635D01*
X41479605Y-101450000D01*
X42813970Y-102784365D01*
X43132739Y-102624582D01*
X43197398Y-102459637D01*
X43573847Y-102836086D01*
X44174778Y-103085000D01*
X44825222Y-103085000D01*
X45426153Y-102836086D01*
X45770567Y-102491672D01*
X45840034Y-102659380D01*
X46270654Y-103090000D01*
X42571192Y-103090000D01*
X42634365Y-102963970D01*
X41300000Y-101629605D01*
X39965635Y-102963970D01*
X40028808Y-103090000D01*
X37210000Y-103090000D01*
X37210000Y-101066187D01*
X39157277Y-101066187D01*
X39173503Y-101915387D01*
X39467261Y-102624582D01*
X39786030Y-102784365D01*
X41120395Y-101450000D01*
X39786030Y-100115635D01*
X39467261Y-100275418D01*
X39157277Y-101066187D01*
X37210000Y-101066187D01*
X37210000Y-99936030D01*
X39965635Y-99936030D01*
X41300000Y-101270395D01*
X42634365Y-99936030D01*
X42474582Y-99617261D01*
X41683813Y-99307277D01*
X40834613Y-99323503D01*
X40125418Y-99617261D01*
X39965635Y-99936030D01*
X37210000Y-99936030D01*
X37210000Y-91513970D01*
X39965635Y-91513970D01*
X40125418Y-91832739D01*
X40916187Y-92142723D01*
X41765387Y-92126497D01*
X42474582Y-91832739D01*
X42634365Y-91513970D01*
X41300000Y-90179605D01*
X39965635Y-91513970D01*
X37210000Y-91513970D01*
X37210000Y-89616187D01*
X39157277Y-89616187D01*
X39173503Y-90465387D01*
X39467261Y-91174582D01*
X39786030Y-91334365D01*
X41120395Y-90000000D01*
X39786030Y-88665635D01*
X39467261Y-88825418D01*
X39157277Y-89616187D01*
X37210000Y-89616187D01*
X37210000Y-88486030D01*
X39965635Y-88486030D01*
X41300000Y-89820395D01*
X42634365Y-88486030D01*
X42474582Y-88167261D01*
X41683813Y-87857277D01*
X40834613Y-87873503D01*
X40125418Y-88167261D01*
X39965635Y-88486030D01*
X37210000Y-88486030D01*
X37210000Y-72824506D01*
X44515000Y-72824506D01*
X44515000Y-73375494D01*
X44725853Y-73884540D01*
X45115460Y-74274147D01*
X45624506Y-74485000D01*
X46175494Y-74485000D01*
X46210612Y-74470454D01*
X46353463Y-74565904D01*
X46575148Y-74610000D01*
X46575152Y-74610000D01*
X46649999Y-74624888D01*
X46724846Y-74610000D01*
X49603895Y-74610000D01*
X49790034Y-75059380D01*
X50390620Y-75659966D01*
X51175322Y-75985000D01*
X52024678Y-75985000D01*
X52615000Y-75740481D01*
X52615000Y-76374678D01*
X52940034Y-77159380D01*
X53540620Y-77759966D01*
X54325322Y-78085000D01*
X55174678Y-78085000D01*
X55959380Y-77759966D01*
X56559966Y-77159380D01*
X56885000Y-76374678D01*
X56885000Y-75719770D01*
X57525322Y-75985000D01*
X58374678Y-75985000D01*
X59159380Y-75659966D01*
X59759966Y-75059380D01*
X59829433Y-74891672D01*
X60173847Y-75236086D01*
X60774778Y-75485000D01*
X61425222Y-75485000D01*
X61717413Y-75363970D01*
X62965635Y-75363970D01*
X63125418Y-75682739D01*
X63916187Y-75992723D01*
X64765387Y-75976497D01*
X65474582Y-75682739D01*
X65634365Y-75363970D01*
X64300000Y-74029605D01*
X62965635Y-75363970D01*
X61717413Y-75363970D01*
X62026153Y-75236086D01*
X62400012Y-74862227D01*
X62467261Y-75024582D01*
X62786030Y-75184365D01*
X64120395Y-73850000D01*
X64479605Y-73850000D01*
X65813970Y-75184365D01*
X66132739Y-75024582D01*
X66442723Y-74233813D01*
X66426497Y-73384613D01*
X66132739Y-72675418D01*
X65813970Y-72515635D01*
X64479605Y-73850000D01*
X64120395Y-73850000D01*
X62786030Y-72515635D01*
X62467261Y-72675418D01*
X62402602Y-72840363D01*
X62026153Y-72463914D01*
X61717414Y-72336030D01*
X62965635Y-72336030D01*
X64300000Y-73670395D01*
X65634365Y-72336030D01*
X65474582Y-72017261D01*
X64683813Y-71707277D01*
X63834613Y-71723503D01*
X63125418Y-72017261D01*
X62965635Y-72336030D01*
X61717414Y-72336030D01*
X61425222Y-72215000D01*
X60774778Y-72215000D01*
X60173847Y-72463914D01*
X59829433Y-72808328D01*
X59759966Y-72640620D01*
X59159380Y-72040034D01*
X58374678Y-71715000D01*
X57525322Y-71715000D01*
X56740620Y-72040034D01*
X56140034Y-72640620D01*
X55815000Y-73425322D01*
X55815000Y-74080230D01*
X55174678Y-73815000D01*
X54325322Y-73815000D01*
X53735000Y-74059519D01*
X53735000Y-73425322D01*
X53409966Y-72640620D01*
X52809380Y-72040034D01*
X52024678Y-71715000D01*
X51175322Y-71715000D01*
X50390620Y-72040034D01*
X49790034Y-72640620D01*
X49603895Y-73090000D01*
X47285000Y-73090000D01*
X47285000Y-72824506D01*
X47074147Y-72315460D01*
X46684540Y-71925853D01*
X46175494Y-71715000D01*
X45624506Y-71715000D01*
X45115460Y-71925853D01*
X44725853Y-72315460D01*
X44515000Y-72824506D01*
X37210000Y-72824506D01*
X37210000Y-71746267D01*
X37225853Y-71784540D01*
X37615460Y-72174147D01*
X38124506Y-72385000D01*
X38675494Y-72385000D01*
X39184540Y-72174147D01*
X39288547Y-72070140D01*
X40725828Y-72070140D01*
X40735993Y-72094680D01*
X41125600Y-72484287D01*
X41634646Y-72695140D01*
X42185634Y-72695140D01*
X42694680Y-72484287D01*
X43084287Y-72094680D01*
X43295140Y-71585634D01*
X43295140Y-71034646D01*
X43084287Y-70525600D01*
X42694680Y-70135993D01*
X42185634Y-69925140D01*
X41634646Y-69925140D01*
X41125600Y-70135993D01*
X40735993Y-70525600D01*
X40725828Y-70550140D01*
X39712775Y-70550140D01*
X39574147Y-70215460D01*
X39184540Y-69825853D01*
X38675494Y-69615000D01*
X38124506Y-69615000D01*
X37615460Y-69825853D01*
X37225853Y-70215460D01*
X37210000Y-70253733D01*
X37210000Y-49924506D01*
X43015000Y-49924506D01*
X43015000Y-50475494D01*
X43225853Y-50984540D01*
X43515001Y-51273688D01*
X43515000Y-65512839D01*
X43497663Y-65600000D01*
X43515000Y-65687161D01*
X43515000Y-65687164D01*
X43566348Y-65945309D01*
X43761951Y-66238049D01*
X43835847Y-66287425D01*
X48015000Y-70466579D01*
X48015000Y-70875494D01*
X48225853Y-71384540D01*
X48615460Y-71774147D01*
X49124506Y-71985000D01*
X49675494Y-71985000D01*
X50184540Y-71774147D01*
X50574147Y-71384540D01*
X50785000Y-70875494D01*
X50785000Y-70324506D01*
X50574147Y-69815460D01*
X50184540Y-69425853D01*
X49675494Y-69215000D01*
X49266579Y-69215000D01*
X45285000Y-65233422D01*
X45285000Y-56524506D01*
X49615000Y-56524506D01*
X49615000Y-57075494D01*
X49825853Y-57584540D01*
X50215460Y-57974147D01*
X50724506Y-58185000D01*
X51072787Y-58185000D01*
X51015000Y-58324510D01*
X51015000Y-58875498D01*
X51225853Y-59384544D01*
X51615460Y-59774151D01*
X52124506Y-59985004D01*
X52675494Y-59985004D01*
X52742463Y-59957265D01*
X53558791Y-60773592D01*
X53485908Y-61140000D01*
X53601161Y-61719418D01*
X53929375Y-62210625D01*
X54420582Y-62538839D01*
X54853744Y-62625000D01*
X55146256Y-62625000D01*
X55579418Y-62538839D01*
X56049763Y-62224565D01*
X56659673Y-62834475D01*
X56702073Y-62897931D01*
X56953465Y-63065906D01*
X57175150Y-63110002D01*
X57175154Y-63110002D01*
X57250001Y-63124890D01*
X57324848Y-63110002D01*
X57515688Y-63110002D01*
X57525853Y-63134542D01*
X57915460Y-63524149D01*
X58424506Y-63735002D01*
X58975494Y-63735002D01*
X59484540Y-63524149D01*
X59874147Y-63134542D01*
X60085000Y-62625496D01*
X60085000Y-62074508D01*
X60068635Y-62035000D01*
X60127002Y-62035000D01*
X60127002Y-61876252D01*
X60285750Y-62035000D01*
X62526309Y-62035000D01*
X62759698Y-61938327D01*
X62938327Y-61759699D01*
X63035000Y-61526310D01*
X63035000Y-59285750D01*
X62876250Y-59127000D01*
X60127000Y-59127000D01*
X60127000Y-59147000D01*
X59873000Y-59147000D01*
X59873000Y-59127000D01*
X57123750Y-59127000D01*
X56965000Y-59285750D01*
X56965000Y-60990199D01*
X56630331Y-60655530D01*
X56587929Y-60592071D01*
X56336537Y-60424096D01*
X56303213Y-60417467D01*
X56070625Y-60069375D01*
X55751522Y-59856157D01*
X55881358Y-59795183D01*
X56271645Y-59366924D01*
X56441476Y-58956890D01*
X56320155Y-58727000D01*
X55127000Y-58727000D01*
X55127000Y-58747000D01*
X54873000Y-58747000D01*
X54873000Y-58727000D01*
X54853000Y-58727000D01*
X54853000Y-58473000D01*
X54873000Y-58473000D01*
X54873000Y-58453000D01*
X55127000Y-58453000D01*
X55127000Y-58473000D01*
X56320155Y-58473000D01*
X56441476Y-58243110D01*
X56271645Y-57833076D01*
X55881358Y-57404817D01*
X55751522Y-57343843D01*
X56070625Y-57130625D01*
X56398839Y-56639418D01*
X56431804Y-56473690D01*
X56965000Y-56473690D01*
X56965000Y-58714250D01*
X57123750Y-58873000D01*
X59873000Y-58873000D01*
X59873000Y-56123750D01*
X59714250Y-55965000D01*
X57473691Y-55965000D01*
X57240302Y-56061673D01*
X57061673Y-56240301D01*
X56965000Y-56473690D01*
X56431804Y-56473690D01*
X56514092Y-56060000D01*
X56398839Y-55480582D01*
X56070625Y-54989375D01*
X55772239Y-54790000D01*
X56070625Y-54590625D01*
X56398839Y-54099418D01*
X56514092Y-53520000D01*
X56398839Y-52940582D01*
X56070625Y-52449375D01*
X55751522Y-52236157D01*
X55881358Y-52175183D01*
X56271645Y-51746924D01*
X56441476Y-51336890D01*
X56320155Y-51107000D01*
X55127000Y-51107000D01*
X55127000Y-51127000D01*
X54873000Y-51127000D01*
X54873000Y-51107000D01*
X53679845Y-51107000D01*
X53558524Y-51336890D01*
X53728355Y-51746924D01*
X54118642Y-52175183D01*
X54248478Y-52236157D01*
X53929375Y-52449375D01*
X53840729Y-52582042D01*
X53584540Y-52325853D01*
X53075494Y-52115000D01*
X52524506Y-52115000D01*
X52015460Y-52325853D01*
X51625853Y-52715460D01*
X51415000Y-53224506D01*
X51415000Y-53775494D01*
X51625853Y-54284540D01*
X52015460Y-54674147D01*
X52524506Y-54885000D01*
X53075494Y-54885000D01*
X53584540Y-54674147D01*
X53824708Y-54433979D01*
X53929375Y-54590625D01*
X54227761Y-54790000D01*
X53929375Y-54989375D01*
X53601161Y-55480582D01*
X53489886Y-56040000D01*
X52184312Y-56040000D01*
X52174147Y-56015460D01*
X51784540Y-55625853D01*
X51275494Y-55415000D01*
X50724506Y-55415000D01*
X50215460Y-55625853D01*
X49825853Y-56015460D01*
X49615000Y-56524506D01*
X45285000Y-56524506D01*
X45285000Y-51273687D01*
X45574147Y-50984540D01*
X45785000Y-50475494D01*
X45785000Y-49924506D01*
X45574147Y-49415460D01*
X45184540Y-49025853D01*
X44675494Y-48815000D01*
X44124506Y-48815000D01*
X43615460Y-49025853D01*
X43225853Y-49415460D01*
X43015000Y-49924506D01*
X37210000Y-49924506D01*
X37210000Y-48124506D01*
X50715000Y-48124506D01*
X50715000Y-48675494D01*
X50925853Y-49184540D01*
X51315460Y-49574147D01*
X51824506Y-49785000D01*
X52375494Y-49785000D01*
X52884540Y-49574147D01*
X53133687Y-49325000D01*
X53509522Y-49325000D01*
X53551843Y-49537765D01*
X53692191Y-49747809D01*
X53902235Y-49888157D01*
X54005708Y-49908739D01*
X53728355Y-50213076D01*
X53558524Y-50623110D01*
X53679845Y-50853000D01*
X54873000Y-50853000D01*
X54873000Y-50833000D01*
X55127000Y-50833000D01*
X55127000Y-50853000D01*
X56320155Y-50853000D01*
X56441476Y-50623110D01*
X56271645Y-50213076D01*
X55994292Y-49908739D01*
X56097765Y-49888157D01*
X56307809Y-49747809D01*
X56448157Y-49537765D01*
X56497440Y-49290000D01*
X56497440Y-47590000D01*
X56448157Y-47342235D01*
X56307809Y-47132191D01*
X56097765Y-46991843D01*
X55850000Y-46942560D01*
X54150000Y-46942560D01*
X53902235Y-46991843D01*
X53692191Y-47132191D01*
X53551843Y-47342235D01*
X53509522Y-47555000D01*
X53213687Y-47555000D01*
X52884540Y-47225853D01*
X52375494Y-47015000D01*
X51824506Y-47015000D01*
X51315460Y-47225853D01*
X50925853Y-47615460D01*
X50715000Y-48124506D01*
X37210000Y-48124506D01*
X37210000Y-46210000D01*
X43430074Y-46210000D01*
X43500000Y-46223909D01*
X43569925Y-46210000D01*
X43569926Y-46210000D01*
X43777028Y-46168805D01*
X44011881Y-46011881D01*
X44168805Y-45777028D01*
X44223909Y-45500000D01*
X44210000Y-45430074D01*
X44210000Y-39210000D01*
X61490000Y-39210000D01*
X61490001Y-45430069D01*
X61490001Y-45430069D01*
G37*
X61490001Y-45430069D02*
X61476091Y-45500000D01*
X61531195Y-45777028D01*
X61688119Y-46011881D01*
X61922972Y-46168805D01*
X62130074Y-46210000D01*
X62130075Y-46210000D01*
X62200000Y-46223909D01*
X62269926Y-46210000D01*
X68490000Y-46210000D01*
X68490000Y-57097862D01*
X67819189Y-56427051D01*
X66703699Y-55965000D01*
X66057138Y-55965000D01*
X66382949Y-55639189D01*
X66845000Y-54523699D01*
X66845000Y-53316301D01*
X66382949Y-52200811D01*
X65529189Y-51347051D01*
X64695000Y-51001519D01*
X64695000Y-50363687D01*
X64974147Y-50084540D01*
X65185000Y-49575494D01*
X65185000Y-49024506D01*
X64974147Y-48515460D01*
X64584540Y-48125853D01*
X64075494Y-47915000D01*
X63524506Y-47915000D01*
X63015460Y-48125853D01*
X62625853Y-48515460D01*
X62415000Y-49024506D01*
X62415000Y-49575494D01*
X62625853Y-50084540D01*
X62925001Y-50383688D01*
X62925001Y-51001518D01*
X62090811Y-51347051D01*
X61237051Y-52200811D01*
X60775000Y-53316301D01*
X60775000Y-54523699D01*
X61237051Y-55639189D01*
X61562862Y-55965000D01*
X60285750Y-55965000D01*
X60127000Y-56123750D01*
X60127000Y-58873000D01*
X62876250Y-58873000D01*
X63035000Y-58714250D01*
X63035000Y-57747200D01*
X63122576Y-57878266D01*
X63122578Y-57878268D01*
X63171952Y-57952161D01*
X63232274Y-57992467D01*
X63065000Y-58396301D01*
X63065000Y-59603699D01*
X63527051Y-60719189D01*
X64380811Y-61572949D01*
X65496301Y-62035000D01*
X66703699Y-62035000D01*
X67819189Y-61572949D01*
X68490000Y-60902138D01*
X68490000Y-66128883D01*
X68398839Y-65670582D01*
X68070625Y-65179375D01*
X67579418Y-64851161D01*
X67146256Y-64765000D01*
X66853744Y-64765000D01*
X66633592Y-64808791D01*
X66240331Y-64415530D01*
X66197929Y-64352071D01*
X65946537Y-64184096D01*
X65789651Y-64152889D01*
X65774147Y-64115460D01*
X65384540Y-63725853D01*
X64875494Y-63515000D01*
X64324506Y-63515000D01*
X63815460Y-63725853D01*
X63425853Y-64115460D01*
X63215000Y-64624506D01*
X63215000Y-65175494D01*
X63425853Y-65684540D01*
X63815460Y-66074147D01*
X64324506Y-66285000D01*
X64875494Y-66285000D01*
X65384540Y-66074147D01*
X65554742Y-65903945D01*
X65485908Y-66250000D01*
X65601161Y-66829418D01*
X65929375Y-67320625D01*
X65947619Y-67332816D01*
X65902235Y-67341843D01*
X65692191Y-67482191D01*
X65551843Y-67692235D01*
X65509522Y-67905000D01*
X65297161Y-67905000D01*
X65210000Y-67887663D01*
X65122839Y-67905000D01*
X65122835Y-67905000D01*
X64864690Y-67956348D01*
X64571951Y-68151951D01*
X64522575Y-68225847D01*
X64135847Y-68612575D01*
X64061951Y-68661951D01*
X63866348Y-68954691D01*
X63815000Y-69212836D01*
X63815000Y-69212839D01*
X63811655Y-69229658D01*
X63525853Y-69515460D01*
X63315000Y-70024506D01*
X63315000Y-70575494D01*
X63525853Y-71084540D01*
X63915460Y-71474147D01*
X64424506Y-71685000D01*
X64975494Y-71685000D01*
X65484540Y-71474147D01*
X65874147Y-71084540D01*
X66085000Y-70575494D01*
X66085000Y-70274511D01*
X66150000Y-70287440D01*
X67850000Y-70287440D01*
X68097765Y-70238157D01*
X68307809Y-70097809D01*
X68448157Y-69887765D01*
X68490000Y-69677402D01*
X68490001Y-92845000D01*
X56615000Y-92845000D01*
X56615000Y-94345000D01*
X55615000Y-94345000D01*
X55615000Y-97315000D01*
X57865000Y-97315000D01*
X57865000Y-99065000D01*
X61490000Y-99065000D01*
X61490001Y-102925143D01*
X61475111Y-103000000D01*
X61493013Y-103090000D01*
X55379346Y-103090000D01*
X55809966Y-102659380D01*
X56135000Y-101874678D01*
X56135000Y-101025322D01*
X55809966Y-100240620D01*
X55209380Y-99640034D01*
X54760000Y-99453895D01*
X54760000Y-97874846D01*
X54774888Y-97799999D01*
X54760000Y-97725152D01*
X54760000Y-97725148D01*
X54715904Y-97503463D01*
X54547929Y-97252071D01*
X54484473Y-97209671D01*
X51660000Y-94385199D01*
X51660000Y-89575322D01*
X51865000Y-89575322D01*
X51865000Y-90424678D01*
X52190034Y-91209380D01*
X52790620Y-91809966D01*
X53575322Y-92135000D01*
X54424678Y-92135000D01*
X55209380Y-91809966D01*
X55809966Y-91209380D01*
X56135000Y-90424678D01*
X56135000Y-89575322D01*
X55809966Y-88790620D01*
X55209380Y-88190034D01*
X54424678Y-87865000D01*
X53575322Y-87865000D01*
X52790620Y-88190034D01*
X52190034Y-88790620D01*
X51865000Y-89575322D01*
X51660000Y-89575322D01*
X51660000Y-89474846D01*
X51674888Y-89399999D01*
X51660000Y-89325152D01*
X51660000Y-89325148D01*
X51615904Y-89103463D01*
X51447929Y-88852071D01*
X51384473Y-88809671D01*
X47450124Y-84875322D01*
X49465000Y-84875322D01*
X49465000Y-85724678D01*
X49790034Y-86509380D01*
X50390620Y-87109966D01*
X51175322Y-87435000D01*
X52024678Y-87435000D01*
X52809380Y-87109966D01*
X53409966Y-86509380D01*
X53735000Y-85724678D01*
X53735000Y-84875322D01*
X55815000Y-84875322D01*
X55815000Y-85724678D01*
X56140034Y-86509380D01*
X56740620Y-87109966D01*
X57525322Y-87435000D01*
X58374678Y-87435000D01*
X59159380Y-87109966D01*
X59759966Y-86509380D01*
X59829433Y-86341672D01*
X60173847Y-86686086D01*
X60774778Y-86935000D01*
X61425222Y-86935000D01*
X61717413Y-86813970D01*
X62965635Y-86813970D01*
X63125418Y-87132739D01*
X63916187Y-87442723D01*
X64765387Y-87426497D01*
X65474582Y-87132739D01*
X65634365Y-86813970D01*
X64300000Y-85479605D01*
X62965635Y-86813970D01*
X61717413Y-86813970D01*
X62026153Y-86686086D01*
X62400012Y-86312227D01*
X62467261Y-86474582D01*
X62786030Y-86634365D01*
X64120395Y-85300000D01*
X64479605Y-85300000D01*
X65813970Y-86634365D01*
X66132739Y-86474582D01*
X66442723Y-85683813D01*
X66426497Y-84834613D01*
X66132739Y-84125418D01*
X65813970Y-83965635D01*
X64479605Y-85300000D01*
X64120395Y-85300000D01*
X62786030Y-83965635D01*
X62467261Y-84125418D01*
X62402602Y-84290363D01*
X62026153Y-83913914D01*
X61717414Y-83786030D01*
X62965635Y-83786030D01*
X64300000Y-85120395D01*
X65634365Y-83786030D01*
X65474582Y-83467261D01*
X64683813Y-83157277D01*
X63834613Y-83173503D01*
X63125418Y-83467261D01*
X62965635Y-83786030D01*
X61717414Y-83786030D01*
X61425222Y-83665000D01*
X60774778Y-83665000D01*
X60173847Y-83913914D01*
X59829433Y-84258328D01*
X59759966Y-84090620D01*
X59159380Y-83490034D01*
X58374678Y-83165000D01*
X57525322Y-83165000D01*
X56740620Y-83490034D01*
X56140034Y-84090620D01*
X55815000Y-84875322D01*
X53735000Y-84875322D01*
X53409966Y-84090620D01*
X52809380Y-83490034D01*
X52024678Y-83165000D01*
X51175322Y-83165000D01*
X50390620Y-83490034D01*
X49790034Y-84090620D01*
X49465000Y-84875322D01*
X47450124Y-84875322D01*
X47315332Y-84740531D01*
X47272930Y-84677072D01*
X47021538Y-84509097D01*
X46799853Y-84465001D01*
X46799848Y-84465001D01*
X46725001Y-84450113D01*
X46650154Y-84465001D01*
X42159311Y-84465001D01*
X42149146Y-84440461D01*
X41759539Y-84050854D01*
X41250493Y-83840001D01*
X40699505Y-83840001D01*
X40190459Y-84050854D01*
X39800852Y-84440461D01*
X39589999Y-84949507D01*
X39589999Y-85500495D01*
X39800852Y-86009541D01*
X40190459Y-86399148D01*
X40699505Y-86610001D01*
X41250493Y-86610001D01*
X41759539Y-86399148D01*
X42149146Y-86009541D01*
X42159311Y-85985001D01*
X46410200Y-85985001D01*
X48442594Y-88017396D01*
X48074678Y-87865000D01*
X47225322Y-87865000D01*
X46440620Y-88190034D01*
X45840034Y-88790620D01*
X45770567Y-88958328D01*
X45426153Y-88613914D01*
X44825222Y-88365000D01*
X44174778Y-88365000D01*
X43573847Y-88613914D01*
X43199988Y-88987773D01*
X43132739Y-88825418D01*
X42813970Y-88665635D01*
X41479605Y-90000000D01*
X42813970Y-91334365D01*
X43132739Y-91174582D01*
X43197398Y-91009637D01*
X43573847Y-91386086D01*
X44174778Y-91635000D01*
X44825222Y-91635000D01*
X45426153Y-91386086D01*
X45770567Y-91041672D01*
X45840034Y-91209380D01*
X46440620Y-91809966D01*
X47225322Y-92135000D01*
X48074678Y-92135000D01*
X48859380Y-91809966D01*
X49459966Y-91209380D01*
X49785000Y-90424678D01*
X49785000Y-89575322D01*
X49632604Y-89207406D01*
X50140000Y-89714802D01*
X50140001Y-94625148D01*
X50125112Y-94700000D01*
X50140001Y-94774852D01*
X50184097Y-94996537D01*
X50352072Y-95247929D01*
X50415528Y-95290329D01*
X53240000Y-98114802D01*
X53240000Y-99453895D01*
X52985000Y-99559519D01*
X52985000Y-98925322D01*
X52659966Y-98140620D01*
X52059380Y-97540034D01*
X51274678Y-97215000D01*
X50425322Y-97215000D01*
X49640620Y-97540034D01*
X49040034Y-98140620D01*
X48715000Y-98925322D01*
X48715000Y-99580230D01*
X48074678Y-99315000D01*
X47225322Y-99315000D01*
X46440620Y-99640034D01*
X45840034Y-100240620D01*
X45770567Y-100408328D01*
X45426153Y-100063914D01*
X44825222Y-99815000D01*
X44174778Y-99815000D01*
X43573847Y-100063914D01*
X43199988Y-100437773D01*
X43132739Y-100275418D01*
X42813970Y-100115635D01*
X41479605Y-101450000D01*
X42813970Y-102784365D01*
X43132739Y-102624582D01*
X43197398Y-102459637D01*
X43573847Y-102836086D01*
X44174778Y-103085000D01*
X44825222Y-103085000D01*
X45426153Y-102836086D01*
X45770567Y-102491672D01*
X45840034Y-102659380D01*
X46270654Y-103090000D01*
X42571192Y-103090000D01*
X42634365Y-102963970D01*
X41300000Y-101629605D01*
X39965635Y-102963970D01*
X40028808Y-103090000D01*
X37210000Y-103090000D01*
X37210000Y-101066187D01*
X39157277Y-101066187D01*
X39173503Y-101915387D01*
X39467261Y-102624582D01*
X39786030Y-102784365D01*
X41120395Y-101450000D01*
X39786030Y-100115635D01*
X39467261Y-100275418D01*
X39157277Y-101066187D01*
X37210000Y-101066187D01*
X37210000Y-99936030D01*
X39965635Y-99936030D01*
X41300000Y-101270395D01*
X42634365Y-99936030D01*
X42474582Y-99617261D01*
X41683813Y-99307277D01*
X40834613Y-99323503D01*
X40125418Y-99617261D01*
X39965635Y-99936030D01*
X37210000Y-99936030D01*
X37210000Y-91513970D01*
X39965635Y-91513970D01*
X40125418Y-91832739D01*
X40916187Y-92142723D01*
X41765387Y-92126497D01*
X42474582Y-91832739D01*
X42634365Y-91513970D01*
X41300000Y-90179605D01*
X39965635Y-91513970D01*
X37210000Y-91513970D01*
X37210000Y-89616187D01*
X39157277Y-89616187D01*
X39173503Y-90465387D01*
X39467261Y-91174582D01*
X39786030Y-91334365D01*
X41120395Y-90000000D01*
X39786030Y-88665635D01*
X39467261Y-88825418D01*
X39157277Y-89616187D01*
X37210000Y-89616187D01*
X37210000Y-88486030D01*
X39965635Y-88486030D01*
X41300000Y-89820395D01*
X42634365Y-88486030D01*
X42474582Y-88167261D01*
X41683813Y-87857277D01*
X40834613Y-87873503D01*
X40125418Y-88167261D01*
X39965635Y-88486030D01*
X37210000Y-88486030D01*
X37210000Y-72824506D01*
X44515000Y-72824506D01*
X44515000Y-73375494D01*
X44725853Y-73884540D01*
X45115460Y-74274147D01*
X45624506Y-74485000D01*
X46175494Y-74485000D01*
X46210612Y-74470454D01*
X46353463Y-74565904D01*
X46575148Y-74610000D01*
X46575152Y-74610000D01*
X46649999Y-74624888D01*
X46724846Y-74610000D01*
X49603895Y-74610000D01*
X49790034Y-75059380D01*
X50390620Y-75659966D01*
X51175322Y-75985000D01*
X52024678Y-75985000D01*
X52615000Y-75740481D01*
X52615000Y-76374678D01*
X52940034Y-77159380D01*
X53540620Y-77759966D01*
X54325322Y-78085000D01*
X55174678Y-78085000D01*
X55959380Y-77759966D01*
X56559966Y-77159380D01*
X56885000Y-76374678D01*
X56885000Y-75719770D01*
X57525322Y-75985000D01*
X58374678Y-75985000D01*
X59159380Y-75659966D01*
X59759966Y-75059380D01*
X59829433Y-74891672D01*
X60173847Y-75236086D01*
X60774778Y-75485000D01*
X61425222Y-75485000D01*
X61717413Y-75363970D01*
X62965635Y-75363970D01*
X63125418Y-75682739D01*
X63916187Y-75992723D01*
X64765387Y-75976497D01*
X65474582Y-75682739D01*
X65634365Y-75363970D01*
X64300000Y-74029605D01*
X62965635Y-75363970D01*
X61717413Y-75363970D01*
X62026153Y-75236086D01*
X62400012Y-74862227D01*
X62467261Y-75024582D01*
X62786030Y-75184365D01*
X64120395Y-73850000D01*
X64479605Y-73850000D01*
X65813970Y-75184365D01*
X66132739Y-75024582D01*
X66442723Y-74233813D01*
X66426497Y-73384613D01*
X66132739Y-72675418D01*
X65813970Y-72515635D01*
X64479605Y-73850000D01*
X64120395Y-73850000D01*
X62786030Y-72515635D01*
X62467261Y-72675418D01*
X62402602Y-72840363D01*
X62026153Y-72463914D01*
X61717414Y-72336030D01*
X62965635Y-72336030D01*
X64300000Y-73670395D01*
X65634365Y-72336030D01*
X65474582Y-72017261D01*
X64683813Y-71707277D01*
X63834613Y-71723503D01*
X63125418Y-72017261D01*
X62965635Y-72336030D01*
X61717414Y-72336030D01*
X61425222Y-72215000D01*
X60774778Y-72215000D01*
X60173847Y-72463914D01*
X59829433Y-72808328D01*
X59759966Y-72640620D01*
X59159380Y-72040034D01*
X58374678Y-71715000D01*
X57525322Y-71715000D01*
X56740620Y-72040034D01*
X56140034Y-72640620D01*
X55815000Y-73425322D01*
X55815000Y-74080230D01*
X55174678Y-73815000D01*
X54325322Y-73815000D01*
X53735000Y-74059519D01*
X53735000Y-73425322D01*
X53409966Y-72640620D01*
X52809380Y-72040034D01*
X52024678Y-71715000D01*
X51175322Y-71715000D01*
X50390620Y-72040034D01*
X49790034Y-72640620D01*
X49603895Y-73090000D01*
X47285000Y-73090000D01*
X47285000Y-72824506D01*
X47074147Y-72315460D01*
X46684540Y-71925853D01*
X46175494Y-71715000D01*
X45624506Y-71715000D01*
X45115460Y-71925853D01*
X44725853Y-72315460D01*
X44515000Y-72824506D01*
X37210000Y-72824506D01*
X37210000Y-71746267D01*
X37225853Y-71784540D01*
X37615460Y-72174147D01*
X38124506Y-72385000D01*
X38675494Y-72385000D01*
X39184540Y-72174147D01*
X39288547Y-72070140D01*
X40725828Y-72070140D01*
X40735993Y-72094680D01*
X41125600Y-72484287D01*
X41634646Y-72695140D01*
X42185634Y-72695140D01*
X42694680Y-72484287D01*
X43084287Y-72094680D01*
X43295140Y-71585634D01*
X43295140Y-71034646D01*
X43084287Y-70525600D01*
X42694680Y-70135993D01*
X42185634Y-69925140D01*
X41634646Y-69925140D01*
X41125600Y-70135993D01*
X40735993Y-70525600D01*
X40725828Y-70550140D01*
X39712775Y-70550140D01*
X39574147Y-70215460D01*
X39184540Y-69825853D01*
X38675494Y-69615000D01*
X38124506Y-69615000D01*
X37615460Y-69825853D01*
X37225853Y-70215460D01*
X37210000Y-70253733D01*
X37210000Y-49924506D01*
X43015000Y-49924506D01*
X43015000Y-50475494D01*
X43225853Y-50984540D01*
X43515001Y-51273688D01*
X43515000Y-65512839D01*
X43497663Y-65600000D01*
X43515000Y-65687161D01*
X43515000Y-65687164D01*
X43566348Y-65945309D01*
X43761951Y-66238049D01*
X43835847Y-66287425D01*
X48015000Y-70466579D01*
X48015000Y-70875494D01*
X48225853Y-71384540D01*
X48615460Y-71774147D01*
X49124506Y-71985000D01*
X49675494Y-71985000D01*
X50184540Y-71774147D01*
X50574147Y-71384540D01*
X50785000Y-70875494D01*
X50785000Y-70324506D01*
X50574147Y-69815460D01*
X50184540Y-69425853D01*
X49675494Y-69215000D01*
X49266579Y-69215000D01*
X45285000Y-65233422D01*
X45285000Y-56524506D01*
X49615000Y-56524506D01*
X49615000Y-57075494D01*
X49825853Y-57584540D01*
X50215460Y-57974147D01*
X50724506Y-58185000D01*
X51072787Y-58185000D01*
X51015000Y-58324510D01*
X51015000Y-58875498D01*
X51225853Y-59384544D01*
X51615460Y-59774151D01*
X52124506Y-59985004D01*
X52675494Y-59985004D01*
X52742463Y-59957265D01*
X53558791Y-60773592D01*
X53485908Y-61140000D01*
X53601161Y-61719418D01*
X53929375Y-62210625D01*
X54420582Y-62538839D01*
X54853744Y-62625000D01*
X55146256Y-62625000D01*
X55579418Y-62538839D01*
X56049763Y-62224565D01*
X56659673Y-62834475D01*
X56702073Y-62897931D01*
X56953465Y-63065906D01*
X57175150Y-63110002D01*
X57175154Y-63110002D01*
X57250001Y-63124890D01*
X57324848Y-63110002D01*
X57515688Y-63110002D01*
X57525853Y-63134542D01*
X57915460Y-63524149D01*
X58424506Y-63735002D01*
X58975494Y-63735002D01*
X59484540Y-63524149D01*
X59874147Y-63134542D01*
X60085000Y-62625496D01*
X60085000Y-62074508D01*
X60068635Y-62035000D01*
X60127002Y-62035000D01*
X60127002Y-61876252D01*
X60285750Y-62035000D01*
X62526309Y-62035000D01*
X62759698Y-61938327D01*
X62938327Y-61759699D01*
X63035000Y-61526310D01*
X63035000Y-59285750D01*
X62876250Y-59127000D01*
X60127000Y-59127000D01*
X60127000Y-59147000D01*
X59873000Y-59147000D01*
X59873000Y-59127000D01*
X57123750Y-59127000D01*
X56965000Y-59285750D01*
X56965000Y-60990199D01*
X56630331Y-60655530D01*
X56587929Y-60592071D01*
X56336537Y-60424096D01*
X56303213Y-60417467D01*
X56070625Y-60069375D01*
X55751522Y-59856157D01*
X55881358Y-59795183D01*
X56271645Y-59366924D01*
X56441476Y-58956890D01*
X56320155Y-58727000D01*
X55127000Y-58727000D01*
X55127000Y-58747000D01*
X54873000Y-58747000D01*
X54873000Y-58727000D01*
X54853000Y-58727000D01*
X54853000Y-58473000D01*
X54873000Y-58473000D01*
X54873000Y-58453000D01*
X55127000Y-58453000D01*
X55127000Y-58473000D01*
X56320155Y-58473000D01*
X56441476Y-58243110D01*
X56271645Y-57833076D01*
X55881358Y-57404817D01*
X55751522Y-57343843D01*
X56070625Y-57130625D01*
X56398839Y-56639418D01*
X56431804Y-56473690D01*
X56965000Y-56473690D01*
X56965000Y-58714250D01*
X57123750Y-58873000D01*
X59873000Y-58873000D01*
X59873000Y-56123750D01*
X59714250Y-55965000D01*
X57473691Y-55965000D01*
X57240302Y-56061673D01*
X57061673Y-56240301D01*
X56965000Y-56473690D01*
X56431804Y-56473690D01*
X56514092Y-56060000D01*
X56398839Y-55480582D01*
X56070625Y-54989375D01*
X55772239Y-54790000D01*
X56070625Y-54590625D01*
X56398839Y-54099418D01*
X56514092Y-53520000D01*
X56398839Y-52940582D01*
X56070625Y-52449375D01*
X55751522Y-52236157D01*
X55881358Y-52175183D01*
X56271645Y-51746924D01*
X56441476Y-51336890D01*
X56320155Y-51107000D01*
X55127000Y-51107000D01*
X55127000Y-51127000D01*
X54873000Y-51127000D01*
X54873000Y-51107000D01*
X53679845Y-51107000D01*
X53558524Y-51336890D01*
X53728355Y-51746924D01*
X54118642Y-52175183D01*
X54248478Y-52236157D01*
X53929375Y-52449375D01*
X53840729Y-52582042D01*
X53584540Y-52325853D01*
X53075494Y-52115000D01*
X52524506Y-52115000D01*
X52015460Y-52325853D01*
X51625853Y-52715460D01*
X51415000Y-53224506D01*
X51415000Y-53775494D01*
X51625853Y-54284540D01*
X52015460Y-54674147D01*
X52524506Y-54885000D01*
X53075494Y-54885000D01*
X53584540Y-54674147D01*
X53824708Y-54433979D01*
X53929375Y-54590625D01*
X54227761Y-54790000D01*
X53929375Y-54989375D01*
X53601161Y-55480582D01*
X53489886Y-56040000D01*
X52184312Y-56040000D01*
X52174147Y-56015460D01*
X51784540Y-55625853D01*
X51275494Y-55415000D01*
X50724506Y-55415000D01*
X50215460Y-55625853D01*
X49825853Y-56015460D01*
X49615000Y-56524506D01*
X45285000Y-56524506D01*
X45285000Y-51273687D01*
X45574147Y-50984540D01*
X45785000Y-50475494D01*
X45785000Y-49924506D01*
X45574147Y-49415460D01*
X45184540Y-49025853D01*
X44675494Y-48815000D01*
X44124506Y-48815000D01*
X43615460Y-49025853D01*
X43225853Y-49415460D01*
X43015000Y-49924506D01*
X37210000Y-49924506D01*
X37210000Y-48124506D01*
X50715000Y-48124506D01*
X50715000Y-48675494D01*
X50925853Y-49184540D01*
X51315460Y-49574147D01*
X51824506Y-49785000D01*
X52375494Y-49785000D01*
X52884540Y-49574147D01*
X53133687Y-49325000D01*
X53509522Y-49325000D01*
X53551843Y-49537765D01*
X53692191Y-49747809D01*
X53902235Y-49888157D01*
X54005708Y-49908739D01*
X53728355Y-50213076D01*
X53558524Y-50623110D01*
X53679845Y-50853000D01*
X54873000Y-50853000D01*
X54873000Y-50833000D01*
X55127000Y-50833000D01*
X55127000Y-50853000D01*
X56320155Y-50853000D01*
X56441476Y-50623110D01*
X56271645Y-50213076D01*
X55994292Y-49908739D01*
X56097765Y-49888157D01*
X56307809Y-49747809D01*
X56448157Y-49537765D01*
X56497440Y-49290000D01*
X56497440Y-47590000D01*
X56448157Y-47342235D01*
X56307809Y-47132191D01*
X56097765Y-46991843D01*
X55850000Y-46942560D01*
X54150000Y-46942560D01*
X53902235Y-46991843D01*
X53692191Y-47132191D01*
X53551843Y-47342235D01*
X53509522Y-47555000D01*
X53213687Y-47555000D01*
X52884540Y-47225853D01*
X52375494Y-47015000D01*
X51824506Y-47015000D01*
X51315460Y-47225853D01*
X50925853Y-47615460D01*
X50715000Y-48124506D01*
X37210000Y-48124506D01*
X37210000Y-46210000D01*
X43430074Y-46210000D01*
X43500000Y-46223909D01*
X43569925Y-46210000D01*
X43569926Y-46210000D01*
X43777028Y-46168805D01*
X44011881Y-46011881D01*
X44168805Y-45777028D01*
X44223909Y-45500000D01*
X44210000Y-45430074D01*
X44210000Y-39210000D01*
X61490000Y-39210000D01*
X61490001Y-45430069D01*
G04 #@! TO.N,GNDD*
G36*
X148140000Y-41165199D02*
X147950331Y-40975530D01*
X147907929Y-40912071D01*
X147656537Y-40744096D01*
X147434852Y-40700000D01*
X147434847Y-40700000D01*
X147360000Y-40685112D01*
X147285153Y-40700000D01*
X146878178Y-40700000D01*
X146670625Y-40389375D01*
X146179418Y-40061161D01*
X145746256Y-39975000D01*
X145453744Y-39975000D01*
X145020582Y-40061161D01*
X144529375Y-40389375D01*
X144201161Y-40880582D01*
X144085908Y-41460000D01*
X144201161Y-42039418D01*
X144529375Y-42530625D01*
X144827761Y-42730000D01*
X144529375Y-42929375D01*
X144201161Y-43420582D01*
X144085908Y-44000000D01*
X144201161Y-44579418D01*
X144529375Y-45070625D01*
X144547619Y-45082816D01*
X144502235Y-45091843D01*
X144292191Y-45232191D01*
X144151843Y-45442235D01*
X144102560Y-45690000D01*
X144102560Y-47390000D01*
X144151843Y-47637765D01*
X144292191Y-47847809D01*
X144502235Y-47988157D01*
X144750000Y-48037440D01*
X146450000Y-48037440D01*
X146697765Y-47988157D01*
X146907809Y-47847809D01*
X147048157Y-47637765D01*
X147097440Y-47390000D01*
X147097440Y-47300000D01*
X147688789Y-47300000D01*
X148173280Y-47784492D01*
X148215681Y-47847949D01*
X148467073Y-48015924D01*
X148688758Y-48060020D01*
X148688762Y-48060020D01*
X148763610Y-48074908D01*
X148838458Y-48060020D01*
X149957807Y-48060020D01*
X150483224Y-48585438D01*
X150525624Y-48648894D01*
X150777016Y-48816869D01*
X150998701Y-48860965D01*
X150998705Y-48860965D01*
X151073552Y-48875853D01*
X151148399Y-48860965D01*
X152790688Y-48860965D01*
X152800853Y-48885505D01*
X152955348Y-49040000D01*
X145098687Y-49040000D01*
X144884540Y-48825853D01*
X144375494Y-48615000D01*
X143824506Y-48615000D01*
X143315460Y-48825853D01*
X142997440Y-49143873D01*
X142997440Y-47610000D01*
X142948157Y-47362235D01*
X142807809Y-47152191D01*
X142597765Y-47011843D01*
X142350000Y-46962560D01*
X140650000Y-46962560D01*
X140402235Y-47011843D01*
X140192191Y-47152191D01*
X140051843Y-47362235D01*
X140002560Y-47610000D01*
X140002560Y-49310000D01*
X140051843Y-49557765D01*
X140192191Y-49767809D01*
X140402235Y-49908157D01*
X140505708Y-49928739D01*
X140228355Y-50233076D01*
X140058524Y-50643110D01*
X140179845Y-50873000D01*
X141373000Y-50873000D01*
X141373000Y-50853000D01*
X141627000Y-50853000D01*
X141627000Y-50873000D01*
X142820155Y-50873000D01*
X142899902Y-50721888D01*
X142925853Y-50784540D01*
X143315460Y-51174147D01*
X143824506Y-51385000D01*
X144375494Y-51385000D01*
X144884540Y-51174147D01*
X145274147Y-50784540D01*
X145367154Y-50560000D01*
X153290688Y-50560000D01*
X153300853Y-50584540D01*
X153690460Y-50974147D01*
X154199506Y-51185000D01*
X154750494Y-51185000D01*
X155140000Y-51023662D01*
X155140000Y-52807743D01*
X154674678Y-52615000D01*
X153825322Y-52615000D01*
X153040620Y-52940034D01*
X152440034Y-53540620D01*
X152115000Y-54325322D01*
X152115000Y-55174678D01*
X152440034Y-55959380D01*
X153040620Y-56559966D01*
X153825322Y-56885000D01*
X154674678Y-56885000D01*
X155140000Y-56692257D01*
X155140000Y-68878453D01*
X154624678Y-68665000D01*
X153775322Y-68665000D01*
X152990620Y-68990034D01*
X152390034Y-69590620D01*
X152065000Y-70375322D01*
X152065000Y-71224678D01*
X152390034Y-72009380D01*
X152990620Y-72609966D01*
X153775322Y-72935000D01*
X154624678Y-72935000D01*
X155140000Y-72721547D01*
X155140001Y-102940000D01*
X131120045Y-102940000D01*
X131215904Y-102796537D01*
X131274889Y-102500000D01*
X131260000Y-102425148D01*
X131260000Y-99595000D01*
X131498333Y-99595000D01*
X131498333Y-102565000D01*
X135635000Y-102565000D01*
X135635000Y-101065000D01*
X145135000Y-101065000D01*
X145135000Y-98095000D01*
X143885000Y-98095000D01*
X143885000Y-96595000D01*
X131510238Y-96595000D01*
X131510238Y-99565000D01*
X131712619Y-99565000D01*
X131712619Y-99595000D01*
X131498333Y-99595000D01*
X131260000Y-99595000D01*
X131260000Y-96574852D01*
X131274889Y-96500000D01*
X131215904Y-96203463D01*
X131047929Y-95952071D01*
X130796537Y-95784096D01*
X130574852Y-95740000D01*
X130500000Y-95725111D01*
X130425148Y-95740000D01*
X124324852Y-95740000D01*
X124250000Y-95725111D01*
X124175148Y-95740000D01*
X123953463Y-95784096D01*
X123860000Y-95846546D01*
X123860000Y-92524506D01*
X129915000Y-92524506D01*
X129915000Y-93075494D01*
X130125853Y-93584540D01*
X130515460Y-93974147D01*
X131024506Y-94185000D01*
X131575494Y-94185000D01*
X132084540Y-93974147D01*
X132474147Y-93584540D01*
X132685000Y-93075494D01*
X132685000Y-92524506D01*
X132609455Y-92342124D01*
X132766579Y-92185000D01*
X140626313Y-92185000D01*
X140915460Y-92474147D01*
X141424506Y-92685000D01*
X141975494Y-92685000D01*
X142484540Y-92474147D01*
X142773687Y-92185000D01*
X144626313Y-92185000D01*
X144915460Y-92474147D01*
X145424506Y-92685000D01*
X145975494Y-92685000D01*
X146484540Y-92474147D01*
X146874147Y-92084540D01*
X147085000Y-91575494D01*
X147085000Y-91024506D01*
X146874147Y-90515460D01*
X146484540Y-90125853D01*
X145975494Y-89915000D01*
X145424506Y-89915000D01*
X144915460Y-90125853D01*
X144626313Y-90415000D01*
X142773687Y-90415000D01*
X142484540Y-90125853D01*
X141975494Y-89915000D01*
X141424506Y-89915000D01*
X140915460Y-90125853D01*
X140626313Y-90415000D01*
X132487161Y-90415000D01*
X132400000Y-90397663D01*
X132312839Y-90415000D01*
X132312835Y-90415000D01*
X132054690Y-90466348D01*
X131835845Y-90612576D01*
X131835844Y-90612577D01*
X131761951Y-90661951D01*
X131712577Y-90735844D01*
X131033422Y-91415000D01*
X131024506Y-91415000D01*
X130515460Y-91625853D01*
X130125853Y-92015460D01*
X129915000Y-92524506D01*
X123860000Y-92524506D01*
X123860000Y-79330159D01*
X126099446Y-79330159D01*
X126185852Y-79586643D01*
X126759336Y-79796458D01*
X127369460Y-79770839D01*
X127814148Y-79586643D01*
X127900554Y-79330159D01*
X127000000Y-78429605D01*
X126099446Y-79330159D01*
X123860000Y-79330159D01*
X123860000Y-78009336D01*
X125453542Y-78009336D01*
X125479161Y-78619460D01*
X125663357Y-79064148D01*
X125919841Y-79150554D01*
X126820395Y-78250000D01*
X125919841Y-77349446D01*
X125663357Y-77435852D01*
X125453542Y-78009336D01*
X123860000Y-78009336D01*
X123860000Y-77169841D01*
X126099446Y-77169841D01*
X127000000Y-78070395D01*
X127900554Y-77169841D01*
X127814148Y-76913357D01*
X127240664Y-76703542D01*
X126630540Y-76729161D01*
X126185852Y-76913357D01*
X126099446Y-77169841D01*
X123860000Y-77169841D01*
X123860000Y-72692257D01*
X124325322Y-72885000D01*
X125174678Y-72885000D01*
X125959380Y-72559966D01*
X126559966Y-71959380D01*
X126885000Y-71174678D01*
X126885000Y-70325322D01*
X126559966Y-69540620D01*
X125959380Y-68940034D01*
X125174678Y-68615000D01*
X124325322Y-68615000D01*
X123860000Y-68807743D01*
X123860000Y-64638981D01*
X124218473Y-64997454D01*
X124727519Y-65208307D01*
X125278507Y-65208307D01*
X125787553Y-64997454D01*
X126177160Y-64607847D01*
X126388013Y-64098801D01*
X126388013Y-63936788D01*
X126585161Y-63739640D01*
X126694670Y-63785000D01*
X127305330Y-63785000D01*
X127869507Y-63551310D01*
X128250000Y-63170817D01*
X128630493Y-63551310D01*
X128740000Y-63596669D01*
X128740001Y-72725144D01*
X128740000Y-72725149D01*
X128740000Y-73324852D01*
X128740001Y-73324855D01*
X128740000Y-74402361D01*
X128725112Y-74477208D01*
X128740000Y-74552055D01*
X128740000Y-74552059D01*
X128784096Y-74773744D01*
X128952071Y-75025137D01*
X129015530Y-75067539D01*
X131013587Y-77065596D01*
X130750000Y-77329183D01*
X130369507Y-76948690D01*
X129805330Y-76715000D01*
X129194670Y-76715000D01*
X128630493Y-76948690D01*
X128198690Y-77380493D01*
X128195461Y-77388290D01*
X128080159Y-77349446D01*
X127179605Y-78250000D01*
X128080159Y-79150554D01*
X128195461Y-79111710D01*
X128198690Y-79119507D01*
X128630493Y-79551310D01*
X128739790Y-79596582D01*
X128740001Y-79597644D01*
X128784097Y-79819329D01*
X128952072Y-80070721D01*
X129015528Y-80113121D01*
X129286877Y-80384470D01*
X129329279Y-80447929D01*
X129486926Y-80553266D01*
X129488371Y-80554231D01*
X129315460Y-80625853D01*
X128925853Y-81015460D01*
X128715000Y-81524506D01*
X128715000Y-82075494D01*
X128925853Y-82584540D01*
X129315460Y-82974147D01*
X129824506Y-83185000D01*
X130375494Y-83185000D01*
X130884540Y-82974147D01*
X131274147Y-82584540D01*
X131284312Y-82560000D01*
X134081313Y-82560000D01*
X133925853Y-82715460D01*
X133715000Y-83224506D01*
X133715000Y-83775494D01*
X133925853Y-84284540D01*
X134315460Y-84674147D01*
X134824506Y-84885000D01*
X135375494Y-84885000D01*
X135884540Y-84674147D01*
X136274147Y-84284540D01*
X136284312Y-84260000D01*
X140785202Y-84260000D01*
X141815530Y-85290329D01*
X141815533Y-85290331D01*
X144425165Y-87899963D01*
X144415000Y-87924503D01*
X144415000Y-88475491D01*
X144625853Y-88984537D01*
X145015460Y-89374144D01*
X145524506Y-89584997D01*
X146075494Y-89584997D01*
X146584540Y-89374144D01*
X146974147Y-88984537D01*
X147185000Y-88475491D01*
X147185000Y-87924503D01*
X146974147Y-87415457D01*
X146584540Y-87025850D01*
X146075494Y-86814997D01*
X145524506Y-86814997D01*
X145499966Y-86825162D01*
X142890334Y-84215530D01*
X142890332Y-84215527D01*
X142234804Y-83560000D01*
X143425153Y-83560000D01*
X143500000Y-83574888D01*
X143574847Y-83560000D01*
X143574852Y-83560000D01*
X143702737Y-83534562D01*
X143824506Y-83585000D01*
X144375494Y-83585000D01*
X144884540Y-83374147D01*
X145274147Y-82984540D01*
X145485000Y-82475494D01*
X145485000Y-81924506D01*
X145274147Y-81415460D01*
X144884540Y-81025853D01*
X144375494Y-80815000D01*
X143824506Y-80815000D01*
X143315460Y-81025853D01*
X142925853Y-81415460D01*
X142715000Y-81924506D01*
X142715000Y-82040000D01*
X137214802Y-82040000D01*
X136490331Y-81315530D01*
X136447929Y-81252071D01*
X136196537Y-81084096D01*
X135974852Y-81040000D01*
X135974847Y-81040000D01*
X135900000Y-81025112D01*
X135825153Y-81040000D01*
X134543996Y-81040000D01*
X134674147Y-80909849D01*
X134885000Y-80400803D01*
X134885000Y-79849815D01*
X134674147Y-79340769D01*
X134284540Y-78951162D01*
X133775494Y-78740309D01*
X133458379Y-78740309D01*
X133535000Y-78555330D01*
X133535000Y-77944670D01*
X133526648Y-77924506D01*
X141215000Y-77924506D01*
X141215000Y-78475494D01*
X141425853Y-78984540D01*
X141815460Y-79374147D01*
X142324506Y-79585000D01*
X142875494Y-79585000D01*
X143370025Y-79380159D01*
X146049446Y-79380159D01*
X146135852Y-79636643D01*
X146709336Y-79846458D01*
X147319460Y-79820839D01*
X147764148Y-79636643D01*
X147850554Y-79380159D01*
X146950000Y-78479605D01*
X146049446Y-79380159D01*
X143370025Y-79380159D01*
X143384540Y-79374147D01*
X143774147Y-78984540D01*
X143985000Y-78475494D01*
X143985000Y-78059336D01*
X145403542Y-78059336D01*
X145429161Y-78669460D01*
X145613357Y-79114148D01*
X145869841Y-79200554D01*
X146770395Y-78300000D01*
X145869841Y-77399446D01*
X145613357Y-77485852D01*
X145403542Y-78059336D01*
X143985000Y-78059336D01*
X143985000Y-77924506D01*
X143774147Y-77415460D01*
X143462136Y-77103449D01*
X143474888Y-77039341D01*
X143460000Y-76964494D01*
X143460000Y-72579346D01*
X143490620Y-72609966D01*
X144275322Y-72935000D01*
X145124678Y-72935000D01*
X145909380Y-72609966D01*
X146509966Y-72009380D01*
X146835000Y-71224678D01*
X146835000Y-70375322D01*
X146509966Y-69590620D01*
X145909380Y-68990034D01*
X145124678Y-68665000D01*
X144275322Y-68665000D01*
X143490620Y-68990034D01*
X143460000Y-69020654D01*
X143460000Y-65734801D01*
X147790002Y-70064804D01*
X147790001Y-77040098D01*
X147764148Y-76963357D01*
X147190664Y-76753542D01*
X146580540Y-76779161D01*
X146135852Y-76963357D01*
X146049446Y-77219841D01*
X146950000Y-78120395D01*
X146964143Y-78106253D01*
X147143748Y-78285858D01*
X147129605Y-78300000D01*
X148030159Y-79200554D01*
X148145461Y-79161710D01*
X148148690Y-79169507D01*
X148580493Y-79601310D01*
X148690001Y-79646670D01*
X148690001Y-80775148D01*
X148675112Y-80850000D01*
X148692498Y-80937407D01*
X148615000Y-81124506D01*
X148615000Y-81675494D01*
X148825853Y-82184540D01*
X149215460Y-82574147D01*
X149724506Y-82785000D01*
X150275494Y-82785000D01*
X150784540Y-82574147D01*
X151174147Y-82184540D01*
X151385000Y-81675494D01*
X151385000Y-81124506D01*
X151174147Y-80615460D01*
X150784540Y-80225853D01*
X150275494Y-80015000D01*
X150210000Y-80015000D01*
X150210000Y-79646669D01*
X150319507Y-79601310D01*
X150700000Y-79220817D01*
X151080493Y-79601310D01*
X151644670Y-79835000D01*
X152255330Y-79835000D01*
X152819507Y-79601310D01*
X153251310Y-79169507D01*
X153485000Y-78605330D01*
X153485000Y-77994670D01*
X153251310Y-77430493D01*
X152819507Y-76998690D01*
X152255330Y-76765000D01*
X151644670Y-76765000D01*
X151080493Y-76998690D01*
X150700000Y-77379183D01*
X150319507Y-76998690D01*
X149755330Y-76765000D01*
X149310001Y-76765000D01*
X149310001Y-69824849D01*
X149324889Y-69750001D01*
X149310001Y-69675153D01*
X149310001Y-69675149D01*
X149265905Y-69453464D01*
X149265905Y-69453463D01*
X149140330Y-69265528D01*
X149097930Y-69202072D01*
X149034474Y-69159672D01*
X144772628Y-64897827D01*
X145224506Y-65085000D01*
X145775494Y-65085000D01*
X146077272Y-64960000D01*
X151247945Y-64960000D01*
X151322792Y-64974888D01*
X151397639Y-64960000D01*
X151397644Y-64960000D01*
X151619329Y-64915904D01*
X151870721Y-64747929D01*
X151913123Y-64684470D01*
X152484473Y-64113121D01*
X152547929Y-64070721D01*
X152629976Y-63947929D01*
X152715904Y-63819330D01*
X152736551Y-63715528D01*
X152760000Y-63597644D01*
X152760000Y-63597640D01*
X152760210Y-63596582D01*
X152869507Y-63551310D01*
X153301310Y-63119507D01*
X153535000Y-62555330D01*
X153535000Y-61944670D01*
X153301310Y-61380493D01*
X152869507Y-60948690D01*
X152305330Y-60715000D01*
X151694670Y-60715000D01*
X151130493Y-60948690D01*
X150750000Y-61329183D01*
X150369507Y-60948690D01*
X149805330Y-60715000D01*
X149194670Y-60715000D01*
X149085161Y-60760360D01*
X148340331Y-60015530D01*
X148297929Y-59952071D01*
X148046537Y-59784096D01*
X147824852Y-59740000D01*
X147824847Y-59740000D01*
X147750000Y-59725112D01*
X147675153Y-59740000D01*
X145474848Y-59740000D01*
X145400000Y-59725112D01*
X145325152Y-59740000D01*
X145325148Y-59740000D01*
X145103463Y-59784096D01*
X144852071Y-59952071D01*
X144809671Y-60015527D01*
X142215530Y-62609669D01*
X142152071Y-62652071D01*
X141984096Y-62903464D01*
X141940000Y-63125149D01*
X141940000Y-63125153D01*
X141925112Y-63200000D01*
X141940000Y-63274847D01*
X141940001Y-65925144D01*
X141940000Y-65925149D01*
X141940000Y-66574852D01*
X141940001Y-66574857D01*
X141940000Y-76759138D01*
X141884097Y-76842803D01*
X141850580Y-77011306D01*
X141815460Y-77025853D01*
X141425853Y-77415460D01*
X141215000Y-77924506D01*
X133526648Y-77924506D01*
X133301310Y-77380493D01*
X132869507Y-76948690D01*
X132760210Y-76903418D01*
X132760000Y-76902361D01*
X132760000Y-76902356D01*
X132715904Y-76680671D01*
X132547929Y-76429279D01*
X132484473Y-76386879D01*
X130260000Y-74162407D01*
X130260000Y-70325322D01*
X132115000Y-70325322D01*
X132115000Y-71174678D01*
X132440034Y-71959380D01*
X133040620Y-72559966D01*
X133825322Y-72885000D01*
X134674678Y-72885000D01*
X135459380Y-72559966D01*
X136059966Y-71959380D01*
X136157253Y-71724506D01*
X137215000Y-71724506D01*
X137215000Y-72275494D01*
X137425853Y-72784540D01*
X137815460Y-73174147D01*
X138324506Y-73385000D01*
X138875494Y-73385000D01*
X139384540Y-73174147D01*
X139774147Y-72784540D01*
X139985000Y-72275494D01*
X139985000Y-72189801D01*
X140484473Y-71690329D01*
X140547929Y-71647929D01*
X140648483Y-71497440D01*
X140850000Y-71497440D01*
X141097765Y-71448157D01*
X141307809Y-71307809D01*
X141448157Y-71097765D01*
X141497440Y-70850000D01*
X141497440Y-69150000D01*
X141448157Y-68902235D01*
X141307809Y-68692191D01*
X141097765Y-68551843D01*
X141052381Y-68542816D01*
X141070625Y-68530625D01*
X141398839Y-68039418D01*
X141514092Y-67460000D01*
X141398839Y-66880582D01*
X141070625Y-66389375D01*
X140760000Y-66181822D01*
X140760000Y-63474848D01*
X140774888Y-63400000D01*
X140760000Y-63325152D01*
X140760000Y-63325148D01*
X140720218Y-63125149D01*
X140715904Y-63103462D01*
X140590329Y-62915527D01*
X140576803Y-62895284D01*
X140585000Y-62875494D01*
X140585000Y-62334610D01*
X140920582Y-62558839D01*
X141353744Y-62645000D01*
X141646256Y-62645000D01*
X142079418Y-62558839D01*
X142570625Y-62230625D01*
X142898839Y-61739418D01*
X143014092Y-61160000D01*
X142898839Y-60580582D01*
X142570625Y-60089375D01*
X142251522Y-59876157D01*
X142381358Y-59815183D01*
X142771645Y-59386924D01*
X142941476Y-58976890D01*
X142820155Y-58747000D01*
X141627000Y-58747000D01*
X141627000Y-58767000D01*
X141373000Y-58767000D01*
X141373000Y-58747000D01*
X140179845Y-58747000D01*
X140058524Y-58976890D01*
X140228355Y-59386924D01*
X140618642Y-59815183D01*
X140748478Y-59876157D01*
X140429375Y-60089375D01*
X140101161Y-60580582D01*
X139985908Y-61160000D01*
X140052259Y-61493572D01*
X139984540Y-61425853D01*
X139475494Y-61215000D01*
X138924506Y-61215000D01*
X138415460Y-61425853D01*
X138025853Y-61815460D01*
X137815000Y-62324506D01*
X137815000Y-62875494D01*
X138025853Y-63384540D01*
X138415460Y-63774147D01*
X138924506Y-63985000D01*
X139240001Y-63985000D01*
X139240000Y-66181822D01*
X138929375Y-66389375D01*
X138601161Y-66880582D01*
X138485908Y-67460000D01*
X138601161Y-68039418D01*
X138929375Y-68530625D01*
X138947619Y-68542816D01*
X138902235Y-68551843D01*
X138692191Y-68692191D01*
X138551843Y-68902235D01*
X138502560Y-69150000D01*
X138502560Y-70615000D01*
X138324506Y-70615000D01*
X137815460Y-70825853D01*
X137425853Y-71215460D01*
X137215000Y-71724506D01*
X136157253Y-71724506D01*
X136385000Y-71174678D01*
X136385000Y-70325322D01*
X136059966Y-69540620D01*
X135459380Y-68940034D01*
X134674678Y-68615000D01*
X133825322Y-68615000D01*
X133040620Y-68940034D01*
X132440034Y-69540620D01*
X132115000Y-70325322D01*
X130260000Y-70325322D01*
X130260000Y-63596669D01*
X130369507Y-63551310D01*
X130750000Y-63170817D01*
X131130493Y-63551310D01*
X131239790Y-63596582D01*
X131284097Y-63819329D01*
X131402504Y-63996537D01*
X131452072Y-64070721D01*
X131515528Y-64113121D01*
X131586877Y-64184470D01*
X131629279Y-64247929D01*
X131880671Y-64415904D01*
X132102356Y-64460000D01*
X132102361Y-64460000D01*
X132177208Y-64474888D01*
X132252055Y-64460000D01*
X132915688Y-64460000D01*
X132925853Y-64484540D01*
X133315460Y-64874147D01*
X133824506Y-65085000D01*
X134375494Y-65085000D01*
X134884540Y-64874147D01*
X135274147Y-64484540D01*
X135485000Y-63975494D01*
X135485000Y-63424506D01*
X135274147Y-62915460D01*
X134884540Y-62525853D01*
X134375494Y-62315000D01*
X133824506Y-62315000D01*
X133535000Y-62434917D01*
X133535000Y-61944670D01*
X133301310Y-61380493D01*
X132869507Y-60948690D01*
X132305330Y-60715000D01*
X131694670Y-60715000D01*
X131130493Y-60948690D01*
X130750000Y-61329183D01*
X130369507Y-60948690D01*
X129805330Y-60715000D01*
X129194670Y-60715000D01*
X128630493Y-60948690D01*
X128250000Y-61329183D01*
X127869507Y-60948690D01*
X127760000Y-60903331D01*
X127760000Y-60714801D01*
X128314802Y-60160000D01*
X134064493Y-60160000D01*
X134139340Y-60174888D01*
X134214187Y-60160000D01*
X134214192Y-60160000D01*
X134435877Y-60115904D01*
X134687269Y-59947929D01*
X134729671Y-59884470D01*
X135427727Y-59186414D01*
X135615460Y-59374147D01*
X136124506Y-59585000D01*
X136675494Y-59585000D01*
X137184540Y-59374147D01*
X137574147Y-58984540D01*
X137785000Y-58475494D01*
X137785000Y-57924506D01*
X137574147Y-57415460D01*
X137184540Y-57025853D01*
X136675494Y-56815000D01*
X136124506Y-56815000D01*
X135615460Y-57025853D01*
X135225853Y-57415460D01*
X135211306Y-57450578D01*
X135042803Y-57484096D01*
X134791411Y-57652071D01*
X134749011Y-57715527D01*
X133824539Y-58640000D01*
X128074848Y-58640000D01*
X128000000Y-58625112D01*
X127925152Y-58640000D01*
X127925148Y-58640000D01*
X127703463Y-58684096D01*
X127452071Y-58852071D01*
X127409671Y-58915527D01*
X126515530Y-59809669D01*
X126452071Y-59852071D01*
X126284096Y-60103464D01*
X126240000Y-60325149D01*
X126240000Y-60325153D01*
X126225112Y-60400000D01*
X126240000Y-60474847D01*
X126240000Y-60903331D01*
X126130493Y-60948690D01*
X125698690Y-61380493D01*
X125465000Y-61944670D01*
X125465000Y-62515555D01*
X125278507Y-62438307D01*
X124727519Y-62438307D01*
X124218473Y-62649160D01*
X123860000Y-63007633D01*
X123860000Y-56692257D01*
X124325322Y-56885000D01*
X125174678Y-56885000D01*
X125959380Y-56559966D01*
X126559966Y-55959380D01*
X126885000Y-55174678D01*
X126885000Y-54325322D01*
X132115000Y-54325322D01*
X132115000Y-55174678D01*
X132440034Y-55959380D01*
X133040620Y-56559966D01*
X133825322Y-56885000D01*
X134674678Y-56885000D01*
X135459380Y-56559966D01*
X136059966Y-55959380D01*
X136385000Y-55174678D01*
X136385000Y-54325322D01*
X136059966Y-53540620D01*
X136059346Y-53540000D01*
X139985908Y-53540000D01*
X140101161Y-54119418D01*
X140429375Y-54610625D01*
X140727761Y-54810000D01*
X140429375Y-55009375D01*
X140101161Y-55500582D01*
X139985908Y-56080000D01*
X140101161Y-56659418D01*
X140429375Y-57150625D01*
X140748478Y-57363843D01*
X140618642Y-57424817D01*
X140228355Y-57853076D01*
X140058524Y-58263110D01*
X140179845Y-58493000D01*
X141373000Y-58493000D01*
X141373000Y-58473000D01*
X141627000Y-58473000D01*
X141627000Y-58493000D01*
X142820155Y-58493000D01*
X142941476Y-58263110D01*
X142771645Y-57853076D01*
X142381358Y-57424817D01*
X142251522Y-57363843D01*
X142570625Y-57150625D01*
X142898839Y-56659418D01*
X143014092Y-56080000D01*
X143002531Y-56021877D01*
X143540620Y-56559966D01*
X144325322Y-56885000D01*
X145174678Y-56885000D01*
X145959380Y-56559966D01*
X146559966Y-55959380D01*
X146885000Y-55174678D01*
X146885000Y-54325322D01*
X146559966Y-53540620D01*
X145959380Y-52940034D01*
X145174678Y-52615000D01*
X144325322Y-52615000D01*
X143540620Y-52940034D01*
X143001908Y-53478746D01*
X142898839Y-52960582D01*
X142570625Y-52469375D01*
X142251522Y-52256157D01*
X142381358Y-52195183D01*
X142771645Y-51766924D01*
X142941476Y-51356890D01*
X142820155Y-51127000D01*
X141627000Y-51127000D01*
X141627000Y-51147000D01*
X141373000Y-51147000D01*
X141373000Y-51127000D01*
X140179845Y-51127000D01*
X140058524Y-51356890D01*
X140228355Y-51766924D01*
X140618642Y-52195183D01*
X140748478Y-52256157D01*
X140429375Y-52469375D01*
X140101161Y-52960582D01*
X139985908Y-53540000D01*
X136059346Y-53540000D01*
X135459380Y-52940034D01*
X134674678Y-52615000D01*
X133825322Y-52615000D01*
X133040620Y-52940034D01*
X132440034Y-53540620D01*
X132115000Y-54325322D01*
X126885000Y-54325322D01*
X126559966Y-53540620D01*
X125959380Y-52940034D01*
X125174678Y-52615000D01*
X124325322Y-52615000D01*
X123860000Y-52807743D01*
X123860000Y-46060000D01*
X125041719Y-46060000D01*
X125015000Y-46124506D01*
X125015000Y-46675494D01*
X125225853Y-47184540D01*
X125291315Y-47250002D01*
X125225853Y-47315463D01*
X125015000Y-47824509D01*
X125015000Y-48375497D01*
X125225853Y-48884543D01*
X125615460Y-49274150D01*
X126124506Y-49485003D01*
X126675494Y-49485003D01*
X127184540Y-49274150D01*
X127574147Y-48884543D01*
X127672440Y-48647242D01*
X128509673Y-49484476D01*
X128552071Y-49547929D01*
X128615524Y-49590327D01*
X128615526Y-49590329D01*
X128635183Y-49603463D01*
X128803463Y-49715904D01*
X129025148Y-49760000D01*
X129025152Y-49760000D01*
X129099999Y-49774888D01*
X129174846Y-49760000D01*
X131285199Y-49760000D01*
X131909671Y-50384473D01*
X131952071Y-50447929D01*
X132203463Y-50615904D01*
X132425148Y-50660000D01*
X132425152Y-50660000D01*
X132499999Y-50674888D01*
X132574846Y-50660000D01*
X133425153Y-50660000D01*
X133500000Y-50674888D01*
X133574847Y-50660000D01*
X133574852Y-50660000D01*
X133796537Y-50615904D01*
X134047929Y-50447929D01*
X134090331Y-50384470D01*
X135584473Y-48890329D01*
X135647929Y-48847929D01*
X135710121Y-48754852D01*
X135815904Y-48596538D01*
X135835106Y-48500000D01*
X135860000Y-48374852D01*
X135860000Y-48374848D01*
X135874888Y-48300000D01*
X135860000Y-48225152D01*
X135860000Y-47873516D01*
X135930000Y-47887440D01*
X136446374Y-47887440D01*
X136464097Y-47976537D01*
X136568022Y-48132071D01*
X136632072Y-48227929D01*
X136695528Y-48270329D01*
X137225165Y-48799966D01*
X137215000Y-48824506D01*
X137215000Y-49375494D01*
X137425853Y-49884540D01*
X137815460Y-50274147D01*
X138324506Y-50485000D01*
X138875494Y-50485000D01*
X139384540Y-50274147D01*
X139774147Y-49884540D01*
X139985000Y-49375494D01*
X139985000Y-48824506D01*
X139774147Y-48315460D01*
X139384540Y-47925853D01*
X138875494Y-47715000D01*
X138862081Y-47715000D01*
X138887809Y-47697809D01*
X139028157Y-47487765D01*
X139077440Y-47240000D01*
X139077440Y-45240000D01*
X139028157Y-44992235D01*
X139013300Y-44970000D01*
X139028157Y-44947765D01*
X139077440Y-44700000D01*
X139077440Y-42700000D01*
X139028157Y-42452235D01*
X139013300Y-42430000D01*
X139028157Y-42407765D01*
X139077440Y-42160000D01*
X139077440Y-41920000D01*
X139761310Y-41920000D01*
X140115460Y-42274150D01*
X140624506Y-42485003D01*
X141175494Y-42485003D01*
X141684540Y-42274150D01*
X142074147Y-41884543D01*
X142285000Y-41375497D01*
X142285000Y-40824509D01*
X142074147Y-40315463D01*
X142008686Y-40250002D01*
X142074147Y-40184540D01*
X142285000Y-39675494D01*
X142285000Y-39124506D01*
X142258281Y-39060000D01*
X148140000Y-39060000D01*
X148140000Y-41165199D01*
X148140000Y-41165199D01*
G37*
X148140000Y-41165199D02*
X147950331Y-40975530D01*
X147907929Y-40912071D01*
X147656537Y-40744096D01*
X147434852Y-40700000D01*
X147434847Y-40700000D01*
X147360000Y-40685112D01*
X147285153Y-40700000D01*
X146878178Y-40700000D01*
X146670625Y-40389375D01*
X146179418Y-40061161D01*
X145746256Y-39975000D01*
X145453744Y-39975000D01*
X145020582Y-40061161D01*
X144529375Y-40389375D01*
X144201161Y-40880582D01*
X144085908Y-41460000D01*
X144201161Y-42039418D01*
X144529375Y-42530625D01*
X144827761Y-42730000D01*
X144529375Y-42929375D01*
X144201161Y-43420582D01*
X144085908Y-44000000D01*
X144201161Y-44579418D01*
X144529375Y-45070625D01*
X144547619Y-45082816D01*
X144502235Y-45091843D01*
X144292191Y-45232191D01*
X144151843Y-45442235D01*
X144102560Y-45690000D01*
X144102560Y-47390000D01*
X144151843Y-47637765D01*
X144292191Y-47847809D01*
X144502235Y-47988157D01*
X144750000Y-48037440D01*
X146450000Y-48037440D01*
X146697765Y-47988157D01*
X146907809Y-47847809D01*
X147048157Y-47637765D01*
X147097440Y-47390000D01*
X147097440Y-47300000D01*
X147688789Y-47300000D01*
X148173280Y-47784492D01*
X148215681Y-47847949D01*
X148467073Y-48015924D01*
X148688758Y-48060020D01*
X148688762Y-48060020D01*
X148763610Y-48074908D01*
X148838458Y-48060020D01*
X149957807Y-48060020D01*
X150483224Y-48585438D01*
X150525624Y-48648894D01*
X150777016Y-48816869D01*
X150998701Y-48860965D01*
X150998705Y-48860965D01*
X151073552Y-48875853D01*
X151148399Y-48860965D01*
X152790688Y-48860965D01*
X152800853Y-48885505D01*
X152955348Y-49040000D01*
X145098687Y-49040000D01*
X144884540Y-48825853D01*
X144375494Y-48615000D01*
X143824506Y-48615000D01*
X143315460Y-48825853D01*
X142997440Y-49143873D01*
X142997440Y-47610000D01*
X142948157Y-47362235D01*
X142807809Y-47152191D01*
X142597765Y-47011843D01*
X142350000Y-46962560D01*
X140650000Y-46962560D01*
X140402235Y-47011843D01*
X140192191Y-47152191D01*
X140051843Y-47362235D01*
X140002560Y-47610000D01*
X140002560Y-49310000D01*
X140051843Y-49557765D01*
X140192191Y-49767809D01*
X140402235Y-49908157D01*
X140505708Y-49928739D01*
X140228355Y-50233076D01*
X140058524Y-50643110D01*
X140179845Y-50873000D01*
X141373000Y-50873000D01*
X141373000Y-50853000D01*
X141627000Y-50853000D01*
X141627000Y-50873000D01*
X142820155Y-50873000D01*
X142899902Y-50721888D01*
X142925853Y-50784540D01*
X143315460Y-51174147D01*
X143824506Y-51385000D01*
X144375494Y-51385000D01*
X144884540Y-51174147D01*
X145274147Y-50784540D01*
X145367154Y-50560000D01*
X153290688Y-50560000D01*
X153300853Y-50584540D01*
X153690460Y-50974147D01*
X154199506Y-51185000D01*
X154750494Y-51185000D01*
X155140000Y-51023662D01*
X155140000Y-52807743D01*
X154674678Y-52615000D01*
X153825322Y-52615000D01*
X153040620Y-52940034D01*
X152440034Y-53540620D01*
X152115000Y-54325322D01*
X152115000Y-55174678D01*
X152440034Y-55959380D01*
X153040620Y-56559966D01*
X153825322Y-56885000D01*
X154674678Y-56885000D01*
X155140000Y-56692257D01*
X155140000Y-68878453D01*
X154624678Y-68665000D01*
X153775322Y-68665000D01*
X152990620Y-68990034D01*
X152390034Y-69590620D01*
X152065000Y-70375322D01*
X152065000Y-71224678D01*
X152390034Y-72009380D01*
X152990620Y-72609966D01*
X153775322Y-72935000D01*
X154624678Y-72935000D01*
X155140000Y-72721547D01*
X155140001Y-102940000D01*
X131120045Y-102940000D01*
X131215904Y-102796537D01*
X131274889Y-102500000D01*
X131260000Y-102425148D01*
X131260000Y-99595000D01*
X131498333Y-99595000D01*
X131498333Y-102565000D01*
X135635000Y-102565000D01*
X135635000Y-101065000D01*
X145135000Y-101065000D01*
X145135000Y-98095000D01*
X143885000Y-98095000D01*
X143885000Y-96595000D01*
X131510238Y-96595000D01*
X131510238Y-99565000D01*
X131712619Y-99565000D01*
X131712619Y-99595000D01*
X131498333Y-99595000D01*
X131260000Y-99595000D01*
X131260000Y-96574852D01*
X131274889Y-96500000D01*
X131215904Y-96203463D01*
X131047929Y-95952071D01*
X130796537Y-95784096D01*
X130574852Y-95740000D01*
X130500000Y-95725111D01*
X130425148Y-95740000D01*
X124324852Y-95740000D01*
X124250000Y-95725111D01*
X124175148Y-95740000D01*
X123953463Y-95784096D01*
X123860000Y-95846546D01*
X123860000Y-92524506D01*
X129915000Y-92524506D01*
X129915000Y-93075494D01*
X130125853Y-93584540D01*
X130515460Y-93974147D01*
X131024506Y-94185000D01*
X131575494Y-94185000D01*
X132084540Y-93974147D01*
X132474147Y-93584540D01*
X132685000Y-93075494D01*
X132685000Y-92524506D01*
X132609455Y-92342124D01*
X132766579Y-92185000D01*
X140626313Y-92185000D01*
X140915460Y-92474147D01*
X141424506Y-92685000D01*
X141975494Y-92685000D01*
X142484540Y-92474147D01*
X142773687Y-92185000D01*
X144626313Y-92185000D01*
X144915460Y-92474147D01*
X145424506Y-92685000D01*
X145975494Y-92685000D01*
X146484540Y-92474147D01*
X146874147Y-92084540D01*
X147085000Y-91575494D01*
X147085000Y-91024506D01*
X146874147Y-90515460D01*
X146484540Y-90125853D01*
X145975494Y-89915000D01*
X145424506Y-89915000D01*
X144915460Y-90125853D01*
X144626313Y-90415000D01*
X142773687Y-90415000D01*
X142484540Y-90125853D01*
X141975494Y-89915000D01*
X141424506Y-89915000D01*
X140915460Y-90125853D01*
X140626313Y-90415000D01*
X132487161Y-90415000D01*
X132400000Y-90397663D01*
X132312839Y-90415000D01*
X132312835Y-90415000D01*
X132054690Y-90466348D01*
X131835845Y-90612576D01*
X131835844Y-90612577D01*
X131761951Y-90661951D01*
X131712577Y-90735844D01*
X131033422Y-91415000D01*
X131024506Y-91415000D01*
X130515460Y-91625853D01*
X130125853Y-92015460D01*
X129915000Y-92524506D01*
X123860000Y-92524506D01*
X123860000Y-79330159D01*
X126099446Y-79330159D01*
X126185852Y-79586643D01*
X126759336Y-79796458D01*
X127369460Y-79770839D01*
X127814148Y-79586643D01*
X127900554Y-79330159D01*
X127000000Y-78429605D01*
X126099446Y-79330159D01*
X123860000Y-79330159D01*
X123860000Y-78009336D01*
X125453542Y-78009336D01*
X125479161Y-78619460D01*
X125663357Y-79064148D01*
X125919841Y-79150554D01*
X126820395Y-78250000D01*
X125919841Y-77349446D01*
X125663357Y-77435852D01*
X125453542Y-78009336D01*
X123860000Y-78009336D01*
X123860000Y-77169841D01*
X126099446Y-77169841D01*
X127000000Y-78070395D01*
X127900554Y-77169841D01*
X127814148Y-76913357D01*
X127240664Y-76703542D01*
X126630540Y-76729161D01*
X126185852Y-76913357D01*
X126099446Y-77169841D01*
X123860000Y-77169841D01*
X123860000Y-72692257D01*
X124325322Y-72885000D01*
X125174678Y-72885000D01*
X125959380Y-72559966D01*
X126559966Y-71959380D01*
X126885000Y-71174678D01*
X126885000Y-70325322D01*
X126559966Y-69540620D01*
X125959380Y-68940034D01*
X125174678Y-68615000D01*
X124325322Y-68615000D01*
X123860000Y-68807743D01*
X123860000Y-64638981D01*
X124218473Y-64997454D01*
X124727519Y-65208307D01*
X125278507Y-65208307D01*
X125787553Y-64997454D01*
X126177160Y-64607847D01*
X126388013Y-64098801D01*
X126388013Y-63936788D01*
X126585161Y-63739640D01*
X126694670Y-63785000D01*
X127305330Y-63785000D01*
X127869507Y-63551310D01*
X128250000Y-63170817D01*
X128630493Y-63551310D01*
X128740000Y-63596669D01*
X128740001Y-72725144D01*
X128740000Y-72725149D01*
X128740000Y-73324852D01*
X128740001Y-73324855D01*
X128740000Y-74402361D01*
X128725112Y-74477208D01*
X128740000Y-74552055D01*
X128740000Y-74552059D01*
X128784096Y-74773744D01*
X128952071Y-75025137D01*
X129015530Y-75067539D01*
X131013587Y-77065596D01*
X130750000Y-77329183D01*
X130369507Y-76948690D01*
X129805330Y-76715000D01*
X129194670Y-76715000D01*
X128630493Y-76948690D01*
X128198690Y-77380493D01*
X128195461Y-77388290D01*
X128080159Y-77349446D01*
X127179605Y-78250000D01*
X128080159Y-79150554D01*
X128195461Y-79111710D01*
X128198690Y-79119507D01*
X128630493Y-79551310D01*
X128739790Y-79596582D01*
X128740001Y-79597644D01*
X128784097Y-79819329D01*
X128952072Y-80070721D01*
X129015528Y-80113121D01*
X129286877Y-80384470D01*
X129329279Y-80447929D01*
X129486926Y-80553266D01*
X129488371Y-80554231D01*
X129315460Y-80625853D01*
X128925853Y-81015460D01*
X128715000Y-81524506D01*
X128715000Y-82075494D01*
X128925853Y-82584540D01*
X129315460Y-82974147D01*
X129824506Y-83185000D01*
X130375494Y-83185000D01*
X130884540Y-82974147D01*
X131274147Y-82584540D01*
X131284312Y-82560000D01*
X134081313Y-82560000D01*
X133925853Y-82715460D01*
X133715000Y-83224506D01*
X133715000Y-83775494D01*
X133925853Y-84284540D01*
X134315460Y-84674147D01*
X134824506Y-84885000D01*
X135375494Y-84885000D01*
X135884540Y-84674147D01*
X136274147Y-84284540D01*
X136284312Y-84260000D01*
X140785202Y-84260000D01*
X141815530Y-85290329D01*
X141815533Y-85290331D01*
X144425165Y-87899963D01*
X144415000Y-87924503D01*
X144415000Y-88475491D01*
X144625853Y-88984537D01*
X145015460Y-89374144D01*
X145524506Y-89584997D01*
X146075494Y-89584997D01*
X146584540Y-89374144D01*
X146974147Y-88984537D01*
X147185000Y-88475491D01*
X147185000Y-87924503D01*
X146974147Y-87415457D01*
X146584540Y-87025850D01*
X146075494Y-86814997D01*
X145524506Y-86814997D01*
X145499966Y-86825162D01*
X142890334Y-84215530D01*
X142890332Y-84215527D01*
X142234804Y-83560000D01*
X143425153Y-83560000D01*
X143500000Y-83574888D01*
X143574847Y-83560000D01*
X143574852Y-83560000D01*
X143702737Y-83534562D01*
X143824506Y-83585000D01*
X144375494Y-83585000D01*
X144884540Y-83374147D01*
X145274147Y-82984540D01*
X145485000Y-82475494D01*
X145485000Y-81924506D01*
X145274147Y-81415460D01*
X144884540Y-81025853D01*
X144375494Y-80815000D01*
X143824506Y-80815000D01*
X143315460Y-81025853D01*
X142925853Y-81415460D01*
X142715000Y-81924506D01*
X142715000Y-82040000D01*
X137214802Y-82040000D01*
X136490331Y-81315530D01*
X136447929Y-81252071D01*
X136196537Y-81084096D01*
X135974852Y-81040000D01*
X135974847Y-81040000D01*
X135900000Y-81025112D01*
X135825153Y-81040000D01*
X134543996Y-81040000D01*
X134674147Y-80909849D01*
X134885000Y-80400803D01*
X134885000Y-79849815D01*
X134674147Y-79340769D01*
X134284540Y-78951162D01*
X133775494Y-78740309D01*
X133458379Y-78740309D01*
X133535000Y-78555330D01*
X133535000Y-77944670D01*
X133526648Y-77924506D01*
X141215000Y-77924506D01*
X141215000Y-78475494D01*
X141425853Y-78984540D01*
X141815460Y-79374147D01*
X142324506Y-79585000D01*
X142875494Y-79585000D01*
X143370025Y-79380159D01*
X146049446Y-79380159D01*
X146135852Y-79636643D01*
X146709336Y-79846458D01*
X147319460Y-79820839D01*
X147764148Y-79636643D01*
X147850554Y-79380159D01*
X146950000Y-78479605D01*
X146049446Y-79380159D01*
X143370025Y-79380159D01*
X143384540Y-79374147D01*
X143774147Y-78984540D01*
X143985000Y-78475494D01*
X143985000Y-78059336D01*
X145403542Y-78059336D01*
X145429161Y-78669460D01*
X145613357Y-79114148D01*
X145869841Y-79200554D01*
X146770395Y-78300000D01*
X145869841Y-77399446D01*
X145613357Y-77485852D01*
X145403542Y-78059336D01*
X143985000Y-78059336D01*
X143985000Y-77924506D01*
X143774147Y-77415460D01*
X143462136Y-77103449D01*
X143474888Y-77039341D01*
X143460000Y-76964494D01*
X143460000Y-72579346D01*
X143490620Y-72609966D01*
X144275322Y-72935000D01*
X145124678Y-72935000D01*
X145909380Y-72609966D01*
X146509966Y-72009380D01*
X146835000Y-71224678D01*
X146835000Y-70375322D01*
X146509966Y-69590620D01*
X145909380Y-68990034D01*
X145124678Y-68665000D01*
X144275322Y-68665000D01*
X143490620Y-68990034D01*
X143460000Y-69020654D01*
X143460000Y-65734801D01*
X147790002Y-70064804D01*
X147790001Y-77040098D01*
X147764148Y-76963357D01*
X147190664Y-76753542D01*
X146580540Y-76779161D01*
X146135852Y-76963357D01*
X146049446Y-77219841D01*
X146950000Y-78120395D01*
X146964143Y-78106253D01*
X147143748Y-78285858D01*
X147129605Y-78300000D01*
X148030159Y-79200554D01*
X148145461Y-79161710D01*
X148148690Y-79169507D01*
X148580493Y-79601310D01*
X148690001Y-79646670D01*
X148690001Y-80775148D01*
X148675112Y-80850000D01*
X148692498Y-80937407D01*
X148615000Y-81124506D01*
X148615000Y-81675494D01*
X148825853Y-82184540D01*
X149215460Y-82574147D01*
X149724506Y-82785000D01*
X150275494Y-82785000D01*
X150784540Y-82574147D01*
X151174147Y-82184540D01*
X151385000Y-81675494D01*
X151385000Y-81124506D01*
X151174147Y-80615460D01*
X150784540Y-80225853D01*
X150275494Y-80015000D01*
X150210000Y-80015000D01*
X150210000Y-79646669D01*
X150319507Y-79601310D01*
X150700000Y-79220817D01*
X151080493Y-79601310D01*
X151644670Y-79835000D01*
X152255330Y-79835000D01*
X152819507Y-79601310D01*
X153251310Y-79169507D01*
X153485000Y-78605330D01*
X153485000Y-77994670D01*
X153251310Y-77430493D01*
X152819507Y-76998690D01*
X152255330Y-76765000D01*
X151644670Y-76765000D01*
X151080493Y-76998690D01*
X150700000Y-77379183D01*
X150319507Y-76998690D01*
X149755330Y-76765000D01*
X149310001Y-76765000D01*
X149310001Y-69824849D01*
X149324889Y-69750001D01*
X149310001Y-69675153D01*
X149310001Y-69675149D01*
X149265905Y-69453464D01*
X149265905Y-69453463D01*
X149140330Y-69265528D01*
X149097930Y-69202072D01*
X149034474Y-69159672D01*
X144772628Y-64897827D01*
X145224506Y-65085000D01*
X145775494Y-65085000D01*
X146077272Y-64960000D01*
X151247945Y-64960000D01*
X151322792Y-64974888D01*
X151397639Y-64960000D01*
X151397644Y-64960000D01*
X151619329Y-64915904D01*
X151870721Y-64747929D01*
X151913123Y-64684470D01*
X152484473Y-64113121D01*
X152547929Y-64070721D01*
X152629976Y-63947929D01*
X152715904Y-63819330D01*
X152736551Y-63715528D01*
X152760000Y-63597644D01*
X152760000Y-63597640D01*
X152760210Y-63596582D01*
X152869507Y-63551310D01*
X153301310Y-63119507D01*
X153535000Y-62555330D01*
X153535000Y-61944670D01*
X153301310Y-61380493D01*
X152869507Y-60948690D01*
X152305330Y-60715000D01*
X151694670Y-60715000D01*
X151130493Y-60948690D01*
X150750000Y-61329183D01*
X150369507Y-60948690D01*
X149805330Y-60715000D01*
X149194670Y-60715000D01*
X149085161Y-60760360D01*
X148340331Y-60015530D01*
X148297929Y-59952071D01*
X148046537Y-59784096D01*
X147824852Y-59740000D01*
X147824847Y-59740000D01*
X147750000Y-59725112D01*
X147675153Y-59740000D01*
X145474848Y-59740000D01*
X145400000Y-59725112D01*
X145325152Y-59740000D01*
X145325148Y-59740000D01*
X145103463Y-59784096D01*
X144852071Y-59952071D01*
X144809671Y-60015527D01*
X142215530Y-62609669D01*
X142152071Y-62652071D01*
X141984096Y-62903464D01*
X141940000Y-63125149D01*
X141940000Y-63125153D01*
X141925112Y-63200000D01*
X141940000Y-63274847D01*
X141940001Y-65925144D01*
X141940000Y-65925149D01*
X141940000Y-66574852D01*
X141940001Y-66574857D01*
X141940000Y-76759138D01*
X141884097Y-76842803D01*
X141850580Y-77011306D01*
X141815460Y-77025853D01*
X141425853Y-77415460D01*
X141215000Y-77924506D01*
X133526648Y-77924506D01*
X133301310Y-77380493D01*
X132869507Y-76948690D01*
X132760210Y-76903418D01*
X132760000Y-76902361D01*
X132760000Y-76902356D01*
X132715904Y-76680671D01*
X132547929Y-76429279D01*
X132484473Y-76386879D01*
X130260000Y-74162407D01*
X130260000Y-70325322D01*
X132115000Y-70325322D01*
X132115000Y-71174678D01*
X132440034Y-71959380D01*
X133040620Y-72559966D01*
X133825322Y-72885000D01*
X134674678Y-72885000D01*
X135459380Y-72559966D01*
X136059966Y-71959380D01*
X136157253Y-71724506D01*
X137215000Y-71724506D01*
X137215000Y-72275494D01*
X137425853Y-72784540D01*
X137815460Y-73174147D01*
X138324506Y-73385000D01*
X138875494Y-73385000D01*
X139384540Y-73174147D01*
X139774147Y-72784540D01*
X139985000Y-72275494D01*
X139985000Y-72189801D01*
X140484473Y-71690329D01*
X140547929Y-71647929D01*
X140648483Y-71497440D01*
X140850000Y-71497440D01*
X141097765Y-71448157D01*
X141307809Y-71307809D01*
X141448157Y-71097765D01*
X141497440Y-70850000D01*
X141497440Y-69150000D01*
X141448157Y-68902235D01*
X141307809Y-68692191D01*
X141097765Y-68551843D01*
X141052381Y-68542816D01*
X141070625Y-68530625D01*
X141398839Y-68039418D01*
X141514092Y-67460000D01*
X141398839Y-66880582D01*
X141070625Y-66389375D01*
X140760000Y-66181822D01*
X140760000Y-63474848D01*
X140774888Y-63400000D01*
X140760000Y-63325152D01*
X140760000Y-63325148D01*
X140720218Y-63125149D01*
X140715904Y-63103462D01*
X140590329Y-62915527D01*
X140576803Y-62895284D01*
X140585000Y-62875494D01*
X140585000Y-62334610D01*
X140920582Y-62558839D01*
X141353744Y-62645000D01*
X141646256Y-62645000D01*
X142079418Y-62558839D01*
X142570625Y-62230625D01*
X142898839Y-61739418D01*
X143014092Y-61160000D01*
X142898839Y-60580582D01*
X142570625Y-60089375D01*
X142251522Y-59876157D01*
X142381358Y-59815183D01*
X142771645Y-59386924D01*
X142941476Y-58976890D01*
X142820155Y-58747000D01*
X141627000Y-58747000D01*
X141627000Y-58767000D01*
X141373000Y-58767000D01*
X141373000Y-58747000D01*
X140179845Y-58747000D01*
X140058524Y-58976890D01*
X140228355Y-59386924D01*
X140618642Y-59815183D01*
X140748478Y-59876157D01*
X140429375Y-60089375D01*
X140101161Y-60580582D01*
X139985908Y-61160000D01*
X140052259Y-61493572D01*
X139984540Y-61425853D01*
X139475494Y-61215000D01*
X138924506Y-61215000D01*
X138415460Y-61425853D01*
X138025853Y-61815460D01*
X137815000Y-62324506D01*
X137815000Y-62875494D01*
X138025853Y-63384540D01*
X138415460Y-63774147D01*
X138924506Y-63985000D01*
X139240001Y-63985000D01*
X139240000Y-66181822D01*
X138929375Y-66389375D01*
X138601161Y-66880582D01*
X138485908Y-67460000D01*
X138601161Y-68039418D01*
X138929375Y-68530625D01*
X138947619Y-68542816D01*
X138902235Y-68551843D01*
X138692191Y-68692191D01*
X138551843Y-68902235D01*
X138502560Y-69150000D01*
X138502560Y-70615000D01*
X138324506Y-70615000D01*
X137815460Y-70825853D01*
X137425853Y-71215460D01*
X137215000Y-71724506D01*
X136157253Y-71724506D01*
X136385000Y-71174678D01*
X136385000Y-70325322D01*
X136059966Y-69540620D01*
X135459380Y-68940034D01*
X134674678Y-68615000D01*
X133825322Y-68615000D01*
X133040620Y-68940034D01*
X132440034Y-69540620D01*
X132115000Y-70325322D01*
X130260000Y-70325322D01*
X130260000Y-63596669D01*
X130369507Y-63551310D01*
X130750000Y-63170817D01*
X131130493Y-63551310D01*
X131239790Y-63596582D01*
X131284097Y-63819329D01*
X131402504Y-63996537D01*
X131452072Y-64070721D01*
X131515528Y-64113121D01*
X131586877Y-64184470D01*
X131629279Y-64247929D01*
X131880671Y-64415904D01*
X132102356Y-64460000D01*
X132102361Y-64460000D01*
X132177208Y-64474888D01*
X132252055Y-64460000D01*
X132915688Y-64460000D01*
X132925853Y-64484540D01*
X133315460Y-64874147D01*
X133824506Y-65085000D01*
X134375494Y-65085000D01*
X134884540Y-64874147D01*
X135274147Y-64484540D01*
X135485000Y-63975494D01*
X135485000Y-63424506D01*
X135274147Y-62915460D01*
X134884540Y-62525853D01*
X134375494Y-62315000D01*
X133824506Y-62315000D01*
X133535000Y-62434917D01*
X133535000Y-61944670D01*
X133301310Y-61380493D01*
X132869507Y-60948690D01*
X132305330Y-60715000D01*
X131694670Y-60715000D01*
X131130493Y-60948690D01*
X130750000Y-61329183D01*
X130369507Y-60948690D01*
X129805330Y-60715000D01*
X129194670Y-60715000D01*
X128630493Y-60948690D01*
X128250000Y-61329183D01*
X127869507Y-60948690D01*
X127760000Y-60903331D01*
X127760000Y-60714801D01*
X128314802Y-60160000D01*
X134064493Y-60160000D01*
X134139340Y-60174888D01*
X134214187Y-60160000D01*
X134214192Y-60160000D01*
X134435877Y-60115904D01*
X134687269Y-59947929D01*
X134729671Y-59884470D01*
X135427727Y-59186414D01*
X135615460Y-59374147D01*
X136124506Y-59585000D01*
X136675494Y-59585000D01*
X137184540Y-59374147D01*
X137574147Y-58984540D01*
X137785000Y-58475494D01*
X137785000Y-57924506D01*
X137574147Y-57415460D01*
X137184540Y-57025853D01*
X136675494Y-56815000D01*
X136124506Y-56815000D01*
X135615460Y-57025853D01*
X135225853Y-57415460D01*
X135211306Y-57450578D01*
X135042803Y-57484096D01*
X134791411Y-57652071D01*
X134749011Y-57715527D01*
X133824539Y-58640000D01*
X128074848Y-58640000D01*
X128000000Y-58625112D01*
X127925152Y-58640000D01*
X127925148Y-58640000D01*
X127703463Y-58684096D01*
X127452071Y-58852071D01*
X127409671Y-58915527D01*
X126515530Y-59809669D01*
X126452071Y-59852071D01*
X126284096Y-60103464D01*
X126240000Y-60325149D01*
X126240000Y-60325153D01*
X126225112Y-60400000D01*
X126240000Y-60474847D01*
X126240000Y-60903331D01*
X126130493Y-60948690D01*
X125698690Y-61380493D01*
X125465000Y-61944670D01*
X125465000Y-62515555D01*
X125278507Y-62438307D01*
X124727519Y-62438307D01*
X124218473Y-62649160D01*
X123860000Y-63007633D01*
X123860000Y-56692257D01*
X124325322Y-56885000D01*
X125174678Y-56885000D01*
X125959380Y-56559966D01*
X126559966Y-55959380D01*
X126885000Y-55174678D01*
X126885000Y-54325322D01*
X132115000Y-54325322D01*
X132115000Y-55174678D01*
X132440034Y-55959380D01*
X133040620Y-56559966D01*
X133825322Y-56885000D01*
X134674678Y-56885000D01*
X135459380Y-56559966D01*
X136059966Y-55959380D01*
X136385000Y-55174678D01*
X136385000Y-54325322D01*
X136059966Y-53540620D01*
X136059346Y-53540000D01*
X139985908Y-53540000D01*
X140101161Y-54119418D01*
X140429375Y-54610625D01*
X140727761Y-54810000D01*
X140429375Y-55009375D01*
X140101161Y-55500582D01*
X139985908Y-56080000D01*
X140101161Y-56659418D01*
X140429375Y-57150625D01*
X140748478Y-57363843D01*
X140618642Y-57424817D01*
X140228355Y-57853076D01*
X140058524Y-58263110D01*
X140179845Y-58493000D01*
X141373000Y-58493000D01*
X141373000Y-58473000D01*
X141627000Y-58473000D01*
X141627000Y-58493000D01*
X142820155Y-58493000D01*
X142941476Y-58263110D01*
X142771645Y-57853076D01*
X142381358Y-57424817D01*
X142251522Y-57363843D01*
X142570625Y-57150625D01*
X142898839Y-56659418D01*
X143014092Y-56080000D01*
X143002531Y-56021877D01*
X143540620Y-56559966D01*
X144325322Y-56885000D01*
X145174678Y-56885000D01*
X145959380Y-56559966D01*
X146559966Y-55959380D01*
X146885000Y-55174678D01*
X146885000Y-54325322D01*
X146559966Y-53540620D01*
X145959380Y-52940034D01*
X145174678Y-52615000D01*
X144325322Y-52615000D01*
X143540620Y-52940034D01*
X143001908Y-53478746D01*
X142898839Y-52960582D01*
X142570625Y-52469375D01*
X142251522Y-52256157D01*
X142381358Y-52195183D01*
X142771645Y-51766924D01*
X142941476Y-51356890D01*
X142820155Y-51127000D01*
X141627000Y-51127000D01*
X141627000Y-51147000D01*
X141373000Y-51147000D01*
X141373000Y-51127000D01*
X140179845Y-51127000D01*
X140058524Y-51356890D01*
X140228355Y-51766924D01*
X140618642Y-52195183D01*
X140748478Y-52256157D01*
X140429375Y-52469375D01*
X140101161Y-52960582D01*
X139985908Y-53540000D01*
X136059346Y-53540000D01*
X135459380Y-52940034D01*
X134674678Y-52615000D01*
X133825322Y-52615000D01*
X133040620Y-52940034D01*
X132440034Y-53540620D01*
X132115000Y-54325322D01*
X126885000Y-54325322D01*
X126559966Y-53540620D01*
X125959380Y-52940034D01*
X125174678Y-52615000D01*
X124325322Y-52615000D01*
X123860000Y-52807743D01*
X123860000Y-46060000D01*
X125041719Y-46060000D01*
X125015000Y-46124506D01*
X125015000Y-46675494D01*
X125225853Y-47184540D01*
X125291315Y-47250002D01*
X125225853Y-47315463D01*
X125015000Y-47824509D01*
X125015000Y-48375497D01*
X125225853Y-48884543D01*
X125615460Y-49274150D01*
X126124506Y-49485003D01*
X126675494Y-49485003D01*
X127184540Y-49274150D01*
X127574147Y-48884543D01*
X127672440Y-48647242D01*
X128509673Y-49484476D01*
X128552071Y-49547929D01*
X128615524Y-49590327D01*
X128615526Y-49590329D01*
X128635183Y-49603463D01*
X128803463Y-49715904D01*
X129025148Y-49760000D01*
X129025152Y-49760000D01*
X129099999Y-49774888D01*
X129174846Y-49760000D01*
X131285199Y-49760000D01*
X131909671Y-50384473D01*
X131952071Y-50447929D01*
X132203463Y-50615904D01*
X132425148Y-50660000D01*
X132425152Y-50660000D01*
X132499999Y-50674888D01*
X132574846Y-50660000D01*
X133425153Y-50660000D01*
X133500000Y-50674888D01*
X133574847Y-50660000D01*
X133574852Y-50660000D01*
X133796537Y-50615904D01*
X134047929Y-50447929D01*
X134090331Y-50384470D01*
X135584473Y-48890329D01*
X135647929Y-48847929D01*
X135710121Y-48754852D01*
X135815904Y-48596538D01*
X135835106Y-48500000D01*
X135860000Y-48374852D01*
X135860000Y-48374848D01*
X135874888Y-48300000D01*
X135860000Y-48225152D01*
X135860000Y-47873516D01*
X135930000Y-47887440D01*
X136446374Y-47887440D01*
X136464097Y-47976537D01*
X136568022Y-48132071D01*
X136632072Y-48227929D01*
X136695528Y-48270329D01*
X137225165Y-48799966D01*
X137215000Y-48824506D01*
X137215000Y-49375494D01*
X137425853Y-49884540D01*
X137815460Y-50274147D01*
X138324506Y-50485000D01*
X138875494Y-50485000D01*
X139384540Y-50274147D01*
X139774147Y-49884540D01*
X139985000Y-49375494D01*
X139985000Y-48824506D01*
X139774147Y-48315460D01*
X139384540Y-47925853D01*
X138875494Y-47715000D01*
X138862081Y-47715000D01*
X138887809Y-47697809D01*
X139028157Y-47487765D01*
X139077440Y-47240000D01*
X139077440Y-45240000D01*
X139028157Y-44992235D01*
X139013300Y-44970000D01*
X139028157Y-44947765D01*
X139077440Y-44700000D01*
X139077440Y-42700000D01*
X139028157Y-42452235D01*
X139013300Y-42430000D01*
X139028157Y-42407765D01*
X139077440Y-42160000D01*
X139077440Y-41920000D01*
X139761310Y-41920000D01*
X140115460Y-42274150D01*
X140624506Y-42485003D01*
X141175494Y-42485003D01*
X141684540Y-42274150D01*
X142074147Y-41884543D01*
X142285000Y-41375497D01*
X142285000Y-40824509D01*
X142074147Y-40315463D01*
X142008686Y-40250002D01*
X142074147Y-40184540D01*
X142285000Y-39675494D01*
X142285000Y-39124506D01*
X142258281Y-39060000D01*
X148140000Y-39060000D01*
X148140000Y-41165199D01*
G36*
X132325853Y-80909849D02*
X132456004Y-81040000D01*
X131284312Y-81040000D01*
X131274147Y-81015460D01*
X130918687Y-80660000D01*
X132222363Y-80660000D01*
X132325853Y-80909849D01*
X132325853Y-80909849D01*
G37*
X132325853Y-80909849D02*
X132456004Y-81040000D01*
X131284312Y-81040000D01*
X131274147Y-81015460D01*
X130918687Y-80660000D01*
X132222363Y-80660000D01*
X132325853Y-80909849D01*
G04 #@! TD*
M02*
